<?xml version="1.0" standalone="no"?>
<!DOCTYPE svg PUBLIC "-//W3C//DTD SVG 1.1//EN" "http://www.w3.org/Graphics/SVG/1.1/DTD/svg11.dtd" >
<svg xmlns="http://www.w3.org/2000/svg">
<defs>
  <font id="SkeIconfont" horiz-adv-x="600">
    <font-face font-family="SkeIconfont"
      units-per-em="600" ascent="600"
      descent="0" />
    <missing-glyph horiz-adv-x="0" />
    <glyph glyph-name="AccountChild"
      unicode="&#xEA01;"
      horiz-adv-x="600" d="M300 325A50 50 0 1 1 299.975 225.025A50 50 0 0 1 300 325M300 375C340.75 375 378 366.25 412.5 348.75C446 331 462.5 309.75 462.5 284.75V140.5C462.5 112.4999999999999 441 88.9999999999999 397.25 70.25V125C397.25 148.75 375.75 165.5 332.75 175.75C318.75 179 307.75 180.5000000000001 300 180.5000000000001C278.25 180.5000000000001 257.5 176.25 238.5 167.5000000000001C219.25 159.0000000000001 207.75 148.0000000000001 204 134.7500000000001C237.5 121.5000000000001 269.5 114.7500000000001 300 114.7500000000001L325 117.2500000000001V51.5000000000001L300 50.0000000000002A242 242 0 0 0 202.75 70.2500000000001C159 88.9999999999999 137.5 112.5 137.5 140.5V284.75C137.5 309.75 154 331 187.5 348.75C222 366.25 259.5 375 300 375M300 550A75 75 0 1 0 300 400A75 75 0 0 0 300 550" />
    <glyph glyph-name="AccountChild-1"
      unicode="&#x41;&#x63;&#x63;&#x6F;&#x75;&#x6E;&#x74;&#x43;&#x68;&#x69;&#x6C;&#x64;"
      horiz-adv-x="600" d="M300 325A50 50 0 1 1 299.975 225.025A50 50 0 0 1 300 325M300 375C340.75 375 378 366.25 412.5 348.75C446 331 462.5 309.75 462.5 284.75V140.5C462.5 112.4999999999999 441 88.9999999999999 397.25 70.25V125C397.25 148.75 375.75 165.5 332.75 175.75C318.75 179 307.75 180.5000000000001 300 180.5000000000001C278.25 180.5000000000001 257.5 176.25 238.5 167.5000000000001C219.25 159.0000000000001 207.75 148.0000000000001 204 134.7500000000001C237.5 121.5000000000001 269.5 114.7500000000001 300 114.7500000000001L325 117.2500000000001V51.5000000000001L300 50.0000000000002A242 242 0 0 0 202.75 70.2500000000001C159 88.9999999999999 137.5 112.5 137.5 140.5V284.75C137.5 309.75 154 331 187.5 348.75C222 366.25 259.5 375 300 375M300 550A75 75 0 1 0 300 400A75 75 0 0 0 300 550" />
    <glyph glyph-name="AccountEnk"
      unicode="&#xEA02;"
      horiz-adv-x="600" d="M450 275C465.0000000000001 275 475 265 475 252.5V230H525C540 230 550 220 550 207.5V102.4999999999999C550 89.9999999999999 540 80 525 80H325C310 80 300 89.9999999999999 300 102.4999999999999V207.5C300 220 310 230 325 230H375V252.5C375 265 385 275 400 275H450zM250 275C265 275 277.5 275 290 272.5C287.5 267.5 232.5000000000001 240 247.5 125H50V175C50 230 140 275 250 275zM450 250H400V227.525H450V250zM250 525C305 525 350 480 350 425S305 325 250 325S150 370 150 425S195 525 250 525z" />
    <glyph glyph-name="AccountEnk-1"
      unicode="&#x41;&#x63;&#x63;&#x6F;&#x75;&#x6E;&#x74;&#x45;&#x6E;&#x6B;"
      horiz-adv-x="600" d="M450 275C465.0000000000001 275 475 265 475 252.5V230H525C540 230 550 220 550 207.5V102.4999999999999C550 89.9999999999999 540 80 525 80H325C310 80 300 89.9999999999999 300 102.4999999999999V207.5C300 220 310 230 325 230H375V252.5C375 265 385 275 400 275H450zM250 275C265 275 277.5 275 290 272.5C287.5 267.5 232.5000000000001 240 247.5 125H50V175C50 230 140 275 250 275zM450 250H400V227.525H450V250zM250 525C305 525 350 480 350 425S305 325 250 325S150 370 150 425S195 525 250 525z" />
    <glyph glyph-name="AccountMultiple"
      unicode="&#xEA03;"
      horiz-adv-x="600" d="M398.5 250C541.875 241.25 549.575 159.5 550 150.75V100H450V150A133.025 133.025 0 0 1 398.5 250zM225 250C391.25 250 399.55 159.75 400 150.725V100H50V150.725C50.475 159.75 58.75 250 225 250zM375 475A87.5 87.5 0 0 0 375 300A84.775 84.775 0 0 0 326.75 314.75A125.025 125.025 0 0 1 326.75 460.25A84.775 84.775 0 0 0 375 475zM225 475A87.5 87.5 0 1 0 225 300A87.5 87.5 0 0 0 225 475z" />
    <glyph glyph-name="AccountMultiple-1"
      unicode="&#x41;&#x63;&#x63;&#x6F;&#x75;&#x6E;&#x74;&#x4D;&#x75;&#x6C;&#x74;&#x69;&#x70;&#x6C;&#x65;"
      horiz-adv-x="600" d="M398.5 250C541.875 241.25 549.575 159.5 550 150.75V100H450V150A133.025 133.025 0 0 1 398.5 250zM225 250C391.25 250 399.55 159.75 400 150.725V100H50V150.725C50.475 159.75 58.75 250 225 250zM375 475A87.5 87.5 0 0 0 375 300A84.775 84.775 0 0 0 326.75 314.75A125.025 125.025 0 0 1 326.75 460.25A84.775 84.775 0 0 0 375 475zM225 475A87.5 87.5 0 1 0 225 300A87.5 87.5 0 0 0 225 475z" />
    <glyph glyph-name="Add"
      unicode="&#xEA04;"
      horiz-adv-x="600" d="M475 275H325V125H275V275H125V325H275V475H325V325H475z" />
    <glyph glyph-name="Add-1"
      unicode="&#x41;&#x64;&#x64;"
      horiz-adv-x="600" d="M475 275H325V125H275V275H125V325H275V475H325V325H475z" />
    <glyph glyph-name="AddOutline"
      unicode="&#xEA05;"
      horiz-adv-x="600" d="M300 100C189.75 100 100 189.75 100 300S189.75 500 300 500S500 410.25 500 300S410.25 100 300 100zM300 550C161.925 550 50 438.075 50 300A250 250 0 1 1 300 550zM325 425H275V325H175V275H275V175H325V275H425V325H325V425z" />
    <glyph glyph-name="AddOutline-1"
      unicode="&#x41;&#x64;&#x64;&#x4F;&#x75;&#x74;&#x6C;&#x69;&#x6E;&#x65;"
      horiz-adv-x="600" d="M300 100C189.75 100 100 189.75 100 300S189.75 500 300 500S500 410.25 500 300S410.25 100 300 100zM300 550C161.925 550 50 438.075 50 300A250 250 0 1 1 300 550zM325 425H275V325H175V275H275V175H325V275H425V325H325V425z" />
    <glyph glyph-name="ArrowBack"
      unicode="&#xEA06;"
      horiz-adv-x="600" d="M556.25 330V285H136.25L266.25 157.5L231.25 125L43.75 307.5L236.25 490L271.25 457.5L141.25 330z" />
    <glyph glyph-name="ArrowBack-1"
      unicode="&#x41;&#x72;&#x72;&#x6F;&#x77;&#x42;&#x61;&#x63;&#x6B;"
      horiz-adv-x="600" d="M556.25 330V285H136.25L266.25 157.5L231.25 125L43.75 307.5L236.25 490L271.25 457.5L141.25 330z" />
    <glyph glyph-name="ArrowDown"
      unicode="&#xEA07;"
      horiz-adv-x="600" d="M277.5 562.5H322.5V142.5L450 272.5L482.5 237.5L300 50L117.5 240L150 275L277.5 145z" />
    <glyph glyph-name="ArrowDown-1"
      unicode="&#x41;&#x72;&#x72;&#x6F;&#x77;&#x44;&#x6F;&#x77;&#x6E;"
      horiz-adv-x="600" d="M277.5 562.5H322.5V142.5L450 272.5L482.5 237.5L300 50L117.5 240L150 275L277.5 145z" />
    <glyph glyph-name="ArrowForward"
      unicode="&#xEA08;"
      horiz-adv-x="600" d="M43.7499999999999 285V330H463.75L333.75 457.5L368.75 490L556.25 307.5L363.7500000000001 125L328.7500000000001 157.5L458.7500000000001 285z" />
    <glyph glyph-name="ArrowForward-1"
      unicode="&#x41;&#x72;&#x72;&#x6F;&#x77;&#x46;&#x6F;&#x72;&#x77;&#x61;&#x72;&#x64;"
      horiz-adv-x="600" d="M43.7499999999999 285V330H463.75L333.75 457.5L368.75 490L556.25 307.5L363.7500000000001 125L328.7500000000001 157.5L458.7500000000001 285z" />
    <glyph glyph-name="ArrowUp"
      unicode="&#xEA09;"
      horiz-adv-x="600" d="M322.5 50H277.5V470L150 340L117.5 375L300 562.5L482.5 372.5L450 337.5L322.5 467.5z" />
    <glyph glyph-name="ArrowUp-1"
      unicode="&#x41;&#x72;&#x72;&#x6F;&#x77;&#x55;&#x70;"
      horiz-adv-x="600" d="M322.5 50H277.5V470L150 340L117.5 375L300 562.5L482.5 372.5L450 337.5L322.5 467.5z" />
    <glyph glyph-name="ArrowUpDown"
      unicode="&#xEA0A;"
      horiz-adv-x="600" d="M175 552.5L315 407.5L287.5 377.5L197.5 472.5V47.5H152.5V472.5000000000001L65 377.5L35 410L175 552.5zM447.5 552.5V127.5000000000001L535 222.5000000000001L565 190.0000000000001L425 47.5L285 192.5000000000001L312.5 222.5000000000001L402.5000000000001 127.5000000000001V552.5H447.5000000000001z" />
    <glyph glyph-name="ArrowUpDown-1"
      unicode="&#x41;&#x72;&#x72;&#x6F;&#x77;&#x55;&#x70;&#x44;&#x6F;&#x77;&#x6E;"
      horiz-adv-x="600" d="M175 552.5L315 407.5L287.5 377.5L197.5 472.5V47.5H152.5V472.5000000000001L65 377.5L35 410L175 552.5zM447.5 552.5V127.5000000000001L535 222.5000000000001L565 190.0000000000001L425 47.5L285 192.5000000000001L312.5 222.5000000000001L402.5000000000001 127.5000000000001V552.5H447.5000000000001z" />
    <glyph glyph-name="AttachFile"
      unicode="&#xEA0B;"
      horiz-adv-x="600" d="M400 450V162.5A100 100 0 1 0 200 162.5V475A62.5 62.5 0 0 0 325 475V212.5A25 25 0 1 0 275 212.5V450H237.5V212.5A62.5 62.5 0 1 1 362.5 212.5V475A100 100 0 0 1 162.5 475V162.5A137.5 137.5 0 1 1 437.5 162.5V450H400z" />
    <glyph glyph-name="AttachFile-1"
      unicode="&#x41;&#x74;&#x74;&#x61;&#x63;&#x68;&#x46;&#x69;&#x6C;&#x65;"
      horiz-adv-x="600" d="M400 450V162.5A100 100 0 1 0 200 162.5V475A62.5 62.5 0 0 0 325 475V212.5A25 25 0 1 0 275 212.5V450H237.5V212.5A62.5 62.5 0 1 1 362.5 212.5V475A100 100 0 0 1 162.5 475V162.5A137.5 137.5 0 1 1 437.5 162.5V450H400z" />
    <glyph glyph-name="Avgift"
      unicode="&#xEA0C;"
      horiz-adv-x="600" d="M193.9548961929462 347.625C203.5548961929461 347.625 211.7298961929462 351 218.5048961929462 357.775C225.2548961929462 364.525 228.6548961929462 372.725 228.6548961929462 382.325C228.6548961929462 391.9 225.2798961929462 400.075 218.5048961929462 406.85A33.425 33.425 0 0 1 193.9548961929462 417C184.3548961929462 417 176.1798961929461 413.625 169.4048961929462 406.85C162.6548961929462 400.1 159.2798961929462 391.9 159.2798961929462 382.325C159.2798961929462 372.725 162.6548961929461 364.525 169.4048961929462 357.775C176.1798961929461 351.025 184.3548961929462 347.625 193.9548961929462 347.625zM275.1298961929462 382.325C275.1298961929462 359.925 267.2298961929461 340.8 251.4548961929462 324.925A78.075 78.075 0 0 0 193.9548961929462 301.175A78.2 78.2 0 0 0 136.5798961929462 324.925A78.2 78.2 0 0 0 112.8048961929462 382.325C112.8048961929462 404.7 120.7298961929462 423.825 136.5798961929462 439.7A78.2 78.2 0 0 0 193.9548961929462 463.45C216.3548961929462 463.45 235.4798961929462 455.55 251.3298961929462 439.7C267.2048961929462 423.85 275.1298961929462 404.7 275.1298961929462 382.325zM440.7048961929462 223.475C440.7048961929462 233.075 437.3298961929461 241.275 430.5798961929461 248.025A33.425 33.425 0 0 1 406.0298961929462 258.175C396.4298961929461 258.175 388.2298961929462 254.8 381.4798961929462 248.025C374.7298961929462 241.275 371.3298961929462 233.075 371.3298961929462 223.475S374.7048961929462 205.725 381.4798961929462 198.9499999999999C388.2298961929462 192.175 396.4298961929462 188.8 406.0298961929462 188.8S423.8048961929461 192.175 430.5798961929461 198.9499999999999C437.3298961929461 205.6999999999999 440.7048961929462 213.875 440.7048961929462 223.475zM487.2048961929462 223.475C487.2048961929462 201.075 479.2548961929461 181.975 463.4048961929461 166.1C447.5548961929461 150.25 428.4048961929462 142.3249999999999 406.029896192946 142.3249999999999A78.2 78.2 0 0 0 348.654896192946 166.1A78.2 78.2 0 0 0 324.8548961929461 223.475C324.8548961929461 246.0249999999999 332.779896192946 265.2 348.654896192946 280.9749999999999A78.375 78.375 0 0 0 406.029896192946 304.6499999999999C428.4298961929461 304.6499999999999 447.529896192946 296.7249999999999 463.4048961929461 280.8749999999999C479.2548961929461 264.9999999999999 487.1798961929461 245.8749999999999 487.1798961929461 223.4749999999999zM371.3048961929461 465H404.4798961929461L228.2048961929462 140.35H194.4048961929462L371.3298961929462 465z" />
    <glyph glyph-name="Avgift-1"
      unicode="&#x41;&#x76;&#x67;&#x69;&#x66;&#x74;"
      horiz-adv-x="600" d="M193.9548961929462 347.625C203.5548961929461 347.625 211.7298961929462 351 218.5048961929462 357.775C225.2548961929462 364.525 228.6548961929462 372.725 228.6548961929462 382.325C228.6548961929462 391.9 225.2798961929462 400.075 218.5048961929462 406.85A33.425 33.425 0 0 1 193.9548961929462 417C184.3548961929462 417 176.1798961929461 413.625 169.4048961929462 406.85C162.6548961929462 400.1 159.2798961929462 391.9 159.2798961929462 382.325C159.2798961929462 372.725 162.6548961929461 364.525 169.4048961929462 357.775C176.1798961929461 351.025 184.3548961929462 347.625 193.9548961929462 347.625zM275.1298961929462 382.325C275.1298961929462 359.925 267.2298961929461 340.8 251.4548961929462 324.925A78.075 78.075 0 0 0 193.9548961929462 301.175A78.2 78.2 0 0 0 136.5798961929462 324.925A78.2 78.2 0 0 0 112.8048961929462 382.325C112.8048961929462 404.7 120.7298961929462 423.825 136.5798961929462 439.7A78.2 78.2 0 0 0 193.9548961929462 463.45C216.3548961929462 463.45 235.4798961929462 455.55 251.3298961929462 439.7C267.2048961929462 423.85 275.1298961929462 404.7 275.1298961929462 382.325zM440.7048961929462 223.475C440.7048961929462 233.075 437.3298961929461 241.275 430.5798961929461 248.025A33.425 33.425 0 0 1 406.0298961929462 258.175C396.4298961929461 258.175 388.2298961929462 254.8 381.4798961929462 248.025C374.7298961929462 241.275 371.3298961929462 233.075 371.3298961929462 223.475S374.7048961929462 205.725 381.4798961929462 198.9499999999999C388.2298961929462 192.175 396.4298961929462 188.8 406.0298961929462 188.8S423.8048961929461 192.175 430.5798961929461 198.9499999999999C437.3298961929461 205.6999999999999 440.7048961929462 213.875 440.7048961929462 223.475zM487.2048961929462 223.475C487.2048961929462 201.075 479.2548961929461 181.975 463.4048961929461 166.1C447.5548961929461 150.25 428.4048961929462 142.3249999999999 406.029896192946 142.3249999999999A78.2 78.2 0 0 0 348.654896192946 166.1A78.2 78.2 0 0 0 324.8548961929461 223.475C324.8548961929461 246.0249999999999 332.779896192946 265.2 348.654896192946 280.9749999999999A78.375 78.375 0 0 0 406.029896192946 304.6499999999999C428.4298961929461 304.6499999999999 447.529896192946 296.7249999999999 463.4048961929461 280.8749999999999C479.2548961929461 264.9999999999999 487.1798961929461 245.8749999999999 487.1798961929461 223.4749999999999zM371.3048961929461 465H404.4798961929461L228.2048961929462 140.35H194.4048961929462L371.3298961929462 465z" />
    <glyph glyph-name="AvgiftBedrift"
      unicode="&#xEA0D;"
      horiz-adv-x="600" d="M148.75 520.625V298.75L261.875 392.5C266.25 396.25 272.5 393.125 272.5 387.5V298.75L385.625 392.5C390 396.25 396.25 393.125 396.25 387.5V298.75H397.5000000000001L510.6249999999999 392.5C515 395.625 521.25 393.125 521.25 387.5V78.125H78.75V520.625H148.75zM354.375 201.875C329.375 201.875 311.25 183.125 311.25 155S330 108.125 354.375 108.125C379.375 108.125 397.5 126.875 397.5 155C397.5 183.75 380 201.875 354.375 201.875zM353.75 272.5H331.875L245.6250000000001 111.8750000000001H267.5L353.75 272.5000000000001zM354.375 182.5C363.75 182.5 368.75 170.6249999999999 368.75 155.625C368.75 140 364.375 128.75 354.375 128.75C343.75 128.75 340 140 340 155.625S344.375 182.5 354.375 182.5zM246.25 276.25C221.25 276.25 203.125 258.125 203.125 229.375S221.25 182.5 246.25 182.5S289.375 201.25 289.375 229.375S271.875 276.25 246.25 276.25zM245.625 256.875C255.625 256.875 260 245 260 229.375C260 213.125 255.625 202.5 245.625 203.1249999999999C235.625 203.1249999999999 231.25 213.75 231.25 229.375C231.25 245.625 235.625 256.875 245.625 256.875z" />
    <glyph glyph-name="AvgiftBedrift-1"
      unicode="&#x41;&#x76;&#x67;&#x69;&#x66;&#x74;&#x42;&#x65;&#x64;&#x72;&#x69;&#x66;&#x74;"
      horiz-adv-x="600" d="M148.75 520.625V298.75L261.875 392.5C266.25 396.25 272.5 393.125 272.5 387.5V298.75L385.625 392.5C390 396.25 396.25 393.125 396.25 387.5V298.75H397.5000000000001L510.6249999999999 392.5C515 395.625 521.25 393.125 521.25 387.5V78.125H78.75V520.625H148.75zM354.375 201.875C329.375 201.875 311.25 183.125 311.25 155S330 108.125 354.375 108.125C379.375 108.125 397.5 126.875 397.5 155C397.5 183.75 380 201.875 354.375 201.875zM353.75 272.5H331.875L245.6250000000001 111.8750000000001H267.5L353.75 272.5000000000001zM354.375 182.5C363.75 182.5 368.75 170.6249999999999 368.75 155.625C368.75 140 364.375 128.75 354.375 128.75C343.75 128.75 340 140 340 155.625S344.375 182.5 354.375 182.5zM246.25 276.25C221.25 276.25 203.125 258.125 203.125 229.375S221.25 182.5 246.25 182.5S289.375 201.25 289.375 229.375S271.875 276.25 246.25 276.25zM245.625 256.875C255.625 256.875 260 245 260 229.375C260 213.125 255.625 202.5 245.625 203.1249999999999C235.625 203.1249999999999 231.25 213.75 231.25 229.375C231.25 245.625 235.625 256.875 245.625 256.875z" />
    <glyph glyph-name="Bell"
      unicode="&#xEA0E;"
      horiz-adv-x="600" d="M525 125V100H75V125L125 175V325C125 402.5 175.75 470.75 250 492.75V500A50 50 0 1 0 350 500V492.75C424.25 470.75 475 402.5 475 325V175L525 125M350 75A50 50 0 1 0 250 75" />
    <glyph glyph-name="Bell-1"
      unicode="&#x42;&#x65;&#x6C;&#x6C;"
      horiz-adv-x="600" d="M525 125V100H75V125L125 175V325C125 402.5 175.75 470.75 250 492.75V500A50 50 0 1 0 350 500V492.75C424.25 470.75 475 402.5 475 325V175L525 125M350 75A50 50 0 1 0 250 75" />
    <glyph glyph-name="Blocked"
      unicode="&#xEA0F;"
      horiz-adv-x="600" d="M300 550A250 250 0 0 0 550 300C550 161.925 438.075 50 300 50A250 250 0 1 0 300 550zM300 500A200 200 0 0 1 100 300C100 253.75 115.75 211.25 142 177.25L422.75 458A200.125 200.125 0 0 1 300 500zM300 100A200 200 0 0 1 500 300C500 346.25 484.25 388.75 458 422.75L177.25 142A200.125 200.125 0 0 1 300 100z" />
    <glyph glyph-name="Blocked-1"
      unicode="&#x42;&#x6C;&#x6F;&#x63;&#x6B;&#x65;&#x64;"
      horiz-adv-x="600" d="M300 550A250 250 0 0 0 550 300C550 161.925 438.075 50 300 50A250 250 0 1 0 300 550zM300 500A200 200 0 0 1 100 300C100 253.75 115.75 211.25 142 177.25L422.75 458A200.125 200.125 0 0 1 300 500zM300 100A200 200 0 0 1 500 300C500 346.25 484.25 388.75 458 422.75L177.25 142A200.125 200.125 0 0 1 300 100z" />
    <glyph glyph-name="BookOpen"
      unicode="&#xEA10;"
      horiz-adv-x="600" d="M475 550L350 437.5V162.5L475 275V550zM162.5 475C113.75 475 61.25 465 25 437.5V71C25 64.75 31.25 58.5 37.5 58.5C40 58.5 41.25 60.25 43.75 60.25C77.5 76.5 126.25 87.5 162.5 87.5C211.25 87.5 263.75 77.5 300 50C333.75 71.25 395 87.5 437.5 87.5C478.7499999999999 87.5 521.25 79.75 556.25 61C558.75 59.75 560 60.25 562.5 60.25C568.75 60.25 575 66.5 575 72.75V437.5C560 448.75 543.75 456.25 525 462.5V125C497.4999999999999 133.7500000000001 467.5 137.5 437.5 137.5C395 137.5 333.75 121.2500000000001 300 100V437.5C263.75 465 211.25 475 162.5 475z" />
    <glyph glyph-name="BookOpen-1"
      unicode="&#x42;&#x6F;&#x6F;&#x6B;&#x4F;&#x70;&#x65;&#x6E;"
      horiz-adv-x="600" d="M475 550L350 437.5V162.5L475 275V550zM162.5 475C113.75 475 61.25 465 25 437.5V71C25 64.75 31.25 58.5 37.5 58.5C40 58.5 41.25 60.25 43.75 60.25C77.5 76.5 126.25 87.5 162.5 87.5C211.25 87.5 263.75 77.5 300 50C333.75 71.25 395 87.5 437.5 87.5C478.7499999999999 87.5 521.25 79.75 556.25 61C558.75 59.75 560 60.25 562.5 60.25C568.75 60.25 575 66.5 575 72.75V437.5C560 448.75 543.75 456.25 525 462.5V125C497.4999999999999 133.7500000000001 467.5 137.5 437.5 137.5C395 137.5 333.75 121.2500000000001 300 100V437.5C263.75 465 211.25 475 162.5 475z" />
    <glyph glyph-name="BookOpenOutline"
      unicode="&#xEA11;"
      horiz-adv-x="600" d="M525 500H75A50 50 0 0 1 25 450V125A50 50 0 0 1 75 75H525A50 50 0 0 1 575 125V450A50 50 0 0 1 525 500zM75 125V450H275V125H75zM525 125H325V450H525V125zM350 362.5H500V325H350V362.5zM350 300H500V262.5H350V300zM350 237.5H500V200H350V237.5z" />
    <glyph glyph-name="BookOpenOutline-1"
      unicode="&#x42;&#x6F;&#x6F;&#x6B;&#x4F;&#x70;&#x65;&#x6E;&#x4F;&#x75;&#x74;&#x6C;&#x69;&#x6E;&#x65;"
      horiz-adv-x="600" d="M525 500H75A50 50 0 0 1 25 450V125A50 50 0 0 1 75 75H525A50 50 0 0 1 575 125V450A50 50 0 0 1 525 500zM75 125V450H275V125H75zM525 125H325V450H525V125zM350 362.5H500V325H350V362.5zM350 300H500V262.5H350V300zM350 237.5H500V200H350V237.5z" />
    <glyph glyph-name="Bookmark"
      unicode="&#xEA12;"
      horiz-adv-x="600" d="M425 525H175A50 50 0 0 1 125 475V75L300 150L475 75V475A50 50 0 0 1 425 525z" />
    <glyph glyph-name="Bookmark-1"
      unicode="&#x42;&#x6F;&#x6F;&#x6B;&#x6D;&#x61;&#x72;&#x6B;"
      horiz-adv-x="600" d="M425 525H175A50 50 0 0 1 125 475V75L300 150L475 75V475A50 50 0 0 1 425 525z" />
    <glyph glyph-name="Briefcase"
      unicode="&#xEA13;"
      horiz-adv-x="600" d="M250 550H350A50 50 0 0 0 400 500V450H500A50 50 0 0 0 550 400V125A50 50 0 0 0 500 75H100A50 50 0 0 0 50 125V400C50 427.75 72.25 450 100 450H200V500C200 527.75 222.25 550 250 550zM350 450V500H250V450H350z" />
    <glyph glyph-name="Briefcase-1"
      unicode="&#x42;&#x72;&#x69;&#x65;&#x66;&#x63;&#x61;&#x73;&#x65;"
      horiz-adv-x="600" d="M250 550H350A50 50 0 0 0 400 500V450H500A50 50 0 0 0 550 400V125A50 50 0 0 0 500 75H100A50 50 0 0 0 50 125V400C50 427.75 72.25 450 100 450H200V500C200 527.75 222.25 550 250 550zM350 450V500H250V450H350z" />
    <glyph glyph-name="Calculator"
      unicode="&#xEA14;"
      horiz-adv-x="600" d="M175 550H425A50 50 0 0 0 475 500V100A50 50 0 0 0 425 50H175A50 50 0 0 0 125 100V500A50 50 0 0 0 175 550zM175 500V400H425V500H175zM175 350V300H225V350H175zM275 350V300H325V350H275zM375 350V300H425V350H375zM175 250V200H225V250H175zM275 250V200H325V250H275zM375 250V200H425V250H375zM175 150V100H225V150H175zM275 150V100H325V150H275zM375 150V100H425V150H375z" />
    <glyph glyph-name="Calculator-1"
      unicode="&#x43;&#x61;&#x6C;&#x63;&#x75;&#x6C;&#x61;&#x74;&#x6F;&#x72;"
      horiz-adv-x="600" d="M175 550H425A50 50 0 0 0 475 500V100A50 50 0 0 0 425 50H175A50 50 0 0 0 125 100V500A50 50 0 0 0 175 550zM175 500V400H425V500H175zM175 350V300H225V350H175zM275 350V300H325V350H275zM375 350V300H425V350H375zM175 250V200H225V250H175zM275 250V200H325V250H275zM375 250V200H425V250H375zM175 150V100H225V150H175zM275 150V100H325V150H275zM375 150V100H425V150H375z" />
    <glyph glyph-name="Calendar"
      unicode="&#xEA15;"
      horiz-adv-x="600" d="M475 125H125V400H475V125zM400 575V525H200V575H150V525H125C97.25 525 75 502.75 75 475V125A50 50 0 0 1 125 75H475A50 50 0 0 1 525 125V475A50 50 0 0 1 475 525H450V575H400zM425 300H300V175H425V300z" />
    <glyph glyph-name="Calendar-1"
      unicode="&#x43;&#x61;&#x6C;&#x65;&#x6E;&#x64;&#x61;&#x72;"
      horiz-adv-x="600" d="M475 125H125V400H475V125zM400 575V525H200V575H150V525H125C97.25 525 75 502.75 75 475V125A50 50 0 0 1 125 75H475A50 50 0 0 1 525 125V475A50 50 0 0 1 475 525H450V575H400zM425 300H300V175H425V300z" />
    <glyph glyph-name="CalendarClock"
      unicode="&#xEA16;"
      horiz-adv-x="600" d="M350 275H387.5V204.5L448.5000000000001 169.25L429.7500000000001 136.75L350 182.75V275zM450 400H100V125H216.75C206 147.75 200 173.25 200 200A175 175 0 0 0 375 375C401.75 375 427.25 369 450 358.25V400zM100 75A50 50 0 0 0 50 125V475C50 502.75 72.25 525 100 525H125V575H175V525H375V575H425V525H450A50 50 0 0 0 500 475V322.5C531 291 550 247.75 550 200A175 175 0 0 0 375 25C327.25 25 284 44 252.5 75H100zM375 321.25A121.25 121.25 0 1 1 375 78.75A121.25 121.25 0 0 1 375 321.25z" />
    <glyph glyph-name="CalendarClock-1"
      unicode="&#x43;&#x61;&#x6C;&#x65;&#x6E;&#x64;&#x61;&#x72;&#x43;&#x6C;&#x6F;&#x63;&#x6B;"
      horiz-adv-x="600" d="M350 275H387.5V204.5L448.5000000000001 169.25L429.7500000000001 136.75L350 182.75V275zM450 400H100V125H216.75C206 147.75 200 173.25 200 200A175 175 0 0 0 375 375C401.75 375 427.25 369 450 358.25V400zM100 75A50 50 0 0 0 50 125V475C50 502.75 72.25 525 100 525H125V575H175V525H375V575H425V525H450A50 50 0 0 0 500 475V322.5C531 291 550 247.75 550 200A175 175 0 0 0 375 25C327.25 25 284 44 252.5 75H100zM375 321.25A121.25 121.25 0 1 1 375 78.75A121.25 121.25 0 0 1 375 321.25z" />
    <glyph glyph-name="Cancel"
      unicode="&#xEA17;"
      horiz-adv-x="600" d="M475 439.75L439.75 475L300 335.25L160.25 475L125 439.75L264.75 300L125 160.25L160.25 125L300 264.75L439.75 125L475 160.25L335.25 300z" />
    <glyph glyph-name="Cancel-1"
      unicode="&#x43;&#x61;&#x6E;&#x63;&#x65;&#x6C;"
      horiz-adv-x="600" d="M475 439.75L439.75 475L300 335.25L160.25 475L125 439.75L264.75 300L125 160.25L160.25 125L300 264.75L439.75 125L475 160.25L335.25 300z" />
    <glyph glyph-name="CashRefund"
      unicode="&#xEA18;"
      horiz-adv-x="600" d="M75 325H525V25H75V325zM300 225A50 50 0 1 0 300 125A50 50 0 0 0 300 225zM175 275A50 50 0 0 0 125 225V125A50 50 0 0 0 175 75H425A50 50 0 0 0 475 125V225A50 50 0 0 0 425 275H175zM425 475V350H387.5V437.5H247.0000000000001L307.5 376.75L281 350L175 456.25L281 562.5L307.5 535.75L247.0000000000001 475H425z" />
    <glyph glyph-name="CashRefund-1"
      unicode="&#x43;&#x61;&#x73;&#x68;&#x52;&#x65;&#x66;&#x75;&#x6E;&#x64;"
      horiz-adv-x="600" d="M75 325H525V25H75V325zM300 225A50 50 0 1 0 300 125A50 50 0 0 0 300 225zM175 275A50 50 0 0 0 125 225V125A50 50 0 0 0 175 75H425A50 50 0 0 0 475 125V225A50 50 0 0 0 425 275H175zM425 475V350H387.5V437.5H247.0000000000001L307.5 376.75L281 350L175 456.25L281 562.5L307.5 535.75L247.0000000000001 475H425z" />
    <glyph glyph-name="ChatBubbleOutline"
      unicode="&#xEA19;"
      horiz-adv-x="600" d="M225 50A25 25 0 0 0 200 75V150H100A50 50 0 0 0 50 200V500A50 50 0 0 0 100 550H500A50 50 0 0 0 550 500V200A50 50 0 0 0 500 150H347.5L255 57.25C250 52.5 243.75 50 237.5 50H225zM250 200V123.0000000000001L327 200H500V500H100V200H250z" />
    <glyph glyph-name="ChatBubbleOutline-1"
      unicode="&#x43;&#x68;&#x61;&#x74;&#x42;&#x75;&#x62;&#x62;&#x6C;&#x65;&#x4F;&#x75;&#x74;&#x6C;&#x69;&#x6E;&#x65;"
      horiz-adv-x="600" d="M225 50A25 25 0 0 0 200 75V150H100A50 50 0 0 0 50 200V500A50 50 0 0 0 100 550H500A50 50 0 0 0 550 500V200A50 50 0 0 0 500 150H347.5L255 57.25C250 52.5 243.75 50 237.5 50H225zM250 200V123.0000000000001L327 200H500V500H100V200H250z" />
    <glyph glyph-name="Chatbot"
      unicode="&#xEA1A;"
      horiz-adv-x="600" d="M451.7375 418.475C466.6625000000001 418.475 478.4625 405.375 477.4375 389.95L455.6375 99.3750000000001C454.5875 85.625 443.5375 75 430.1125 75H169.9875000000001C156.5625000000001 75 145.3375000000001 85.65 144.2875000000001 99.3750000000001L122.6625 389.9500000000001C121.4625 405.375 133.2625000000001 418.4500000000001 148.1625000000001 418.4500000000001zM353.3625 177.475H239.2625000000001A5.325 5.325 0 0 1 235.4375000000001 168.35L270.9375000000001 132.925C284.9375000000001 119.025 307.6875000000001 119.025 321.6875 132.925L357.1625 168.35A5.325 5.325 0 0 1 353.3625000000001 177.5000000000001zM524.3625 305.9000000000001C538.5124999999999 305.9000000000001 549.9875 294.4 549.9875 280.25V225.5000000000001C549.9875 212.3250000000001 539.9875 201.4250000000001 527.1624999999999 200.05L524.3625 199.9A25.65 25.65 0 0 0 498.7125 225.5250000000001V280.25C498.7125 294.425 510.2125 305.9000000000001 524.3625 305.9000000000001zM75.6374999999999 305.9000000000001C89.7874999999999 305.9000000000001 101.2874999999999 294.4 101.2874999999999 280.25V225.5000000000001C101.2874999999999 212.3250000000001 91.2874999999999 201.4250000000001 78.4374999999999 200.05L75.6374999999999 199.9A25.625 25.625 0 0 0 50.0125 225.5V280.25C50.0125 294.425 61.4875000000001 305.9000000000001 75.6375000000001 305.9000000000001zM415.7374999999999 302.125H378.2374999999999V214.625H415.7374999999999V302.125zM221.8624999999999 302.125H184.3624999999999V214.625H221.8624999999999V302.125zM300.0125000000001 525C317.7125000000001 525 332.0625000000001 510.15 332.0625000000001 491.875C332.0625000000001 473.575 317.7125000000001 458.75 300.0125000000001 458.75C282.3125000000001 458.75 267.9625000000001 473.575 267.9625000000001 491.875C267.9625000000001 510.15 282.3125000000001 525 300.0125000000001 525z" />
    <glyph glyph-name="Chatbot-1"
      unicode="&#x43;&#x68;&#x61;&#x74;&#x62;&#x6F;&#x74;"
      horiz-adv-x="600" d="M451.7375 418.475C466.6625000000001 418.475 478.4625 405.375 477.4375 389.95L455.6375 99.3750000000001C454.5875 85.625 443.5375 75 430.1125 75H169.9875000000001C156.5625000000001 75 145.3375000000001 85.65 144.2875000000001 99.3750000000001L122.6625 389.9500000000001C121.4625 405.375 133.2625000000001 418.4500000000001 148.1625000000001 418.4500000000001zM353.3625 177.475H239.2625000000001A5.325 5.325 0 0 1 235.4375000000001 168.35L270.9375000000001 132.925C284.9375000000001 119.025 307.6875000000001 119.025 321.6875 132.925L357.1625 168.35A5.325 5.325 0 0 1 353.3625000000001 177.5000000000001zM524.3625 305.9000000000001C538.5124999999999 305.9000000000001 549.9875 294.4 549.9875 280.25V225.5000000000001C549.9875 212.3250000000001 539.9875 201.4250000000001 527.1624999999999 200.05L524.3625 199.9A25.65 25.65 0 0 0 498.7125 225.5250000000001V280.25C498.7125 294.425 510.2125 305.9000000000001 524.3625 305.9000000000001zM75.6374999999999 305.9000000000001C89.7874999999999 305.9000000000001 101.2874999999999 294.4 101.2874999999999 280.25V225.5000000000001C101.2874999999999 212.3250000000001 91.2874999999999 201.4250000000001 78.4374999999999 200.05L75.6374999999999 199.9A25.625 25.625 0 0 0 50.0125 225.5V280.25C50.0125 294.425 61.4875000000001 305.9000000000001 75.6375000000001 305.9000000000001zM415.7374999999999 302.125H378.2374999999999V214.625H415.7374999999999V302.125zM221.8624999999999 302.125H184.3624999999999V214.625H221.8624999999999V302.125zM300.0125000000001 525C317.7125000000001 525 332.0625000000001 510.15 332.0625000000001 491.875C332.0625000000001 473.575 317.7125000000001 458.75 300.0125000000001 458.75C282.3125000000001 458.75 267.9625000000001 473.575 267.9625000000001 491.875C267.9625000000001 510.15 282.3125000000001 525 300.0125000000001 525z" />
    <glyph glyph-name="Check"
      unicode="&#xEA1B;"
      horiz-adv-x="600" d="M518.75 425L218.75 125L81.25 262.5L116.5 297.75L218.75 195.75L483.5 460.25z" />
    <glyph glyph-name="Check-1"
      unicode="&#x43;&#x68;&#x65;&#x63;&#x6B;"
      horiz-adv-x="600" d="M518.75 425L218.75 125L81.25 262.5L116.5 297.75L218.75 195.75L483.5 460.25z" />
    <glyph glyph-name="ChevronDown"
      unicode="&#xEA1C;"
      horiz-adv-x="600" d="M452.5 425.5000000000001L300.0000000000001 273.0000000000001L147.5000000000001 425.5L100 378.0000000000001L300 178.0000000000001L500 378.0000000000002L452.5 425.5000000000001z" />
    <glyph glyph-name="ChevronDown-1"
      unicode="&#x43;&#x68;&#x65;&#x76;&#x72;&#x6F;&#x6E;&#x44;&#x6F;&#x77;&#x6E;"
      horiz-adv-x="600" d="M452.5 425.5000000000001L300.0000000000001 273.0000000000001L147.5000000000001 425.5L100 378.0000000000001L300 178.0000000000001L500 378.0000000000002L452.5 425.5000000000001z" />
    <glyph glyph-name="ChevronLeft"
      unicode="&#xEA1D;"
      horiz-adv-x="600" d="M422.5 150.5000000000001L270 303L422.4999999999999 455.5L377.5 503.0000000000001L177.5 303.0000000000001L377.5000000000001 103.0000000000001L422.5 150.5000000000001z" />
    <glyph glyph-name="ChevronLeft-1"
      unicode="&#x43;&#x68;&#x65;&#x76;&#x72;&#x6F;&#x6E;&#x4C;&#x65;&#x66;&#x74;"
      horiz-adv-x="600" d="M422.5 150.5000000000001L270 303L422.4999999999999 455.5L377.5 503.0000000000001L177.5 303.0000000000001L377.5000000000001 103.0000000000001L422.5 150.5000000000001z" />
    <glyph glyph-name="ChevronRight"
      unicode="&#xEA1E;"
      horiz-adv-x="600" d="M176.25 455L328.75 302.5000000000001L176.25 150L223.75 102.5000000000001L423.75 302.5000000000001L223.75 502.5L176.25 455z" />
    <glyph glyph-name="ChevronRight-1"
      unicode="&#x43;&#x68;&#x65;&#x76;&#x72;&#x6F;&#x6E;&#x52;&#x69;&#x67;&#x68;&#x74;"
      horiz-adv-x="600" d="M176.25 455L328.75 302.5000000000001L176.25 150L223.75 102.5000000000001L423.75 302.5000000000001L223.75 502.5L176.25 455z" />
    <glyph glyph-name="ChevronUp"
      unicode="&#xEA1F;"
      horiz-adv-x="600" d="M147 178L300 330.675L453 178L500 225L300 425L100 225z" />
    <glyph glyph-name="ChevronUp-1"
      unicode="&#x43;&#x68;&#x65;&#x76;&#x72;&#x6F;&#x6E;&#x55;&#x70;"
      horiz-adv-x="600" d="M147 178L300 330.675L453 178L500 225L300 425L100 225z" />
    <glyph glyph-name="CircleDown"
      unicode="&#xEA20;"
      horiz-adv-x="600" d="M550 300C550 161.925 438.075 50 300 50A250 250 0 1 0 550 300zM500 300A200 200 0 1 1 100 300A200 200 0 0 1 500 300zM150 350L300 200L450 350L415.0000000000001 385L300.0000000000001 270L185.0000000000001 385L150 350z" />
    <glyph glyph-name="CircleDown-1"
      unicode="&#x43;&#x69;&#x72;&#x63;&#x6C;&#x65;&#x44;&#x6F;&#x77;&#x6E;"
      horiz-adv-x="600" d="M550 300C550 161.925 438.075 50 300 50A250 250 0 1 0 550 300zM500 300A200 200 0 1 1 100 300A200 200 0 0 1 500 300zM150 350L300 200L450 350L415.0000000000001 385L300.0000000000001 270L185.0000000000001 385L150 350z" />
    <glyph glyph-name="CircleFilled"
      unicode="&#xEA21;"
      horiz-adv-x="600" d="M300 550C161.925 550 50 438.075 50 300A250 250 0 1 1 300 550z" />
    <glyph glyph-name="CircleFilled-1"
      unicode="&#x43;&#x69;&#x72;&#x63;&#x6C;&#x65;&#x46;&#x69;&#x6C;&#x6C;&#x65;&#x64;"
      horiz-adv-x="600" d="M300 550C161.925 550 50 438.075 50 300A250 250 0 1 1 300 550z" />
    <glyph glyph-name="CircleRing"
      unicode="&#xEA22;"
      horiz-adv-x="600" d="M300 100A200 200 0 0 0 100 300A200 200 0 0 0 300 500A200 200 0 0 0 500 300A200 200 0 0 0 300 100M300 550A250 250 0 0 1 50 300A250 250 0 0 1 300 50A250 250 0 0 1 550 300A250 250 0 0 1 300 550z" />
    <glyph glyph-name="CircleRing-1"
      unicode="&#x43;&#x69;&#x72;&#x63;&#x6C;&#x65;&#x52;&#x69;&#x6E;&#x67;"
      horiz-adv-x="600" d="M300 100A200 200 0 0 0 100 300A200 200 0 0 0 300 500A200 200 0 0 0 500 300A200 200 0 0 0 300 100M300 550A250 250 0 0 1 50 300A250 250 0 0 1 300 50A250 250 0 0 1 550 300A250 250 0 0 1 300 550z" />
    <glyph glyph-name="CircleUp"
      unicode="&#xEA23;"
      horiz-adv-x="600" d="M550 300C550 161.925 438.075 50 300 50A250 250 0 1 0 550 300zM500 300A200 200 0 1 1 100 300A200 200 0 0 1 500 300zM185 215L300 330L415.0000000000001 215L450 250L300 400L150 250L185 215z" />
    <glyph glyph-name="CircleUp-1"
      unicode="&#x43;&#x69;&#x72;&#x63;&#x6C;&#x65;&#x55;&#x70;"
      horiz-adv-x="600" d="M550 300C550 161.925 438.075 50 300 50A250 250 0 1 0 550 300zM500 300A200 200 0 1 1 100 300A200 200 0 0 1 500 300zM185 215L300 330L415.0000000000001 215L450 250L300 400L150 250L185 215z" />
    <glyph glyph-name="Cloud"
      unicode="&#xEA24;"
      horiz-adv-x="600" d="M150 125A125 125 0 0 0 150 375C175 433.75 232.5000000000001 475 300 475C385.75 475 456.0000000000001 408.5 462.5 324.25L475 325A100 100 0 1 0 475 125H150zM475 275H425V300A125.1 125.1 0 0 1 176.5 320.25C168.25 323.25 159.25 325 150 325A75 75 0 0 1 150 175H475A50 50 0 1 1 475 275z" />
    <glyph glyph-name="Cloud-1"
      unicode="&#x43;&#x6C;&#x6F;&#x75;&#x64;"
      horiz-adv-x="600" d="M150 125A125 125 0 0 0 150 375C175 433.75 232.5000000000001 475 300 475C385.75 475 456.0000000000001 408.5 462.5 324.25L475 325A100 100 0 1 0 475 125H150zM475 275H425V300A125.1 125.1 0 0 1 176.5 320.25C168.25 323.25 159.25 325 150 325A75 75 0 0 1 150 175H475A50 50 0 1 1 475 275z" />
    <glyph glyph-name="CloudUpload"
      unicode="&#xEA25;"
      horiz-adv-x="600" d="M483.7500005056061 349A187.25 187.25 0 0 1 300.000000505606 500C227.750000505606 500 165.000000505606 459 133.750000505606 399A149.85 149.85 0 0 1 5.05606e-7 250A150 150 0 0 1 150.000000505606 100H475.000000505606A125 125 0 0 1 600.0000005056061 225C600.0000005056061 291 548.7500005056061 344.5 483.7500005056061 349zM475.000000505606 150H150.000000505606A100 100 0 0 0 50.000000505606 250C50.000000505606 301.25 88.250000505606 344 139.000000505606 349.25L165.7500005056061 352L178.2500005056061 375.75A136.725 136.725 0 0 0 300.000000505606 450C365.500000505606 450 422.000000505606 403.5 434.750000505606 339.25L442.2500005056061 301.75L480.5000005056061 299A74.5 74.5 0 0 0 550.0000005056061 225A75 75 0 0 0 475.000000505606 150zM200.000000505606 275H263.750000505606V200H336.250000505606V275H400.000000505606L300.000000505606 375L200.000000505606 275z" />
    <glyph glyph-name="CloudUpload-1"
      unicode="&#x43;&#x6C;&#x6F;&#x75;&#x64;&#x55;&#x70;&#x6C;&#x6F;&#x61;&#x64;"
      horiz-adv-x="600" d="M483.7500005056061 349A187.25 187.25 0 0 1 300.000000505606 500C227.750000505606 500 165.000000505606 459 133.750000505606 399A149.85 149.85 0 0 1 5.05606e-7 250A150 150 0 0 1 150.000000505606 100H475.000000505606A125 125 0 0 1 600.0000005056061 225C600.0000005056061 291 548.7500005056061 344.5 483.7500005056061 349zM475.000000505606 150H150.000000505606A100 100 0 0 0 50.000000505606 250C50.000000505606 301.25 88.250000505606 344 139.000000505606 349.25L165.7500005056061 352L178.2500005056061 375.75A136.725 136.725 0 0 0 300.000000505606 450C365.500000505606 450 422.000000505606 403.5 434.750000505606 339.25L442.2500005056061 301.75L480.5000005056061 299A74.5 74.5 0 0 0 550.0000005056061 225A75 75 0 0 0 475.000000505606 150zM200.000000505606 275H263.750000505606V200H336.250000505606V275H400.000000505606L300.000000505606 375L200.000000505606 275z" />
    <glyph glyph-name="Code"
      unicode="&#xEA26;"
      horiz-adv-x="600" d="M365 185L480 300L365 415L400 450L550 300L400 150L365 185zM235 185L120 300L235 415L200 450L50 300L200 150L235 185z" />
    <glyph glyph-name="Code-1"
      unicode="&#x43;&#x6F;&#x64;&#x65;"
      horiz-adv-x="600" d="M365 185L480 300L365 415L400 450L550 300L400 150L365 185zM235 185L120 300L235 415L200 450L50 300L200 150L235 185z" />
    <glyph glyph-name="Company"
      unicode="&#xEA27;"
      horiz-adv-x="600" d="M397.5 298.75H396.25V387.5C396.25 393.125 390 396.25 385.625 392.5L272.5 298.75V387.5C272.5 393.125 266.25 396.25 261.875 392.5L148.75 298.75V520.625H78.75V78.125H521.25V387.5C521.25 393.125 515 396.25 510.625 392.5L397.5 298.75z" />
    <glyph glyph-name="Company-1"
      unicode="&#x43;&#x6F;&#x6D;&#x70;&#x61;&#x6E;&#x79;"
      horiz-adv-x="600" d="M397.5 298.75H396.25V387.5C396.25 393.125 390 396.25 385.625 392.5L272.5 298.75V387.5C272.5 393.125 266.25 396.25 261.875 392.5L148.75 298.75V520.625H78.75V78.125H521.25V387.5C521.25 393.125 515 396.25 510.625 392.5L397.5 298.75z" />
    <glyph glyph-name="Completed"
      unicode="&#xEA28;"
      horiz-adv-x="600" d="M300 550A250 250 0 0 0 550 300C550 161.925 438.075 50 300 50A250 250 0 1 0 300 550zM275 187.5L450 362.5L414.75 397.75L275 258.25L197.75 335.25L162.5 300L275 187.5z" />
    <glyph glyph-name="Completed-1"
      unicode="&#x43;&#x6F;&#x6D;&#x70;&#x6C;&#x65;&#x74;&#x65;&#x64;"
      horiz-adv-x="600" d="M300 550A250 250 0 0 0 550 300C550 161.925 438.075 50 300 50A250 250 0 1 0 300 550zM275 187.5L450 362.5L414.75 397.75L275 258.25L197.75 335.25L162.5 300L275 187.5z" />
    <glyph glyph-name="Copy"
      unicode="&#xEA29;"
      horiz-adv-x="600" d="M487.5 75H212.5V425H487.5V75zM487.5 475H212.5A50 50 0 0 1 162.5 425V75A50 50 0 0 1 212.5 25H487.5A50 50 0 0 1 537.5 75V425A50 50 0 0 1 487.5 475zM412.5 575H112.5A50 50 0 0 1 62.5 525V175H112.5V525H412.5V575z" />
    <glyph glyph-name="Copy-1"
      unicode="&#x43;&#x6F;&#x70;&#x79;"
      horiz-adv-x="600" d="M487.5 75H212.5V425H487.5V75zM487.5 475H212.5A50 50 0 0 1 162.5 425V75A50 50 0 0 1 212.5 25H487.5A50 50 0 0 1 537.5 75V425A50 50 0 0 1 487.5 475zM412.5 575H112.5A50 50 0 0 1 62.5 525V175H112.5V525H412.5V575z" />
    <glyph glyph-name="Delete"
      unicode="&#xEA2A;"
      horiz-adv-x="600" d="M225 525V500H100V450H125V125A50 50 0 0 1 175 75H425A50 50 0 0 1 475 125V450H500V500H375V525H225zM175 450H425V125H175V450zM225 400V175H275V400H225zM325 400V175H375V400H325z" />
    <glyph glyph-name="Delete-1"
      unicode="&#x44;&#x65;&#x6C;&#x65;&#x74;&#x65;"
      horiz-adv-x="600" d="M225 525V500H100V450H125V125A50 50 0 0 1 175 75H425A50 50 0 0 1 475 125V450H500V500H375V525H225zM175 450H425V125H175V450zM225 400V175H275V400H225zM325 400V175H375V400H325z" />
    <glyph glyph-name="Deploy"
      unicode="&#xEA2B;"
      horiz-adv-x="600" d="M52.3892062034486 120.775L154.6392062034486 222.775C149.3892062034486 230.2750000000001 145.6392062034486 238.275 143.3892062034486 247.025L52.3892062034486 156.025V120.775zM52.3892062034486 50.025H87.6392062034486L206.8892062034486 169.0249999999999L171.3892062034486 204.2749999999999L52.3892062034486 85.2749999999999V50.0249999999999zM158.3892062034486 50.025L249.3892062034486 141.025C240.8892062034486 143.275 232.6392062034486 147.0249999999999 225.1392062034486 152.2749999999999L123.1392062034486 50.025H158.3892062034486zM224.3892062034486 186.7749999999999L189.1392062034486 222.0249999999999L224.3892062034486 186.7749999999999zM365.8892062034486 363.5249999999999C346.3892062034486 383.0249999999999 346.3892062034486 414.7749999999999 365.8892062034486 434.2749999999999C385.3892062034486 453.7749999999999 417.1392062034486 453.7749999999999 436.6392062034487 434.2749999999999C455.8892062034487 414.7749999999999 456.1392062034487 383.025 436.6392062034487 363.5249999999999C417.1392062034486 344.025 385.3892062034487 344.025 365.8892062034487 363.5249999999999zM542.6392062034486 540.275S418.8892062034487 593.3 277.3892062034486 451.775C222.6392062034486 397.025 189.8892062034486 336.775 168.6392062034486 284.0250000000001C161.6392062034486 265.2750000000001 166.3892062034486 244.7750000000001 180.1392062034486 230.7750000000001L233.3892062034486 177.775C247.1392062034486 163.775 267.6392062034486 159.275 286.3892062034486 166.275A477.5 477.5 0 0 1 454.1392062034487 275.025C595.6392062034486 416.525 542.6392062034486 540.275 542.6392062034486 540.275zM143.3892062034486 287.525L47.6392062034486 328.275L200.1392062034486 397.525C177.3892062034486 363.525 157.8892062034486 326.775 143.3892062034486 287.525zM330.6392062034486 45.275L289.8892062034487 141.025C329.1392062034487 155.5249999999999 365.8892062034486 175.0249999999999 399.8892062034488 197.7749999999999L330.6392062034488 45.275z" />
    <glyph glyph-name="Deploy-1"
      unicode="&#x44;&#x65;&#x70;&#x6C;&#x6F;&#x79;"
      horiz-adv-x="600" d="M52.3892062034486 120.775L154.6392062034486 222.775C149.3892062034486 230.2750000000001 145.6392062034486 238.275 143.3892062034486 247.025L52.3892062034486 156.025V120.775zM52.3892062034486 50.025H87.6392062034486L206.8892062034486 169.0249999999999L171.3892062034486 204.2749999999999L52.3892062034486 85.2749999999999V50.0249999999999zM158.3892062034486 50.025L249.3892062034486 141.025C240.8892062034486 143.275 232.6392062034486 147.0249999999999 225.1392062034486 152.2749999999999L123.1392062034486 50.025H158.3892062034486zM224.3892062034486 186.7749999999999L189.1392062034486 222.0249999999999L224.3892062034486 186.7749999999999zM365.8892062034486 363.5249999999999C346.3892062034486 383.0249999999999 346.3892062034486 414.7749999999999 365.8892062034486 434.2749999999999C385.3892062034486 453.7749999999999 417.1392062034486 453.7749999999999 436.6392062034487 434.2749999999999C455.8892062034487 414.7749999999999 456.1392062034487 383.025 436.6392062034487 363.5249999999999C417.1392062034486 344.025 385.3892062034487 344.025 365.8892062034487 363.5249999999999zM542.6392062034486 540.275S418.8892062034487 593.3 277.3892062034486 451.775C222.6392062034486 397.025 189.8892062034486 336.775 168.6392062034486 284.0250000000001C161.6392062034486 265.2750000000001 166.3892062034486 244.7750000000001 180.1392062034486 230.7750000000001L233.3892062034486 177.775C247.1392062034486 163.775 267.6392062034486 159.275 286.3892062034486 166.275A477.5 477.5 0 0 1 454.1392062034487 275.025C595.6392062034486 416.525 542.6392062034486 540.275 542.6392062034486 540.275zM143.3892062034486 287.525L47.6392062034486 328.275L200.1392062034486 397.525C177.3892062034486 363.525 157.8892062034486 326.775 143.3892062034486 287.525zM330.6392062034486 45.275L289.8892062034487 141.025C329.1392062034487 155.5249999999999 365.8892062034486 175.0249999999999 399.8892062034488 197.7749999999999L330.6392062034488 45.275z" />
    <glyph glyph-name="Description"
      unicode="&#xEA2C;"
      horiz-adv-x="600" d="M150 550A50 50 0 0 1 100 500V100A50 50 0 0 1 150 50H450A50 50 0 0 1 500 100V400L350 550H150zM150 500H325V375H450V100H150V500zM200 300V250H400V300H200zM200 200V150H325V200H200z" />
    <glyph glyph-name="Description-1"
      unicode="&#x44;&#x65;&#x73;&#x63;&#x72;&#x69;&#x70;&#x74;&#x69;&#x6F;&#x6E;"
      horiz-adv-x="600" d="M150 550A50 50 0 0 1 100 500V100A50 50 0 0 1 150 50H450A50 50 0 0 1 500 100V400L350 550H150zM150 500H325V375H450V100H150V500zM200 300V250H400V300H200zM200 200V150H325V200H200z" />
    <glyph glyph-name="Down"
      unicode="&#xEA2D;"
      horiz-adv-x="600" d="M277.5 562.5H322.5V142.5L450 272.5L482.5 237.5L300 50L117.5 240L150 275L277.5 145V562.5z" />
    <glyph glyph-name="Down-1"
      unicode="&#x44;&#x6F;&#x77;&#x6E;"
      horiz-adv-x="600" d="M277.5 562.5H322.5V142.5L450 272.5L482.5 237.5L300 50L117.5 240L150 275L277.5 145V562.5z" />
    <glyph glyph-name="Download"
      unicode="&#xEA2E;"
      horiz-adv-x="600" d="M125 100H475V150H125V100zM475 375H375V525H225V375H125L300 200L475 375z" />
    <glyph glyph-name="Download-1"
      unicode="&#x44;&#x6F;&#x77;&#x6E;&#x6C;&#x6F;&#x61;&#x64;"
      horiz-adv-x="600" d="M125 100H475V150H125V100zM475 375H375V525H225V375H125L300 200L475 375z" />
    <glyph glyph-name="Dupliser"
      unicode="&#xEA2F;"
      horiz-adv-x="600" d="M487.5 75V425H212.5V275H162.5V425A50 50 0 0 0 212.5 475H487.5A50 50 0 0 0 537.5 425V75A50 50 0 0 0 487.5 25H212.5A50 50 0 0 0 162.5 75V125H212.5V75H487.5zM287.5 175H112.5A50 50 0 0 0 62.5 225V525A50 50 0 0 0 112.5 575H412.5V525H112.5V225H287.5V275L387.5 200L287.5 125V175z" />
    <glyph glyph-name="Dupliser-1"
      unicode="&#x44;&#x75;&#x70;&#x6C;&#x69;&#x73;&#x65;&#x72;"
      horiz-adv-x="600" d="M487.5 75V425H212.5V275H162.5V425A50 50 0 0 0 212.5 475H487.5A50 50 0 0 0 537.5 425V75A50 50 0 0 0 487.5 25H212.5A50 50 0 0 0 162.5 75V125H212.5V75H487.5zM287.5 175H112.5A50 50 0 0 0 62.5 225V525A50 50 0 0 0 112.5 575H412.5V525H112.5V225H287.5V275L387.5 200L287.5 125V175z" />
    <glyph glyph-name="Earth"
      unicode="&#xEA30;"
      horiz-adv-x="600" d="M447.5 165.25C441 185.25 422.25 200 400 200H375V275A25 25 0 0 1 350 300H200V350H250A25 25 0 0 1 275 375V425H325A50 50 0 0 1 375 475V485.25A199.6 199.6 0 0 0 447.5 165.25zM275 101.75C176.25 114 100 198.0000000000001 100 300C100 315.5 102 330.5 105.25 344.75L225 225V200A50 50 0 0 1 275 150V101.75zM300 550C161.925 550 50 438.075 50 300A250 250 0 1 1 300 550z" />
    <glyph glyph-name="Earth-1"
      unicode="&#x45;&#x61;&#x72;&#x74;&#x68;"
      horiz-adv-x="600" d="M447.5 165.25C441 185.25 422.25 200 400 200H375V275A25 25 0 0 1 350 300H200V350H250A25 25 0 0 1 275 375V425H325A50 50 0 0 1 375 475V485.25A199.6 199.6 0 0 0 447.5 165.25zM275 101.75C176.25 114 100 198.0000000000001 100 300C100 315.5 102 330.5 105.25 344.75L225 225V200A50 50 0 0 1 275 150V101.75zM300 550C161.925 550 50 438.075 50 300A250 250 0 1 1 300 550z" />
    <glyph glyph-name="Edit"
      unicode="&#xEA31;"
      horiz-adv-x="600" d="M517.71875 424C527.46875 433.75 527.46875 450 517.71875 459.25L459.21875 517.75C449.96875 527.5 433.7187500000001 527.5 423.96875 517.75L377.96875 472L471.71875 378.25L517.71875 424zM74.96875 168.75V75H168.71875L445.21875 351.75L351.46875 445.5L74.96875 168.75z" />
    <glyph glyph-name="Edit-1"
      unicode="&#x45;&#x64;&#x69;&#x74;"
      horiz-adv-x="600" d="M517.71875 424C527.46875 433.75 527.46875 450 517.71875 459.25L459.21875 517.75C449.96875 527.5 433.7187500000001 527.5 423.96875 517.75L377.96875 472L471.71875 378.25L517.71875 424zM74.96875 168.75V75H168.71875L445.21875 351.75L351.46875 445.5L74.96875 168.75z" />
    <glyph glyph-name="Ekteskap"
      unicode="&#xEA32;"
      horiz-adv-x="600" d="M452.5 462.5C495 437.5 525 390 525 335C525 255 459.9999999999999 187.5 377.5 187.5C295 187.5 227.5 255 227.5 337.5V355C167.5 347.5 122.5 297.5 122.5 237.5C122.5 170 177.5 117.5 242.5 117.5C282.5 117.5 317.5 137.5 340 167.5C352.5 165 365 162.5 377.5 162.5H397.5C370 105 312.5 65 245 65C150 65 75 140.0000000000001 75 235.0000000000001S150 405.0000000000001 242.5 405.0000000000001H245C257.5 430.0000000000001 277.5 450.0000000000001 302.5 460.0000000000001L337.5 422.5000000000001C322.5 415.0000000000001 310 405.0000000000001 300 392.5000000000001C362.5 372.5000000000001 410 312.5000000000001 412.5 242.5000000000001C450 257.5000000000001 475 292.5000000000001 475 335.0000000000001C475 375.0000000000001 450 410.0000000000001 417.5 425.0000000000001zM277.5 350V337.5C277.5 287.5 315 247.5 362.5 240C360 290 327.5 332.5 277.5 350zM415 525L432.5 492.5L377.5 422.5L320 492.5L340 525H415z" />
    <glyph glyph-name="Ekteskap-1"
      unicode="&#x45;&#x6B;&#x74;&#x65;&#x73;&#x6B;&#x61;&#x70;"
      horiz-adv-x="600" d="M452.5 462.5C495 437.5 525 390 525 335C525 255 459.9999999999999 187.5 377.5 187.5C295 187.5 227.5 255 227.5 337.5V355C167.5 347.5 122.5 297.5 122.5 237.5C122.5 170 177.5 117.5 242.5 117.5C282.5 117.5 317.5 137.5 340 167.5C352.5 165 365 162.5 377.5 162.5H397.5C370 105 312.5 65 245 65C150 65 75 140.0000000000001 75 235.0000000000001S150 405.0000000000001 242.5 405.0000000000001H245C257.5 430.0000000000001 277.5 450.0000000000001 302.5 460.0000000000001L337.5 422.5000000000001C322.5 415.0000000000001 310 405.0000000000001 300 392.5000000000001C362.5 372.5000000000001 410 312.5000000000001 412.5 242.5000000000001C450 257.5000000000001 475 292.5000000000001 475 335.0000000000001C475 375.0000000000001 450 410.0000000000001 417.5 425.0000000000001zM277.5 350V337.5C277.5 287.5 315 247.5 362.5 240C360 290 327.5 332.5 277.5 350zM415 525L432.5 492.5L377.5 422.5L320 492.5L340 525H415z" />
    <glyph glyph-name="Email"
      unicode="&#xEA33;"
      horiz-adv-x="600" d="M500 100C527.5 100 550 122.5 550 150V450C550 477.5 527.5 500 500 500H100C72.5 500 50 477.5 50 450V150C50 122.5 72.5 100 100 100H500zM500 450L300 325L100 450H500zM100 150V390L300 265L500 390V150H100z" />
    <glyph glyph-name="Email-1"
      unicode="&#x45;&#x6D;&#x61;&#x69;&#x6C;"
      horiz-adv-x="600" d="M500 100C527.5 100 550 122.5 550 150V450C550 477.5 527.5 500 500 500H100C72.5 500 50 477.5 50 450V150C50 122.5 72.5 100 100 100H500zM500 450L300 325L100 450H500zM100 150V390L300 265L500 390V150H100z" />
    <glyph glyph-name="Error"
      unicode="&#xEA34;"
      horiz-adv-x="600" d="M325 275H275V425H325V275zM325 175H275V225H325V175zM300 550C161.925 550 50 438.075 50 300A250 250 0 1 1 300 550z" />
    <glyph glyph-name="Error-1"
      unicode="&#x45;&#x72;&#x72;&#x6F;&#x72;"
      horiz-adv-x="600" d="M325 275H275V425H325V275zM325 175H275V225H325V175zM300 550C161.925 550 50 438.075 50 300A250 250 0 1 1 300 550z" />
    <glyph glyph-name="ErrorOutline"
      unicode="&#xEA35;"
      horiz-adv-x="600" d="M275 225H325V175H275V225zM275 425H325V275H275V425zM300 550C161.75 550 50 437.5 50 300A250 250 0 0 1 300 50C438.075 50 550 161.925 550 300A250 250 0 0 1 300 550zM300 100A200 200 0 1 0 300 500A200 200 0 0 0 300 100z" />
    <glyph glyph-name="ErrorOutline-1"
      unicode="&#x45;&#x72;&#x72;&#x6F;&#x72;&#x4F;&#x75;&#x74;&#x6C;&#x69;&#x6E;&#x65;"
      horiz-adv-x="600" d="M275 225H325V175H275V225zM275 425H325V275H275V425zM300 550C161.75 550 50 437.5 50 300A250 250 0 0 1 300 50C438.075 50 550 161.925 550 300A250 250 0 0 1 300 550zM300 100A200 200 0 1 0 300 500A200 200 0 0 0 300 100z" />
    <glyph glyph-name="ExcelFile"
      unicode="&#xEA36;"
      horiz-adv-x="600" d="M350 550H150A50 50 0 0 1 100 500V100A50 50 0 0 1 150 50H450A50 50 0 0 1 500 100V400L350 550zM395 100H350L300 185L250 100H205L277.5 212.5L205 325H250L300 240L350 325H395L322.5 212.5L395 100zM325 375V512.5L462.5 375H325z" />
    <glyph glyph-name="ExcelFile-1"
      unicode="&#x45;&#x78;&#x63;&#x65;&#x6C;&#x46;&#x69;&#x6C;&#x65;"
      horiz-adv-x="600" d="M350 550H150A50 50 0 0 1 100 500V100A50 50 0 0 1 150 50H450A50 50 0 0 1 500 100V400L350 550zM395 100H350L300 185L250 100H205L277.5 212.5L205 325H250L300 240L350 325H395L322.5 212.5L395 100zM325 375V512.5L462.5 375H325z" />
    <glyph glyph-name="EyeOff"
      unicode="&#xEA37;"
      horiz-adv-x="600" d="M50 468.25L82 500L500 82L468.25 50L391.25 127C362.5 117.5 332 112.5 300 112.5C175 112.5 68.25 190.25 25 300C42.25 344 69.75 382.75 104.75 413.5L50 468.25M300 375A75 75 0 0 0 375 300A75 75 0 0 0 370.75 275L275 370.75A75 75 0 0 0 300 375M300 487.5C425 487.5 531.75 409.75 575 300A294.75 294.75 0 0 0 475 170.25L439.5 206A246.55 246.55 0 0 1 520.5 300A245.525 245.525 0 0 1 300 437.5C272.75 437.5 246 433 221 425L182.5 463.25C218.5 478.75 258.25 487.5 300 487.5M79.5 300A245.525 245.525 0 0 1 300 162.5C317.25 162.5 334.25 164.25 350 167.75L293 225A76.6 76.6 0 0 0 225 293L140 378.25C115.25 357 94.5 330.5 79.5 300z" />
    <glyph glyph-name="EyeOff-1"
      unicode="&#x45;&#x79;&#x65;&#x4F;&#x66;&#x66;"
      horiz-adv-x="600" d="M50 468.25L82 500L500 82L468.25 50L391.25 127C362.5 117.5 332 112.5 300 112.5C175 112.5 68.25 190.25 25 300C42.25 344 69.75 382.75 104.75 413.5L50 468.25M300 375A75 75 0 0 0 375 300A75 75 0 0 0 370.75 275L275 370.75A75 75 0 0 0 300 375M300 487.5C425 487.5 531.75 409.75 575 300A294.75 294.75 0 0 0 475 170.25L439.5 206A246.55 246.55 0 0 1 520.5 300A245.525 245.525 0 0 1 300 437.5C272.75 437.5 246 433 221 425L182.5 463.25C218.5 478.75 258.25 487.5 300 487.5M79.5 300A245.525 245.525 0 0 1 300 162.5C317.25 162.5 334.25 164.25 350 167.75L293 225A76.6 76.6 0 0 0 225 293L140 378.25C115.25 357 94.5 330.5 79.5 300z" />
    <glyph glyph-name="EyeOutline"
      unicode="&#xEA38;"
      horiz-adv-x="600" d="M300 375A75 75 0 0 0 375 300A75 75 0 0 0 300 225A75 75 0 0 0 225 300A75 75 0 0 0 300 375M300 487.5C425 487.5 531.75 409.75 575 300C531.75 190.25 425 112.5 300 112.5S68.25 190.25 25 300C68.25 409.75 175 487.5 300 487.5M79.5 300A245.525 245.525 0 0 1 520.5 300A245.525 245.525 0 0 1 79.5 300z" />
    <glyph glyph-name="EyeOutline-1"
      unicode="&#x45;&#x79;&#x65;&#x4F;&#x75;&#x74;&#x6C;&#x69;&#x6E;&#x65;"
      horiz-adv-x="600" d="M300 375A75 75 0 0 0 375 300A75 75 0 0 0 300 225A75 75 0 0 0 225 300A75 75 0 0 0 300 375M300 487.5C425 487.5 531.75 409.75 575 300C531.75 190.25 425 112.5 300 112.5S68.25 190.25 25 300C68.25 409.75 175 487.5 300 487.5M79.5 300A245.525 245.525 0 0 1 520.5 300A245.525 245.525 0 0 1 79.5 300z" />
    <glyph glyph-name="Facebook"
      unicode="&#xEA39;"
      horiz-adv-x="600" d="M299.9996856858358 550C162.4996856858358 550 49.9996856858357 437.75 49.9996856858357 299.5C49.9996856858357 174.5 141.4996856858358 70.75 260.9996856858358 52V227H197.4996856858358V299.5H260.9996856858358V354.75C260.9996856858358 417.5 298.2496856858358 452 355.4996856858358 452C382.7496856858358 452 411.2496856858358 447.25 411.2496856858358 447.25V385.5H379.7496856858358C348.7496856858358 385.5 338.9996856858357 366.25 338.9996856858357 346.5V299.5H408.4996856858358L397.2496856858358 227H338.9996856858358V52A250 250 0 0 1 549.9996856858357 299.5C549.9996856858357 437.75 437.4996856858358 550 299.9996856858358 550z" />
    <glyph glyph-name="Facebook-1"
      unicode="&#x46;&#x61;&#x63;&#x65;&#x62;&#x6F;&#x6F;&#x6B;"
      horiz-adv-x="600" d="M299.9996856858358 550C162.4996856858358 550 49.9996856858357 437.75 49.9996856858357 299.5C49.9996856858357 174.5 141.4996856858358 70.75 260.9996856858358 52V227H197.4996856858358V299.5H260.9996856858358V354.75C260.9996856858358 417.5 298.2496856858358 452 355.4996856858358 452C382.7496856858358 452 411.2496856858358 447.25 411.2496856858358 447.25V385.5H379.7496856858358C348.7496856858358 385.5 338.9996856858357 366.25 338.9996856858357 346.5V299.5H408.4996856858358L397.2496856858358 227H338.9996856858358V52A250 250 0 0 1 549.9996856858357 299.5C549.9996856858357 437.75 437.4996856858358 550 299.9996856858358 550z" />
    <glyph glyph-name="Familie"
      unicode="&#xEA3A;"
      horiz-adv-x="600" d="M387.5 350C428.25 350 465.5 341.25 500 323.75C533.5 306 550 284.75 550 259.75V81.5H384.75V125C384.75 148.75 363.25 165.5 320.25 175.75C306.25 179 295.25 180.5000000000001 287.5 180.5000000000001C265.75 180.5000000000001 245.0000000000001 176.25 226 167.5000000000001C206.75 159.0000000000001 195.25 148.0000000000001 191.5 134.7500000000001C241.15 119.1750000000001 289.4 117.3500000000001 306.225 117.2250000000001H310.85L312.475 117.2500000000001H312.5V51.5000000000001H310.9L308.15 51.4500000000002H298.95C266.45 51.5750000000002 181.875 53.6500000000002 115.25 70.2500000000001C107 73.7500000000001 99.25 77.5000000000001 92.5 81.5000000000001C64 98.2500000000002 50 118.0000000000002 50 140.5000000000001V259.7500000000001C50 281.5000000000001 62.75 300.7500000000001 88.25 317.0000000000001C92 319.2500000000001 95.75 321.5000000000001 100 323.7500000000001C134.5 341.25 171.75 350 212.5 350C243.75 350 272.75 345 300 334.75A247.7500000000001 247.7500000000001 0 0 0 387.5 350zM287.5 300C260 300 237.5 277.5 237.5 250C237.5 231.25 247.75 215 263 206.5C270.25 202.25 278.5 200 287.5 200S304.75 202.25 312 206.5C327.25 215 337.5 231.25 337.5 250C337.5 277.5 315 300 287.5 300zM212.475 524.9A75 75 0 1 0 212.475 374.9A75 75 0 0 0 212.475 524.9zM387.5 525C429 525 462.5 491.25 462.5 450C462.5 408.5 429 375 387.5 375S312.5 408.5 312.5 450C312.5 491.25 346 525 387.5 525z" />
    <glyph glyph-name="Familie-1"
      unicode="&#x46;&#x61;&#x6D;&#x69;&#x6C;&#x69;&#x65;"
      horiz-adv-x="600" d="M387.5 350C428.25 350 465.5 341.25 500 323.75C533.5 306 550 284.75 550 259.75V81.5H384.75V125C384.75 148.75 363.25 165.5 320.25 175.75C306.25 179 295.25 180.5000000000001 287.5 180.5000000000001C265.75 180.5000000000001 245.0000000000001 176.25 226 167.5000000000001C206.75 159.0000000000001 195.25 148.0000000000001 191.5 134.7500000000001C241.15 119.1750000000001 289.4 117.3500000000001 306.225 117.2250000000001H310.85L312.475 117.2500000000001H312.5V51.5000000000001H310.9L308.15 51.4500000000002H298.95C266.45 51.5750000000002 181.875 53.6500000000002 115.25 70.2500000000001C107 73.7500000000001 99.25 77.5000000000001 92.5 81.5000000000001C64 98.2500000000002 50 118.0000000000002 50 140.5000000000001V259.7500000000001C50 281.5000000000001 62.75 300.7500000000001 88.25 317.0000000000001C92 319.2500000000001 95.75 321.5000000000001 100 323.7500000000001C134.5 341.25 171.75 350 212.5 350C243.75 350 272.75 345 300 334.75A247.7500000000001 247.7500000000001 0 0 0 387.5 350zM287.5 300C260 300 237.5 277.5 237.5 250C237.5 231.25 247.75 215 263 206.5C270.25 202.25 278.5 200 287.5 200S304.75 202.25 312 206.5C327.25 215 337.5 231.25 337.5 250C337.5 277.5 315 300 287.5 300zM212.475 524.9A75 75 0 1 0 212.475 374.9A75 75 0 0 0 212.475 524.9zM387.5 525C429 525 462.5 491.25 462.5 450C462.5 408.5 429 375 387.5 375S312.5 408.5 312.5 450C312.5 491.25 346 525 387.5 525z" />
    <glyph glyph-name="Favorite"
      unicode="&#xEA3B;"
      horiz-adv-x="600" d="M300 66.25L263.75 99.25C135 216 50 293.25 50 387.5C50 464.75 110.5 525 187.5 525C231 525 272.75 504.75 300 473C327.25 504.75 369 525 412.5 525C489.4999999999999 525 550 464.75 550 387.5C550 293.25 465.0000000000001 216 336.25 99.25L300 66.25z" />
    <glyph glyph-name="Favorite-1"
      unicode="&#x46;&#x61;&#x76;&#x6F;&#x72;&#x69;&#x74;&#x65;"
      horiz-adv-x="600" d="M300 66.25L263.75 99.25C135 216 50 293.25 50 387.5C50 464.75 110.5 525 187.5 525C231 525 272.75 504.75 300 473C327.25 504.75 369 525 412.5 525C489.4999999999999 525 550 464.75 550 387.5C550 293.25 465.0000000000001 216 336.25 99.25L300 66.25z" />
    <glyph glyph-name="File"
      unicode="&#xEA3C;"
      horiz-adv-x="600" d="M325 375H462.5L325 512.5V375zM150 550H350L500 400V100A50 50 0 0 0 450 50H150A50 50 0 0 0 100 100V500C100 527.75 122.25 550 150 550zM375 150V200H150V150H375zM450 250V300H150V250H450z" />
    <glyph glyph-name="File-1"
      unicode="&#x46;&#x69;&#x6C;&#x65;"
      horiz-adv-x="600" d="M325 375H462.5L325 512.5V375zM150 550H350L500 400V100A50 50 0 0 0 450 50H150A50 50 0 0 0 100 100V500C100 527.75 122.25 550 150 550zM375 150V200H150V150H375zM450 250V300H150V250H450z" />
    <glyph glyph-name="FileOutline"
      unicode="&#xEA3D;"
      horiz-adv-x="600" d="M350 550H150A50 50 0 0 1 100 500V100A50 50 0 0 1 150 50H450A50 50 0 0 1 500 100V400L350 550zM450 100H150V500H325V375H450V100z" />
    <glyph glyph-name="FileOutline-1"
      unicode="&#x46;&#x69;&#x6C;&#x65;&#x4F;&#x75;&#x74;&#x6C;&#x69;&#x6E;&#x65;"
      horiz-adv-x="600" d="M350 550H150A50 50 0 0 1 100 500V100A50 50 0 0 1 150 50H450A50 50 0 0 1 500 100V400L350 550zM450 100H150V500H325V375H450V100z" />
    <glyph glyph-name="Filter"
      unicode="&#xEA3E;"
      horiz-adv-x="600" d="M150 275H450V325H150V275zM75 450V400H525V450H75zM250 150H350V200H250V150z" />
    <glyph glyph-name="Filter-1"
      unicode="&#x46;&#x69;&#x6C;&#x74;&#x65;&#x72;"
      horiz-adv-x="600" d="M150 275H450V325H150V275zM75 450V400H525V450H75zM250 150H350V200H250V150z" />
    <glyph glyph-name="Folkeregister"
      unicode="&#xEA3F;"
      horiz-adv-x="600" d="M494.4750000000001 217.25C497.9750000000001 217.25 500.625 216.025 502.3750000000001 213.575C504.1250000000001 211.125 504.475 208.175 503.375 204.775L459.625 72.5A17.35 17.35 0 0 0 452.95 63.675A17.4 17.4 0 0 0 442.6 60H157.4A17.4 17.4 0 0 0 147.0500000000001 63.675A17.35 17.35 0 0 0 140.3750000000001 72.5L96.625 204.75C95.5250000000001 208.175 95.8750000000001 211.125 97.625 213.5749999999999C99.375 216.025 102.0250000000001 217.2749999999999 105.5250000000001 217.2749999999999H494.5000000000001zM352.5000000000001 190.925H248.425V164.55H352.5000000000001V190.925zM408.0000000000001 540V480H456.4250000000001L483.5500000000001 245.4500000000001L453.2000000000002 241.7500000000001L428.7000000000002 451.2500000000001H408.0000000000002V348.0000000000001H204.0000000000001V451.25H171.3000000000001L146.8000000000001 241.75L116.45 245.45L143.5750000000001 480H204.0000000000001V540H408.0000000000001zM403.6250000000001 270V243.625H196.3750000000001V270H403.6250000000001zM403.6250000000001 322.75V296.375H196.3750000000001V322.725H403.6250000000001zM384.3250000000001 515.875H227.675V372.125H384.3250000000001V515.875zM331.2000000000001 434.375A15.25 15.25 0 0 0 343.0750000000001 428.75C346.35 425 348 420.475 348 415.175V396H264V415.175C264 420.475 265.6500000000001 425 268.925 428.75A15.25 15.25 0 0 0 280.8 434.35H331.2zM306.2000000000001 491.9999999999999C313.2000000000001 491.9999999999999 319.1500000000001 489.1999999999999 324.0500000000001 483.5999999999999C328.9500000000001 478.025 331.4000000000001 471.2249999999999 331.4000000000001 463.225C331.4000000000001 455.2249999999999 328.9500000000001 448.45 324.0500000000001 442.85A22.875 22.875 0 0 0 306.2000000000001 434.45A22.875 22.875 0 0 0 288.35 442.85A29.85 29.85 0 0 0 281 463.225C281 471.225 283.4500000000001 478.025 288.35 483.5999999999999A22.875 22.875 0 0 0 306.2000000000001 491.9999999999999z" />
    <glyph glyph-name="Folkeregister-1"
      unicode="&#x46;&#x6F;&#x6C;&#x6B;&#x65;&#x72;&#x65;&#x67;&#x69;&#x73;&#x74;&#x65;&#x72;"
      horiz-adv-x="600" d="M494.4750000000001 217.25C497.9750000000001 217.25 500.625 216.025 502.3750000000001 213.575C504.1250000000001 211.125 504.475 208.175 503.375 204.775L459.625 72.5A17.35 17.35 0 0 0 452.95 63.675A17.4 17.4 0 0 0 442.6 60H157.4A17.4 17.4 0 0 0 147.0500000000001 63.675A17.35 17.35 0 0 0 140.3750000000001 72.5L96.625 204.75C95.5250000000001 208.175 95.8750000000001 211.125 97.625 213.5749999999999C99.375 216.025 102.0250000000001 217.2749999999999 105.5250000000001 217.2749999999999H494.5000000000001zM352.5000000000001 190.925H248.425V164.55H352.5000000000001V190.925zM408.0000000000001 540V480H456.4250000000001L483.5500000000001 245.4500000000001L453.2000000000002 241.7500000000001L428.7000000000002 451.2500000000001H408.0000000000002V348.0000000000001H204.0000000000001V451.25H171.3000000000001L146.8000000000001 241.75L116.45 245.45L143.5750000000001 480H204.0000000000001V540H408.0000000000001zM403.6250000000001 270V243.625H196.3750000000001V270H403.6250000000001zM403.6250000000001 322.75V296.375H196.3750000000001V322.725H403.6250000000001zM384.3250000000001 515.875H227.675V372.125H384.3250000000001V515.875zM331.2000000000001 434.375A15.25 15.25 0 0 0 343.0750000000001 428.75C346.35 425 348 420.475 348 415.175V396H264V415.175C264 420.475 265.6500000000001 425 268.925 428.75A15.25 15.25 0 0 0 280.8 434.35H331.2zM306.2000000000001 491.9999999999999C313.2000000000001 491.9999999999999 319.1500000000001 489.1999999999999 324.0500000000001 483.5999999999999C328.9500000000001 478.025 331.4000000000001 471.2249999999999 331.4000000000001 463.225C331.4000000000001 455.2249999999999 328.9500000000001 448.45 324.0500000000001 442.85A22.875 22.875 0 0 0 306.2000000000001 434.45A22.875 22.875 0 0 0 288.35 442.85A29.85 29.85 0 0 0 281 463.225C281 471.225 283.4500000000001 478.025 288.35 483.5999999999999A22.875 22.875 0 0 0 306.2000000000001 491.9999999999999z" />
    <glyph glyph-name="FormatAlignLeft"
      unicode="&#xEA40;"
      horiz-adv-x="600" d="M75 525H525V475H75V525zM75 425H375V375H75V425zM75 325H525V275H75V325zM75 225H375V175H75V225zM75 125H525V75H75V125z" />
    <glyph glyph-name="FormatAlignLeft-1"
      unicode="&#x46;&#x6F;&#x72;&#x6D;&#x61;&#x74;&#x41;&#x6C;&#x69;&#x67;&#x6E;&#x4C;&#x65;&#x66;&#x74;"
      horiz-adv-x="600" d="M75 525H525V475H75V525zM75 425H375V375H75V425zM75 325H525V275H75V325zM75 225H375V175H75V225zM75 125H525V75H75V125z" />
    <glyph glyph-name="FormatAlignRight"
      unicode="&#xEA41;"
      horiz-adv-x="600" d="M75 525H525V475H75V525zM225 425H525V375H225V425zM75 325H525V275H75V325zM225 225H525V175H225V225zM75 125H525V75H75V125z" />
    <glyph glyph-name="FormatAlignRight-1"
      unicode="&#x46;&#x6F;&#x72;&#x6D;&#x61;&#x74;&#x41;&#x6C;&#x69;&#x67;&#x6E;&#x52;&#x69;&#x67;&#x68;&#x74;"
      horiz-adv-x="600" d="M75 525H525V475H75V525zM225 425H525V375H225V425zM75 325H525V275H75V325zM225 225H525V175H225V225zM75 125H525V75H75V125z" />
    <glyph glyph-name="Forum"
      unicode="&#xEA42;"
      horiz-adv-x="600" d="M425 300V525A25 25 0 0 1 400 550H75A25 25 0 0 1 50 525V175L150 275H400A25 25 0 0 1 425 300zM525 450H475V225H150V175A25 25 0 0 1 175 150H450L550 50V425A25 25 0 0 1 525 450z" />
    <glyph glyph-name="Forum-1"
      unicode="&#x46;&#x6F;&#x72;&#x75;&#x6D;"
      horiz-adv-x="600" d="M425 300V525A25 25 0 0 1 400 550H75A25 25 0 0 1 50 525V175L150 275H400A25 25 0 0 1 425 300zM525 450H475V225H150V175A25 25 0 0 1 175 150H450L550 50V425A25 25 0 0 1 525 450z" />
    <glyph glyph-name="Hammer"
      unicode="&#xEA43;"
      horiz-adv-x="600" d="M400 475L475 400L462.5 387.5C487.5 362.5 500 350 512.5 362.5L550 325C550 300 512.5 262.5 487.5 262.5L450 300C462.5 312.5 450 325 425 350L400 325L325 400C362.5 450 325 500 225 475C250 500 275 525 300 525C312.5 525 350 525 400 475zM50 100L100 50L350 300L300 350L50 100z" />
    <glyph glyph-name="Hammer-1"
      unicode="&#x48;&#x61;&#x6D;&#x6D;&#x65;&#x72;"
      horiz-adv-x="600" d="M400 475L475 400L462.5 387.5C487.5 362.5 500 350 512.5 362.5L550 325C550 300 512.5 262.5 487.5 262.5L450 300C462.5 312.5 450 325 425 350L400 325L325 400C362.5 450 325 500 225 475C250 500 275 525 300 525C312.5 525 350 525 400 475zM50 100L100 50L350 300L300 350L50 100z" />
    <glyph glyph-name="HelpFilled"
      unicode="&#xEA44;"
      horiz-adv-x="600" d="M376.75 318.75L354.25 295.75C336.25 277.75 325 262.5 325 225H275V237.5C275 265.25 286.25 290.25 304.25 308.25L335.25 339.75C344.5 348.75 350 361.25 350 375A50 50 0 1 1 250 375H200A100 100 0 0 0 400 375A80 80 0 0 0 376.75 318.75zM325 125H275V175H325V125zM300 550C161.925 550 50 438.075 50 300A250 250 0 0 1 550 300C550 438.25 437.5 550 300 550z" />
    <glyph glyph-name="HelpFilled-1"
      unicode="&#x48;&#x65;&#x6C;&#x70;&#x46;&#x69;&#x6C;&#x6C;&#x65;&#x64;"
      horiz-adv-x="600" d="M376.75 318.75L354.25 295.75C336.25 277.75 325 262.5 325 225H275V237.5C275 265.25 286.25 290.25 304.25 308.25L335.25 339.75C344.5 348.75 350 361.25 350 375A50 50 0 1 1 250 375H200A100 100 0 0 0 400 375A80 80 0 0 0 376.75 318.75zM325 125H275V175H325V125zM300 550C161.925 550 50 438.075 50 300A250 250 0 0 1 550 300C550 438.25 437.5 550 300 550z" />
    <glyph glyph-name="HelpOutline"
      unicode="&#xEA45;"
      horiz-adv-x="600" d="M275 150H325V200H275V150zM300 550C161.925 550 50 438.075 50 300A250 250 0 1 1 300 550zM300 100C189.75 100 100 189.75 100 300S189.75 500 300 500S500 410.25 500 300S410.25 100 300 100zM300 450A100 100 0 0 1 200 350H250A50 50 0 0 0 350 350C350 300 275 306.25 275 225H325C325 281.25 400 287.5 400 350A100 100 0 0 1 300 450z" />
    <glyph glyph-name="HelpOutline-1"
      unicode="&#x48;&#x65;&#x6C;&#x70;&#x4F;&#x75;&#x74;&#x6C;&#x69;&#x6E;&#x65;"
      horiz-adv-x="600" d="M275 150H325V200H275V150zM300 550C161.925 550 50 438.075 50 300A250 250 0 1 1 300 550zM300 100C189.75 100 100 189.75 100 300S189.75 500 300 500S500 410.25 500 300S410.25 100 300 100zM300 450A100 100 0 0 1 200 350H250A50 50 0 0 0 350 350C350 300 275 306.25 275 225H325C325 281.25 400 287.5 400 350A100 100 0 0 1 300 450z" />
    <glyph glyph-name="HelpSimple"
      unicode="&#xEA46;"
      horiz-adv-x="600" d="M250.7118987438835 125H325.7118987438835V50H250.7118987438835V125zM300.7118987438835 550C434.4618987438835 544.5 492.7118987438835 409.5 413.2118987438835 308.25C392.4618987438835 283.25 358.9618987438835 266.75 342.4618987438835 245.75C325.7118987438835 225 325.7118987438835 200 325.7118987438835 175H250.7118987438835C250.7118987438835 216.75 250.7118987438835 252 267.4618987438835 277C283.9618987438835 302 317.4618987438835 316.75 338.2118987438835 333.25C398.7118987438835 389.25 383.7118987438835 468.5 300.7118987438835 475A75 75 0 0 1 225.7118987438835 400H150.7118987438835A150 150 0 0 0 300.7118987438835 550z" />
    <glyph glyph-name="HelpSimple-1"
      unicode="&#x48;&#x65;&#x6C;&#x70;&#x53;&#x69;&#x6D;&#x70;&#x6C;&#x65;"
      horiz-adv-x="600" d="M250.7118987438835 125H325.7118987438835V50H250.7118987438835V125zM300.7118987438835 550C434.4618987438835 544.5 492.7118987438835 409.5 413.2118987438835 308.25C392.4618987438835 283.25 358.9618987438835 266.75 342.4618987438835 245.75C325.7118987438835 225 325.7118987438835 200 325.7118987438835 175H250.7118987438835C250.7118987438835 216.75 250.7118987438835 252 267.4618987438835 277C283.9618987438835 302 317.4618987438835 316.75 338.2118987438835 333.25C398.7118987438835 389.25 383.7118987438835 468.5 300.7118987438835 475A75 75 0 0 1 225.7118987438835 400H150.7118987438835A150 150 0 0 0 300.7118987438835 550z" />
    <glyph glyph-name="History"
      unicode="&#xEA47;"
      horiz-adv-x="600" d="M350 400H312.5V275L419.5 211.5L437.5 241.7500000000001L350 293.7500000000001V400M337.5 525A225 225 0 0 1 112.5 300H37.5L136.5 199.25L237.5 300H162.5A175 175 0 1 0 337.5 125C289.25 125 245.5 144.75 214 176.5L178.5 141A222.4 222.4 0 0 1 337.5 75A225 225 0 1 1 337.5 525" />
    <glyph glyph-name="History-1"
      unicode="&#x48;&#x69;&#x73;&#x74;&#x6F;&#x72;&#x79;"
      horiz-adv-x="600" d="M350 400H312.5V275L419.5 211.5L437.5 241.7500000000001L350 293.7500000000001V400M337.5 525A225 225 0 0 1 112.5 300H37.5L136.5 199.25L237.5 300H162.5A175 175 0 1 0 337.5 125C289.25 125 245.5 144.75 214 176.5L178.5 141A222.4 222.4 0 0 1 337.5 75A225 225 0 1 1 337.5 525" />
    <glyph glyph-name="Home"
      unicode="&#xEA48;"
      horiz-adv-x="600" d="M250 100V250H350V100H475V300H550L300 525L50 300H125V100z" />
    <glyph glyph-name="Home-1"
      unicode="&#x48;&#x6F;&#x6D;&#x65;"
      horiz-adv-x="600" d="M250 100V250H350V100H475V300H550L300 525L50 300H125V100z" />
    <glyph glyph-name="Info"
      unicode="&#xEA49;"
      horiz-adv-x="600" d="M325 375H275V425H325V375zM325 175H275V325H325V175zM300 550C161.925 550 50 438.075 50 300A250 250 0 1 1 300 550z" />
    <glyph glyph-name="Info-1"
      unicode="&#x49;&#x6E;&#x66;&#x6F;"
      horiz-adv-x="600" d="M325 375H275V425H325V375zM325 175H275V325H325V175zM300 550C161.925 550 50 438.075 50 300A250 250 0 1 1 300 550z" />
    <glyph glyph-name="InfoOutline"
      unicode="&#xEA4A;"
      horiz-adv-x="600" d="M275 375H325V425H275V375zM300 100C189.75 100 100 189.75 100 300S189.75 500 300 500S500 410.25 500 300S410.25 100 300 100zM300 550C161.925 550 50 438.075 50 300A250 250 0 1 1 300 550zM275 175H325V325H275V175z" />
    <glyph glyph-name="InfoOutline-1"
      unicode="&#x49;&#x6E;&#x66;&#x6F;&#x4F;&#x75;&#x74;&#x6C;&#x69;&#x6E;&#x65;"
      horiz-adv-x="600" d="M275 375H325V425H275V375zM300 100C189.75 100 100 189.75 100 300S189.75 500 300 500S500 410.25 500 300S410.25 100 300 100zM300 550C161.925 550 50 438.075 50 300A250 250 0 1 1 300 550zM275 175H325V325H275V175z" />
    <glyph glyph-name="InfoSimple"
      unicode="&#xEA4B;"
      horiz-adv-x="600" d="M268.75 390H331.25V450H268.75M268.75 150H331.25V330H268.75z" />
    <glyph glyph-name="InfoSimple-1"
      unicode="&#x49;&#x6E;&#x66;&#x6F;&#x53;&#x69;&#x6D;&#x70;&#x6C;&#x65;"
      horiz-adv-x="600" d="M268.75 390H331.25V450H268.75M268.75 150H331.25V330H268.75z" />
    <glyph glyph-name="Key"
      unicode="&#xEA4C;"
      horiz-adv-x="600" d="M315 350C295 407.5 240 450 175 450C92.5 450 25 382.5 25 300S92.5 150 175 150C240 150 295 192.5 315 250H400V150H500V250H575V350H315zM175 250C147.5 250 125 272.5 125 300S147.5 350 175 350S225 327.5 225 300S202.5 250 175 250z" />
    <glyph glyph-name="Key-1"
      unicode="&#x4B;&#x65;&#x79;"
      horiz-adv-x="600" d="M315 350C295 407.5 240 450 175 450C92.5 450 25 382.5 25 300S92.5 150 175 150C240 150 295 192.5 315 250H400V150H500V250H575V350H315zM175 250C147.5 250 125 272.5 125 300S147.5 350 175 350S225 327.5 225 300S202.5 250 175 250z" />
    <glyph glyph-name="Kroner"
      unicode="&#xEA4D;"
      horiz-adv-x="600" d="M300 564C445.8 564 564 445.8 564 300C564 154.2 445.8 36 300 36C154.2 36 36 154.2 36 300C36 445.8 154.2 564 300 564zM300 529.15A229.15 229.15 0 1 1 300 70.85A229.15 229.15 0 0 1 300 529.15zM216.2249999999999 360V314.6500000000001L254.2 360H302.325L259.625 314.75L304.25 240H259.625L234.925 289.35L216.225 269.3V240H180V360H216.225zM377.075 360C388.275 360 396.825 359 402.75 357.05C408.65 355.1 413.425 351.45 417.05 346.125C420.675 340.8 422.4749999999999 334.3250000000001 422.4749999999999 326.675C422.4749999999999 320.025 421.0999999999999 314.275 418.325 309.45C415.575 304.625 411.7499999999999 300.7 406.8999999999999 297.7C403.8 295.8 399.575 294.2 394.1749999999999 292.95C398.4999999999999 291.475 401.6499999999999 290.025 403.6249999999999 288.55C404.95 287.55 406.8749999999999 285.45 409.4249999999999 282.225C411.9249999999999 279.025 413.6499999999999 276.525 414.4999999999999 274.8L431.9999999999998 240H391.0749999999998L371.7249999999998 276.675C369.2749999999998 281.425 367.0749999999998 284.5 365.1499999999998 285.925A14.95 14.95 0 0 1 356.2999999999999 288.7H353.0999999999998V240H316.7249999999998V360H377.0749999999998zM368.9999999999999 335.75H353.0999999999999V311.375H368.3499999999999C370.025 311.375 373.2 311.925 377.95 313.0250000000001A9.55 9.55 0 0 1 383.825 316.7750000000001A11.25 11.25 0 0 1 386.0999999999999 323.75C386.0999999999999 327.625 384.8999999999999 330.5750000000001 382.4999999999999 332.6500000000001C380.1249999999999 334.725 375.5999999999999 335.7750000000001 368.9999999999999 335.7750000000001z" />
    <glyph glyph-name="Kroner-1"
      unicode="&#x4B;&#x72;&#x6F;&#x6E;&#x65;&#x72;"
      horiz-adv-x="600" d="M300 564C445.8 564 564 445.8 564 300C564 154.2 445.8 36 300 36C154.2 36 36 154.2 36 300C36 445.8 154.2 564 300 564zM300 529.15A229.15 229.15 0 1 1 300 70.85A229.15 229.15 0 0 1 300 529.15zM216.2249999999999 360V314.6500000000001L254.2 360H302.325L259.625 314.75L304.25 240H259.625L234.925 289.35L216.225 269.3V240H180V360H216.225zM377.075 360C388.275 360 396.825 359 402.75 357.05C408.65 355.1 413.425 351.45 417.05 346.125C420.675 340.8 422.4749999999999 334.3250000000001 422.4749999999999 326.675C422.4749999999999 320.025 421.0999999999999 314.275 418.325 309.45C415.575 304.625 411.7499999999999 300.7 406.8999999999999 297.7C403.8 295.8 399.575 294.2 394.1749999999999 292.95C398.4999999999999 291.475 401.6499999999999 290.025 403.6249999999999 288.55C404.95 287.55 406.8749999999999 285.45 409.4249999999999 282.225C411.9249999999999 279.025 413.6499999999999 276.525 414.4999999999999 274.8L431.9999999999998 240H391.0749999999998L371.7249999999998 276.675C369.2749999999998 281.425 367.0749999999998 284.5 365.1499999999998 285.925A14.95 14.95 0 0 1 356.2999999999999 288.7H353.0999999999998V240H316.7249999999998V360H377.0749999999998zM368.9999999999999 335.75H353.0999999999999V311.375H368.3499999999999C370.025 311.375 373.2 311.925 377.95 313.0250000000001A9.55 9.55 0 0 1 383.825 316.7750000000001A11.25 11.25 0 0 1 386.0999999999999 323.75C386.0999999999999 327.625 384.8999999999999 330.5750000000001 382.4999999999999 332.6500000000001C380.1249999999999 334.725 375.5999999999999 335.7750000000001 368.9999999999999 335.7750000000001z" />
    <glyph glyph-name="LanPending"
      unicode="&#xEA4E;"
      horiz-adv-x="600" d="M100 575C72.25 575 50 552.75 50 525V425C50 397.25 72.25 375 100 375H25V325H325V375H250C277.75 375 300 397.25 300 425V525C300 552.75 277.75 575 250 575H100zM100 525H250V425H100V525zM75 300V250H125V300H75zM350 275C322.25 275 300 252.75 300 225V125C300 97.25 322.25 75 350 75H275V25H575V75H500C527.75 75 550 97.25 550 125V225C550 252.75 527.75 275 500 275H350zM75 225V175H125V225H75zM350 225H500V125H350V225zM75 150V100H125V150H75zM150 150V100H200V150H150zM225 150V100H275V150H225z" />
    <glyph glyph-name="LanPending-1"
      unicode="&#x4C;&#x61;&#x6E;&#x50;&#x65;&#x6E;&#x64;&#x69;&#x6E;&#x67;"
      horiz-adv-x="600" d="M100 575C72.25 575 50 552.75 50 525V425C50 397.25 72.25 375 100 375H25V325H325V375H250C277.75 375 300 397.25 300 425V525C300 552.75 277.75 575 250 575H100zM100 525H250V425H100V525zM75 300V250H125V300H75zM350 275C322.25 275 300 252.75 300 225V125C300 97.25 322.25 75 350 75H275V25H575V75H500C527.75 75 550 97.25 550 125V225C550 252.75 527.75 275 500 275H350zM75 225V175H125V225H75zM350 225H500V125H350V225zM75 150V100H125V150H75zM150 150V100H200V150H150zM225 150V100H275V150H225z" />
    <glyph glyph-name="Linkedin"
      unicode="&#xEA4F;"
      horiz-adv-x="600" d="M475 525A50 50 0 0 0 525 475V125A50 50 0 0 0 475 75H125A50 50 0 0 0 75 125V475A50 50 0 0 0 125 525H475zM462.5 137.5V270C462.5 315.0000000000001 426 351.5 381 351.5C359.75 351.5 335 338.5 323 319V346.75H253.25V137.5H323V260.75C323 280 338.5 295.75 357.75 295.75A35 35 0 0 0 392.75 260.75V137.5H462.5zM172 386A42.15 42.15 0 0 1 172 470.25A42.25 42.25 0 0 1 129.75 428C129.75 404.75 148.75 386 172 386zM206.75 137.5V346.75H137.5V137.5H206.75z" />
    <glyph glyph-name="Linkedin-1"
      unicode="&#x4C;&#x69;&#x6E;&#x6B;&#x65;&#x64;&#x69;&#x6E;"
      horiz-adv-x="600" d="M475 525A50 50 0 0 0 525 475V125A50 50 0 0 0 475 75H125A50 50 0 0 0 75 125V475A50 50 0 0 0 125 525H475zM462.5 137.5V270C462.5 315.0000000000001 426 351.5 381 351.5C359.75 351.5 335 338.5 323 319V346.75H253.25V137.5H323V260.75C323 280 338.5 295.75 357.75 295.75A35 35 0 0 0 392.75 260.75V137.5H462.5zM172 386A42.15 42.15 0 0 1 172 470.25A42.25 42.25 0 0 1 129.75 428C129.75 404.75 148.75 386 172 386zM206.75 137.5V346.75H137.5V137.5H206.75z" />
    <glyph glyph-name="ListAdd"
      unicode="&#xEA50;"
      horiz-adv-x="600" d="M87.5 450H487.5V400H87.5V450zM87.5 325H262.5V275H87.5V325zM87.5 200H262.5V150H87.5V200zM312.5 250H512.5V200H312.5V250zM387.5 325H437.5V125H387.5V325z" />
    <glyph glyph-name="ListAdd-1"
      unicode="&#x4C;&#x69;&#x73;&#x74;&#x41;&#x64;&#x64;"
      horiz-adv-x="600" d="M87.5 450H487.5V400H87.5V450zM87.5 325H262.5V275H87.5V325zM87.5 200H262.5V150H87.5V200zM312.5 250H512.5V200H312.5V250zM387.5 325H437.5V125H387.5V325z" />
    <glyph glyph-name="ListRemove"
      unicode="&#xEA51;"
      horiz-adv-x="600" d="M87.5 450H487.5V400H87.5V450zM87.5 325H262.5V275H87.5V325zM87.5 200H262.5V150H87.5V200zM312.5 262.5H512.5V212.5H312.5V262.5zM387.5 325A25 25 0 0 1 437.5 325A25 25 0 0 1 387.5 325M387.5 150A25 25 0 0 1 437.5 150A25 25 0 0 1 387.5 150" />
    <glyph glyph-name="ListRemove-1"
      unicode="&#x4C;&#x69;&#x73;&#x74;&#x52;&#x65;&#x6D;&#x6F;&#x76;&#x65;"
      horiz-adv-x="600" d="M87.5 450H487.5V400H87.5V450zM87.5 325H262.5V275H87.5V325zM87.5 200H262.5V150H87.5V200zM312.5 262.5H512.5V212.5H312.5V262.5zM387.5 325A25 25 0 0 1 437.5 325A25 25 0 0 1 387.5 325M387.5 150A25 25 0 0 1 437.5 150A25 25 0 0 1 387.5 150" />
    <glyph glyph-name="ListReorder"
      unicode="&#xEA52;"
      horiz-adv-x="600" d="M62.5 450H462.5V400H62.5V450zM137.5 325H537.5V275H137.5V325zM62.5 200H462.5V150H62.5V200z" />
    <glyph glyph-name="ListReorder-1"
      unicode="&#x4C;&#x69;&#x73;&#x74;&#x52;&#x65;&#x6F;&#x72;&#x64;&#x65;&#x72;"
      horiz-adv-x="600" d="M62.5 450H462.5V400H62.5V450zM137.5 325H537.5V275H137.5V325zM62.5 200H462.5V150H62.5V200z" />
    <glyph glyph-name="Lock"
      unicode="&#xEA53;"
      horiz-adv-x="600" d="M300 175A50 50 0 1 1 300 275A50 50 0 0 1 300 175zM450 400A50 50 0 0 0 500 350V100A50 50 0 0 0 450 50H150A50 50 0 0 0 100 100V350A50 50 0 0 0 150 400H175V450A125 125 0 0 0 425 450V400H450zM300 525A75 75 0 0 1 225 450V400H375V450A75 75 0 0 1 300 525z" />
    <glyph glyph-name="Lock-1"
      unicode="&#x4C;&#x6F;&#x63;&#x6B;"
      horiz-adv-x="600" d="M300 175A50 50 0 1 1 300 275A50 50 0 0 1 300 175zM450 400A50 50 0 0 0 500 350V100A50 50 0 0 0 450 50H150A50 50 0 0 0 100 100V350A50 50 0 0 0 150 400H175V450A125 125 0 0 0 425 450V400H450zM300 525A75 75 0 0 1 225 450V400H375V450A75 75 0 0 1 300 525z" />
    <glyph glyph-name="LockOpen"
      unicode="&#xEA54;"
      horiz-adv-x="600" d="M450 400A50 50 0 0 0 500 350V100A50 50 0 0 0 450 50H150A50 50 0 0 0 100 100V350A50 50 0 0 0 150 400H375V450A75 75 0 1 1 225 450H175A125 125 0 0 0 425 450V400H450zM300 175A50 50 0 1 1 300 275A50 50 0 0 1 300 175z" />
    <glyph glyph-name="LockOpen-1"
      unicode="&#x4C;&#x6F;&#x63;&#x6B;&#x4F;&#x70;&#x65;&#x6E;"
      horiz-adv-x="600" d="M450 400A50 50 0 0 0 500 350V100A50 50 0 0 0 450 50H150A50 50 0 0 0 100 100V350A50 50 0 0 0 150 400H375V450A75 75 0 1 1 225 450H175A125 125 0 0 0 425 450V400H450zM300 175A50 50 0 1 1 300 275A50 50 0 0 1 300 175z" />
    <glyph glyph-name="LockOutline"
      unicode="&#xEA55;"
      horiz-adv-x="600" d="M300 175A50 50 0 0 0 250 225C250 252.75 272.25 275 300 275A50 50 0 1 0 300 175zM450 100V350H150V100H450zM450 400A50 50 0 0 0 500 350V100A50 50 0 0 0 450 50H150A50 50 0 0 0 100 100V350C100 377.75 122.25 400 150 400H175V450A125 125 0 0 0 425 450V400H450zM300 525A75 75 0 0 1 225 450V400H375V450A75 75 0 0 1 300 525z" />
    <glyph glyph-name="LockOutline-1"
      unicode="&#x4C;&#x6F;&#x63;&#x6B;&#x4F;&#x75;&#x74;&#x6C;&#x69;&#x6E;&#x65;"
      horiz-adv-x="600" d="M300 175A50 50 0 0 0 250 225C250 252.75 272.25 275 300 275A50 50 0 1 0 300 175zM450 100V350H150V100H450zM450 400A50 50 0 0 0 500 350V100A50 50 0 0 0 450 50H150A50 50 0 0 0 100 100V350C100 377.75 122.25 400 150 400H175V450A125 125 0 0 0 425 450V400H450zM300 525A75 75 0 0 1 225 450V400H375V450A75 75 0 0 1 300 525z" />
    <glyph glyph-name="LockOutlineOpen"
      unicode="&#xEA56;"
      horiz-adv-x="600" d="M450 100V350H150V100H450zM450 400A50 50 0 0 0 500 350V100A50 50 0 0 0 450 50H150A50 50 0 0 0 100 100V350A50 50 0 0 0 150 400H375V450A75 75 0 1 1 225 450H175A125 125 0 0 0 425 450V400H450zM300 175A50 50 0 1 0 300 275A50 50 0 0 0 300 175z" />
    <glyph glyph-name="LockOutlineOpen-1"
      unicode="&#x4C;&#x6F;&#x63;&#x6B;&#x4F;&#x75;&#x74;&#x6C;&#x69;&#x6E;&#x65;&#x4F;&#x70;&#x65;&#x6E;"
      horiz-adv-x="600" d="M450 100V350H150V100H450zM450 400A50 50 0 0 0 500 350V100A50 50 0 0 0 450 50H150A50 50 0 0 0 100 100V350A50 50 0 0 0 150 400H375V450A75 75 0 1 1 225 450H175A125 125 0 0 0 425 450V400H450zM300 175A50 50 0 1 0 300 275A50 50 0 0 0 300 175z" />
    <glyph glyph-name="Menu"
      unicode="&#xEA57;"
      horiz-adv-x="600" d="M75 450H525V400H75V450zM75 325H525V275H75V325zM75 200H525V150H75V200z" />
    <glyph glyph-name="Menu-1"
      unicode="&#x4D;&#x65;&#x6E;&#x75;"
      horiz-adv-x="600" d="M75 450H525V400H75V450zM75 325H525V275H75V325zM75 200H525V150H75V200z" />
    <glyph glyph-name="MenuDown"
      unicode="&#xEA58;"
      horiz-adv-x="600" d="M175 350L300 225L425 350z" />
    <glyph glyph-name="MenuDown-1"
      unicode="&#x4D;&#x65;&#x6E;&#x75;&#x44;&#x6F;&#x77;&#x6E;"
      horiz-adv-x="600" d="M175 350L300 225L425 350z" />
    <glyph glyph-name="MenuUp"
      unicode="&#xEA59;"
      horiz-adv-x="600" d="M175 225L300 350L425 225z" />
    <glyph glyph-name="MenuUp-1"
      unicode="&#x4D;&#x65;&#x6E;&#x75;&#x55;&#x70;"
      horiz-adv-x="600" d="M175 225L300 350L425 225z" />
    <glyph glyph-name="More"
      unicode="&#xEA5A;"
      horiz-adv-x="600" d="M300 550A250 250 0 0 0 550 300A250 250 0 0 0 300 50A250 250 0 0 0 50 300A250 250 0 0 0 300 550M300 500A200 200 0 0 1 100 300A200 200 0 0 1 300 100A200 200 0 0 1 500 300A200 200 0 0 1 300 500M300 337.5A37.5 37.5 0 0 0 337.5 300A37.5 37.5 0 0 0 300 262.5A37.5 37.5 0 0 0 262.5 300A37.5 37.5 0 0 0 300 337.5M187.5 337.5A37.5 37.5 0 0 0 225 300A37.5 37.5 0 0 0 187.5 262.5A37.5 37.5 0 0 0 150 300A37.5 37.5 0 0 0 187.5 337.5M412.5 337.5A37.5 37.5 0 0 0 450 300A37.5 37.5 0 0 0 412.5 262.5A37.5 37.5 0 0 0 375 300A37.5 37.5 0 0 0 412.5 337.5z" />
    <glyph glyph-name="More-1"
      unicode="&#x4D;&#x6F;&#x72;&#x65;"
      horiz-adv-x="600" d="M300 550A250 250 0 0 0 550 300A250 250 0 0 0 300 50A250 250 0 0 0 50 300A250 250 0 0 0 300 550M300 500A200 200 0 0 1 100 300A200 200 0 0 1 300 100A200 200 0 0 1 500 300A200 200 0 0 1 300 500M300 337.5A37.5 37.5 0 0 0 337.5 300A37.5 37.5 0 0 0 300 262.5A37.5 37.5 0 0 0 262.5 300A37.5 37.5 0 0 0 300 337.5M187.5 337.5A37.5 37.5 0 0 0 225 300A37.5 37.5 0 0 0 187.5 262.5A37.5 37.5 0 0 0 150 300A37.5 37.5 0 0 0 187.5 337.5M412.5 337.5A37.5 37.5 0 0 0 450 300A37.5 37.5 0 0 0 412.5 262.5A37.5 37.5 0 0 0 375 300A37.5 37.5 0 0 0 412.5 337.5z" />
    <glyph glyph-name="MoveUp"
      unicode="&#xEA5B;"
      horiz-adv-x="600" d="M275 145H325V115.0000000000001H275zM275 235H325V175H275zM275 65H325V50H275zM137.5 267.5L275 405V262.5H325V405L462.5 267.5L497.4999999999999 302.5L300 500L102.5 302.5zM550 550H50V500H550z" />
    <glyph glyph-name="MoveUp-1"
      unicode="&#x4D;&#x6F;&#x76;&#x65;&#x55;&#x70;"
      horiz-adv-x="600" d="M275 145H325V115.0000000000001H275zM275 235H325V175H275zM275 65H325V50H275zM137.5 267.5L275 405V262.5H325V405L462.5 267.5L497.4999999999999 302.5L300 500L102.5 302.5zM550 550H50V500H550z" />
    <glyph glyph-name="OpenInNew"
      unicode="&#xEA5C;"
      horiz-adv-x="600" d="M350 525V475H439.75L194 229.25L229.25 194.0000000000001L475 439.75V350H525V525H350zM475 125H125V475H300V525H125A50 50 0 0 1 75 475V125A50 50 0 0 1 125 75H475A50 50 0 0 1 525 125V300H475V125z" />
    <glyph glyph-name="OpenInNew-1"
      unicode="&#x4F;&#x70;&#x65;&#x6E;&#x49;&#x6E;&#x4E;&#x65;&#x77;"
      horiz-adv-x="600" d="M350 525V475H439.75L194 229.25L229.25 194.0000000000001L475 439.75V350H525V525H350zM475 125H125V475H300V525H125A50 50 0 0 1 75 475V125A50 50 0 0 1 125 75H475A50 50 0 0 1 525 125V300H475V125z" />
    <glyph glyph-name="PDFFile"
      unicode="&#xEA5D;"
      horiz-adv-x="600" d="M325 375H462.5L325 512.5V375zM150 550H350L500 400V100A50 50 0 0 0 450 50H150A50 50 0 0 0 100 100V500A50 50 0 0 0 150 550zM252.5 315C252 314 245.25 271 200 197.75C200 197.75 112.5 152.25 133.25 118.25C150 91.2499999999999 191.25 119.25 226.75 185.25C226.75 185.25 272.25 201.25 332.75 205.75C332.75 205.75 429.2500000000001 162.5 442.5 208.5C455.5 255 366 244.5 350 239.75C350 239.75 300 273.5 287.5 320C287.5 320 316 418.75 272.25 417.5C228.5 416.25 245.0000000000001 339.25 252.5000000000001 315.0000000000001zM272.75 289C273.5 288.75 284.5 258.75 320 227.5C320 227.5 261.75 216 235.25 205C235.25 205 260.25 248.25 272.75 289zM371 221C385.5 225 429.2500000000001 217.25 427.5000000000001 209C426.0000000000001 200.75 371.0000000000001 221 371.0000000000001 221zM194.25 175C181 144.0000000000001 158.25 125 152.5 125C146.75 125 170 165.0000000000001 194.25 175zM272.75 348.25C272.75 350 263.75 403.25 272.75 402C286.25 400 272.75 350 272.75 348.25z" />
    <glyph glyph-name="PDFFile-1"
      unicode="&#x50;&#x44;&#x46;&#x46;&#x69;&#x6C;&#x65;"
      horiz-adv-x="600" d="M325 375H462.5L325 512.5V375zM150 550H350L500 400V100A50 50 0 0 0 450 50H150A50 50 0 0 0 100 100V500A50 50 0 0 0 150 550zM252.5 315C252 314 245.25 271 200 197.75C200 197.75 112.5 152.25 133.25 118.25C150 91.2499999999999 191.25 119.25 226.75 185.25C226.75 185.25 272.25 201.25 332.75 205.75C332.75 205.75 429.2500000000001 162.5 442.5 208.5C455.5 255 366 244.5 350 239.75C350 239.75 300 273.5 287.5 320C287.5 320 316 418.75 272.25 417.5C228.5 416.25 245.0000000000001 339.25 252.5000000000001 315.0000000000001zM272.75 289C273.5 288.75 284.5 258.75 320 227.5C320 227.5 261.75 216 235.25 205C235.25 205 260.25 248.25 272.75 289zM371 221C385.5 225 429.2500000000001 217.25 427.5000000000001 209C426.0000000000001 200.75 371.0000000000001 221 371.0000000000001 221zM194.25 175C181 144.0000000000001 158.25 125 152.5 125C146.75 125 170 165.0000000000001 194.25 175zM272.75 348.25C272.75 350 263.75 403.25 272.75 402C286.25 400 272.75 350 272.75 348.25z" />
    <glyph glyph-name="PauseOutline"
      unicode="&#xEA5E;"
      horiz-adv-x="600" d="M325 200V400H375V200H325zM225 200V400H275V200H225zM300 550A250 250 0 0 0 550 300C550 161.925 438.075 50 300 50A250 250 0 1 0 300 550zM300 500A200 200 0 1 1 300 100A200 200 0 0 1 300 500z" />
    <glyph glyph-name="PauseOutline-1"
      unicode="&#x50;&#x61;&#x75;&#x73;&#x65;&#x4F;&#x75;&#x74;&#x6C;&#x69;&#x6E;&#x65;"
      horiz-adv-x="600" d="M325 200V400H375V200H325zM225 200V400H275V200H225zM300 550A250 250 0 0 0 550 300C550 161.925 438.075 50 300 50A250 250 0 1 0 300 550zM300 500A200 200 0 1 1 300 100A200 200 0 0 1 300 500z" />
    <glyph glyph-name="Pencil-off"
      unicode="&#xEA5F;"
      horiz-adv-x="600" d="M466.34375 550C459.8437499999999 550 453.84375 547.75 449.09375 543L403.09375 496.75L496.84375 403L542.84375 449.25C552.59375 459 552.59375 475 542.84375 484.25L484.34375 543C479.34375 547.75 472.59375 550 466.34375 550M81.84375 500L49.84375 468L212.34375 306.25L99.84375 193.75V100H193.59375L306.09375 212.5L467.84375 50L499.84375 82L337.34375 243.75L243.59375 337.5L81.84375 500M376.34375 470.25L275.59375 369.5L369.34375 275.75L470.0937499999999 376.5000000000001L376.34375 470.2500000000001z" />
    <glyph glyph-name="Pencil-off-1"
      unicode="&#x50;&#x65;&#x6E;&#x63;&#x69;&#x6C;&#x5F;&#x6F;&#x66;&#x66;"
      horiz-adv-x="600" d="M466.34375 550C459.8437499999999 550 453.84375 547.75 449.09375 543L403.09375 496.75L496.84375 403L542.84375 449.25C552.59375 459 552.59375 475 542.84375 484.25L484.34375 543C479.34375 547.75 472.59375 550 466.34375 550M81.84375 500L49.84375 468L212.34375 306.25L99.84375 193.75V100H193.59375L306.09375 212.5L467.84375 50L499.84375 82L337.34375 243.75L243.59375 337.5L81.84375 500M376.34375 470.25L275.59375 369.5L369.34375 275.75L470.0937499999999 376.5000000000001L376.34375 470.2500000000001z" />
    <glyph glyph-name="Person"
      unicode="&#xEA60;"
      horiz-adv-x="600" d="M300 500A100 100 0 1 0 300 300A100 100 0 0 0 300 500zM300 250C410.5000000000001 250 500 205.25 500 150V100H100V150C100 205.25 189.5 250 300 250z" />
    <glyph glyph-name="Person-1"
      unicode="&#x50;&#x65;&#x72;&#x73;&#x6F;&#x6E;"
      horiz-adv-x="600" d="M300 500A100 100 0 1 0 300 300A100 100 0 0 0 300 500zM300 250C410.5000000000001 250 500 205.25 500 150V100H100V150C100 205.25 189.5 250 300 250z" />
    <glyph glyph-name="PersonMore"
      unicode="&#xEA61;"
      horiz-adv-x="600" d="M375 250C308.25 250 175 216.75 175 150V100H575V150C575 216.75 441.7500000000001 250 375 250zM150 350V425H100V350H25V300H100V225H150V300H225V350H150zM375 300A100 100 0 1 1 375 500A100 100 0 0 1 375 300z" />
    <glyph glyph-name="PersonMore-1"
      unicode="&#x50;&#x65;&#x72;&#x73;&#x6F;&#x6E;&#x4D;&#x6F;&#x72;&#x65;"
      horiz-adv-x="600" d="M375 250C308.25 250 175 216.75 175 150V100H575V150C575 216.75 441.7500000000001 250 375 250zM150 350V425H100V350H25V300H100V225H150V300H225V350H150zM375 300A100 100 0 1 1 375 500A100 100 0 0 1 375 300z" />
    <glyph glyph-name="PersonMoreOutline"
      unicode="&#xEA62;"
      horiz-adv-x="600" d="M375 500A100 100 0 1 1 375 300A100 100 0 0 1 375 500zM375 452.5A52.5 52.5 0 1 0 375 347.5A52.5 52.5 0 0 0 375 452.5zM100 425V350H25V300H100V225H150V300H225V350H150V425H100zM375 275C308.25 275 175 241.75 175 175V100H575V175C575 241.75 441.7500000000001 275 375 275zM375 227.5C449.25 227.5 527.5 191 527.5 175V147.5H222.5V175C222.5 191 300 227.5 375 227.5z" />
    <glyph glyph-name="PersonMoreOutline-1"
      unicode="&#x50;&#x65;&#x72;&#x73;&#x6F;&#x6E;&#x4D;&#x6F;&#x72;&#x65;&#x4F;&#x75;&#x74;&#x6C;&#x69;&#x6E;&#x65;"
      horiz-adv-x="600" d="M375 500A100 100 0 1 1 375 300A100 100 0 0 1 375 500zM375 452.5A52.5 52.5 0 1 0 375 347.5A52.5 52.5 0 0 0 375 452.5zM100 425V350H25V300H100V225H150V300H225V350H150V425H100zM375 275C308.25 275 175 241.75 175 175V100H575V175C575 241.75 441.7500000000001 275 375 275zM375 227.5C449.25 227.5 527.5 191 527.5 175V147.5H222.5V175C222.5 191 300 227.5 375 227.5z" />
    <glyph glyph-name="PersonOutline"
      unicode="&#xEA63;"
      horiz-adv-x="600" d="M300 500A100 100 0 1 0 300 300A100 100 0 0 0 300 500zM300 450A50 50 0 1 1 300 350A50 50 0 0 1 300 450zM300 275C366.75 275 500 241.75 500 175V100H100V175C100 241.75 233.25 275 300 275zM300 227.5C225.75 227.5 147.5 191 147.5 175V147.5H452.5000000000001V175C452.5000000000001 191 374.2500000000001 227.5 300.0000000000001 227.5z" />
    <glyph glyph-name="PersonOutline-1"
      unicode="&#x50;&#x65;&#x72;&#x73;&#x6F;&#x6E;&#x4F;&#x75;&#x74;&#x6C;&#x69;&#x6E;&#x65;"
      horiz-adv-x="600" d="M300 500A100 100 0 1 0 300 300A100 100 0 0 0 300 500zM300 450A50 50 0 1 1 300 350A50 50 0 0 1 300 450zM300 275C366.75 275 500 241.75 500 175V100H100V175C100 241.75 233.25 275 300 275zM300 227.5C225.75 227.5 147.5 191 147.5 175V147.5H452.5000000000001V175C452.5000000000001 191 374.2500000000001 227.5 300.0000000000001 227.5z" />
    <glyph glyph-name="Phone"
      unicode="&#xEA64;"
      horiz-adv-x="600" d="M300 525C186.5 525 83.5 480.5 7.25 408.25C2.75 403.75 0 397.5 0 390.5C0 383.5 2.75 377.25 7.25 372.75L69.25 310.75A25.25 25.25 0 0 1 104.5 310.5C124.25 329 146.75 344.5 171 356.75C179.25 360.75 185 369.25 185 379.25V456.75C221.25 468.75 259.75 475 300 475C339.75 475 378.5 468.75 414.75 457V379.5C414.75 369.75 420.5 361 428.75 357C453.25 344.75 475 329 495.5 310.75C500 306.25 506.25 303.75 512.5 303.75C520 303.75 526.25 306.5 530.75 311L592.75 373C597.25 377.5 600 383.75 600 390.75C600 397.75 597 403.75 592.5 408.25A424.125 424.125 0 0 1 300 525zM225 425V350S75 225 75 150V50H525V150C525 225 375 350 375 350V425H325V375H275V425H225zM300 300A100 100 0 1 0 300 100A100 100 0 0 0 300 300zM300 262.5A62.5 62.5 0 1 1 300 137.5A62.5 62.5 0 0 1 300 262.5z" />
    <glyph glyph-name="Phone-1"
      unicode="&#x50;&#x68;&#x6F;&#x6E;&#x65;"
      horiz-adv-x="600" d="M300 525C186.5 525 83.5 480.5 7.25 408.25C2.75 403.75 0 397.5 0 390.5C0 383.5 2.75 377.25 7.25 372.75L69.25 310.75A25.25 25.25 0 0 1 104.5 310.5C124.25 329 146.75 344.5 171 356.75C179.25 360.75 185 369.25 185 379.25V456.75C221.25 468.75 259.75 475 300 475C339.75 475 378.5 468.75 414.75 457V379.5C414.75 369.75 420.5 361 428.75 357C453.25 344.75 475 329 495.5 310.75C500 306.25 506.25 303.75 512.5 303.75C520 303.75 526.25 306.5 530.75 311L592.75 373C597.25 377.5 600 383.75 600 390.75C600 397.75 597 403.75 592.5 408.25A424.125 424.125 0 0 1 300 525zM225 425V350S75 225 75 150V50H525V150C525 225 375 350 375 350V425H325V375H275V425H225zM300 300A100 100 0 1 0 300 100A100 100 0 0 0 300 300zM300 262.5A62.5 62.5 0 1 1 300 137.5A62.5 62.5 0 0 1 300 262.5z" />
    <glyph glyph-name="Pin"
      unicode="&#xEA65;"
      horiz-adv-x="600" d="M175 550V500H200V300L150 250V200.025H280V50H320.025V200.025H450V250L400 300V500H425V550z" />
    <glyph glyph-name="Pin-1"
      unicode="&#x50;&#x69;&#x6E;"
      horiz-adv-x="600" d="M175 550V500H200V300L150 250V200.025H280V50H320.025V200.025H450V250L400 300V500H425V550z" />
    <glyph glyph-name="Pinoff"
      unicode="&#xEA66;"
      horiz-adv-x="600" d="M200 550V500H225V445.5L470.5 200.025H475V250L425 300V500H450V550H200zM75 468.25L225 318.25V300L174.975 250V200.025H304.975V50H345V198.25L493.25 50L525 82L106.975 500L75 468.25z" />
    <glyph glyph-name="Pinoff-1"
      unicode="&#x50;&#x69;&#x6E;&#x6F;&#x66;&#x66;"
      horiz-adv-x="600" d="M200 550V500H225V445.5L470.5 200.025H475V250L425 300V500H450V550H200zM75 468.25L225 318.25V300L174.975 250V200.025H304.975V50H345V198.25L493.25 50L525 82L106.975 500L75 468.25z" />
    <glyph glyph-name="PlayOutline"
      unicode="&#xEA67;"
      horiz-adv-x="600" d="M300 100C189.75 100 100 189.75 100 300S189.75 500 300 500S500 410.25 500 300S410.25 100 300 100zM300 550C161.925 550 50 438.075 50 300A250 250 0 1 1 300 550zM250 187.5L400 300L250 412.5V187.5z" />
    <glyph glyph-name="PlayOutline-1"
      unicode="&#x50;&#x6C;&#x61;&#x79;&#x4F;&#x75;&#x74;&#x6C;&#x69;&#x6E;&#x65;"
      horiz-adv-x="600" d="M300 100C189.75 100 100 189.75 100 300S189.75 500 300 500S500 410.25 500 300S410.25 100 300 100zM300 550C161.925 550 50 438.075 50 300A250 250 0 1 1 300 550zM250 187.5L400 300L250 412.5V187.5z" />
    <glyph glyph-name="PreviewFile"
      unicode="&#xEA68;"
      horiz-adv-x="600" d="M350 550L500 400V97.4999999999999C500 80 492.5 67.5 480 57.4999999999999L440 97.4999999999999L370 170C347.5 157.5 324.9999999999999 149.9999999999999 299.9999999999999 149.9999999999999C267.4999999999999 149.9999999999999 237.4999999999999 162.4999999999999 212.4999999999999 187.4999999999999C162.4999999999999 235 162.4999999999999 314.9999999999999 212.4999999999999 362.4999999999999C235 387.5 267.5 400 300 400C332.5 400 362.5 387.5 387.5 362.5C432.5 320 437.5 252.5 405 205L450 160V375L325 500H150V100H370L420 50H150C122.5 50 100 72.5 100 100V500C100 527.5 122.5 550 150 550H350zM300 350C280 350 262.5 342.5 247.5 327.5C232.5000000000001 315 225 295 225 275S232.5000000000001 237.5 247.5 222.5C260 207.5 280 200 300 200S337.5 207.5 352.5 222.5C367.5 237.5 375 255 375 275S367.5 312.5 352.5 327.5C337.5 342.5 320 350 300 350z" />
    <glyph glyph-name="PreviewFile-1"
      unicode="&#x50;&#x72;&#x65;&#x76;&#x69;&#x65;&#x77;&#x46;&#x69;&#x6C;&#x65;"
      horiz-adv-x="600" d="M350 550L500 400V97.4999999999999C500 80 492.5 67.5 480 57.4999999999999L440 97.4999999999999L370 170C347.5 157.5 324.9999999999999 149.9999999999999 299.9999999999999 149.9999999999999C267.4999999999999 149.9999999999999 237.4999999999999 162.4999999999999 212.4999999999999 187.4999999999999C162.4999999999999 235 162.4999999999999 314.9999999999999 212.4999999999999 362.4999999999999C235 387.5 267.5 400 300 400C332.5 400 362.5 387.5 387.5 362.5C432.5 320 437.5 252.5 405 205L450 160V375L325 500H150V100H370L420 50H150C122.5 50 100 72.5 100 100V500C100 527.5 122.5 550 150 550H350zM300 350C280 350 262.5 342.5 247.5 327.5C232.5000000000001 315 225 295 225 275S232.5000000000001 237.5 247.5 222.5C260 207.5 280 200 300 200S337.5 207.5 352.5 222.5C367.5 237.5 375 255 375 275S367.5 312.5 352.5 327.5C337.5 342.5 320 350 300 350z" />
    <glyph glyph-name="Print"
      unicode="&#xEA69;"
      horiz-adv-x="600" d="M450 525H150V425H450V525zM475 300A25 25 0 1 0 475 350A25 25 0 0 0 475 300zM400 125H200V250H400V125zM475 400H125A75 75 0 0 1 50 325V175H150V75H450V175H550V325A75 75 0 0 1 475 400z" />
    <glyph glyph-name="Print-1"
      unicode="&#x50;&#x72;&#x69;&#x6E;&#x74;"
      horiz-adv-x="600" d="M450 525H150V425H450V525zM475 300A25 25 0 1 0 475 350A25 25 0 0 0 475 300zM400 125H200V250H400V125zM475 400H125A75 75 0 0 1 50 325V175H150V75H450V175H550V325A75 75 0 0 1 475 400z" />
    <glyph glyph-name="Save"
      unicode="&#xEA6A;"
      horiz-adv-x="600" d="M375 375H125V475H375V375zM300 125A75 75 0 1 0 300 275A75 75 0 0 0 300 125zM425 525H125A50 50 0 0 1 75 475V125A50 50 0 0 1 125 75H475A50 50 0 0 1 525 125V425L425 525z" />
    <glyph glyph-name="Save-1"
      unicode="&#x53;&#x61;&#x76;&#x65;"
      horiz-adv-x="600" d="M375 375H125V475H375V375zM300 125A75 75 0 1 0 300 275A75 75 0 0 0 300 125zM425 525H125A50 50 0 0 1 75 475V125A50 50 0 0 1 125 75H475A50 50 0 0 1 525 125V425L425 525z" />
    <glyph glyph-name="Search"
      unicode="&#xEA6B;"
      horiz-adv-x="600" d="M243.75 525A162.5 162.5 0 0 0 406.25 362.5C406.25 322.25 391.5 285.25 367.25 256.75L374 250H393.75L518.75 125L481.25 87.5L356.25 212.5V232.25L349.5 239A162.9 162.9 0 0 0 243.75 200A162.5 162.5 0 0 0 243.75 525zM243.75 475C181.25 475 131.25 425 131.25 362.5S181.25 250 243.75 250S356.25 300 356.25 362.5S306.25 475 243.75 475z" />
    </font>
</defs>
</svg>
