<?xml version="1.0" encoding="utf-8"?>
<!-- Generator: Adobe Illustrator 19.2.1, SVG Export Plug-In . SVG Version: 6.00 Build 0)  -->
<!DOCTYPE svg PUBLIC "-//W3C//DTD SVG 1.1//EN" "http://www.w3.org/Graphics/SVG/1.1/DTD/svg11.dtd">
<svg version="1.1" id="Layer_1" xmlns="http://www.w3.org/2000/svg" xmlns:xlink="http://www.w3.org/1999/xlink" x="0px" y="0px"
	 viewBox="0 0 170.1 204.3" enable-background="new 0 0 170.1 204.3" xml:space="preserve">
<g>
	<g>
		<path fill="#FFFFFF" d="M10.1,204.3c-1.6,0-2.9-0.2-4.1-0.6s-2.2-0.9-3-1.6c-0.8-0.7-1.5-1.5-1.9-2.4c-0.5-0.9-0.7-2-0.7-3.1h4.2
			c0.3,2.9,2.2,4.3,5.6,4.3c0.6,0,1.2-0.1,1.7-0.2c0.5-0.1,1-0.3,1.4-0.6c0.4-0.3,0.7-0.6,1-1c0.2-0.4,0.3-0.9,0.3-1.5
			c0-0.6-0.1-1.1-0.4-1.5c-0.3-0.4-0.7-0.7-1.2-1c-0.5-0.3-1.1-0.5-1.8-0.7c-0.7-0.2-1.5-0.4-2.4-0.6c-1-0.2-2-0.5-3-0.8
			c-0.9-0.3-1.8-0.7-2.4-1.1s-1.2-1.1-1.7-1.8c-0.4-0.7-0.6-1.7-0.6-2.8c0-1.1,0.2-2,0.6-2.8s1-1.5,1.7-2c0.7-0.5,1.6-0.9,2.6-1.2
			c1-0.3,2.1-0.4,3.3-0.4c2.6,0,4.7,0.6,6.1,1.8c1.5,1.2,2.3,2.8,2.5,4.9h-4.1c-0.2-1.1-0.6-2-1.4-2.6s-1.9-0.9-3.2-0.9
			c-1.3,0-2.3,0.2-3,0.7c-0.8,0.5-1.1,1.2-1.1,2.1c0,0.5,0.1,1,0.4,1.3c0.3,0.3,0.6,0.6,1.1,0.9c0.5,0.2,1.1,0.5,1.8,0.6
			s1.5,0.4,2.3,0.5c1,0.2,2,0.5,3,0.8s1.8,0.7,2.6,1.2c0.7,0.5,1.3,1.2,1.8,2c0.4,0.8,0.7,1.8,0.7,3c0,1.1-0.2,2.1-0.7,3
			c-0.4,0.9-1.1,1.6-1.8,2.2c-0.8,0.6-1.7,1-2.8,1.3C12.5,204.2,11.3,204.3,10.1,204.3z"/>
		<path fill="#FFFFFF" d="M25.6,196.1l-1.9,1.9v5.8h-3.8v-22.5h3.8v8.7c0,0.8,0,1.5,0,2.2c0,0.7-0.1,1.3-0.1,1.8l6.1-6.3h4.6
			l-5.9,5.9l6.6,10.2h-4.5L25.6,196.1z"/>
		<path fill="#FFFFFF" d="M45.7,203.8c-0.1-0.2-0.3-0.4-0.3-0.8c-0.1-0.3-0.2-0.8-0.2-1.3h-0.1c-0.5,0.7-1.2,1.3-2,1.8
			s-1.8,0.7-3.1,0.7c-0.8,0-1.5-0.1-2.2-0.3c-0.7-0.2-1.3-0.5-1.7-0.9c-0.5-0.4-0.9-0.9-1.1-1.5c-0.3-0.6-0.4-1.3-0.4-2.1
			c0-0.9,0.2-1.7,0.5-2.2c0.3-0.6,0.8-1.1,1.4-1.4c0.6-0.4,1.3-0.6,2.1-0.8c0.8-0.2,1.7-0.3,2.7-0.5c1.3-0.2,2.3-0.4,3-0.7
			c0.7-0.3,1-0.8,1-1.5c0-0.7-0.2-1.3-0.7-1.7s-1.2-0.6-2.2-0.6c-1.1,0-1.9,0.2-2.4,0.7c-0.5,0.5-0.8,1.1-0.9,1.9h-3.6
			c0-0.7,0.2-1.3,0.5-2c0.3-0.6,0.7-1.2,1.3-1.7c0.6-0.5,1.3-0.9,2.1-1.2c0.8-0.3,1.8-0.4,3-0.4c0.9,0,1.7,0.1,2.5,0.2
			c0.7,0.1,1.3,0.4,1.9,0.7c1.5,0.9,2.3,2.5,2.3,4.6v8.5c0,0.7,0.1,1.2,0.2,1.5c0.1,0.4,0.3,0.6,0.4,0.7v0.3H45.7z M41.1,201.6
			c0.7,0,1.2-0.1,1.8-0.3c0.5-0.2,0.9-0.5,1.3-0.8c0.3-0.3,0.6-0.7,0.8-1.1c0.2-0.4,0.3-0.9,0.3-1.3v-2.4c-0.4,0.2-0.9,0.4-1.4,0.6
			c-0.6,0.2-1.1,0.3-1.7,0.4c-1.2,0.2-2.1,0.5-2.7,0.9c-0.6,0.4-1,1-1,1.9c0,0.4,0.1,0.8,0.2,1.1c0.2,0.3,0.4,0.5,0.6,0.7
			c0.3,0.2,0.5,0.3,0.9,0.4C40.4,201.6,40.8,201.6,41.1,201.6z"/>
		<path fill="#FFFFFF" d="M49.9,187.7h2.5v-5.1h3.8v5.1h3.2v2.6h-3.2v9c0,0.6,0.2,1,0.5,1.2c0.3,0.2,0.7,0.3,1.3,0.3
			c0.2,0,0.4,0,0.6,0c0.2,0,0.4,0,0.6-0.1h0.2v3c-0.3,0.1-0.7,0.1-1.1,0.2c-0.4,0-0.9,0.1-1.4,0.1c-0.6,0-1.2-0.1-1.8-0.2
			c-0.5-0.1-1-0.3-1.4-0.6c-0.4-0.3-0.7-0.7-0.9-1.2c-0.2-0.5-0.3-1.1-0.3-1.8v-9.9h-2.5V187.7z"/>
		<path fill="#FFFFFF" d="M59.9,187.7h2.5v-5.1h3.8v5.1h3.2v2.6h-3.2v9c0,0.6,0.2,1,0.5,1.2c0.3,0.2,0.7,0.3,1.3,0.3
			c0.2,0,0.4,0,0.6,0c0.2,0,0.4,0,0.6-0.1h0.2v3c-0.3,0.1-0.7,0.1-1.1,0.2c-0.4,0-0.9,0.1-1.4,0.1c-0.6,0-1.2-0.1-1.8-0.2
			c-0.5-0.1-1-0.3-1.4-0.6s-0.7-0.7-0.9-1.2c-0.2-0.5-0.3-1.1-0.3-1.8v-9.9h-2.5V187.7z"/>
		<path fill="#FFFFFF" d="M78.2,204.3c-1.3,0-2.4-0.2-3.5-0.7c-1-0.4-1.9-1-2.6-1.8c-0.7-0.8-1.2-1.7-1.6-2.7
			c-0.4-1-0.6-2.1-0.6-3.3c0-1.2,0.2-2.3,0.6-3.4c0.4-1,0.9-1.9,1.6-2.7c0.7-0.8,1.6-1.4,2.5-1.8c1-0.4,2.1-0.6,3.3-0.6
			c1.2,0,2.2,0.2,3.2,0.6c0.9,0.4,1.7,1,2.4,1.7c0.8,0.8,1.4,1.9,1.8,3.1c0.4,1.2,0.6,2.6,0.5,4.1h-12c0.1,1.4,0.6,2.5,1.3,3.4
			c0.7,0.9,1.8,1.3,3.1,1.3c0.9,0,1.7-0.2,2.3-0.6c0.6-0.4,1-0.9,1.3-1.6h3.7c-0.2,0.7-0.5,1.4-0.9,2c-0.4,0.6-0.9,1.1-1.6,1.6
			c-0.6,0.5-1.3,0.8-2.2,1.1C80.1,204.2,79.2,204.3,78.2,204.3z M78,190.1c-1.3,0-2.2,0.4-2.9,1.2c-0.7,0.8-1.1,1.8-1.2,3.1h8
			c-0.1-1.3-0.5-2.4-1.1-3.1C80.1,190.4,79.2,190.1,78,190.1z"/>
		<path fill="#FFFFFF" d="M95.3,204.3c-1.3,0-2.4-0.2-3.5-0.7c-1-0.4-1.9-1-2.6-1.8c-0.7-0.8-1.2-1.7-1.6-2.7
			c-0.4-1-0.6-2.1-0.6-3.3c0-1.2,0.2-2.3,0.6-3.4c0.4-1,0.9-1.9,1.6-2.7c0.7-0.8,1.6-1.4,2.5-1.8c1-0.4,2.1-0.6,3.3-0.6
			s2.2,0.2,3.2,0.6c0.9,0.4,1.7,1,2.4,1.7c0.8,0.8,1.4,1.9,1.8,3.1c0.4,1.2,0.6,2.6,0.5,4.1h-12c0.1,1.4,0.6,2.5,1.3,3.4
			c0.7,0.9,1.8,1.3,3.1,1.3c0.9,0,1.7-0.2,2.3-0.6c0.6-0.4,1-0.9,1.3-1.6h3.7c-0.2,0.7-0.5,1.4-0.9,2c-0.4,0.6-0.9,1.1-1.6,1.6
			c-0.6,0.5-1.3,0.8-2.2,1.1C97.2,204.2,96.3,204.3,95.3,204.3z M95.1,190.1c-1.3,0-2.2,0.4-2.9,1.2c-0.7,0.8-1.1,1.8-1.2,3.1h8
			c-0.1-1.3-0.5-2.4-1.1-3.1C97.2,190.4,96.3,190.1,95.1,190.1z"/>
		<path fill="#FFFFFF" d="M103.2,187.7h2.5v-5.1h3.8v5.1h3.2v2.6h-3.2v9c0,0.6,0.2,1,0.5,1.2c0.3,0.2,0.7,0.3,1.3,0.3
			c0.2,0,0.4,0,0.6,0c0.2,0,0.4,0,0.6-0.1h0.2v3c-0.3,0.1-0.7,0.1-1.1,0.2c-0.4,0-0.9,0.1-1.4,0.1c-0.6,0-1.2-0.1-1.8-0.2
			c-0.5-0.1-1-0.3-1.4-0.6c-0.4-0.3-0.7-0.7-0.9-1.2s-0.3-1.1-0.3-1.8v-9.9h-2.5V187.7z"/>
		<path fill="#FFFFFF" d="M124.6,203.8c-0.1-0.2-0.3-0.4-0.3-0.8c-0.1-0.3-0.2-0.8-0.2-1.3H124c-0.5,0.7-1.2,1.3-2,1.8
			c-0.8,0.5-1.8,0.7-3.1,0.7c-0.8,0-1.5-0.1-2.2-0.3c-0.7-0.2-1.3-0.5-1.7-0.9c-0.5-0.4-0.9-0.9-1.1-1.5c-0.3-0.6-0.4-1.3-0.4-2.1
			c0-0.9,0.2-1.7,0.5-2.2c0.3-0.6,0.8-1.1,1.4-1.4c0.6-0.4,1.3-0.6,2.1-0.8c0.8-0.2,1.7-0.3,2.7-0.5c1.3-0.2,2.3-0.4,3-0.7
			c0.7-0.3,1-0.8,1-1.5c0-0.7-0.2-1.3-0.7-1.7c-0.5-0.4-1.2-0.6-2.2-0.6c-1.1,0-1.9,0.2-2.4,0.7c-0.5,0.5-0.8,1.1-0.9,1.9h-3.6
			c0-0.7,0.2-1.3,0.5-2c0.3-0.6,0.7-1.2,1.3-1.7s1.3-0.9,2.1-1.2c0.8-0.3,1.8-0.4,3-0.4c0.9,0,1.7,0.1,2.5,0.2
			c0.7,0.1,1.3,0.4,1.9,0.7c1.5,0.9,2.3,2.5,2.3,4.6v8.5c0,0.7,0.1,1.2,0.2,1.5c0.1,0.4,0.3,0.6,0.4,0.7v0.3H124.6z M120,201.6
			c0.7,0,1.2-0.1,1.8-0.3c0.5-0.2,0.9-0.5,1.3-0.8c0.3-0.3,0.6-0.7,0.8-1.1c0.2-0.4,0.3-0.9,0.3-1.3v-2.4c-0.4,0.2-0.9,0.4-1.4,0.6
			c-0.6,0.2-1.1,0.3-1.7,0.4c-1.2,0.2-2.1,0.5-2.7,0.9c-0.6,0.4-1,1-1,1.9c0,0.4,0.1,0.8,0.2,1.1c0.2,0.3,0.4,0.5,0.6,0.7
			c0.3,0.2,0.5,0.3,0.9,0.4C119.3,201.6,119.7,201.6,120,201.6z"/>
		<path fill="#FFFFFF" d="M128.1,187.7h2.5v-5.1h3.8v5.1h3.2v2.6h-3.2v9c0,0.6,0.2,1,0.5,1.2c0.3,0.2,0.7,0.3,1.3,0.3
			c0.2,0,0.4,0,0.6,0c0.2,0,0.4,0,0.6-0.1h0.2v3c-0.3,0.1-0.7,0.1-1.1,0.2c-0.4,0-0.9,0.1-1.4,0.1c-0.6,0-1.2-0.1-1.8-0.2
			c-0.5-0.1-1-0.3-1.4-0.6c-0.4-0.3-0.7-0.7-0.9-1.2c-0.2-0.5-0.3-1.1-0.3-1.8v-9.9h-2.5V187.7z"/>
		<path fill="#FFFFFF" d="M146.3,204.3c-1.3,0-2.4-0.2-3.5-0.7c-1-0.4-1.9-1-2.6-1.8c-0.7-0.8-1.2-1.7-1.6-2.7
			c-0.4-1-0.6-2.1-0.6-3.3c0-1.2,0.2-2.3,0.6-3.4c0.4-1,0.9-1.9,1.6-2.7c0.7-0.8,1.6-1.4,2.5-1.8c1-0.4,2.1-0.6,3.3-0.6
			s2.2,0.2,3.2,0.6c0.9,0.4,1.7,1,2.4,1.7c0.8,0.8,1.4,1.9,1.8,3.1c0.4,1.2,0.6,2.6,0.5,4.1h-12c0.1,1.4,0.6,2.5,1.3,3.4
			c0.7,0.9,1.8,1.3,3.1,1.3c0.9,0,1.7-0.2,2.3-0.6c0.6-0.4,1-0.9,1.3-1.6h3.7c-0.2,0.7-0.5,1.4-0.9,2c-0.4,0.6-0.9,1.1-1.6,1.6
			c-0.6,0.5-1.3,0.8-2.2,1.1C148.2,204.2,147.3,204.3,146.3,204.3z M146.1,190.1c-1.3,0-2.2,0.4-2.9,1.2c-0.7,0.8-1.1,1.8-1.2,3.1h8
			c-0.1-1.3-0.5-2.4-1.1-3.1C148.2,190.4,147.3,190.1,146.1,190.1z"/>
		<path fill="#FFFFFF" d="M159.2,190.1L159.2,190.1c0.6-0.9,1.3-1.6,2.1-2.1c0.8-0.5,1.8-0.7,3-0.7c1.8,0,3.1,0.5,4.1,1.5
			c1,1,1.5,2.4,1.5,4.1v10.9H166v-10.3c0-1-0.3-1.7-0.8-2.3c-0.5-0.5-1.3-0.8-2.3-0.8c-0.5,0-1,0.1-1.5,0.3
			c-0.4,0.2-0.8,0.5-1.1,0.8c-0.3,0.4-0.6,0.8-0.8,1.3s-0.3,1-0.3,1.6v9.4h-3.8v-16.1h3.7V190.1z"/>
	</g>
	<path fill="#FFFFFF" d="M85.2,117.9C56,117.9,32.3,105,32.3,89c0-15.9,23.6-28.8,52.8-28.8l0-14.2c9,0,17.7,1.2,25.1,3.4l-25,25.2
		V89l25-25.4c16.6,4.9,27.9,14.4,27.9,25.4C138.1,105,114.4,117.9,85.2,117.9"/>
	<g>
		<path fill="#FFFFFF" d="M165.8,4.3v161.5H4.3V4.3H165.8 M170.1,0H0v170.1h170.1V0L170.1,0z"/>
	</g>
</g>
</svg>
