<svg width="155" height="47" viewBox="0 0 155 47" fill="none" xmlns="http://www.w3.org/2000/svg">
<g clip-path="url(#clip0_1533_6660)">
<path d="M46.6576 10.482C46.2447 10.1847 45.7162 10.0356 45.0729 10.0356C44.8118 10.0356 44.5554 10.0614 44.303 10.1137C44.0505 10.1652 43.8271 10.2518 43.6313 10.3728C43.4355 10.4937 43.279 10.6553 43.1618 10.8582C43.0446 11.0611 42.9856 11.3132 42.9856 11.6152C42.9856 11.9001 43.0706 12.1311 43.2397 12.3075C43.4095 12.4846 43.6352 12.629 43.9176 12.7414C44.1999 12.8538 44.52 12.9466 44.8763 13.02C45.2326 13.0933 45.5959 13.1729 45.9655 13.2596C46.3352 13.3462 46.6977 13.4469 47.0548 13.5639C47.4111 13.6802 47.7311 13.8379 48.0135 14.0361C48.2958 14.2343 48.5223 14.4848 48.6914 14.7869C48.8613 15.0889 48.9454 15.469 48.9454 15.9263C48.9454 16.418 48.8346 16.8386 48.6128 17.1883C48.391 17.5379 48.1063 17.8227 47.7587 18.0428C47.4111 18.2629 47.0218 18.4229 46.5916 18.522C46.1614 18.6211 45.7327 18.6711 45.3065 18.6711C44.7851 18.6711 44.2912 18.6063 43.8264 18.4767C43.3608 18.3472 42.9526 18.1513 42.6003 17.8875C42.2479 17.6245 41.9695 17.2881 41.7658 16.8776C41.5613 16.4679 41.4591 15.9825 41.4591 15.4214H42.6333C42.6333 15.81 42.7096 16.144 42.8614 16.4242C43.0132 16.7044 43.2137 16.9354 43.4614 17.1165C43.7092 17.2975 43.9986 17.4317 44.3289 17.5176C44.6592 17.6042 44.9982 17.6471 45.3466 17.6471C45.625 17.6471 45.905 17.6214 46.1881 17.5691C46.4704 17.5176 46.7253 17.4286 46.951 17.3038C47.1767 17.1789 47.3599 17.008 47.4991 16.7926C47.6383 16.5772 47.7076 16.3009 47.7076 15.9638C47.7076 15.6446 47.6226 15.3855 47.4535 15.1872C47.2837 14.989 47.0579 14.8267 46.7756 14.7018C46.4933 14.5769 46.1732 14.4755 45.8169 14.3974C45.4598 14.3194 45.0973 14.2398 44.7276 14.1578C44.358 14.0759 43.9947 13.9815 43.6384 13.873C43.2813 13.7653 42.962 13.6225 42.6797 13.4461C42.3974 13.2697 42.1709 13.0403 42.0018 12.7601C41.8319 12.4799 41.7477 12.128 41.7477 11.705C41.7477 11.239 41.8437 10.8356 42.0348 10.4945C42.2259 10.1535 42.4807 9.8733 42.7977 9.65322C43.1154 9.43314 43.4756 9.26925 43.8806 9.16155C44.2849 9.05385 44.7001 9 45.1264 9C45.6046 9 46.0481 9.05619 46.4571 9.16857C46.866 9.28095 47.2247 9.45811 47.533 9.69926C47.8413 9.9412 48.0851 10.2448 48.2636 10.6116C48.4413 10.9784 48.5396 11.4162 48.5569 11.925H47.3827C47.3127 11.2609 47.0721 10.7794 46.6584 10.482H46.6576Z" fill="black"/>
<path d="M53.4078 11.7697V12.7406H52.0645V16.8956C52.0645 17.0251 52.0755 17.1289 52.0976 17.2062C52.1188 17.2842 52.1605 17.3443 52.2218 17.3872C52.2824 17.4302 52.3673 17.4583 52.4759 17.4715C52.5844 17.4848 52.7259 17.491 52.8998 17.491H53.4086V18.4619H52.5608C52.2737 18.4619 52.0284 18.4424 51.8239 18.4034C51.6194 18.3643 51.4542 18.2933 51.3284 18.1895C51.2026 18.0857 51.109 17.939 51.0476 17.7494C50.9863 17.5597 50.9564 17.3092 50.9564 16.9986V12.7398H49.809V11.7689H50.9564V9.76245H52.0653V11.7689H53.4086L53.4078 11.7697Z" fill="black"/>
<path d="M60.8682 18.4362C60.6771 18.5486 60.4121 18.6047 60.0723 18.6047C59.7853 18.6047 59.5572 18.5251 59.3873 18.3652C59.2175 18.206 59.1333 17.9445 59.1333 17.5824C58.8289 17.9445 58.4742 18.206 58.07 18.3652C57.6658 18.5244 57.2285 18.6047 56.759 18.6047C56.4546 18.6047 56.1652 18.5704 55.8915 18.501C55.6178 18.4323 55.3803 18.3238 55.1805 18.1771C54.9808 18.0304 54.8219 17.8384 54.7047 17.6011C54.5875 17.3639 54.5286 17.0767 54.5286 16.7403C54.5286 16.361 54.5938 16.0504 54.7244 15.8085C54.8549 15.5673 55.0264 15.3707 55.2395 15.2193C55.4527 15.0686 55.6957 14.9539 55.9701 14.8759C56.2438 14.7978 56.5246 14.7338 56.8117 14.6815C57.116 14.6214 57.4054 14.5762 57.6791 14.5457C57.9528 14.5153 58.1943 14.4724 58.4035 14.4162C58.6119 14.36 58.777 14.2781 58.8989 14.1704C59.0208 14.0627 59.0814 13.905 59.0814 13.6982C59.0814 13.457 59.0358 13.2627 58.9445 13.116C58.8533 12.9693 58.7361 12.8569 58.5922 12.7796C58.4483 12.7016 58.2879 12.6501 58.1093 12.6243C57.9308 12.5986 57.7546 12.5853 57.5808 12.5853C57.1113 12.5853 56.7196 12.6735 56.4066 12.8507C56.0936 13.0278 55.9237 13.3618 55.8978 13.8535H54.7889C54.8062 13.4391 54.8935 13.0895 55.05 12.8054C55.2065 12.5205 55.4149 12.2895 55.676 12.1131C55.9371 11.9368 56.2344 11.8088 56.5694 11.7315C56.9045 11.6535 57.2631 11.6152 57.6453 11.6152C57.9497 11.6152 58.2517 11.6371 58.5521 11.68C58.8517 11.7229 59.1239 11.8111 59.3677 11.9446C59.6107 12.078 59.8065 12.2653 59.9544 12.5065C60.1022 12.7476 60.1762 13.0621 60.1762 13.4492V16.8847C60.1762 17.143 60.1911 17.3327 60.2218 17.4528C60.2524 17.573 60.3539 17.6339 60.5285 17.6339C60.6244 17.6339 60.7369 17.6167 60.8674 17.5824V18.437L60.8682 18.4362ZM59.068 15.0062C58.9288 15.1092 58.7464 15.1841 58.5199 15.2317C58.2934 15.2793 58.0566 15.3176 57.8089 15.348C57.5612 15.3785 57.3111 15.4128 57.0586 15.451C56.8062 15.4901 56.5804 15.5517 56.3807 15.6376C56.1809 15.7234 56.0173 15.8459 55.8915 16.0044C55.7657 16.1636 55.702 16.3797 55.702 16.6545C55.702 16.8347 55.7389 16.9869 55.8129 17.1118C55.8868 17.2367 55.9827 17.3373 56.0999 17.4146C56.2171 17.4919 56.3539 17.548 56.5104 17.5824C56.667 17.6167 56.8321 17.6339 57.0059 17.6339C57.3708 17.6339 57.6839 17.5847 57.945 17.4856C58.2061 17.3865 58.4192 17.2624 58.5843 17.1118C58.7495 16.9612 58.8714 16.7981 58.9493 16.6225C59.0271 16.4469 59.0664 16.2814 59.0664 16.1269V15.0062H59.068Z" fill="black"/>
<path d="M65.042 11.7697V12.7406H63.6987V16.8956C63.6987 17.0251 63.7097 17.1289 63.7317 17.2062C63.753 17.2842 63.7946 17.3443 63.856 17.3872C63.9165 17.4302 64.0015 17.4583 64.11 17.4715C64.2185 17.4848 64.3601 17.491 64.5339 17.491H65.0428V18.4619H64.1949C63.9079 18.4619 63.6625 18.4424 63.458 18.4034C63.2536 18.3643 63.0884 18.2933 62.9626 18.1895C62.8367 18.0857 62.7431 17.939 62.6818 17.7494C62.6204 17.5597 62.5906 17.3092 62.5906 16.9986V12.7398H61.4431V11.7689H62.5906V9.76245H63.6995V11.7689H65.0428L65.042 11.7697Z" fill="black"/>
<path d="M71.303 18.035C70.7989 18.415 70.1634 18.6047 69.399 18.6047C68.8595 18.6047 68.3923 18.518 67.9967 18.3456C67.6011 18.1731 67.2684 17.9312 66.9987 17.6206C66.7289 17.3099 66.5268 16.9392 66.3923 16.5077C66.2571 16.0761 66.1815 15.6063 66.1642 15.0967C66.1642 14.5878 66.2429 14.1219 66.3994 13.6989C66.5559 13.2759 66.7753 12.9091 67.0585 12.5985C67.3408 12.2879 67.6758 12.046 68.0628 11.8735C68.4497 11.701 68.8736 11.6144 69.3345 11.6144C69.9345 11.6144 70.4324 11.7377 70.828 11.9835C71.2236 12.2294 71.5413 12.5423 71.7804 12.9216C72.0195 13.3017 72.1846 13.7153 72.2758 14.164C72.3671 14.6128 72.404 15.0397 72.3867 15.4455H67.3384C67.3298 15.7389 67.3644 16.0176 67.443 16.2806C67.5217 16.5436 67.6475 16.7769 67.8213 16.9798C67.9951 17.1827 68.2169 17.3443 68.4867 17.4652C68.7564 17.5862 69.0734 17.6463 69.4391 17.6463C69.9086 17.6463 70.2932 17.5386 70.5936 17.3224C70.8932 17.107 71.0914 16.7785 71.1874 16.3383H72.2829C72.1351 17.0891 71.8087 17.6541 71.3046 18.0342L71.303 18.035ZM71.0356 13.7379C70.9357 13.5046 70.8004 13.304 70.6314 13.1362C70.4615 12.9676 70.2617 12.8342 70.0313 12.7351C69.8009 12.636 69.546 12.586 69.2684 12.586C68.9908 12.586 68.7226 12.636 68.4922 12.7351C68.2617 12.8342 68.0636 12.97 67.8984 13.1425C67.7332 13.3149 67.6027 13.5155 67.5067 13.7442C67.4108 13.9728 67.3542 14.2163 67.3369 14.4754H71.211C71.1937 14.2163 71.1347 13.9705 71.0348 13.7379H71.0356Z" fill="black"/>
<path d="M74.8382 11.7697V12.8311H74.8641C75.325 12.0202 76.0556 11.6144 77.0552 11.6144C77.4988 11.6144 77.8684 11.6745 78.1641 11.7954C78.4598 11.9164 78.6989 12.085 78.8814 12.3004C79.0638 12.5158 79.192 12.7725 79.266 13.0707C79.3399 13.368 79.3769 13.6981 79.3769 14.061V18.4619H78.2679V13.9315C78.2679 13.5171 78.146 13.1893 77.903 12.9481C77.6592 12.707 77.325 12.586 76.8987 12.586C76.5597 12.586 76.2664 12.6375 76.0179 12.7413C75.7694 12.8451 75.5633 12.9918 75.3981 13.1815C75.233 13.3711 75.1087 13.5935 75.0261 13.848C74.9436 14.1024 74.9019 14.381 74.9019 14.683V18.4626H73.793V11.7705H74.8366L74.8382 11.7697Z" fill="black"/>
<path d="M82.1554 16.9666C82.26 17.1352 82.3969 17.2687 82.566 17.3678C82.7358 17.4669 82.9269 17.5379 83.1401 17.5816C83.3532 17.6245 83.5726 17.6464 83.7991 17.6464C83.9729 17.6464 84.1554 17.6331 84.3473 17.6074C84.5384 17.5816 84.7146 17.534 84.8758 17.4653C85.0362 17.3966 85.1691 17.2952 85.2737 17.161C85.3783 17.0275 85.4303 16.8566 85.4303 16.6498C85.4303 16.3649 85.3217 16.1495 85.1039 16.0028C84.8868 15.8561 84.6147 15.7375 84.2883 15.6469C83.9619 15.5564 83.608 15.4745 83.225 15.4011C82.842 15.3277 82.4881 15.2247 82.1617 15.0905C81.8353 14.957 81.564 14.7689 81.3462 14.5278C81.1283 14.2866 81.0198 13.9495 81.0198 13.5179C81.0198 13.1816 81.0961 12.892 81.2478 12.6509C81.3996 12.4097 81.5955 12.213 81.8346 12.0616C82.0736 11.911 82.3434 11.7986 82.643 11.7253C82.9427 11.6519 83.2407 11.6152 83.5365 11.6152C83.9187 11.6152 84.271 11.6472 84.5927 11.712C84.9143 11.7768 85.199 11.8892 85.4468 12.0484C85.6945 12.2084 85.8927 12.4238 86.0406 12.6953C86.1884 12.9669 86.2757 13.3056 86.3017 13.7115H85.1927C85.1754 13.4961 85.1188 13.3166 85.0229 13.1745C84.9269 13.0317 84.8058 12.9178 84.6579 12.8311C84.5101 12.7453 84.3473 12.6821 84.1688 12.6431C83.9902 12.604 83.8101 12.5845 83.6277 12.5845C83.4625 12.5845 83.295 12.5978 83.1251 12.6235C82.9553 12.6493 82.8011 12.6946 82.6619 12.7593C82.5227 12.8241 82.4095 12.9107 82.3229 13.0184C82.2356 13.1261 82.1924 13.2666 82.1924 13.4391C82.1924 13.6287 82.26 13.7864 82.3945 13.9113C82.529 14.0361 82.7012 14.1399 82.9096 14.2219C83.1181 14.3038 83.3532 14.3733 83.6143 14.4287C83.8754 14.4849 84.1357 14.5434 84.3968 14.6035C84.6752 14.6644 84.9466 14.7377 85.2124 14.8236C85.4774 14.9102 85.7126 15.0241 85.9171 15.1662C86.1216 15.3082 86.2867 15.4877 86.4125 15.7031C86.5384 15.9193 86.6013 16.1862 86.6013 16.5054C86.6013 16.9112 86.5164 17.2476 86.3473 17.5153C86.1774 17.783 85.9556 17.9984 85.6819 18.1622C85.4082 18.3261 85.0992 18.4409 84.7555 18.5056C84.4118 18.5704 84.0705 18.6024 83.7315 18.6024C83.3571 18.6024 83.0009 18.5634 82.6619 18.4861C82.3229 18.4081 82.0225 18.2817 81.7622 18.1045C81.5011 17.9273 81.2927 17.6948 81.1362 17.4052C80.9797 17.1165 80.8924 16.7645 80.8751 16.3501H81.984C81.9926 16.592 82.0493 16.7965 82.1538 16.9651L82.1554 16.9666Z" fill="black"/>
<path d="M41.8767 22.6989V21.3527H42.9856V22.6989H41.8767ZM42.9856 23.9023V30.5945H41.8767V23.9023H42.9856Z" fill="black"/>
<path d="M46.0119 23.9023V24.9636H46.0379C46.4988 24.1528 47.2294 23.7469 48.229 23.7469C48.6725 23.7469 49.0422 23.807 49.3379 23.928C49.6336 24.049 49.8727 24.2175 50.0551 24.4329C50.2376 24.6483 50.3658 24.9051 50.4397 25.2032C50.5137 25.5006 50.5506 25.8307 50.5506 26.1936V30.5944H49.4417V26.064C49.4417 25.6496 49.3198 25.3219 49.0768 25.0807C48.833 24.8395 48.4987 24.7186 48.0725 24.7186C47.7335 24.7186 47.4402 24.7701 47.1916 24.8739C46.9431 24.9777 46.7371 25.1244 46.5719 25.314C46.4067 25.5037 46.2825 25.7261 46.1999 25.9805C46.1173 26.235 46.0756 26.5136 46.0756 26.8156V30.5952H44.9667V23.903H46.0104L46.0119 23.9023Z" fill="black"/>
<path d="M53.525 23.9023V24.9636H53.551C54.0118 24.1528 54.7425 23.7469 55.742 23.7469C56.1856 23.7469 56.5552 23.807 56.851 23.928C57.1467 24.049 57.3858 24.2175 57.5682 24.4329C57.7507 24.6483 57.8789 24.9051 57.9528 25.2032C58.0267 25.5006 58.0637 25.8307 58.0637 26.1936V30.5944H56.9548V26.064C56.9548 25.6496 56.8329 25.3219 56.5899 25.0807C56.346 24.8395 56.0118 24.7186 55.5855 24.7186C55.2466 24.7186 54.9532 24.7701 54.7047 24.8739C54.4562 24.9777 54.2501 25.1244 54.085 25.314C53.9198 25.5037 53.7955 25.7261 53.713 25.9805C53.6304 26.235 53.5887 26.5136 53.5887 26.8156V30.5952H52.4798V23.903H53.5234L53.525 23.9023Z" fill="black"/>
<path d="M61.1687 21.3527V26.8281L64.2469 23.9031H65.7341L63.0601 26.3365L65.9299 30.5953H64.5214L62.2123 27.1005L61.1687 28.0581V30.5953H60.0598V21.3534H61.1687V21.3527Z" fill="black"/>
<path d="M68.0297 23.9022V25.3132H68.0557C68.3254 24.7693 68.6557 24.3681 69.0474 24.1098C69.4391 23.8515 69.9345 23.7305 70.5346 23.7477V24.9129C70.091 24.9129 69.7127 24.973 69.3997 25.0939C69.0867 25.2149 68.8343 25.3921 68.6432 25.6246C68.4521 25.858 68.3128 26.1405 68.2255 26.4722C68.1383 26.8046 68.095 27.1863 68.095 27.6178V30.5952H66.9861V23.903H68.0297V23.9022Z" fill="black"/>
<path d="M76.4032 30.1675C75.8991 30.5476 75.2636 30.7372 74.4992 30.7372C73.9597 30.7372 73.4925 30.6506 73.0969 30.4781C72.7013 30.3057 72.3687 30.0637 72.0989 29.7531C71.8291 29.4425 71.627 29.0718 71.4925 28.6402C71.3573 28.2087 71.2818 27.7388 71.2645 27.2292C71.2645 26.7204 71.3431 26.2545 71.4996 25.8315C71.6561 25.4085 71.8755 25.0417 72.1587 24.7311C72.441 24.4205 72.776 24.1785 73.163 24.006C73.5499 23.8336 73.9738 23.7469 74.4347 23.7469C75.0348 23.7469 75.5326 23.8703 75.9282 24.1161C76.3238 24.3619 76.6415 24.6749 76.8806 25.0542C77.1197 25.4342 77.2848 25.8479 77.3761 26.2966C77.4673 26.7454 77.5043 27.1722 77.487 27.5781H72.4387C72.43 27.8715 72.4646 28.1501 72.5433 28.4131C72.6219 28.6761 72.7477 28.9095 72.9215 29.1124C73.0954 29.3153 73.3171 29.4769 73.5869 29.5978C73.8566 29.7188 74.1736 29.7789 74.5393 29.7789C75.0088 29.7789 75.3934 29.6712 75.6938 29.455C75.9935 29.2396 76.1917 28.911 76.2876 28.4709H77.3831C77.2353 29.2217 76.9089 29.7867 76.4048 30.1667L76.4032 30.1675ZM76.1358 25.8705C76.0359 25.6371 75.9007 25.4366 75.7316 25.2688C75.5617 25.1002 75.3619 24.9668 75.1315 24.8676C74.9011 24.7685 74.6463 24.7186 74.3686 24.7186C74.091 24.7186 73.8228 24.7685 73.5924 24.8676C73.362 24.9668 73.1638 25.1026 72.9986 25.275C72.8335 25.4475 72.7029 25.6481 72.607 25.8767C72.511 26.1054 72.4544 26.3489 72.4371 26.608H76.3112C76.2939 26.3489 76.2349 26.1031 76.135 25.8705H76.1358Z" fill="black"/>
<path d="M80.7468 30.5944L78.2427 23.9022H79.4822L81.3736 29.4807H81.3996L83.2391 23.9022H84.4L81.9344 30.5944H80.7476H80.7468Z" fill="black"/>
<path d="M85.7432 22.6989V21.3527H86.8521V22.6989H85.7432ZM86.8521 23.9023V30.5945H85.7432V23.9023H86.8521Z" fill="black"/>
<path d="M89.8777 23.9023V24.9636H89.9036C90.3645 24.1528 91.0951 23.7469 92.0947 23.7469C92.5383 23.7469 92.9079 23.807 93.2036 23.928C93.4993 24.049 93.7384 24.2175 93.9209 24.4329C94.1033 24.6483 94.2315 24.9051 94.3054 25.2032C94.3794 25.5006 94.4163 25.8307 94.4163 26.1936V30.5944H93.3074V26.064C93.3074 25.6496 93.1855 25.3219 92.9425 25.0807C92.6987 24.8395 92.3645 24.7186 91.9382 24.7186C91.5992 24.7186 91.3059 24.7701 91.0574 24.8739C90.8088 24.9777 90.6028 25.1244 90.4376 25.314C90.2725 25.5037 90.1482 25.7261 90.0656 25.9805C89.983 26.235 89.9414 26.5136 89.9414 26.8156V30.5952H88.8325V23.903H89.8761L89.8777 23.9023Z" fill="black"/>
<path d="M101.408 32.4839C100.904 33.0279 100.112 33.2995 99.0336 33.2995C98.7206 33.2995 98.4013 33.2651 98.0749 33.1957C97.7486 33.1262 97.4529 33.0146 97.1878 32.8593C96.9228 32.704 96.7026 32.5011 96.5288 32.2514C96.355 32.0008 96.259 31.6949 96.2417 31.332H97.3506C97.3593 31.5302 97.4222 31.6988 97.5394 31.8369C97.6565 31.9751 97.8005 32.0875 97.9696 32.1733C98.1394 32.2592 98.3235 32.3224 98.524 32.3614C98.7238 32.4004 98.9157 32.4199 99.0981 32.4199C99.4631 32.4199 99.7721 32.3575 100.025 32.2318C100.277 32.107 100.485 31.9345 100.651 31.7144C100.816 31.4943 100.935 31.229 101.009 30.9184C101.083 30.6078 101.12 30.2667 101.12 29.896V29.4559H101.094C100.903 29.8703 100.614 30.1746 100.227 30.3682C99.8398 30.5625 99.4284 30.6593 98.9943 30.6593C98.4902 30.6593 98.0506 30.5687 97.677 30.3877C97.3026 30.2066 96.9896 29.9631 96.738 29.6564C96.4855 29.3505 96.2967 28.9923 96.1709 28.5818C96.0451 28.1721 95.9814 27.7381 95.9814 27.2808C95.9814 26.8843 96.0333 26.4762 96.1379 26.0579C96.2425 25.6396 96.4163 25.2595 96.6593 24.9192C96.9023 24.5782 97.2248 24.298 97.6243 24.0779C98.0238 23.8578 98.5154 23.7478 99.0981 23.7478C99.5244 23.7478 99.9153 23.8407 100.272 24.0264C100.629 24.2122 100.907 24.49 101.107 24.8615H101.12V23.9039H102.164V30.0263C102.164 31.1221 101.911 31.9423 101.407 32.4855L101.408 32.4839ZM99.9923 29.4746C100.249 29.324 100.456 29.125 100.612 28.8791C100.769 28.6333 100.883 28.3547 100.957 28.0441C101.031 27.7335 101.068 27.4228 101.068 27.1122C101.068 26.8188 101.034 26.53 100.964 26.2452C100.894 25.9603 100.783 25.7036 100.631 25.4749C100.478 25.2462 100.281 25.0628 100.037 24.9247C99.7934 24.7866 99.4977 24.7179 99.15 24.7179C98.8024 24.7179 98.4894 24.785 98.237 24.9184C97.9845 25.0519 97.7784 25.2314 97.6172 25.4554C97.456 25.6801 97.3388 25.9385 97.2649 26.2319C97.191 26.5253 97.154 26.8321 97.154 27.1513C97.154 27.4533 97.1847 27.7553 97.2452 28.0573C97.3058 28.3594 97.4104 28.6333 97.5582 28.8791C97.7061 29.125 97.9019 29.324 98.1449 29.4746C98.388 29.626 98.6931 29.7009 99.058 29.7009C99.4229 29.7009 99.7344 29.6252 99.9908 29.4746H99.9923Z" fill="black"/>
<path d="M104.943 29.0992C105.048 29.2678 105.185 29.4012 105.354 29.5003C105.524 29.5995 105.715 29.6705 105.928 29.7142C106.141 29.7571 106.36 29.779 106.587 29.779C106.761 29.779 106.943 29.7657 107.135 29.7399C107.326 29.7142 107.502 29.6666 107.664 29.5979C107.824 29.5292 107.957 29.4278 108.061 29.2935C108.166 29.1601 108.218 28.9892 108.218 28.7823C108.218 28.4975 108.109 28.2821 107.892 28.1354C107.675 27.9886 107.402 27.87 107.076 27.7795C106.75 27.689 106.396 27.607 106.013 27.5337C105.63 27.4603 105.276 27.3573 104.949 27.223C104.623 27.0896 104.352 26.9015 104.134 26.6604C103.916 26.4192 103.807 26.0821 103.807 25.6505C103.807 25.3141 103.884 25.0246 104.036 24.7834C104.187 24.5423 104.383 24.3456 104.622 24.1942C104.861 24.0436 105.131 23.9312 105.431 23.8578C105.73 23.7845 106.028 23.7478 106.324 23.7478C106.706 23.7478 107.059 23.7798 107.38 23.8446C107.702 23.9094 107.987 24.0217 108.234 24.1809C108.482 24.3409 108.68 24.5563 108.828 24.8279C108.976 25.0995 109.063 25.4382 109.089 25.844H107.98C107.963 25.6286 107.907 25.4491 107.811 25.3071C107.715 25.1643 107.594 25.0503 107.446 24.9637C107.298 24.8779 107.135 24.8146 106.956 24.7756C106.778 24.7366 106.598 24.7171 106.415 24.7171C106.25 24.7171 106.083 24.7304 105.913 24.7561C105.743 24.7819 105.589 24.8271 105.45 24.8919C105.31 24.9567 105.197 25.0433 105.111 25.151C105.023 25.2587 104.98 25.3992 104.98 25.5717C104.98 25.7613 105.048 25.919 105.182 26.0438C105.317 26.1687 105.489 26.2725 105.697 26.3544C105.906 26.4364 106.141 26.5058 106.402 26.5612C106.663 26.6174 106.923 26.676 107.185 26.7361C107.463 26.7969 107.734 26.8703 108 26.9561C108.265 27.0428 108.5 27.1567 108.705 27.2988C108.909 27.4408 109.074 27.6203 109.2 27.8357C109.326 28.0519 109.389 28.3188 109.389 28.638C109.389 29.0438 109.304 29.3802 109.135 29.6478C108.965 29.9155 108.743 30.1309 108.47 30.2948C108.196 30.4587 107.887 30.5734 107.543 30.6382C107.2 30.703 106.858 30.735 106.519 30.735C106.145 30.735 105.789 30.696 105.45 30.6187C105.111 30.5407 104.81 30.4142 104.55 30.2371C104.289 30.0599 104.08 29.8273 103.924 29.5378C103.767 29.249 103.68 28.8971 103.663 28.4827H104.772C104.78 28.7246 104.837 28.9291 104.942 29.0976L104.943 29.0992Z" fill="black"/>
<path d="M111.726 29.0992C111.83 29.2678 111.967 29.4012 112.136 29.5003C112.306 29.5995 112.497 29.6705 112.71 29.7142C112.923 29.7571 113.143 29.779 113.369 29.779C113.543 29.779 113.726 29.7657 113.917 29.7399C114.109 29.7142 114.285 29.6666 114.446 29.5979C114.606 29.5292 114.739 29.4278 114.844 29.2935C114.949 29.1601 115 28.9892 115 28.7823C115 28.4975 114.892 28.2821 114.674 28.1354C114.457 27.9886 114.185 27.87 113.859 27.7795C113.532 27.689 113.178 27.607 112.795 27.5337C112.412 27.4603 112.058 27.3573 111.732 27.223C111.406 27.0896 111.134 26.9015 110.916 26.6604C110.698 26.4192 110.59 26.0821 110.59 25.6505C110.59 25.3141 110.666 25.0246 110.818 24.7834C110.97 24.5423 111.166 24.3456 111.405 24.1942C111.644 24.0436 111.914 23.9312 112.213 23.8578C112.513 23.7845 112.811 23.7478 113.107 23.7478C113.489 23.7478 113.841 23.7798 114.163 23.8446C114.485 23.9094 114.769 24.0217 115.017 24.1809C115.265 24.3409 115.463 24.5563 115.611 24.8279C115.759 25.0995 115.846 25.4382 115.872 25.844H114.763C114.746 25.6286 114.689 25.4491 114.593 25.3071C114.497 25.1643 114.376 25.0503 114.228 24.9637C114.08 24.8779 113.917 24.8146 113.739 24.7756C113.56 24.7366 113.38 24.7171 113.198 24.7171C113.033 24.7171 112.865 24.7304 112.695 24.7561C112.525 24.7819 112.371 24.8271 112.232 24.8919C112.093 24.9567 111.98 25.0433 111.893 25.151C111.806 25.2587 111.763 25.3992 111.763 25.5717C111.763 25.7613 111.83 25.919 111.965 26.0438C112.099 26.1687 112.271 26.2725 112.48 26.3544C112.688 26.4364 112.923 26.5058 113.185 26.5612C113.446 26.6174 113.706 26.676 113.967 26.7361C114.245 26.7969 114.517 26.8703 114.783 26.9561C115.048 27.0428 115.283 27.1567 115.487 27.2988C115.692 27.4408 115.857 27.6203 115.983 27.8357C116.109 28.0519 116.171 28.3188 116.171 28.638C116.171 29.0438 116.087 29.3802 115.917 29.6478C115.748 29.9155 115.526 30.1309 115.252 30.2948C114.978 30.4587 114.669 30.5734 114.326 30.6382C113.982 30.703 113.641 30.735 113.302 30.735C112.927 30.735 112.571 30.696 112.232 30.6187C111.893 30.5407 111.593 30.4142 111.332 30.2371C111.071 30.0599 110.863 29.8273 110.706 29.5378C110.55 29.249 110.463 28.8971 110.445 28.4827H111.554C111.563 28.7246 111.619 28.9291 111.724 29.0976L111.726 29.0992Z" fill="black"/>
<path d="M122.435 30.1675C121.931 30.5476 121.295 30.7372 120.531 30.7372C119.991 30.7372 119.524 30.6506 119.129 30.4781C118.733 30.3057 118.4 30.0637 118.131 29.7531C117.861 29.4425 117.659 29.0718 117.524 28.6402C117.389 28.2087 117.313 27.7388 117.296 27.2292C117.296 26.7204 117.375 26.2545 117.531 25.8315C117.688 25.4085 117.907 25.0417 118.19 24.7311C118.473 24.4205 118.808 24.1785 119.195 24.006C119.582 23.8336 120.005 23.7469 120.466 23.7469C121.066 23.7469 121.564 23.8703 121.96 24.1161C122.355 24.3619 122.673 24.6749 122.912 25.0542C123.151 25.4342 123.316 25.8479 123.408 26.2966C123.499 26.7454 123.536 27.1722 123.519 27.5781H118.47C118.462 27.8715 118.496 28.1501 118.575 28.4131C118.654 28.6761 118.779 28.9095 118.953 29.1124C119.127 29.3153 119.349 29.4769 119.619 29.5978C119.888 29.7188 120.205 29.7789 120.571 29.7789C121.04 29.7789 121.425 29.6712 121.725 29.455C122.025 29.2396 122.223 28.911 122.319 28.4709H123.415C123.267 29.2217 122.941 29.7867 122.436 30.1667L122.435 30.1675ZM122.167 25.8705C122.068 25.6371 121.932 25.4366 121.763 25.2688C121.593 25.1002 121.394 24.9668 121.163 24.8676C120.933 24.7685 120.678 24.7186 120.4 24.7186C120.123 24.7186 119.854 24.7685 119.624 24.8676C119.394 24.9668 119.195 25.1026 119.03 25.275C118.865 25.4475 118.735 25.6481 118.639 25.8767C118.543 26.1054 118.486 26.3489 118.469 26.608H122.343C122.326 26.3489 122.267 26.1031 122.167 25.8705H122.167Z" fill="black"/>
<path d="M125.969 23.9023V24.9636H125.995C126.456 24.1528 127.187 23.7469 128.186 23.7469C128.63 23.7469 128.999 23.807 129.295 23.928C129.591 24.049 129.83 24.2175 130.012 24.4329C130.195 24.6483 130.323 24.9051 130.397 25.2032C130.471 25.5006 130.508 25.8307 130.508 26.1936V30.5944H129.399V26.064C129.399 25.6496 129.277 25.3219 129.034 25.0807C128.79 24.8395 128.456 24.7186 128.03 24.7186C127.691 24.7186 127.397 24.7701 127.149 24.8739C126.9 24.9777 126.694 25.1244 126.529 25.314C126.364 25.5037 126.24 25.7261 126.157 25.9805C126.075 26.235 126.033 26.5136 126.033 26.8156V30.5952H124.924V23.903H125.968L125.969 23.9023Z" fill="black"/>
<path d="M135.322 23.9023V24.8731H133.979V29.0281C133.979 29.1577 133.99 29.2615 134.012 29.3387C134.033 29.4168 134.074 29.4769 134.136 29.5198C134.196 29.5627 134.281 29.5908 134.39 29.6041C134.498 29.6174 134.64 29.6236 134.814 29.6236H135.323V30.5945H134.475C134.188 30.5945 133.942 30.5749 133.738 30.5359C133.533 30.4969 133.368 30.4259 133.242 30.3221C133.117 30.2183 133.023 30.0716 132.962 29.8819C132.9 29.6923 132.87 29.4418 132.87 29.1311V24.8724H131.723V23.9015H132.87V21.895H133.979V23.9015H135.323L135.322 23.9023Z" fill="black"/>
<path d="M137.813 23.9022V25.3132H137.839C138.109 24.7693 138.439 24.3681 138.831 24.1098C139.223 23.8515 139.718 23.7305 140.318 23.7477V24.9129C139.875 24.9129 139.496 24.973 139.183 25.0939C138.87 25.2149 138.618 25.3921 138.427 25.6246C138.236 25.858 138.096 26.1405 138.009 26.4722C137.922 26.8046 137.879 27.1863 137.879 27.6178V30.5952H136.77V23.903H137.813V23.9022Z" fill="black"/>
<path d="M147.387 30.5687C147.196 30.6811 146.931 30.7373 146.591 30.7373C146.304 30.7373 146.076 30.6577 145.906 30.4977C145.736 30.3385 145.652 30.0771 145.652 29.715C145.348 30.0771 144.993 30.3385 144.589 30.4977C144.185 30.6569 143.747 30.7373 143.278 30.7373C142.973 30.7373 142.684 30.703 142.41 30.6335C142.137 30.5648 141.899 30.4564 141.699 30.3096C141.5 30.1629 141.341 29.9709 141.223 29.7337C141.106 29.4964 141.047 29.2092 141.047 28.8729C141.047 28.4936 141.113 28.183 141.243 27.941C141.374 27.6999 141.545 27.5032 141.758 27.3518C141.971 27.2012 142.214 27.0865 142.489 27.0084C142.763 26.9304 143.043 26.8664 143.33 26.8141C143.635 26.754 143.924 26.7087 144.198 26.6783C144.472 26.6479 144.713 26.605 144.922 26.5488C145.131 26.4926 145.296 26.4106 145.418 26.3029C145.54 26.1952 145.6 26.0376 145.6 25.8308C145.6 25.5896 145.555 25.3953 145.463 25.2486C145.372 25.1018 145.255 24.9895 145.111 24.9122C144.967 24.8342 144.807 24.7827 144.628 24.7569C144.45 24.7311 144.273 24.7179 144.1 24.7179C143.63 24.7179 143.238 24.8061 142.925 24.9832C142.612 25.1604 142.442 25.4944 142.417 25.9861H141.308C141.325 25.5717 141.412 25.222 141.569 24.938C141.725 24.6531 141.934 24.4221 142.195 24.2457C142.456 24.0693 142.753 23.9414 143.088 23.8641C143.423 23.786 143.782 23.7478 144.164 23.7478C144.468 23.7478 144.77 23.7697 145.071 23.8126C145.37 23.8555 145.643 23.9437 145.886 24.0771C146.129 24.2106 146.325 24.3979 146.473 24.6391C146.621 24.8802 146.695 25.1947 146.695 25.5818V29.0173C146.695 29.2756 146.71 29.4652 146.741 29.5854C146.771 29.7056 146.873 29.7665 147.047 29.7665C147.143 29.7665 147.256 29.7493 147.386 29.715V30.5695L147.387 30.5687ZM145.587 27.1388C145.448 27.2418 145.265 27.3167 145.039 27.3643C144.812 27.4119 144.575 27.4502 144.328 27.4806C144.08 27.511 143.83 27.5454 143.577 27.5836C143.325 27.6226 143.099 27.6843 142.899 27.7701C142.7 27.856 142.536 27.9785 142.41 28.1369C142.284 28.2961 142.221 28.5123 142.221 28.787C142.221 28.9673 142.258 29.1195 142.332 29.2444C142.406 29.3692 142.501 29.4699 142.619 29.5472C142.736 29.6244 142.873 29.6806 143.029 29.715C143.186 29.7493 143.351 29.7665 143.525 29.7665C143.89 29.7665 144.203 29.7173 144.464 29.6182C144.725 29.5191 144.938 29.395 145.103 29.2444C145.268 29.0937 145.39 28.9306 145.468 28.755C145.546 28.5794 145.585 28.414 145.585 28.2595V27.1388H145.587Z" fill="black"/>
<path d="M149.853 21.3527V30.5945H148.744V21.3527H149.853Z" fill="black"/>
<path d="M10.9444 21.8426C2.64253 16.1307 0.535594 12.1497 0.762882 7.6919C0.983878 3.33789 5.06011 1.14957 9.66642 0H9.67193C7.31254 1.27678 5.85444 2.83452 5.85444 5.69166C5.85444 9.43382 7.89059 11.7985 15.4092 16.7215L17.601 18.1652C22.0304 21.0919 24.8373 23.551 26.5628 25.8962C26.5628 25.8962 26.5651 12.9637 26.5651 11.3342C26.5651 9.28319 32.8411 7.50226 33.751 7.28218C32.2119 7.63883 31.5238 10.0152 31.5238 11.2171L31.7935 45.9992H16.2507C17.3738 45.6184 17.9211 45.2149 17.9211 45.2149C21.6403 43.0906 23.4751 39.0518 23.4751 36.0878C23.4751 31.5582 21.2038 28.9313 14.4678 24.2713L10.9444 21.8411" fill="black"/>
<path d="M0 46H7.21973C4.18241 45.0565 1.75145 43.0867 0.684222 39.9603C0.363346 39.0183 0.0298856 37.5168 0.000786462 37.3014C0.0180886 37.5761 0.000786462 46 0.000786462 46H0Z" fill="black"/>
<path d="M29.1526 6.72497C30.3531 6.72497 31.3264 5.75921 31.3264 4.56787C31.3264 3.37653 30.3531 2.41077 29.1526 2.41077C27.9521 2.41077 26.9788 3.37653 26.9788 4.56787C26.9788 5.75921 27.9521 6.72497 29.1526 6.72497Z" fill="black"/>
</g>
<path d="M46.9524 41.1744L46.831 41.9165H42.081L42.2024 41.1744H46.9524ZM49.8267 45L50.9737 38.0909H55.1435L55.022 38.8331H51.6889L51.2976 41.1676H54.4148L54.2933 41.9098H51.1761L50.7848 44.2578H54.1719L54.0504 45H49.8267ZM56.7054 41.8828L56.1926 45H55.3965L56.2601 39.8182H57.0293L56.8944 40.6278H56.9618C57.1238 40.3647 57.343 40.1533 57.6197 39.9936C57.8963 39.8317 58.2303 39.7507 58.6216 39.7507C58.968 39.7507 59.2604 39.8227 59.4988 39.9666C59.7394 40.1083 59.9092 40.3242 60.0082 40.6143C60.1094 40.9022 60.124 41.2666 60.052 41.7074L59.4988 45H58.7026L59.2424 41.7614C59.3098 41.3565 59.257 41.0394 59.0838 40.81C58.9129 40.5806 58.6419 40.4659 58.2708 40.4659C58.0144 40.4659 57.7771 40.521 57.5589 40.6312C57.343 40.7414 57.1597 40.9022 57.0091 41.1136C56.8606 41.325 56.7594 41.5814 56.7054 41.8828ZM65.5754 45.108C65.1414 45.108 64.777 44.9989 64.4824 44.7807C64.1878 44.5603 63.9797 44.2499 63.8583 43.8496C63.7391 43.447 63.7244 42.9714 63.8144 42.4226C63.9066 41.8783 64.0787 41.406 64.3306 41.0057C64.5847 40.6054 64.8962 40.2961 65.265 40.0779C65.6339 39.8598 66.0365 39.7507 66.4728 39.7507C66.8101 39.7507 67.0677 39.8069 67.2453 39.9194C67.4253 40.0296 67.5557 40.1555 67.6367 40.2972C67.7176 40.4367 67.7795 40.5514 67.8222 40.6413H67.8897L68.3148 38.0909H69.1109L67.9639 45H67.1947L67.3297 44.2038H67.2352C67.161 44.2983 67.0575 44.4175 66.9248 44.5614C66.7922 44.7031 66.6167 44.8302 66.3986 44.9426C66.1827 45.0529 65.9083 45.108 65.5754 45.108ZM65.7711 44.3928C66.0905 44.3928 66.3761 44.3095 66.628 44.1431C66.8821 43.9744 67.0935 43.7417 67.2622 43.4448C67.4309 43.1457 67.5478 42.8004 67.6131 42.4091C67.6783 42.0223 67.676 41.6838 67.6063 41.3936C67.5366 41.1013 67.4028 40.8741 67.2049 40.7122C67.0069 40.548 66.7449 40.4659 66.4188 40.4659C66.0837 40.4659 65.7925 40.5525 65.5451 40.7257C65.2977 40.8966 65.0964 41.1294 64.9412 41.424C64.786 41.7164 64.678 42.0447 64.6173 42.4091C64.5566 42.7779 64.5555 43.113 64.6139 43.4144C64.6724 43.7135 64.7961 43.9519 64.985 44.1296C65.1762 44.305 65.4382 44.3928 65.7711 44.3928ZM71.685 45.108C71.1879 45.108 70.7775 44.9978 70.4536 44.7773C70.1297 44.5547 69.9037 44.2443 69.7755 43.8462C69.6473 43.4459 69.6271 42.9804 69.7148 42.4496C69.8025 41.9188 69.9768 41.451 70.2377 41.0462C70.4986 40.6391 70.8236 40.322 71.2127 40.0948C71.6018 39.8654 72.0291 39.7507 72.4946 39.7507C72.7645 39.7507 73.0243 39.7957 73.2739 39.8857C73.5236 39.9756 73.7395 40.1218 73.9217 40.3242C74.1038 40.5244 74.2309 40.7898 74.3029 41.1204C74.3748 41.451 74.3703 41.8581 74.2894 42.3416L74.2354 42.679H70.2411L70.349 41.9908H73.5337C73.5854 41.6984 73.5719 41.4375 73.4932 41.2081C73.4167 40.9787 73.2829 40.7976 73.0918 40.665C72.9028 40.5323 72.6633 40.4659 72.3732 40.4659C72.0741 40.4659 71.7952 40.5469 71.5365 40.7088C71.2779 40.8685 71.062 41.0709 70.8888 41.3161C70.7156 41.5589 70.6077 41.8063 70.5649 42.0582L70.4705 42.652C70.403 43.0816 70.4131 43.4234 70.5008 43.6776C70.5908 43.9317 70.7471 44.115 70.9698 44.2275C71.1924 44.3377 71.4713 44.3928 71.8064 44.3928C72.0201 44.3928 72.2169 44.3635 72.3968 44.305C72.5767 44.2443 72.7375 44.1544 72.8792 44.0352C73.0209 43.9137 73.1401 43.763 73.2368 43.5831L73.9655 43.799C73.8418 44.0599 73.6675 44.2893 73.4426 44.4872C73.2199 44.6829 72.9591 44.8358 72.6599 44.946C72.3631 45.054 72.0381 45.108 71.685 45.108ZM77.0169 38.0909L75.8699 45H75.0737L76.2207 38.0909H77.0169ZM81.5114 45.1214C81.183 45.1214 80.8951 45.0596 80.6477 44.9359C80.4003 44.81 80.217 44.6289 80.0978 44.3928C79.9786 44.1544 79.946 43.8665 80 43.5291C80.0517 43.2322 80.1518 42.9916 80.3002 42.8072C80.4487 42.6205 80.6286 42.4743 80.84 42.3686C81.0537 42.2607 81.2831 42.1808 81.5282 42.1291C81.7756 42.0751 82.0219 42.0335 82.267 42.0043C82.5864 41.9638 82.8462 41.9323 83.0463 41.9098C83.2465 41.8873 83.3972 41.8502 83.4984 41.7985C83.5996 41.7467 83.6615 41.6579 83.6839 41.532V41.505C83.7379 41.1744 83.6941 40.9168 83.5524 40.7324C83.4107 40.5458 83.1577 40.4524 82.7933 40.4524C82.4155 40.4524 82.0995 40.5356 81.8453 40.7021C81.5912 40.8685 81.4034 41.0462 81.282 41.2351L80.5803 40.9652C80.7647 40.6503 80.9851 40.4052 81.2415 40.2298C81.4979 40.0521 81.7666 39.9284 82.0478 39.8587C82.3289 39.7867 82.5999 39.7507 82.8608 39.7507C83.0272 39.7507 83.215 39.771 83.4242 39.8114C83.6333 39.8497 83.829 39.9295 84.0112 40.051C84.1956 40.1724 84.3339 40.3557 84.4261 40.6009C84.5206 40.846 84.5341 41.1744 84.4666 41.5859L83.8999 45H83.1037L83.2251 44.2983H83.1847C83.1127 44.4107 83.0025 44.5311 82.854 44.6593C82.7079 44.7875 82.5223 44.8965 82.2974 44.9865C82.0748 45.0765 81.8127 45.1214 81.5114 45.1214ZM81.7408 44.4062C82.0556 44.4062 82.3311 44.3444 82.5673 44.2207C82.8057 44.097 82.9969 43.9373 83.1408 43.7417C83.287 43.546 83.3781 43.3402 83.4141 43.1243L83.5355 42.3956C83.495 42.4361 83.4152 42.4732 83.296 42.5069C83.1768 42.5384 83.0418 42.5665 82.8912 42.5913C82.7427 42.6138 82.5977 42.634 82.456 42.652C82.3165 42.6677 82.2041 42.6812 82.1186 42.6925C81.9072 42.7195 81.7059 42.7633 81.5147 42.824C81.3258 42.8825 81.1661 42.9714 81.0357 43.0906C80.9075 43.2075 80.8277 43.3672 80.7962 43.5696C80.7489 43.8462 80.8153 44.0554 80.9952 44.1971C81.1751 44.3365 81.4237 44.4062 81.7408 44.4062ZM90.2683 39.8182L87.4885 45H86.6788L85.6263 39.8182H86.4562L87.1984 43.9474H87.2524L89.371 39.8182H90.2683ZM97.8639 39.8722C97.8639 39.5011 97.7414 39.2199 97.4962 39.0288C97.2511 38.8353 96.9193 38.7386 96.501 38.7386C96.1951 38.7386 95.9196 38.7881 95.6745 38.8871C95.4293 38.986 95.2292 39.1221 95.074 39.2953C94.9188 39.4685 94.8232 39.6652 94.7872 39.8857C94.758 40.0701 94.7771 40.2286 94.8446 40.3613C94.9121 40.4918 95.0076 40.6009 95.1313 40.6886C95.2573 40.774 95.3922 40.8449 95.5362 40.9011C95.6801 40.9551 95.8128 40.9989 95.9343 41.0327L96.609 41.2216C96.7777 41.2688 96.9655 41.334 97.1724 41.4173C97.3793 41.5005 97.5727 41.6141 97.7526 41.758C97.9325 41.8997 98.0697 42.0819 98.1642 42.3045C98.2609 42.5272 98.2823 42.8004 98.2283 43.1243C98.1653 43.4976 98.0113 43.835 97.7661 44.1364C97.5232 44.4377 97.2016 44.6773 96.8013 44.8549C96.4032 45.0326 95.9388 45.1214 95.408 45.1214C94.9132 45.1214 94.4971 45.0416 94.1598 44.8819C93.8246 44.7222 93.5773 44.4996 93.4176 44.214C93.2601 43.9283 93.1994 43.5966 93.2354 43.2188H94.099C94.0765 43.4796 94.1283 43.6955 94.2542 43.8665C94.3802 44.0352 94.5556 44.1611 94.7805 44.2443C95.0054 44.3253 95.255 44.3658 95.5294 44.3658C95.8488 44.3658 96.1434 44.314 96.4133 44.2106C96.6854 44.1049 96.9103 43.9587 97.088 43.772C97.2679 43.5831 97.3782 43.3627 97.4186 43.1108C97.4591 42.8814 97.4276 42.6947 97.3242 42.5508C97.2207 42.4068 97.0712 42.2899 96.8755 42.1999C96.6798 42.11 96.465 42.0312 96.2311 41.9638L95.4215 41.7209C94.9087 41.5657 94.5185 41.3442 94.2508 41.0563C93.9855 40.7684 93.8899 40.3917 93.9641 39.9261C94.0316 39.5393 94.1946 39.2019 94.4533 38.9141C94.7119 38.6239 95.0324 38.399 95.4147 38.2393C95.7971 38.0774 96.2086 37.9964 96.6495 37.9964C97.0948 37.9964 97.476 38.0774 97.7931 38.2393C98.1102 38.399 98.3464 38.6206 98.5016 38.9039C98.6567 39.1851 98.7141 39.5078 98.6736 39.8722H97.8639ZM100.238 43.1108L100.387 42.1257H100.548L103.207 39.8182H104.192L101.372 42.2607H101.304L100.238 43.1108ZM99.1855 45L100.333 38.0909H101.129L99.9817 45H99.1855ZM102.478 45L100.886 42.4361L101.534 41.8828L103.49 45H102.478ZM105.864 45.1214C105.536 45.1214 105.248 45.0596 105.001 44.9359C104.753 44.81 104.57 44.6289 104.451 44.3928C104.332 44.1544 104.299 43.8665 104.353 43.5291C104.405 43.2322 104.505 42.9916 104.653 42.8072C104.802 42.6205 104.982 42.4743 105.193 42.3686C105.407 42.2607 105.636 42.1808 105.881 42.1291C106.129 42.0751 106.375 42.0335 106.62 42.0043C106.939 41.9638 107.199 41.9323 107.399 41.9098C107.6 41.8873 107.75 41.8502 107.851 41.7985C107.953 41.7467 108.014 41.6579 108.037 41.532V41.505C108.091 41.1744 108.047 40.9168 107.905 40.7324C107.764 40.5458 107.511 40.4524 107.146 40.4524C106.769 40.4524 106.453 40.5356 106.198 40.7021C105.944 40.8685 105.756 41.0462 105.635 41.2351L104.933 40.9652C105.118 40.6503 105.338 40.4052 105.595 40.2298C105.851 40.0521 106.12 39.9284 106.401 39.8587C106.682 39.7867 106.953 39.7507 107.214 39.7507C107.38 39.7507 107.568 39.771 107.777 39.8114C107.986 39.8497 108.182 39.9295 108.364 40.051C108.549 40.1724 108.687 40.3557 108.779 40.6009C108.874 40.846 108.887 41.1744 108.82 41.5859L108.253 45H107.457L107.578 44.2983H107.538C107.466 44.4107 107.356 44.5311 107.207 44.6593C107.061 44.7875 106.875 44.8965 106.65 44.9865C106.428 45.0765 106.166 45.1214 105.864 45.1214ZM106.094 44.4062C106.409 44.4062 106.684 44.3444 106.92 44.2207C107.159 44.097 107.35 43.9373 107.494 43.7417C107.64 43.546 107.731 43.3402 107.767 43.1243L107.889 42.3956C107.848 42.4361 107.768 42.4732 107.649 42.5069C107.53 42.5384 107.395 42.5665 107.244 42.5913C107.096 42.6138 106.951 42.634 106.809 42.652C106.67 42.6677 106.557 42.6812 106.472 42.6925C106.26 42.7195 106.059 42.7633 105.868 42.824C105.679 42.8825 105.519 42.9714 105.389 43.0906C105.261 43.2075 105.181 43.3672 105.149 43.5696C105.102 43.8462 105.168 44.0554 105.348 44.1971C105.528 44.3365 105.777 44.4062 106.094 44.4062ZM112.823 39.8182L112.715 40.4929H110.03L110.138 39.8182H112.823ZM111.123 38.5767H111.919L111.096 43.5156C111.06 43.7405 111.066 43.9092 111.113 44.0217C111.162 44.1319 111.237 44.2061 111.335 44.2443C111.437 44.2803 111.546 44.2983 111.663 44.2983C111.75 44.2983 111.822 44.2938 111.879 44.2848C111.935 44.2736 111.98 44.2646 112.014 44.2578L112.068 44.973C112.007 44.9933 111.925 45.0135 111.821 45.0337C111.72 45.0562 111.595 45.0675 111.447 45.0675C111.222 45.0675 111.011 45.0191 110.813 44.9224C110.615 44.8257 110.463 44.6784 110.357 44.4805C110.251 44.2826 110.223 44.0329 110.273 43.7315L111.123 38.5767ZM116.274 39.8182L116.166 40.4929H113.481L113.589 39.8182H116.274ZM114.574 38.5767H115.37L114.547 43.5156C114.511 43.7405 114.517 43.9092 114.564 44.0217C114.613 44.1319 114.688 44.2061 114.787 44.2443C114.888 44.2803 114.997 44.2983 115.114 44.2983C115.202 44.2983 115.274 44.2938 115.33 44.2848C115.386 44.2736 115.431 44.2646 115.465 44.2578L115.519 44.973C115.458 44.9933 115.376 45.0135 115.272 45.0337C115.171 45.0562 115.046 45.0675 114.898 45.0675C114.673 45.0675 114.462 45.0191 114.264 44.9224C114.066 44.8257 113.914 44.6784 113.808 44.4805C113.703 44.2826 113.675 44.0329 113.724 43.7315L114.574 38.5767ZM118.712 45.108C118.215 45.108 117.804 44.9978 117.48 44.7773C117.157 44.5547 116.931 44.2443 116.802 43.8462C116.674 43.4459 116.654 42.9804 116.742 42.4496C116.829 41.9188 117.004 41.451 117.265 41.0462C117.525 40.6391 117.85 40.322 118.24 40.0948C118.629 39.8654 119.056 39.7507 119.521 39.7507C119.791 39.7507 120.051 39.7957 120.301 39.8857C120.55 39.9756 120.766 40.1218 120.949 40.3242C121.131 40.5244 121.258 40.7898 121.33 41.1204C121.402 41.451 121.397 41.8581 121.316 42.3416L121.262 42.679H117.268L117.376 41.9908H120.561C120.612 41.6984 120.599 41.4375 120.52 41.2081C120.444 40.9787 120.31 40.7976 120.119 40.665C119.93 40.5323 119.69 40.4659 119.4 40.4659C119.101 40.4659 118.822 40.5469 118.563 40.7088C118.305 40.8685 118.089 41.0709 117.916 41.3161C117.742 41.5589 117.635 41.8063 117.592 42.0582L117.497 42.652C117.43 43.0816 117.44 43.4234 117.528 43.6776C117.618 43.9317 117.774 44.115 117.997 44.2275C118.219 44.3377 118.498 44.3928 118.833 44.3928C119.047 44.3928 119.244 44.3635 119.424 44.305C119.604 44.2443 119.764 44.1544 119.906 44.0352C120.048 43.9137 120.167 43.763 120.264 43.5831L120.992 43.799C120.869 44.0599 120.694 44.2893 120.469 44.4872C120.247 44.6829 119.986 44.8358 119.687 44.946C119.39 45.054 119.065 45.108 118.712 45.108ZM124.26 45.108C123.763 45.108 123.352 44.9978 123.028 44.7773C122.704 44.5547 122.478 44.2443 122.35 43.8462C122.222 43.4459 122.202 42.9804 122.29 42.4496C122.377 41.9188 122.552 41.451 122.812 41.0462C123.073 40.6391 123.398 40.322 123.787 40.0948C124.176 39.8654 124.604 39.7507 125.069 39.7507C125.339 39.7507 125.599 39.7957 125.849 39.8857C126.098 39.9756 126.314 40.1218 126.496 40.3242C126.679 40.5244 126.806 40.7898 126.878 41.1204C126.95 41.451 126.945 41.8581 126.864 42.3416L126.81 42.679H122.816L122.924 41.9908H126.108C126.16 41.6984 126.147 41.4375 126.068 41.2081C125.991 40.9787 125.858 40.7976 125.666 40.665C125.478 40.5323 125.238 40.4659 124.948 40.4659C124.649 40.4659 124.37 40.5469 124.111 40.7088C123.853 40.8685 123.637 41.0709 123.464 41.3161C123.29 41.5589 123.182 41.8063 123.14 42.0582L123.045 42.652C122.978 43.0816 122.988 43.4234 123.076 43.6776C123.166 43.9317 123.322 44.115 123.544 44.2275C123.767 44.3377 124.046 44.3928 124.381 44.3928C124.595 44.3928 124.792 44.3635 124.972 44.305C125.151 44.2443 125.312 44.1544 125.454 44.0352C125.596 43.9137 125.715 43.763 125.812 43.5831L126.54 43.799C126.417 44.0599 126.242 44.2893 126.017 44.4872C125.795 44.6829 125.534 44.8358 125.235 44.946C124.938 45.054 124.613 45.108 124.26 45.108ZM130.766 39.8182L130.658 40.4929H127.972L128.08 39.8182H130.766ZM129.065 38.5767H129.862L129.038 43.5156C129.002 43.7405 129.008 43.9092 129.055 44.0217C129.105 44.1319 129.179 44.2061 129.278 44.2443C129.379 44.2803 129.488 44.2983 129.605 44.2983C129.693 44.2983 129.765 44.2938 129.821 44.2848C129.877 44.2736 129.922 44.2646 129.956 44.2578L130.01 44.973C129.949 44.9933 129.867 45.0135 129.764 45.0337C129.662 45.0562 129.538 45.0675 129.389 45.0675C129.164 45.0675 128.953 45.0191 128.755 44.9224C128.557 44.8257 128.405 44.6784 128.3 44.4805C128.194 44.2826 128.166 44.0329 128.215 43.7315L129.065 38.5767ZM132.611 45.1214C132.283 45.1214 131.995 45.0596 131.747 44.9359C131.5 44.81 131.317 44.6289 131.197 44.3928C131.078 44.1544 131.046 43.8665 131.1 43.5291C131.151 43.2322 131.251 42.9916 131.4 42.8072C131.548 42.6205 131.728 42.4743 131.94 42.3686C132.153 42.2607 132.383 42.1808 132.628 42.1291C132.875 42.0751 133.122 42.0335 133.367 42.0043C133.686 41.9638 133.946 41.9323 134.146 41.9098C134.346 41.8873 134.497 41.8502 134.598 41.7985C134.699 41.7467 134.761 41.6579 134.784 41.532V41.505C134.838 41.1744 134.794 40.9168 134.652 40.7324C134.51 40.5458 134.257 40.4524 133.893 40.4524C133.515 40.4524 133.199 40.5356 132.945 40.7021C132.691 40.8685 132.503 41.0462 132.382 41.2351L131.68 40.9652C131.864 40.6503 132.085 40.4052 132.341 40.2298C132.597 40.0521 132.866 39.9284 133.147 39.8587C133.429 39.7867 133.7 39.7507 133.96 39.7507C134.127 39.7507 134.315 39.771 134.524 39.8114C134.733 39.8497 134.929 39.9295 135.111 40.051C135.295 40.1724 135.434 40.3557 135.526 40.6009C135.62 40.846 135.634 41.1744 135.566 41.5859L134.999 45H134.203L134.325 44.2983H134.284C134.212 44.4107 134.102 44.5311 133.954 44.6593C133.807 44.7875 133.622 44.8965 133.397 44.9865C133.174 45.0765 132.912 45.1214 132.611 45.1214ZM132.84 44.4062C133.155 44.4062 133.431 44.3444 133.667 44.2207C133.905 44.097 134.096 43.9373 134.24 43.7417C134.387 43.546 134.478 43.3402 134.514 43.1243L134.635 42.3956C134.595 42.4361 134.515 42.4732 134.396 42.5069C134.276 42.5384 134.141 42.5665 133.991 42.5913C133.842 42.6138 133.697 42.634 133.556 42.652C133.416 42.6677 133.304 42.6812 133.218 42.6925C133.007 42.7195 132.806 42.7633 132.614 42.824C132.425 42.8825 132.266 42.9714 132.135 43.0906C132.007 43.2075 131.927 43.3672 131.896 43.5696C131.849 43.8462 131.915 44.0554 132.095 44.1971C132.275 44.3365 132.523 44.4062 132.84 44.4062ZM139.57 39.8182L139.462 40.4929H136.777L136.884 39.8182H139.57ZM137.87 38.5767H138.666L137.843 43.5156C137.807 43.7405 137.812 43.9092 137.859 44.0217C137.909 44.1319 137.983 44.2061 138.082 44.2443C138.183 44.2803 138.292 44.2983 138.409 44.2983C138.497 44.2983 138.569 44.2938 138.625 44.2848C138.681 44.2736 138.726 44.2646 138.76 44.2578L138.814 44.973C138.753 44.9933 138.671 45.0135 138.568 45.0337C138.467 45.0562 138.342 45.0675 138.193 45.0675C137.968 45.0675 137.757 45.0191 137.559 44.9224C137.361 44.8257 137.209 44.6784 137.104 44.4805C136.998 44.2826 136.97 44.0329 137.019 43.7315L137.87 38.5767ZM142.007 45.108C141.51 45.108 141.1 44.9978 140.776 44.7773C140.452 44.5547 140.226 44.2443 140.098 43.8462C139.97 43.4459 139.949 42.9804 140.037 42.4496C140.125 41.9188 140.299 41.451 140.56 41.0462C140.821 40.6391 141.146 40.322 141.535 40.0948C141.924 39.8654 142.351 39.7507 142.817 39.7507C143.087 39.7507 143.347 39.7957 143.596 39.8857C143.846 39.9756 144.062 40.1218 144.244 40.3242C144.426 40.5244 144.553 40.7898 144.625 41.1204C144.697 41.451 144.693 41.8581 144.612 42.3416L144.558 42.679H140.563L140.671 41.9908H143.856C143.908 41.6984 143.894 41.4375 143.815 41.2081C143.739 40.9787 143.605 40.7976 143.414 40.665C143.225 40.5323 142.986 40.4659 142.695 40.4659C142.396 40.4659 142.117 40.5469 141.859 40.7088C141.6 40.8685 141.384 41.0709 141.211 41.3161C141.038 41.5589 140.93 41.8063 140.887 42.0582L140.793 42.652C140.725 43.0816 140.735 43.4234 140.823 43.6776C140.913 43.9317 141.069 44.115 141.292 44.2275C141.515 44.3377 141.794 44.3928 142.129 44.3928C142.342 44.3928 142.539 44.3635 142.719 44.305C142.899 44.2443 143.06 44.1544 143.201 44.0352C143.343 43.9137 143.462 43.763 143.559 43.5831L144.288 43.799C144.164 44.0599 143.99 44.2893 143.765 44.4872C143.542 44.6829 143.281 44.8358 142.982 44.946C142.685 45.054 142.36 45.108 142.007 45.108ZM146.705 41.8828L146.192 45H145.396L146.26 39.8182H147.029L146.894 40.6278H146.961C147.123 40.3647 147.343 40.1533 147.619 39.9936C147.896 39.8317 148.23 39.7507 148.621 39.7507C148.967 39.7507 149.26 39.8227 149.498 39.9666C149.739 40.1083 149.909 40.3242 150.008 40.6143C150.109 40.9022 150.124 41.2666 150.052 41.7074L149.498 45H148.702L149.242 41.7614C149.309 41.3565 149.256 41.0394 149.083 40.81C148.912 40.5806 148.641 40.4659 148.27 40.4659C148.014 40.4659 147.777 40.521 147.558 40.6312C147.343 40.7414 147.159 40.9022 147.009 41.1136C146.86 41.325 146.759 41.5814 146.705 41.8828Z" fill="black"/>
<defs>
<clipPath id="clip0_1533_6660">
<rect width="151" height="46" fill="white"/>
</clipPath>
</defs>
</svg>
