<?xml version="1.0" encoding="utf-8"?>
<svg width="113px" height="212px" viewBox="0 0 113 212" version="1.1" xmlns="http://www.w3.org/2000/svg" xmlns:xlink="http://www.w3.org/1999/xlink">
<g id="Page-1" stroke="none" stroke-width="1" fill="none" fill-rule="evenodd">
<g id="Group-69" transform="translate(0.000000, 0.040000)">
<path d="M59.4619,0.0059 L59.4619,5.4009 L64.5749,5.4009 L64.5479,10.6879 L59.5019,10.6879 L59.5019,17.6669 C59.7719,17.8809 60.0929,17.9889 60.4149,18.0959 C63.8769,19.4919 66.1589,23.0879 66.1059,26.8189 C66.0779,29.6639 64.9779,32.2949 62.6959,34.0389 L62.6959,34.1199 C64.8979,33.8249 67.1519,33.6099 69.4069,33.3949 L69.4599,33.3679 C73.1909,33.2069 77.1369,32.7779 80.8149,33.5289 C81.5109,33.7169 82.2089,33.9049 82.8269,34.2539 C84.1949,34.1469 85.5109,34.1469 86.8799,34.0929 C88.3019,34.0929 89.6979,34.0929 91.1199,34.1729 C92.1939,34.1729 93.0799,34.2539 94.1259,34.3339 L94.3409,34.2809 C97.1859,34.4689 99.9509,34.7909 102.7149,35.4349 C104.4329,35.8109 106.3389,37.0179 106.7949,38.8439 C107.2239,40.6149 106.4729,42.2519 106.2319,43.9429 C105.9629,45.4199 105.5069,46.8419 105.2919,48.3449 C105.6139,48.6139 106.1779,48.5869 106.5529,48.8009 C106.9019,48.9359 107.3049,48.9889 107.5199,49.2849 C107.0099,51.1099 106.5799,52.8809 106.0699,54.6789 C104.7549,59.7789 103.5739,64.8519 102.6079,70.0859 C102.3129,71.2939 102.0709,72.5009 101.8569,73.6819 C101.8829,73.8169 101.9909,73.7759 102.0709,73.8029 C101.8569,73.6419 112.4579,73.8029 112.4579,73.8029 L112.5389,73.7899 C112.5919,75.0779 112.4849,76.4469 112.4849,77.6549 C112.2969,82.5659 112.1629,87.3979 111.9209,92.2019 C111.9479,92.6049 111.8149,93.0339 111.8679,93.4369 C111.7869,94.8859 111.8149,96.3619 111.6529,97.8919 C111.4649,100.7639 111.3039,103.6899 111.0359,106.5619 C111.0359,107.6079 110.8209,108.6819 110.8479,109.7289 C110.6869,110.8289 110.7139,111.7949 110.5789,112.8959 C110.3919,115.5259 110.0429,118.0489 109.8279,120.6799 C109.4519,123.4439 109.0499,126.3159 108.6199,129.1069 C107.5199,137.2669 105.5869,145.2379 103.2519,152.9949 C102.6079,154.7939 101.9909,156.5919 101.2929,158.3629 C100.0309,161.9059 98.3129,165.2609 96.5689,168.6159 C94.4749,172.3199 92.3009,175.9439 89.6709,179.4059 C84.4639,186.6529 77.9689,193.4699 71.3659,199.6169 C68.1179,202.5419 64.8439,205.3339 61.4619,208.0709 C60.0929,209.1719 58.6169,210.2719 57.2209,211.2119 L57.0599,211.1849 C50.2959,206.6489 43.7469,201.0929 37.8419,195.2419 C32.8499,190.3029 28.0729,184.8009 24.0199,179.1639 C19.1879,172.8299 15.4309,166.0129 12.5049,158.8459 C12.0489,157.7189 11.6459,156.5379 11.1899,155.4109 C9.5259,150.9019 8.1029,146.2849 6.9759,141.5339 C5.6609,136.4619 4.8289,131.1469 4.1039,125.9129 C3.7819,123.2829 3.4329,120.7599 3.2179,118.0759 C2.8699,114.4259 2.4399,110.8559 2.1989,107.1789 C2.1449,105.8099 2.1179,104.4949 2.0109,103.0989 C2.0109,102.6159 1.9029,102.1059 1.8759,101.5689 C1.5809,98.0529 1.5279,94.5369 1.2319,91.0209 C1.1519,89.8129 1.2049,88.3909 1.0439,87.1829 C1.0439,85.6529 0.8569,84.0959 0.8299,82.5929 C0.8569,79.6409 0.4809,76.8489 0.5609,73.8969 C0.5609,73.8969 11.7139,74.0869 11.4849,73.8429 C11.4849,72.6619 11.0289,71.5889 10.8679,70.4349 C10.2509,67.2409 9.4989,64.0469 8.7479,60.8529 C7.8079,56.9879 6.6539,53.1499 5.5799,49.2849 C5.5799,49.0699 5.7949,48.9359 6.0099,48.9359 L7.8079,48.3719 L7.9149,48.2909 C7.4859,45.6069 6.7609,43.0039 6.3589,40.3199 C6.2509,38.7359 7.0569,37.2329 8.4249,36.3739 C9.5529,35.5959 10.9479,35.3809 12.2899,35.0589 C13.2569,34.8439 14.1689,34.8179 15.1089,34.6299 C15.1619,34.4949 15.2429,34.6569 15.3229,34.6299 C19.9129,34.1729 24.3689,33.9589 28.9579,34.1469 L30.4609,34.1469 C31.5349,33.2879 32.9039,33.2339 34.2189,33.0459 C34.7829,33.0999 35.5069,32.9659 36.0979,33.0189 C41.0099,32.8849 46.0549,33.3949 50.7789,34.0119 C50.4839,33.6629 50.0549,33.3149 49.7589,32.9119 C47.5319,30.3619 46.9139,26.2819 48.2559,23.1419 C49.2229,20.7799 51.4239,18.7399 53.7589,17.8549 L53.8389,17.6929 L53.8549,10.4959 L48.5649,10.4959 L48.5649,5.4539 L48.7129,5.3339 L53.8389,5.3339 L53.8389,0.0059 L59.4619,0.0059 Z M41.9489,37.0449 C40.2039,37.1799 38.2179,36.8569 36.5809,37.5019 C36.2319,37.7969 35.8559,38.0119 35.8029,38.4679 C35.6949,39.9439 35.7489,41.5279 36.0709,42.9769 C36.7419,43.0309 37.3589,42.7889 38.0569,42.7889 C40.9289,42.3869 43.8009,42.2519 46.7269,42.1719 C48.8739,42.0639 51.0209,42.1719 53.1139,42.0909 C53.1139,40.7759 52.9529,39.5679 52.8729,38.1729 L52.7389,38.0379 C49.6249,37.5549 46.3779,37.2869 43.2099,37.1259 L41.9489,37.0449 Z M72.3589,37.1259 C68.3599,37.2329 64.5749,37.7429 60.6569,38.0919 L60.3879,38.1989 L60.0659,41.9839 L60.1479,42.0639 C62.6159,42.1719 64.9509,42.1989 67.4469,42.3059 C70.7219,42.4669 74.1039,42.7889 77.2719,43.2449 L77.4849,43.1919 C77.6199,42.2259 77.7809,41.2059 77.8339,40.1859 C77.9149,39.3269 78.0489,38.2799 77.1909,37.7429 C75.6869,37.0179 74.0239,37.2329 72.3589,37.1259 L72.3589,37.1259 Z M86.7729,38.2529 C86.1009,38.3609 85.2149,38.2259 84.5709,38.3609 C84.3829,39.5949 84.1419,40.9639 83.9539,42.2259 C83.8729,42.8429 83.6319,43.5139 83.6319,44.1579 C83.7659,44.2389 83.9539,44.2919 84.0609,44.2119 C84.9739,44.5609 86.0219,44.5879 86.9059,44.9899 C91.0129,46.0899 94.6909,48.2909 98.1519,50.9219 L98.3399,50.9219 C98.4749,50.0899 99.1989,49.3379 99.9239,48.8549 L100.3269,47.1909 C100.7019,45.3119 101.3199,43.5679 101.2659,41.5279 C101.1059,40.8839 100.5679,40.2129 99.9509,39.9439 C98.3669,39.1929 96.5689,38.9509 94.7969,38.6829 C92.1669,38.4139 89.4289,38.3069 86.7729,38.2529 L86.7729,38.2529 Z M28.7699,38.3869 C25.8449,38.4409 23.0529,38.3609 20.0739,38.6019 C17.7659,38.8699 15.4309,38.8969 13.3369,39.8369 C12.6129,40.2129 12.3169,41.0179 12.2899,41.7419 C12.4249,43.9159 13.0689,46.1169 13.4449,48.2909 C13.4709,49.1769 14.5449,49.4189 14.8669,50.2239 C15.0009,50.4649 15.0549,50.7609 15.2429,50.9489 C15.8599,50.5459 16.4509,49.9019 17.0409,49.4989 C20.7989,46.7079 25.0399,45.2049 29.5489,44.2919 L29.7629,44.1309 L29.5759,42.6819 C29.4149,41.2589 29.1999,39.8639 29.0659,38.4409 L28.7699,38.3869 L28.7699,38.3869 Z" id="Fill-31" fill="#000000"></path>
<path d="M58.6025,0.8911 L58.6325,6.2241 L63.6655,6.2241 L63.6635,9.7761 L58.6695,9.7761 L58.5235,9.9641 C58.5235,9.9641 58.4665,17.3061 58.5235,17.4251 C58.1465,17.5061 57.7315,17.3981 57.3285,17.3711 C56.4695,17.3451 55.5815,17.3981 54.7485,17.5321 L54.7485,9.7661 L49.5985,9.7661 L49.6245,6.2461 L54.8045,6.2461 L54.8045,0.8911 L58.6025,0.8911" id="Fill-33" fill="#FFFFFF"></path>
<path d="M58.3223,18.499 C58.3473,18.982 57.8653,19.277 57.7853,19.733 L57.8113,26.591 L65.1663,26.591 C65.2183,27.074 65.2463,27.785 65.0853,28.242 L48.7933,28.242 C48.6593,28.242 48.5783,28.108 48.5783,28 C48.5783,27.544 48.4713,27.047 48.5253,26.591 C48.5183,26.697 55.4903,26.591 55.4903,26.591 L55.5563,26.524 C55.4753,26.578 55.4903,19.68 55.4903,19.68 C55.3563,19.331 55.1283,19.009 55.0743,18.606 C55.4753,18.311 55.9863,18.526 56.4433,18.338 C57.0063,18.472 57.7583,18.284 58.3223,18.499" id="Fill-35" fill="#FFFFFF"></path>
<path d="M65.1123,25.3701 L65.1383,25.7861 L58.6703,25.7861 L58.6703,19.8411 C58.9123,19.4651 58.9663,18.9821 59.3413,18.7141 C62.2943,19.5191 64.7093,22.3641 65.1123,25.3701" id="Fill-37" fill="#FFFFFF"></path>
<path d="M54.7246,19.9751 C54.7246,21.8811 54.7796,23.9471 54.7516,25.7721 C54.4566,25.9071 50.0276,25.7991 48.6316,25.7991 C48.5516,25.2091 48.7406,24.7261 48.9006,24.1621 C49.5716,21.8541 51.6106,19.5721 53.9736,18.8481 L54.1336,18.8481 L54.7246,19.9751" id="Fill-39" fill="#FFFFFF"></path>
<path d="M64.8174,29.1011 L64.8714,29.1541 C64.2254,31.9461 61.5954,34.4151 58.8044,34.9521 C55.4504,35.7031 51.8794,34.5491 49.9214,31.5431 C49.4374,30.7921 49.0354,29.9861 48.8474,29.1011 C48.8744,29.0201 64.8174,29.1011 64.8174,29.1011" id="Fill-41" fill="#FFFFFF"></path>
<path d="M48.042,34.7642 C48.417,34.7912 48.82,34.9522 49.169,34.8982 C50.35,35.0862 51.45,35.2742 52.631,35.4622 C52.792,35.9992 52.739,36.5352 52.792,37.0722 L52.712,37.1532 C47.961,36.6162 43.023,36.0252 38.218,36.2402 C37.064,36.3212 35.776,36.5622 35.132,37.6632 C34.648,38.8172 35.024,40.1592 35.024,41.3132 C35.132,42.8962 35.319,44.5612 35.534,46.0642 C35.507,46.2252 35.319,46.2522 35.212,46.1982 C33.951,45.9562 32.635,46.1982 31.454,46.5742 L31.374,46.5472 C31.025,44.2922 30.596,41.9302 30.354,39.5952 C30.193,37.9312 29.924,35.8112 31.535,34.8442 C32.26,34.5492 33.038,34.3342 33.87,34.2812 C37.628,33.8782 41.681,34.2272 45.411,34.4952 L48.042,34.7642" id="Fill-43" fill="#FFFFFF"></path>
<path d="M82.3174,35.2739 C83.7394,36.3209 83.4704,38.1989 83.2284,39.7289 C82.7994,42.0639 82.4514,44.5069 81.9674,46.8419 C80.7064,46.4929 79.4184,46.3859 78.0484,46.3589 L78.0214,45.8759 C78.2634,43.6749 78.6394,41.5279 78.7474,39.3269 C78.7744,38.4679 78.5584,37.5819 77.7544,37.0989 C75.7954,35.9989 73.3254,36.4009 71.0714,36.2939 C70.2924,36.3479 69.3794,36.3739 68.6004,36.4819 C65.8644,36.6429 63.1534,37.1259 60.4964,37.2059 C60.5214,36.6429 60.5214,36.1329 60.6574,35.5689 C60.8984,35.3539 61.3004,35.5159 61.6234,35.3809 C63.5544,35.1669 65.2734,34.7909 67.2324,34.6299 C69.8894,34.3079 72.4934,34.3879 75.0704,34.1729 C77.5114,34.3079 80.1964,33.9859 82.3174,35.2739" id="Fill-45" fill="#FFFFFF"></path>
<path d="M98.6094,35.8379 C100.5944,36.1059 102.6624,36.3739 104.3794,37.3939 C105.3994,38.0649 105.9354,39.1389 105.8014,40.3469 C105.4534,42.8699 104.8084,45.3389 104.2724,47.8079 C104.1654,47.9429 104.2174,48.3719 103.8964,48.2109 C102.9034,48.1039 101.9634,48.2109 100.9974,48.4259 C101.0784,47.2709 101.4814,46.0899 101.6954,44.9899 C102.0164,43.2989 102.7684,40.9909 101.1054,39.6759 C99.4144,38.4679 97.4014,38.2799 95.3614,37.9039 C93.4024,37.7159 91.3074,37.6089 89.3764,37.4749 C89.0804,37.5279 88.8114,37.5549 88.4904,37.4749 C87.3084,37.3669 86.3964,37.5549 85.2144,37.4479 C85.0014,37.4479 84.8124,37.4209 84.6254,37.4749 L84.5444,37.4209 C84.5174,36.6699 84.3024,35.9989 83.9814,35.3539 C85.0014,35.2739 86.0214,35.2199 87.0134,35.1929 C90.9314,35.2199 94.6634,35.3809 98.6094,35.8379" id="Fill-47" fill="#FFFFFF"></path>
<path d="M29.4678,35.354 L29.4948,35.408 C29.1998,36.079 29.1458,36.857 28.9578,37.555 C24.6098,37.475 20.3428,37.716 16.1548,38.173 C15.0548,38.414 13.9278,38.548 12.9348,39.031 C11.7538,39.649 11.2708,40.964 11.4048,42.252 C11.7268,44.292 12.1828,46.252 12.5048,48.265 L12.4778,48.345 C11.4578,47.916 10.1968,47.943 9.1768,48.077 L9.0428,47.943 C8.5868,45.366 7.8078,42.682 7.5928,40.078 C7.4588,38.924 8.1568,37.824 9.1768,37.26 C10.8678,36.401 12.9348,36.079 14.8398,35.811 C19.4028,35.22 24.4488,35.14 29.2268,35.301 L29.4678,35.354" id="Fill-49" fill="#FFFFFF"></path>
<path d="M59.3682,35.811 L59.4222,35.945 L58.7232,45.527 C58.2142,45.554 57.6772,45.446 57.1402,45.42 C56.3072,45.366 55.3962,45.5 54.5912,45.661 L54.4572,45.527 L53.8932,36.643 C53.8932,36.374 53.7852,35.999 53.9732,35.73 C55.6372,36.186 57.6772,36.213 59.3682,35.811" id="Fill-51" fill="#FFFFFF"></path>
<path d="M61.0859,48.1841 C61.5959,48.9361 61.6499,49.8211 61.4349,50.7071 C60.8439,52.2641 59.5559,53.3911 58.5089,54.7061 C58.5629,55.0281 58.8849,55.2971 59.0729,55.5381 C60.2269,54.4381 61.3809,53.1761 62.8569,52.5861 C63.9309,52.2101 65.0849,52.6131 65.8099,53.4981 C67.0179,55.3241 67.0709,58.1151 65.9709,60.0211 C65.4879,60.9061 64.6019,61.4431 63.6359,61.6041 C62.2399,61.6851 61.2469,60.7191 60.3609,59.7791 C59.8509,59.1351 59.3949,58.5981 58.9919,57.9001 L58.8579,57.9001 C58.6699,58.2761 58.0799,58.4101 58.3479,58.8661 C59.2339,61.1481 60.2809,63.3761 61.7029,65.4421 C62.2939,66.7581 63.6629,66.6771 64.7629,67.0261 C66.0779,67.2671 67.4469,67.4551 68.8699,67.4021 C69.1379,67.3481 69.4869,67.3481 69.7549,67.3211 C71.0709,67.1871 72.3319,66.9191 73.4589,66.3011 C74.2909,65.4691 74.9359,64.4221 75.5529,63.4291 C76.3849,62.1141 76.9489,60.6651 77.5659,59.2691 C77.5389,59.0011 77.3509,58.8131 77.1629,58.5981 L77.0019,58.6521 C75.7679,59.8601 74.5599,61.5511 72.7349,61.7651 C71.6609,61.7651 70.7489,61.3091 70.0509,60.5841 C68.7889,58.6521 68.7889,55.8071 70.2119,53.9551 C70.8569,53.0691 71.8759,52.6661 72.8969,52.8541 C74.4789,53.2301 75.6599,54.5991 76.9489,55.5381 C77.1629,55.3241 77.5119,55.1091 77.5119,54.7871 C76.2239,53.1501 74.1299,51.3781 75.1499,49.0971 C76.1429,47.3251 78.4249,47.1101 80.2499,47.4061 C81.6469,47.6471 83.2019,48.3991 83.5779,49.9021 C83.8729,52.0491 82.0749,53.5791 80.7599,55.0551 C80.7599,55.4041 81.0819,55.5921 81.2969,55.8071 C82.9069,54.5721 84.5709,52.5321 86.8259,53.2571 C87.8989,53.7131 88.5439,54.7871 88.7849,55.8601 C89.0269,57.9541 88.8119,60.3161 86.9059,61.5241 C86.0469,62.0341 84.8399,61.9801 83.9819,61.4431 C82.7729,60.7191 81.9139,59.5911 81.0549,58.5181 L80.9479,58.5441 C80.7869,58.8401 80.1959,59.0281 80.5179,59.4841 C81.4849,61.7381 82.8529,63.9121 84.3829,65.8991 C85.2959,66.8111 86.6379,66.9451 87.8189,67.1601 C90.6099,67.6161 93.7509,67.5361 96.1929,66.2481 C97.9649,64.5031 99.2529,62.3561 100.4609,60.2621 C100.6489,59.9401 100.3269,59.6451 100.1389,59.4031 L99.9779,59.4301 C98.3129,60.8261 96.5419,62.9461 94.1529,62.1681 C92.8109,61.7651 92.2209,60.2891 92.0599,59.0281 C91.8989,57.0951 92.1669,54.9751 93.7769,53.6861 C94.8779,52.9881 96.2469,53.2031 97.2399,53.9551 C98.3669,54.6791 99.1989,55.7261 100.1389,56.6661 C100.4339,56.6921 100.5679,56.3171 100.7559,56.1021 C100.7289,55.7261 100.3529,55.4581 100.2189,55.0821 C99.4409,53.8201 98.7429,52.2911 99.4409,50.8141 C100.6489,48.9891 103.1719,48.9621 105.1039,49.4461 C105.4529,49.4991 105.7479,49.6601 106.0429,49.8211 L106.0699,49.9291 C105.4529,52.0221 104.9699,54.1961 104.4599,56.3171 C103.8969,58.2761 103.4669,60.3961 103.0369,62.3561 C102.1519,66.1401 101.4269,70.0051 100.5409,73.7901 L100.4609,73.7901 C100.5409,73.7091 13.0959,73.7901 13.0959,73.7901 C12.9349,73.8431 12.7999,73.8171 12.7999,73.6291 C11.1089,65.6031 9.2309,57.7121 7.0299,49.8211 C7.0829,49.6331 7.3519,49.6071 7.5129,49.4721 C9.5529,48.8011 12.4249,48.6141 13.8739,50.5191 C15.1889,52.5051 13.4709,54.4651 12.6659,56.1821 C12.8809,56.4241 13.0419,56.8271 13.3909,56.7731 C14.7869,55.1091 16.4509,52.7741 18.8929,53.4721 C20.2619,53.7671 21.1479,55.1631 21.3089,56.4781 C21.6039,58.1691 21.5769,60.2621 20.2079,61.4971 C19.4839,62.2481 18.3559,62.4901 17.3899,62.1411 C15.9409,61.6041 14.7059,60.6111 13.6059,59.4301 C13.2839,59.2151 13.0959,59.6981 12.8269,59.8061 L12.7739,59.9131 C13.9809,62.1411 15.4039,64.2611 17.0409,66.2741 C17.8199,66.6771 18.6519,66.9191 19.5369,67.0801 C22.5169,67.4821 25.8719,67.5091 28.5819,66.3281 C29.9779,65.0401 30.8099,63.3221 31.6419,61.6581 C31.9909,60.7991 32.5819,60.0211 32.7699,59.1081 C32.6889,58.9201 32.4209,58.6791 32.2329,58.5441 C31.6419,59.0011 31.2669,59.6721 30.7029,60.1551 C30.1659,60.5841 29.6559,61.2021 28.9579,61.4701 C28.2869,61.8991 27.3209,61.9801 26.6229,61.5511 C24.5829,60.3161 24.3419,57.6321 24.7709,55.4851 C25.0399,54.2771 26.0059,53.2031 27.2939,53.0691 C29.0119,53.0961 30.2999,54.3301 31.6149,55.2971 C31.7499,55.3771 31.7499,55.5921 31.9379,55.5651 C32.1249,55.3241 32.6619,55.0281 32.5009,54.6531 C31.0249,53.0691 29.0919,51.3511 29.9509,49.0431 C31.0249,47.1641 33.3329,47.0031 35.2659,47.1911 C36.3929,47.3791 37.6279,47.8081 38.2449,48.9621 C39.2379,51.2711 37.1179,53.1501 35.8029,54.7601 C35.8559,55.0551 36.1249,55.2701 36.2859,55.4851 L36.4739,55.4041 C37.8689,54.2771 39.1579,52.8011 41.0099,52.6401 C42.0829,52.7201 43.1569,53.2841 43.7199,54.3041 C44.5519,55.8871 44.5789,58.2491 43.6399,59.8061 C43.2369,60.6651 42.4319,61.2821 41.5459,61.4701 C39.2919,61.9801 37.9229,59.6721 36.4999,58.3831 C36.2589,58.6251 35.7489,58.7591 35.8829,59.1891 C36.3659,60.4771 37.0639,61.6851 37.6809,62.9191 C38.3789,63.9661 38.9159,65.1741 39.8289,66.0601 C41.4119,67.0801 43.4249,67.2941 45.3309,67.3751 C46.0019,67.3481 46.6729,67.2941 47.3169,67.2411 C48.8469,66.8921 50.6719,66.8651 51.6109,65.3351 C53.0609,63.2681 54.1879,61.0141 55.1009,58.6791 C55.0469,58.3831 54.8589,58.1151 54.6179,57.9001 C53.1409,59.4301 51.6919,62.1141 49.1419,61.2021 C47.3439,60.4231 46.7269,58.4371 46.7799,56.6121 C46.8609,54.9751 47.3709,53.0151 49.1419,52.4521 C51.3429,52.1031 52.8459,54.0081 54.3759,55.4041 L54.4569,55.4041 C54.6179,55.0821 55.2349,54.7871 54.8049,54.4111 C53.6779,53.1761 52.4429,51.8611 51.8799,50.2781 C51.5849,49.2311 52.1209,48.3721 52.6849,47.6471 C54.0539,46.3861 56.0129,46.1981 57.8649,46.4131 C58.5359,46.4931 59.2339,46.7351 59.8249,47.0571 C60.3079,47.2711 60.7639,47.7551 61.0859,48.1841" id="Fill-53" fill="#FFFFFF"></path>
<path d="M60.7637,78.6479 C61.0327,78.7279 61.2467,78.4329 61.5157,78.3789 C61.9177,78.3259 62.2937,78.4329 62.6167,78.5939 C63.1257,78.9969 63.3677,79.5869 63.1797,80.2309 C63.0727,80.6069 62.7227,81.0099 62.3477,81.1439 C62.0257,81.2239 61.6767,81.2239 61.4087,81.0629 C61.1667,80.9829 60.9517,80.7409 60.8187,80.5269 C60.6577,80.4189 60.5487,80.6069 60.4687,80.7139 C60.7637,81.9759 62.0517,82.8879 63.2597,83.1299 C64.4417,83.3719 65.7557,83.0229 66.6687,82.2439 C66.7487,82.1639 66.7227,82.0299 66.6687,81.9759 C66.3207,81.7609 65.9707,82.1909 65.5687,82.0029 C65.0847,81.9219 64.7627,81.4389 64.6827,80.9829 C64.6017,80.4189 64.8977,79.8559 65.4077,79.5869 C65.8097,79.4259 66.3467,79.4259 66.6687,79.7479 C66.9097,79.6939 66.8577,79.3719 67.0717,79.2109 C67.3127,78.8089 67.7957,78.7009 68.1997,78.6209 C68.7367,78.7009 69.2727,78.8619 69.5407,79.3989 C69.7017,79.6939 69.6747,80.0969 69.7017,80.4189 C69.7827,80.5269 69.9697,80.4189 70.0507,80.4459 C70.5347,80.4999 70.9907,80.7679 71.1777,81.2239 C71.3927,81.6809 71.3117,82.2979 70.9357,82.6739 C70.6147,82.9689 70.1847,83.1569 69.7287,83.0229 C69.3797,82.9419 69.1927,82.6469 68.8977,82.4589 C68.8167,82.4859 68.7367,82.5399 68.6817,82.6199 C68.8427,83.5329 69.5687,84.4719 70.4527,84.8749 C71.7947,85.5459 73.5397,85.4109 74.6667,84.3919 C74.6947,84.2569 74.6397,84.0689 74.4787,84.0159 C74.0497,84.1229 73.5937,84.1499 73.2177,83.9079 C72.8687,83.6669 72.6547,83.3179 72.6807,82.8879 C72.6547,82.3789 72.8967,81.8419 73.3787,81.5469 C73.8347,81.3319 74.4257,81.3589 74.8007,81.6539 C75.0427,81.8419 75.1767,82.1369 75.3657,82.3789 C76.1177,81.7879 77.3247,81.6269 78.1827,82.0299 C77.7007,82.8619 76.9747,83.5329 76.4657,84.3109 L74.2107,87.3439 C74.2907,87.6119 74.6397,87.5859 74.8557,87.6929 C75.2037,87.8269 75.5797,87.9079 75.8747,88.2029 C76.1177,88.9809 76.1697,89.8399 75.9027,90.5649 C75.4717,91.3699 74.8557,92.1219 74.2647,92.8189 C74.2647,95.1809 74.2387,97.5699 73.5397,99.7169 C72.1177,105.0049 69.3797,109.7559 67.0717,114.6409 C66.6687,115.8749 66.0777,117.1099 66.2397,118.5319 C66.2657,118.7199 66.0257,118.6669 65.9447,118.6129 C65.4337,118.3709 64.9237,118.1029 64.3867,117.9689 C64.1727,118.2099 64.2807,118.6399 64.2257,118.9349 C64.2527,119.7399 64.2807,120.5989 64.2007,121.3509 L64.1467,130.3149 C64.0657,131.2549 64.1187,132.2209 64.1187,133.1869 C64.0377,133.6969 64.0657,134.2609 64.0657,134.7709 C64.0657,137.0789 64.0377,138.9849 64.0657,141.2389 C66.3207,143.7349 67.2857,146.8219 68.6817,149.7209 C71.4467,155.0619 73.2177,160.8589 77.0017,165.7709 C79.3367,168.4549 82.7997,170.2539 86.1817,169.0459 C88.8927,168.2409 90.9867,165.6099 91.2817,162.8459 C91.5237,158.8999 89.3757,155.7059 87.7117,152.4319 C85.0007,148.1099 82.4777,143.7079 80.0617,139.2529 C78.4517,136.2469 77.7267,132.3549 78.8007,128.9459 C79.5257,126.8799 80.6537,124.9469 82.1817,123.2829 C84.7857,120.4379 87.8727,118.3439 90.7977,116.0629 C93.9117,113.7819 96.9457,111.3929 99.8977,108.8699 C103.0107,105.9979 105.0497,102.3209 105.1587,98.1339 C105.1587,94.4029 103.1177,90.5379 99.5217,89.1419 C97.7777,88.6049 95.5767,88.6049 93.8587,89.2759 C91.7637,90.2429 90.2607,92.4169 90.3417,94.8059 C90.5027,95.1809 90.3157,95.7449 90.7977,95.8789 C92.1397,96.0939 93.5627,96.1209 94.6907,96.8989 C95.5227,98.3489 96.1137,99.9319 96.5147,101.5159 C96.4087,103.9579 95.8707,106.3739 95.3877,108.6819 C95.3067,108.8969 95.0117,108.8159 94.8247,108.8699 C94.6907,108.5479 94.7167,108.1719 94.6627,107.8499 C94.5297,106.9109 94.3147,106.0779 94.0187,105.2199 C93.5897,104.3879 93.1327,103.5289 92.7317,102.6699 C92.4897,102.7239 92.2477,102.4009 92.0597,102.6699 C92.2477,103.6629 92.7317,104.6559 92.5157,105.7299 C92.5427,106.4809 92.2477,107.1249 92.1397,107.8229 C89.3487,110.3189 86.2617,112.1709 83.4447,114.4789 C81.5107,116.0089 79.4977,117.7539 78.1827,119.7669 C77.9427,119.7399 77.6197,119.6869 77.4857,119.4989 C79.0957,114.9889 82.1287,111.0709 84.9477,107.0719 C85.6717,105.9709 86.6647,104.9509 86.6927,103.5819 C86.7447,103.1529 86.7727,102.6699 86.6117,102.2399 C86.1277,102.4279 85.6717,102.7499 85.2147,103.0719 C84.3027,103.7429 83.2837,104.5219 82.6127,105.4609 C82.4777,105.3269 82.1817,105.3539 82.1567,105.1119 C83.2287,102.4819 84.6787,99.9589 86.4767,97.6509 C86.3697,94.1879 87.1207,90.8059 89.8597,88.5519 C91.5497,87.1289 93.6697,86.2169 95.8707,86.1359 C97.7497,85.8949 99.6567,86.4579 101.3207,87.0759 C105.8287,89.2229 108.0307,94.0809 107.8687,98.8319 C107.6547,102.2399 106.2577,105.4069 104.4877,108.2789 C103.3327,110.3729 101.5877,112.1179 100.0847,114.0229 L94.8777,119.7399 L93.3747,121.6729 L93.3747,121.7799 C94.1257,121.8339 94.7967,121.5379 95.5487,121.5119 C96.5957,121.4039 97.6167,121.7529 98.6357,121.8609 C99.6817,121.9409 100.6497,122.4509 101.7217,122.2359 C102.3927,122.1559 103.1447,121.9679 103.7887,121.8609 C103.9507,122.1289 104.0567,122.4239 104.0837,122.7459 C101.1317,124.2229 98.0727,125.4299 95.1467,126.9329 C93.3747,127.7389 91.5497,128.5709 89.7787,129.3759 C89.5897,129.6169 89.5897,129.9129 89.5897,130.1809 L89.7247,130.2079 C90.8787,129.8859 92.1137,129.6439 93.3217,129.4029 C95.0927,129.6169 96.9177,129.9929 98.6897,130.2879 C99.5477,130.2619 100.4887,130.0739 101.3457,130.0469 C101.4817,130.2619 101.5347,130.5299 101.5877,130.7979 L101.4537,130.9329 C98.0177,132.4359 94.5827,133.9389 91.2007,135.5219 L89.2147,136.4619 C89.0797,136.6499 89.1337,136.9179 89.1607,137.1329 L89.2417,137.2399 C90.2357,137.0519 91.3887,136.8369 92.3277,137.2399 C93.6427,137.5349 94.9057,137.9109 96.2197,138.1529 C96.9707,138.1789 97.5617,137.9919 98.2867,138.0179 C98.4207,138.2329 98.5007,138.5279 98.5547,138.7699 L91.4157,142.1519 C90.8787,142.4739 90.1807,142.5009 89.8047,143.0379 C89.8857,144.0309 90.1267,144.9699 90.3967,145.8829 C91.4687,149.8279 93.5087,153.4519 94.0187,157.6119 C94.3147,159.7049 94.4487,161.7989 93.8587,163.7849 C93.0267,167.5689 89.5367,171.0049 85.8057,171.9709 C81.0817,173.0719 76.4657,171.2469 73.3517,167.6229 C70.7217,164.7509 68.6007,161.5569 66.5877,158.3629 C66.3207,155.2229 66.1317,152.0559 65.7557,148.9689 C65.5417,148.1909 65.3267,147.4389 64.8977,146.7409 C64.6827,146.9029 64.2527,146.8489 64.2527,147.1979 L64.9777,149.2909 C65.2457,152.0019 65.4337,154.7129 65.6217,157.3429 C65.8367,160.2689 65.8097,162.8459 65.9447,165.8789 C66.2127,168.1329 66.7227,170.3879 66.9367,172.6689 C66.9917,173.6619 68.0907,173.9569 68.6007,174.7089 C68.5477,176.5069 68.3867,178.3319 67.7957,179.9699 C67.4477,180.3189 67.0447,180.5599 66.8837,181.0159 C66.7767,183.1909 66.7487,185.2839 66.5347,187.4849 C66.5347,188.2369 66.2657,189.0149 66.3737,189.7399 C66.2127,191.8599 66.0777,193.9529 65.9707,196.0739 C65.9707,196.1539 65.9977,196.2349 65.9447,196.3149 C65.9707,197.0129 66.0507,197.7379 66.0777,198.4359 C65.8647,198.6769 65.5687,198.7579 65.2997,198.8919 C64.2807,198.0059 63.3677,196.6379 61.8907,196.9859 C61.1137,197.4159 60.3877,198.0329 59.6637,198.5969 L59.6637,198.7309 C60.2007,199.7509 60.5767,200.8249 60.8987,201.8979 C61.0057,202.5159 60.3347,202.8109 60.0117,203.2399 C59.5827,203.5349 59.0737,203.6699 58.7237,204.0449 C58.5357,205.1999 58.8587,206.3269 59.0457,207.3469 C58.6437,207.3999 58.4287,207.1589 58.0267,207.1589 C57.4627,206.3539 56.9787,205.4949 56.6307,204.5819 C56.5767,203.8579 56.0937,203.3209 55.9067,202.6769 C56.0937,201.4419 56.4437,200.2069 56.8717,199.0529 C56.9257,198.7039 56.5497,198.7039 56.3887,198.4899 L56.2547,198.5429 C55.3687,199.5629 54.3757,200.6369 53.2757,201.3609 C52.6307,201.1739 52.0137,200.8249 51.4237,200.4759 C51.1547,200.2609 50.9137,199.7239 50.5107,199.8579 C49.5447,200.2609 48.7127,200.9589 47.9607,201.7099 L47.8807,201.6829 C47.9337,201.1999 47.6387,200.7169 47.8267,200.2069 L49.2487,198.3549 L51.0757,196.8789 C52.3357,196.5569 53.5437,196.2889 54.8857,196.2079 C55.1007,196.0739 55.1277,195.8049 55.1547,195.5639 L55.0197,195.3759 C53.7587,194.7319 52.3627,194.1949 51.2887,193.1479 C51.3157,192.2629 51.4237,191.2159 51.9597,190.4639 C51.3157,189.3369 50.1347,188.5589 49.1417,187.8609 C49.4637,187.6729 49.8397,187.5389 50.2157,187.4039 C51.0757,187.6459 51.8797,187.9409 52.7117,188.2099 L54.4567,189.2829 L55.2887,189.5779 C55.9597,191.0279 56.7647,192.4239 57.3557,193.8999 C57.4097,194.0609 57.5427,194.2219 57.7577,194.1949 C58.5357,194.1149 59.2877,193.8459 59.9867,193.5239 C60.2817,193.1479 60.3347,192.6379 60.4427,192.1819 C60.8187,188.8539 60.4147,185.4449 60.0387,182.3049 C59.6907,180.0499 59.2347,177.9029 58.9927,175.6219 C58.4287,174.1989 57.3017,173.0179 56.2017,171.8369 C53.3827,168.7239 50.1347,166.0929 48.0957,162.4429 C47.2357,161.3429 46.9137,159.9739 46.8067,158.5779 C46.7267,156.9139 46.1357,155.1419 46.7267,153.5319 C48.1757,151.1159 50.8327,149.2379 52.7917,147.1979 C54.9657,145.3189 56.2547,142.9299 57.7037,140.6219 C57.5427,140.4069 57.2757,140.2999 57.0597,140.1389 L56.6577,140.5949 C55.3157,143.1449 53.5167,145.5339 51.2087,147.4929 C49.4367,149.3449 47.3707,150.9549 45.9487,153.0489 C45.4107,154.4179 45.5987,156.3769 45.8137,157.8259 C45.9207,159.1419 46.0557,160.4569 46.5917,161.6109 C47.3707,163.1679 48.4717,164.5629 49.4917,165.9859 L49.4917,166.2009 L47.1567,169.8779 C46.6727,170.6829 46.7797,171.6759 46.9137,172.6149 L46.8607,172.7759 C45.2767,173.5549 43.6667,174.2529 41.9497,174.7359 C40.8477,174.3329 39.8287,173.6619 38.8887,172.8569 C35.4267,172.1859 31.9107,171.3809 28.6897,170.2799 C27.4287,169.8509 26.0597,170.0389 24.7437,170.0389 C24.3687,170.0659 24.2337,169.6359 24.0737,169.3679 L24.0737,169.2869 C24.7707,168.5629 25.8977,167.9719 25.8177,166.8719 C25.6027,165.8519 25.0137,165.0199 24.4497,164.1609 C23.6707,164.6439 22.8917,165.1809 22.0337,165.5299 C20.0197,165.6639 18.1677,165.0469 16.5577,164.1069 C16.4237,163.7309 16.1817,163.4089 16.1017,163.0069 C17.0137,163.1679 17.9537,163.5169 18.9737,163.3559 C19.1877,162.9529 19.1347,162.3889 19.2427,161.9599 C19.3487,161.7179 19.3487,161.3689 19.6717,161.3429 C20.8517,161.1279 22.0067,161.0739 23.1877,161.1279 C23.3487,161.1549 23.3217,160.9669 23.3487,160.8589 C23.3217,160.6719 23.3747,160.3229 23.0537,160.2959 C21.8717,160.0539 20.6647,159.7589 19.5637,159.2759 C19.4307,158.7659 19.3237,158.1749 19.4567,157.6119 C19.6447,157.2359 19.9937,156.9139 20.0747,156.4839 L19.0547,155.6789 C18.3827,155.4649 17.7657,155.1689 17.0677,155.0349 C17.0407,154.9809 17.0137,154.9279 17.0407,154.8739 C17.3627,154.6329 17.6847,154.4179 18.0347,154.2299 L20.5037,154.5789 C21.4967,155.0619 22.7847,154.9279 23.5097,155.9479 C24.5027,156.9139 25.2267,158.0679 25.8977,159.2219 C26.0857,159.2219 26.3817,159.2489 26.4347,158.9809 C26.4887,157.9069 26.5687,156.7259 26.9447,155.6789 C27.2137,155.1419 27.9107,155.3029 28.4747,155.2499 C28.8507,155.1159 29.3887,155.5449 29.4677,154.9549 C29.9237,154.0419 29.7637,152.9149 29.7367,151.8949 L29.7897,151.8679 C30.1657,152.2709 30.9177,152.3779 30.8907,153.0759 C31.0787,153.9879 31.3197,154.8739 31.1857,155.8399 C31.1047,156.7799 31.1047,157.7459 30.8367,158.6589 C30.1927,159.6779 29.1727,160.5099 28.3947,161.4769 C28.4747,162.0939 28.6897,162.7109 28.8507,163.3289 C29.1727,164.0269 28.7167,165.3149 29.8167,165.3689 C30.6487,165.3689 31.5347,165.5829 32.3127,165.5829 C34.1117,165.7979 36.0977,165.7979 37.8417,165.9589 L39.9097,166.0659 L39.9627,165.9859 C39.6677,165.2079 39.3457,164.3489 39.5597,163.4629 C40.1237,159.0069 40.4457,154.3369 42.1097,150.2839 C42.3777,149.6669 43.0227,149.4259 43.5337,149.1029 C45.5717,147.9489 47.6387,146.8489 49.8677,146.1239 C50.5107,145.8289 51.1817,145.5869 51.8257,145.2379 L51.9867,145.0239 C51.4237,142.5809 50.9137,140.1919 50.1077,137.8839 C49.4107,136.3809 48.2027,135.2269 47.0757,133.9119 C46.6457,132.9189 46.1087,131.9789 45.8137,130.9589 C48.4717,127.5239 51.2637,124.0079 53.9467,120.6259 C53.9727,120.3839 53.7317,120.5449 53.6237,120.4109 C53.5167,120.3309 53.3827,120.0349 53.2217,120.1959 C50.4567,123.6589 47.7997,127.0679 45.0617,130.4229 C42.3257,133.8579 39.3717,137.2669 36.6347,140.7019 C35.9367,141.6419 35.2657,142.6349 34.5137,143.5209 C34.2727,143.4399 34.0577,143.2519 33.8697,143.0639 C33.7637,142.2059 33.9237,141.1589 33.1447,140.6219 C32.3937,140.3799 31.4537,140.2729 30.6487,140.2729 C30.1387,140.9169 29.7637,141.6689 29.3337,142.3669 C28.7437,143.1719 28.2337,144.1379 27.3477,144.6479 C26.8657,144.5939 26.3277,144.4329 25.8177,144.3529 L25.7107,144.4599 L25.6577,151.7869 C25.5757,152.0559 25.2537,151.9219 25.0397,151.8949 L23.1337,151.8679 L23.0537,151.7339 C22.9997,149.3449 23.1877,147.1709 23.0537,144.8359 C22.9997,144.6749 22.8387,144.7279 22.7577,144.8089 C22.0337,145.2919 21.7107,146.2319 21.0667,146.7149 L20.6907,145.6139 C21.2547,144.6209 21.3887,143.4399 22.1407,142.5279 L23.1067,141.3199 L23.0797,139.0379 C22.8917,138.9309 23.1877,138.8239 23.1067,138.6359 C22.9997,138.3139 23.4297,137.4819 22.7037,137.5889 C22.3557,137.5079 21.8987,137.5619 21.7917,137.1589 C21.5237,136.4349 21.0937,135.7369 21.1747,134.9589 C21.1747,134.7979 20.9867,134.7439 20.8517,134.7169 C19.8327,134.2339 18.5707,134.6099 17.4967,134.5559 C17.6047,134.0999 17.9807,133.7779 18.1947,133.3749 C19.0547,133.0799 19.9397,132.8379 20.8257,132.6239 C21.5237,132.6239 22.2747,132.4619 22.9187,132.4359 C23.1877,132.3549 23.0797,132.0869 23.1067,131.9259 C23.1607,128.1409 23.1067,124.2489 23.1607,120.3569 L23.1877,110.2119 L23.2417,109.2459 C23.1607,109.0849 23.0267,109.1919 22.9457,109.2719 L22.2217,110.0509 C21.2827,110.0509 20.4767,109.6479 19.6717,109.2989 C18.4917,109.9699 17.7657,111.0979 17.1487,112.1979 C16.9077,111.8759 16.8257,111.3929 16.6647,110.9899 C16.9607,109.9429 17.4967,108.9769 17.8997,107.9839 L19.3487,105.9169 C20.5297,105.3269 21.8467,105.0049 23.1067,104.5749 C23.2137,104.3339 23.2417,103.9039 23.0537,103.6899 L19.8587,103.2069 L19.7517,103.0459 C19.4307,102.1599 19.1347,101.3009 19.1077,100.3079 C18.6787,100.0129 18.1417,99.9319 17.6047,99.8519 C16.8797,99.8249 16.2357,99.8519 15.5377,99.9049 L15.5377,99.8249 L16.2087,98.6969 C17.1487,98.3749 18.1157,98.3489 19.0807,98.1339 C19.9937,98.2409 20.8787,98.1869 21.7377,98.3219 C22.2477,98.5359 22.6787,98.9119 23.1877,99.0729 C23.2417,97.9999 23.2417,96.9799 23.2137,95.8519 C23.3217,95.6379 23.2417,95.3419 23.2677,95.0469 L23.2677,92.7389 C22.9727,92.6309 22.5697,92.6579 22.2747,92.6579 C20.6907,92.6849 19.0007,92.6049 17.6597,93.5709 C14.9487,95.2349 12.7997,97.7849 10.7867,100.3079 C8.8817,97.4359 7.9147,94.1349 6.9757,90.8329 C6.0637,86.9949 5.6337,83.0759 5.7147,78.9969 L5.7677,78.9429 C9.2847,81.5729 12.9607,83.9889 16.9077,85.6799 C18.8927,86.4579 21.0137,86.4049 23.1877,86.5919 C23.3487,86.4579 23.3217,86.2169 23.3487,85.9749 C23.3487,85.3849 23.3487,84.8209 23.4297,84.1769 L23.5367,84.1229 C24.4497,84.1229 25.2817,84.2039 26.1127,84.2309 C26.1127,85.0089 26.0057,85.8139 26.0597,86.5919 L26.1937,86.6999 C26.7567,86.7539 27.2937,86.7799 27.8577,86.8069 C27.9927,87.2369 27.9377,87.6929 27.8847,88.1219 C27.9647,89.6519 27.8577,91.1819 27.8307,92.6579 C27.7767,92.7929 27.6967,92.7119 27.6167,92.7119 L26.0597,92.7389 C25.9517,93.1409 25.9247,93.4369 25.9517,93.8659 L25.9517,100.5759 C26.1397,100.7639 26.3817,100.7909 26.5967,100.8979 L26.7037,100.7639 C26.9987,99.6369 27.1867,98.4289 27.5357,97.3289 C28.1807,96.9799 28.8777,96.8189 29.6017,96.6839 C30.3807,95.7179 30.1657,94.2959 30.4337,93.1949 C30.7837,93.3829 31.1047,93.7049 31.4277,93.9739 C31.4807,94.9399 31.8027,95.7989 31.8027,96.7379 L31.7227,99.0729 C30.8907,100.2539 30.1117,101.4889 29.0917,102.5889 L29.0917,102.8039 C29.4407,103.0719 29.6017,103.5019 30.0327,103.5819 C30.5417,103.6899 31.1317,103.6629 31.6157,103.7969 C32.0447,104.2799 32.3127,104.9239 32.9567,105.1929 C35.0507,106.3739 37.1707,107.4739 39.2917,108.5479 L40.1507,109.0579 C39.3457,111.6879 39.2377,114.5599 38.5937,117.2169 L38.2987,117.0289 L30.2997,110.2119 L29.3607,109.4599 C28.6627,109.4069 28.1527,109.2719 27.4547,109.2719 C27.2407,109.1649 27.0537,108.9499 26.9717,108.7619 L27.0537,108.4669 C27.4017,108.0649 27.8577,107.6619 28.0737,107.1519 L27.7767,106.8839 L26.0337,105.8369 C25.9517,105.8369 25.8717,105.9169 25.8717,105.9979 C25.7907,108.9769 25.8457,111.7689 25.8177,114.6939 L25.8177,131.5229 C25.8717,132.0869 25.6027,132.9459 26.1397,133.4019 C26.7847,134.0189 27.4547,134.5019 28.1527,134.9849 C28.3407,134.8509 28.6357,134.7709 28.7167,134.5019 C28.0987,133.5089 27.5357,132.5429 26.9987,131.5229 C27.0787,130.5569 27.5887,129.6979 28.3407,128.9729 C28.1807,128.1679 28.0187,127.2289 27.4017,126.5579 C27.2137,126.3159 27.0787,126.0209 26.9177,125.7519 L26.9177,125.6989 C27.2937,125.5909 27.6967,125.6449 28.0737,125.6719 L29.9237,127.5779 L31.3467,130.0739 C31.6417,131.7909 31.5347,133.6699 31.5887,135.4419 L31.6417,135.7369 C32.0447,135.9789 32.4737,136.2199 32.9037,136.3539 C33.2797,136.3539 33.3877,135.8979 33.5757,135.6559 C34.8357,133.3479 35.9907,131.0129 37.1987,128.7049 L40.7137,122.3169 L41.7337,120.4109 C41.5997,120.1159 41.2777,120.3839 41.0357,120.2499 C40.2037,120.2499 39.4797,120.4109 38.6207,120.3569 L38.5667,120.1699 C39.8287,117.2439 39.8017,113.8079 40.6067,110.6949 C40.9017,109.6209 41.0097,108.4399 41.8947,107.5819 C44.9817,104.2799 48.7657,101.9989 52.4707,99.7979 C54.9927,98.5899 57.9187,98.5099 60.6027,97.7849 C60.9247,97.7579 61.1137,97.3819 61.1937,97.1139 L61.7027,95.8259 L61.5697,95.7179 C59.7167,95.6909 57.8917,95.6379 55.9867,95.6379 L56.0127,95.4499 C56.5497,94.6449 57.2757,93.8929 57.7317,93.0069 L57.6767,92.8189 L56.0127,91.1279 C55.9067,90.5919 55.6917,90.0279 55.6637,89.4369 C55.8517,89.3569 56.1207,89.3569 56.3347,89.3029 C56.6577,89.1419 57.0597,89.0619 57.3277,88.7659 C57.3017,88.4709 57.2477,88.2029 57.0597,87.9879 C56.5497,88.2029 56.0397,88.4979 55.4227,88.4709 C55.2357,88.3099 55.2617,88.0149 55.1807,87.7999 L55.2617,87.5859 L57.2757,86.0019 L59.0737,84.5789 L59.3677,84.3649 L59.4497,84.2039 L59.0457,80.9289 L58.6177,77.6279 L58.5897,77.0369 L58.6977,76.9299 L59.4757,77.2249 L60.1197,77.7079 L60.5487,78.3259 L60.7637,78.6479" id="Fill-55" fill="#FFFFFF"></path>
<path d="M68.333,85.9751 C69.943,86.4581 71.661,86.7801 73.218,87.3171 L73.191,87.3981 C72.252,87.6391 71.259,87.8001 70.4,88.2301 C68.521,87.0221 66.159,86.8341 63.985,86.6731 C63.877,86.8341 64.065,86.9681 64.038,87.1561 C64.038,87.5321 63.797,87.8541 63.636,88.1761 C63.045,88.4441 62.348,88.6321 61.623,88.4711 C61.274,88.2031 61.247,87.7201 61.086,87.3171 C61.086,87.0221 61.247,86.7801 61.408,86.5391 C61.059,86.4051 60.657,86.5921 60.281,86.5921 C59.851,86.7271 59.502,86.9681 59.127,87.1561 C58.992,86.8341 58.724,86.4581 58.885,86.1091 C59.637,85.4651 60.469,84.9551 61.22,84.2571 C63.582,84.7401 65.971,85.4381 68.333,85.9751" id="Fill-57" fill="#000000"></path>
<path d="M74.5869,89.0352 C74.6669,89.3572 74.6939,89.8132 74.5869,90.1352 C74.1039,90.7262 73.5939,91.3972 73.0569,91.9072 C72.9489,91.9872 72.8689,91.8802 72.8419,91.7732 C72.9759,91.2632 73.0839,90.6722 72.9759,90.0822 C72.7619,89.7062 72.3049,89.6252 71.9829,89.4112 L71.9829,89.2502 C72.7619,88.9542 73.7809,88.4982 74.5869,89.0352" id="Fill-59" fill="#000000"></path>
<path d="M51.2632,91.3701 C52.4702,91.5581 53.7852,91.5041 54.9662,91.6921 C55.3692,92.0951 55.8792,92.4971 56.1742,92.9801 C54.3762,92.9271 52.5512,92.8191 50.8062,92.6311 C49.8402,92.5511 49.0622,91.7731 48.2562,91.2631 C48.0152,91.1021 48.0952,90.8061 48.1762,90.5921 C48.2302,90.3771 48.4712,90.2961 48.6592,90.2161 C49.6252,90.4311 50.2432,91.3701 51.2632,91.3701" id="Fill-61" fill="#FFFFFF"></path>
<path d="M63.6357,91.585 C63.7697,92.256 64.1727,92.873 64.2527,93.544 C62.4827,93.651 60.7097,93.41 58.9917,93.222 C58.7507,92.658 58.5357,92.041 58.3747,91.424 L58.4557,91.289 C60.1467,91.397 61.9717,91.451 63.6357,91.585" id="Fill-63" fill="#000000"></path>
<path d="M55.0195,105.8911 C55.0745,106.1591 55.1275,106.4811 54.8855,106.6691 C52.8465,106.8571 50.8065,106.7501 48.9265,107.3131 C47.0485,108.1721 46.4315,110.1851 45.3315,111.7151 C44.8205,112.6811 44.1765,113.5671 43.6665,114.5061 C43.3715,114.6671 43.1845,114.3181 42.9415,114.2111 C43.0225,113.8621 43.2905,113.5941 43.4525,113.2991 C44.4725,111.5541 45.5195,109.8631 46.6195,108.1451 C47.7195,106.4271 49.7325,106.1321 51.5585,106.0521 C52.6855,105.9711 53.8665,105.9171 55.0195,105.8911" id="Fill-65" fill="#000000"></path>
<path d="M27.6699,138.0723 C27.7769,138.2333 27.7769,138.5013 27.7499,138.6893 L25.8719,139.6293 L25.8179,139.5213 L25.8179,137.9923 C25.8719,137.8843 26.0059,137.9653 26.0859,137.9113 C26.6229,137.9653 27.1059,137.9653 27.6699,138.0723" id="Fill-67" fill="#000000"></path>
</g>
</g>
</svg>