<?xml version="1.0" encoding="utf-8"?>
<svg
      version="1.1"
      id="Layer_1"
      xmlns="http://www.w3.org/2000/svg"
      x="0px"
      y="0px"
      viewBox="0 0 150 214.97"
      height="80px"
    >
      <title>Statensinnkreving.no</title>
      <g>
        <rect width="150" height="150" />
        <polygon
          fill="#FFF"
          points="97.08,55.98 97.08,81.34 75,94.02 52.92,81.34 52.92,55.98 30.83,68.66 30.83,94.02 75,119.61 
      119.17,94.02 119.17,68.66"
        />
        <polygon
          fill="#FFF"
          points="75,55.98 97.08,43.08 75,30.39 52.92,43.08"
        />
      </g>
      <g>
        <path
          d="M0.61,172.68h3.76c0.27,2.28,1.56,3.18,4.27,3.18c1.96,0,3.68-0.69,3.68-2.44c0-1.86-1.8-2.23-4.69-2.89
      c-3.39-0.77-6.49-1.67-6.49-5.62c0-3.74,3.05-5.67,7.26-5.67c4.27,0,7.02,2.09,7.32,5.91h-3.68c-0.21-1.91-1.7-2.86-3.66-2.86
      c-2.07,0-3.42,0.87-3.42,2.23c0,1.54,1.33,1.99,4.13,2.6c3.9,0.85,7.08,1.78,7.08,5.86c0,3.84-3.1,5.99-7.37,5.99
      C3.66,178.96,0.74,176.68,0.61,172.68z"
        />
        <path
          d="M17.52,164.94h1.88v-4.24h3.52v4.24h2.33v2.39h-2.33v7.21c0,1.01,0.56,1.35,1.35,1.35c0.45,0,1.06-0.03,1.06-0.03v2.65
      c0,0-0.82,0.05-2.25,0.05c-1.75,0-3.68-0.69-3.68-3.26v-7.98h-1.88V164.94z"
        />
        <path
          d="M35.64,177.03h-0.05c-0.69,1.03-1.67,1.83-4,1.83c-2.78,0-4.74-1.46-4.74-4.16c0-3,2.44-3.95,5.46-4.37
      c2.25-0.32,3.29-0.5,3.29-1.54c0-0.98-0.77-1.62-2.28-1.62c-1.7,0-2.52,0.61-2.62,1.91h-3.21c0.11-2.39,1.88-4.48,5.86-4.48
      c4.08,0,5.73,1.83,5.73,5.01v6.92c0,1.03,0.16,1.64,0.48,1.88v0.13h-3.47C35.86,178.27,35.72,177.63,35.64,177.03z M35.67,173.74
      v-2.04c-0.64,0.37-1.62,0.58-2.52,0.79c-1.88,0.42-2.81,0.85-2.81,2.12s0.85,1.72,2.12,1.72
      C34.53,176.34,35.67,175.06,35.67,173.74z"
        />
        <path
          d="M40.54,164.94h1.88v-4.24h3.52v4.24h2.33v2.39h-2.33v7.21c0,1.01,0.56,1.35,1.35,1.35c0.45,0,1.06-0.03,1.06-0.03v2.65
      c0,0-0.82,0.05-2.25,0.05c-1.75,0-3.68-0.69-3.68-3.26v-7.98h-1.88V164.94z"
        />
        <path
          d="M49.61,171.72c0-4.03,2.73-7.16,6.71-7.16c4.37,0,6.71,3.34,6.71,8.19h-9.86c0.27,2.09,1.43,3.39,3.47,3.39
      c1.4,0,2.23-0.64,2.62-1.67h3.55c-0.5,2.41-2.65,4.45-6.15,4.45C52.15,178.93,49.61,175.78,49.61,171.72z M53.21,170.27h6.04
      c-0.11-1.72-1.25-2.92-2.89-2.92C54.46,167.35,53.53,168.49,53.21,170.27z"
        />
        <path
          d="M68.48,166.79h0.08c0.93-1.46,2.17-2.23,4.03-2.23c2.81,0,4.69,2.12,4.69,5.09v8.88h-3.6v-8.35c0-1.46-0.85-2.49-2.36-2.49
      c-1.59,0-2.76,1.27-2.76,3.13v7.71h-3.6v-13.6h3.53V166.79z"
        />
        <path
          d="M78.92,174.14h3.34c0.24,1.56,1.35,2.25,2.97,2.25c1.59,0,2.49-0.61,2.49-1.56c0-1.3-1.72-1.43-3.58-1.8
      c-2.44-0.48-4.82-1.14-4.82-4.11c0-2.94,2.44-4.35,5.54-4.35c3.58,0,5.57,1.78,5.83,4.51h-3.26c-0.16-1.46-1.09-1.99-2.62-1.99
      c-1.41,0-2.33,0.53-2.33,1.51c0,1.17,1.8,1.27,3.74,1.67c2.28,0.48,4.8,1.11,4.8,4.29c0,2.73-2.33,4.37-5.73,4.37
      C81.33,178.93,79.13,177.03,78.92,174.14z"
        />
        <path d="M1.48,191.38h3.84v18.95H1.48V191.38z" />
        <path
          d="M11.77,198.59h0.08c0.93-1.46,2.17-2.23,4.03-2.23c2.81,0,4.69,2.12,4.69,5.09v8.88h-3.6v-8.35c0-1.46-0.85-2.49-2.36-2.49
      c-1.59,0-2.76,1.27-2.76,3.13v7.71h-3.6v-13.6h3.53V198.59z"
        />
        <path
          d="M26.58,198.59h0.08c0.93-1.46,2.17-2.23,4.03-2.23c2.81,0,4.69,2.12,4.69,5.09v8.88h-3.6v-8.35c0-1.46-0.85-2.49-2.36-2.49
      c-1.59,0-2.76,1.27-2.76,3.13v7.71h-3.6v-13.6h3.53V198.59z"
        />
        <path d="M43.01,204.13l-1.56,1.62v4.58h-3.58v-18.95h3.58v10.5l4.82-5.14h4.32l-5.01,5.17l5.62,8.43h-4.37L43.01,204.13z" />
        <path
          d="M56.07,198.91h0.08c0.82-1.54,1.75-2.33,3.34-2.33c0.4,0,0.64,0.03,0.85,0.11v3.15h-0.08c-2.36-0.24-4.05,1.01-4.05,3.87
      v6.63h-3.6v-13.6h3.47V198.91z"
        />
        <path
          d="M61.11,203.52c0-4.03,2.73-7.16,6.71-7.16c4.37,0,6.71,3.34,6.71,8.19h-9.86c0.26,2.09,1.43,3.39,3.47,3.39
      c1.4,0,2.23-0.64,2.62-1.67h3.55c-0.5,2.41-2.65,4.45-6.15,4.45C63.65,210.73,61.11,207.58,61.11,203.52z M64.71,202.07h6.04
      c-0.11-1.72-1.25-2.92-2.89-2.92C65.96,199.15,65.03,200.29,64.71,202.07z"
        />
        <path
          d="M75.07,196.74h3.66l2.17,7.05c0.4,1.3,0.61,2.17,0.61,2.17h0.05c0,0,0.19-0.88,0.58-2.17l2.23-7.05h3.6l-4.74,13.6h-3.45
      L75.07,196.74z"
        />
        <path d="M89.46,191.38h3.6v3.23h-3.6V191.38z M89.46,196.74h3.6v13.6h-3.6V196.74z" />
        <path
          d="M99.19,198.59h0.08c0.93-1.46,2.17-2.23,4.03-2.23c2.81,0,4.69,2.12,4.69,5.09v8.88h-3.61v-8.35
      c0-1.46-0.85-2.49-2.36-2.49c-1.59,0-2.76,1.27-2.76,3.13v7.71h-3.6v-13.6h3.53V198.59z"
        />
        <path
          d="M110.11,210.73h3.58c0.29,0.85,1.06,1.51,2.73,1.51c2.04,0,3.02-0.98,3.02-2.84v-1.48h-0.08c-0.79,0.9-1.83,1.59-3.55,1.59
      c-3.02,0-5.99-2.39-5.99-6.49c0-4.05,2.44-6.65,5.88-6.65c1.7,0,2.94,0.66,3.76,1.8h0.05v-1.43h3.47v12.56
      c0,1.91-0.61,3.21-1.62,4.13c-1.14,1.06-2.89,1.54-4.9,1.54C112.76,214.97,110.48,213.38,110.11,210.73z M119.62,202.94
      c0-1.99-1.06-3.68-3.23-3.68c-1.83,0-3.05,1.43-3.05,3.71c0,2.31,1.22,3.66,3.08,3.66C118.69,206.62,119.62,204.95,119.62,202.94z"
        />
      </g>
    </svg>