<?xml version="1.0" encoding="utf-8"?>
<!-- Generator: Adobe Illustrator 25.4.1, SVG Export Plug-In . SVG Version: 6.00 Build 0)  -->
<svg version="1.1" id="Layer_1" xmlns="http://www.w3.org/2000/svg" xmlns:xlink="http://www.w3.org/1999/xlink" x="0px" y="0px"
	 viewBox="0 0 214.9 246.8" style="enable-background:new 0 0 214.9 246.8;" xml:space="preserve">
<style type="text/css">
	.st0{fill:#FFFFFF;}
</style>
<g>
	<rect width="150" height="150"/>
	<polygon class="st0" points="97.1,56 97.1,81.3 75,94 52.9,81.3 52.9,56 30.8,68.7 30.8,94 75,119.6 119.2,94 119.2,68.7 	"/>
	<polygon class="st0" points="75,56 97.1,43.1 75,30.4 52.9,43.1 	"/>
</g>
<g>
	<path d="M0.5,159.6h15.2v3.2H10v15.7H6.2v-15.7H0.5C0.5,162.8,0.5,159.6,0.5,159.6z"/>
	<path d="M21.2,166.7L21.2,166.7c1.1-1.4,2.2-2.1,4-2.1c2.8,0,4.7,2.1,4.7,5.1v8.9h-3.6v-8.4c0-1.5-0.9-2.5-2.4-2.5
		c-1.6,0-2.8,1.3-2.8,3.1v7.7h-3.6v-18.9h3.6V166.7z"/>
	<path d="M31.8,171.7c0-4,2.7-7.2,6.7-7.2c4.4,0,6.7,3.3,6.7,8.2h-9.9c0.3,2.1,1.4,3.4,3.5,3.4c1.4,0,2.2-0.6,2.6-1.7H45
		c-0.5,2.4-2.7,4.4-6.2,4.4C34.3,178.9,31.8,175.8,31.8,171.7z M35.4,170.3h6c-0.1-1.7-1.2-2.9-2.9-2.9
		C36.6,167.4,35.7,168.5,35.4,170.3z"/>
	<path d="M52.1,159.6H56l6.3,10.6c0.6,1,1.3,2.6,1.3,2.6h0c0,0-0.1-2-0.1-3.3v-9.9h3.8v18.9h-3.7l-6.5-10.5c-0.6-1-1.3-2.6-1.3-2.6
		h0c0,0,0.1,2,0.1,3.3v9.8h-3.8L52.1,159.6L52.1,159.6z"/>
	<path d="M69.6,171.8c0-4.1,2.9-7.2,7.1-7.2s7.1,3.1,7.1,7.2s-2.9,7.2-7.1,7.2S69.6,175.8,69.6,171.8z M80.2,171.8
		c0-2.6-1.2-4.4-3.4-4.4c-2.2,0-3.4,1.8-3.4,4.4s1.2,4.4,3.4,4.4C78.9,176.2,80.2,174.4,80.2,171.8z"/>
	<path d="M89.2,167.1L89.2,167.1c0.9-1.5,1.8-2.3,3.4-2.3c0.4,0,0.6,0,0.8,0.1v3.1h-0.1c-2.4-0.2-4.1,1-4.1,3.9v6.6h-3.6v-13.6h3.5
		V167.1z"/>
	<path d="M94.5,164.9h3.6l1.6,6.3c0.3,1.1,0.6,2.5,0.6,2.5h0.1c0,0,0.3-1.5,0.6-2.6l1.7-6.3h3.1l1.8,6.3c0.3,1.1,0.6,2.6,0.6,2.6
		h0.1c0,0,0.3-1.4,0.6-2.5l1.7-6.3h3.5l-4.1,13.6h-3.3l-1.8-6.7c-0.3-1.1-0.6-2.4-0.6-2.4h-0.1c0,0-0.3,1.3-0.6,2.4l-1.9,6.7h-3.2
		L94.5,164.9z"/>
	<path d="M114.5,171.7c0-4,2.7-7.2,6.7-7.2c4.4,0,6.7,3.3,6.7,8.2h-9.9c0.3,2.1,1.4,3.4,3.5,3.4c1.4,0,2.2-0.6,2.6-1.7h3.6
		c-0.5,2.4-2.7,4.4-6.2,4.4C117.1,178.9,114.5,175.8,114.5,171.7z M118.1,170.3h6c-0.1-1.7-1.2-2.9-2.9-2.9
		C119.4,167.4,118.4,168.5,118.1,170.3z"/>
	<path d="M129.5,178.9h3.6c0.3,0.9,1.1,1.5,2.7,1.5c2,0,3-1,3-2.8v-1.5h-0.1c-0.8,0.9-1.8,1.6-3.6,1.6c-3,0-6-2.4-6-6.5
		c0-4.1,2.4-6.6,5.9-6.6c1.7,0,2.9,0.7,3.8,1.8h0.1v-1.4h3.5v12.6c0,1.9-0.6,3.2-1.6,4.1c-1.1,1.1-2.9,1.5-4.9,1.5
		C132.1,183.2,129.9,181.6,129.5,178.9z M139,171.1c0-2-1.1-3.7-3.2-3.7c-1.8,0-3.1,1.4-3.1,3.7c0,2.3,1.2,3.7,3.1,3.7
		C138.1,174.8,139,173.1,139,171.1z"/>
	<path d="M145,159.6h3.6v3.2H145V159.6z M145,164.9h3.6v13.6H145V164.9z"/>
	<path d="M159.3,177L159.3,177c-0.7,1-1.7,1.8-4.1,1.8c-2.8,0-4.7-1.5-4.7-4.2c0-3,2.4-3.9,5.5-4.4c2.2-0.3,3.3-0.5,3.3-1.5
		c0-1-0.8-1.6-2.3-1.6c-1.7,0-2.5,0.6-2.6,1.9h-3.2c0.1-2.4,1.9-4.5,5.9-4.5c4.1,0,5.7,1.8,5.7,5v6.9c0,1,0.2,1.6,0.5,1.9v0.1h-3.5
		C159.5,178.3,159.4,177.6,159.3,177z M159.3,173.7v-2c-0.6,0.4-1.6,0.6-2.5,0.8c-1.9,0.4-2.8,0.9-2.8,2.1s0.9,1.7,2.1,1.7
		C158.2,176.3,159.3,175.1,159.3,173.7z"/>
	<path d="M168.8,166.8L168.8,166.8c1-1.5,2.2-2.2,4.1-2.2c2.8,0,4.7,2.1,4.7,5.1v8.9H174v-8.4c0-1.5-0.9-2.5-2.4-2.5
		c-1.6,0-2.8,1.3-2.8,3.1v7.7h-3.6v-13.6h3.5L168.8,166.8L168.8,166.8z"/>
	<path d="M1.5,191.4h3.9l6.3,10.6c0.6,1,1.3,2.6,1.3,2.6h0.1c0,0-0.1-2-0.1-3.3v-9.9h3.8v18.9H13l-6.5-10.5c-0.6-1-1.3-2.6-1.3-2.6
		H5.1c0,0,0.1,2,0.1,3.3v9.8H1.5V191.4z"/>
	<path d="M27.8,208.8L27.8,208.8c-0.7,1-1.7,1.8-4,1.8c-2.8,0-4.7-1.5-4.7-4.2c0-3,2.4-3.9,5.5-4.4c2.2-0.3,3.3-0.5,3.3-1.5
		c0-1-0.8-1.6-2.3-1.6c-1.7,0-2.5,0.6-2.6,1.9h-3.2c0.1-2.4,1.9-4.5,5.9-4.5c4.1,0,5.7,1.8,5.7,5v6.9c0,1,0.2,1.6,0.5,1.9v0.1h-3.5
		C28,210.1,27.8,209.4,27.8,208.8z M27.8,205.5v-2c-0.6,0.4-1.6,0.6-2.5,0.8c-1.9,0.4-2.8,0.9-2.8,2.1s0.9,1.7,2.1,1.7
		C26.6,208.1,27.8,206.9,27.8,205.5z"/>
	<path d="M32.7,196.7h1.9v-4.2h3.5v4.2h2.3v2.4h-2.3v7.2c0,1,0.6,1.4,1.3,1.4c0.5,0,1.1,0,1.1,0v2.6c0,0-0.8,0.1-2.2,0.1
		c-1.8,0-3.7-0.7-3.7-3.3v-8h-1.9V196.7z"/>
	<path d="M42.5,191.4h3.6v3.2h-3.6V191.4z M42.5,196.7h3.6v13.6h-3.6V196.7z"/>
	<path d="M48,203.6c0-4.1,2.9-7.2,7.1-7.2s7.1,3.1,7.1,7.2s-2.9,7.2-7.1,7.2S48,207.6,48,203.6z M58.6,203.6c0-2.6-1.2-4.4-3.5-4.4
		c-2.2,0-3.5,1.8-3.5,4.4s1.2,4.4,3.5,4.4C57.3,208,58.6,206.2,58.6,203.6z"/>
	<path d="M67.7,198.6L67.7,198.6c1-1.5,2.2-2.2,4.1-2.2c2.8,0,4.7,2.1,4.7,5.1v8.9h-3.6V202c0-1.5-0.8-2.5-2.4-2.5
		c-1.6,0-2.8,1.3-2.8,3.1v7.7h-3.6v-13.6h3.5V198.6z"/>
	<path d="M87.1,208.8L87.1,208.8c-0.7,1-1.7,1.8-4.1,1.8c-2.8,0-4.7-1.5-4.7-4.2c0-3,2.4-3.9,5.5-4.4c2.2-0.3,3.3-0.5,3.3-1.5
		c0-1-0.8-1.6-2.3-1.6c-1.7,0-2.5,0.6-2.6,1.9H79c0.1-2.4,1.9-4.5,5.9-4.5c4.1,0,5.7,1.8,5.7,5v6.9c0,1,0.2,1.6,0.5,1.9v0.1h-3.5
		C87.3,210.1,87.2,209.4,87.1,208.8z M87.2,205.5v-2c-0.6,0.4-1.6,0.6-2.5,0.8c-1.9,0.4-2.8,0.9-2.8,2.1s0.8,1.7,2.1,1.7
		C86,208.1,87.2,206.9,87.2,205.5z"/>
	<path d="M93.2,191.4h3.6v18.9h-3.6V191.4z"/>
	<path d="M0.6,232.7c0-5.6,3.5-9.9,9.1-9.9c4.7,0,7.4,2.8,7.8,6.4h-3.8c-0.3-1.9-1.8-3.1-4-3.1c-3.5,0-5.2,2.9-5.2,6.7
		c0,3.9,2,6.6,5.2,6.6c2.2,0,3.8-1.4,4.1-3.3h3.8c-0.1,1.7-0.8,3.3-2.1,4.5c-1.3,1.2-3.1,2-5.8,2C4.4,242.5,0.6,238.4,0.6,232.7z"/>
	<path d="M19,235.4c0-4.1,2.9-7.2,7.1-7.2s7.1,3.1,7.1,7.2s-2.9,7.2-7.1,7.2S19,239.4,19,235.4z M29.6,235.4c0-2.6-1.2-4.4-3.5-4.4
		c-2.2,0-3.5,1.8-3.5,4.4s1.2,4.4,3.5,4.4C28.3,239.8,29.6,238,29.6,235.4z"/>
	<path d="M35.2,223.2h3.6v18.9h-3.6V223.2z"/>
	<path d="M41.5,223.2h3.6v18.9h-3.6V223.2z"/>
	<path d="M47.1,235.3c0-4,2.7-7.2,6.7-7.2c4.4,0,6.7,3.3,6.7,8.2h-9.9c0.3,2.1,1.4,3.4,3.5,3.4c1.4,0,2.2-0.6,2.6-1.7h3.5
		c-0.5,2.4-2.7,4.4-6.2,4.4C49.7,242.5,47.1,239.4,47.1,235.3z M50.7,233.9h6c-0.1-1.7-1.2-2.9-2.9-2.9
		C52,230.9,51,232.1,50.7,233.9z"/>
	<path d="M61.8,235.4c0-4.1,2.6-7.2,6.8-7.2c3.5,0,5.7,2,6.2,5h-3.5c-0.2-1.2-1.2-2.1-2.5-2.1c-2.2,0-3.3,1.7-3.3,4.3
		c0,2.6,1,4.3,3.2,4.3c1.5,0,2.5-0.8,2.7-2.3h3.5c-0.2,2.9-2.5,5.2-6.1,5.2C64.5,242.5,61.8,239.4,61.8,235.4z"/>
	<path d="M75.9,228.5h1.9v-4.2h3.5v4.2h2.3v2.4h-2.3v7.2c0,1,0.6,1.4,1.3,1.4c0.4,0,1.1,0,1.1,0v2.6c0,0-0.8,0.1-2.2,0.1
		c-1.8,0-3.7-0.7-3.7-3.3v-8h-1.9L75.9,228.5L75.9,228.5z"/>
	<path d="M85.8,223.2h3.6v3.2h-3.6V223.2z M85.8,228.5h3.6v13.6h-3.6V228.5z"/>
	<path d="M91.3,235.4c0-4.1,2.9-7.2,7.1-7.2s7.1,3.1,7.1,7.2s-2.9,7.2-7.1,7.2S91.3,239.4,91.3,235.4z M101.9,235.4
		c0-2.6-1.2-4.4-3.4-4.4c-2.2,0-3.4,1.8-3.4,4.4s1.2,4.4,3.4,4.4C100.6,239.8,101.9,238,101.9,235.4z"/>
	<path d="M111,230.4L111,230.4c1-1.5,2.2-2.2,4.1-2.2c2.8,0,4.7,2.1,4.7,5.1v8.9h-3.6v-8.4c0-1.5-0.8-2.5-2.4-2.5
		c-1.6,0-2.8,1.3-2.8,3.1v7.7h-3.6v-13.6h3.5V230.4z"/>
	<path d="M132.5,223.2h4l6.7,18.9h-4l-1.3-4H131l-1.2,4h-3.9L132.5,223.2z M131.9,235.2h5l-1.7-5.5c-0.3-1-0.8-2.9-0.8-2.9h-0.1
		c0,0-0.5,1.9-0.8,2.9L131.9,235.2z"/>
	<path d="M143.8,242.5h3.6c0.3,0.9,1.1,1.5,2.7,1.5c2,0,3-1,3-2.8v-1.5h-0.1c-0.8,0.9-1.8,1.6-3.6,1.6c-3,0-6-2.4-6-6.5
		c0-4.1,2.4-6.6,5.9-6.6c1.7,0,2.9,0.7,3.8,1.8h0.1v-1.4h3.5v12.6c0,1.9-0.6,3.2-1.6,4.1c-1.1,1.1-2.9,1.5-4.9,1.5
		C146.5,246.8,144.2,245.2,143.8,242.5z M153.3,234.7c0-2-1.1-3.7-3.2-3.7c-1.8,0-3.1,1.4-3.1,3.7c0,2.3,1.2,3.7,3.1,3.7
		C152.4,238.4,153.3,236.8,153.3,234.7z"/>
	<path d="M158.6,235.3c0-4,2.7-7.2,6.7-7.2c4.4,0,6.7,3.3,6.7,8.2h-9.9c0.3,2.1,1.4,3.4,3.5,3.4c1.4,0,2.2-0.6,2.6-1.7h3.6
		c-0.5,2.4-2.6,4.4-6.1,4.4C161.2,242.5,158.6,239.4,158.6,235.3z M162.2,233.9h6c-0.1-1.7-1.2-2.9-2.9-2.9
		C163.5,230.9,162.6,232.1,162.2,233.9z"/>
	<path d="M177.5,230.4L177.5,230.4c1-1.5,2.2-2.2,4.1-2.2c2.8,0,4.7,2.1,4.7,5.1v8.9h-3.6v-8.4c0-1.5-0.9-2.5-2.4-2.5
		c-1.6,0-2.8,1.3-2.8,3.1v7.7H174v-13.6h3.5V230.4z"/>
	<path d="M188.1,235.4c0-4.1,2.6-7.2,6.8-7.2c3.5,0,5.7,2,6.2,5h-3.5c-0.2-1.2-1.2-2.1-2.5-2.1c-2.2,0-3.3,1.7-3.3,4.3
		c0,2.6,1,4.3,3.2,4.3c1.5,0,2.5-0.8,2.7-2.3h3.5c-0.2,2.9-2.5,5.2-6.1,5.2C190.8,242.5,188.1,239.4,188.1,235.4z"/>
	<path d="M203.2,243.8h1.3c1.4,0,2-0.7,2-1.9c0-0.7-0.3-1.6-1-3.7l-3.7-9.7h3.8l2,6.1c0.4,1.2,0.9,3,0.9,3h0.1c0,0,0.4-1.7,0.8-3
		l1.9-6.1h3.6l-4.8,13.9c-1,3-2,4.1-4.8,4.1h-2.1L203.2,243.8L203.2,243.8z"/>
</g>
</svg>
