<?xml version="1.0" encoding="utf-8"?>
<!-- Generator: Adobe Illustrator 25.4.1, SVG Export Plug-In . SVG Version: 6.00 Build 0)  -->
<svg version="1.1" id="Layer_1" xmlns="http://www.w3.org/2000/svg" xmlns:xlink="http://www.w3.org/1999/xlink" x="0px" y="0px"
	 viewBox="0 0 269.3 60" style="enable-background:new 0 0 269.3 60;" xml:space="preserve">
<style type="text/css">
	.st0{fill:#FFFFFF;}
</style>
<g>
	<g>
		<g>
			<polygon class="st0" points="38.3,18 30,13.2 21.7,18 30,22.8 			"/>
			<polygon class="st0" points="46.7,37.2 46.7,27.6 38.3,22.8 38.3,32.4 30,37.2 21.7,32.4 21.7,22.8 13.4,27.6 13.4,37.2 30,46.8 
							"/>
			<path class="st0" d="M0,0v60h60V0H0z M58.3,58.3H1.8V1.7h56.5V58.3z"/>
		</g>
		<g>
			<path class="st0" d="M72,30.4h3.8c0.2,1.8,1.3,2.6,3.4,2.6c1.4,0,2.8-0.6,2.8-1.9c0-1.4-1.4-1.7-3.7-2.3
				c-3.2-0.7-5.7-1.5-5.7-4.9s2.7-4.9,6.3-4.9s6.1,1.7,6.4,4.8h-3.6c-0.2-1.3-1.2-2-2.8-2c-1.5,0-2.6,0.6-2.6,1.7
				c0,1.3,1.4,1.5,4,2.1c2.9,0.6,5.6,1.6,5.6,5s-2.9,5.2-6.6,5.2C74.9,36,72.1,34,72,30.4z"/>
			<path class="st0" d="M86.8,23.9h1.7v-3.7h3.4v3.7h2.3v2.2h-2.3v5.8c0,0.9,0.5,1.1,1.3,1.1c0.2,0,0.6,0,0.8-0.1h0.2v2.6
				c-0.4,0.1-1.1,0.2-2,0.2c-2.2,0-3.6-0.7-3.6-3.1v-6.5h-1.7L86.8,23.9L86.8,23.9z"/>
			<path class="st0" d="M103.3,34.2L103.3,34.2c-0.8,1.1-1.8,1.7-3.6,1.7c-2.3,0-4-1.2-4-3.5c0-2.6,2-3.2,4.6-3.5
				c2.1-0.3,2.9-0.6,2.9-1.5c0-0.8-0.6-1.4-1.7-1.4c-1.3,0-2,0.6-2,1.5h-3.2c0.1-2,1.7-3.8,5.2-3.8c1.5,0,2.5,0.2,3.4,0.7
				c1.2,0.7,1.8,1.9,1.8,3.5v6c0,0.9,0.1,1.4,0.4,1.6v0.2h-3.4C103.5,35.3,103.3,34.8,103.3,34.2z M103.3,31.4v-1.5
				c-0.5,0.3-1.3,0.5-2,0.6c-1.5,0.3-2.2,0.7-2.2,1.7s0.8,1.4,1.7,1.4C102.3,33.6,103.3,32.7,103.3,31.4z"/>
			<path class="st0" d="M108.1,23.9h1.7v-3.7h3.4v3.7h2.3v2.2h-2.3v5.8c0,0.9,0.5,1.1,1.3,1.1c0.2,0,0.6,0,0.8-0.1h0.2v2.6
				c-0.4,0.1-1.1,0.2-2,0.2c-2.2,0-3.6-0.7-3.6-3.1v-6.5h-1.8V23.9L108.1,23.9z"/>
			<path class="st0" d="M116.8,29.8c0-3.5,2.4-6.2,6-6.2c1.7,0,3,0.6,4,1.5c1.3,1.3,1.9,3.2,1.9,5.5h-8.6c0.2,1.7,1.2,2.8,2.8,2.8
				c1.1,0,1.7-0.4,2.1-1.1h3.3c-0.6,2-2.5,3.6-5.5,3.6C119.1,35.9,116.8,33.3,116.8,29.8z M120.1,28.7h5c-0.1-1.6-1-2.6-2.4-2.6
				C121.2,26,120.4,27.1,120.1,28.7z"/>
			<path class="st0" d="M133.7,25.7L133.7,25.7c0.8-1.4,2-2.1,3.6-2.1c2.6,0,4.1,1.7,4.1,4.3v7.6H138v-7c0-1.3-0.7-2.1-2-2.1
				s-2.2,1.1-2.2,2.6v6.6h-3.4V23.9h3.3V25.7z"/>
			<path class="st0" d="M142.8,32h3.2c0.2,1.1,1,1.7,2.4,1.7c1.2,0,1.9-0.5,1.9-1.3c0-1-1.4-1.2-3-1.5c-2.1-0.4-4.2-0.9-4.2-3.6
				c0-2.4,2.2-3.6,4.9-3.6c3.2,0,4.8,1.4,5.2,3.4H150c-0.2-0.8-0.9-1.3-2-1.3c-1,0-1.7,0.4-1.7,1.2c0,0.9,1.3,1,2.9,1.3
				c2.1,0.4,4.4,0.9,4.4,3.8c0,2.5-2.2,3.8-5.2,3.8C145,35.9,143,34.3,142.8,32z"/>
			<path class="st0" d="M160.6,19.3h3.5v3h-3.5V19.3z M160.6,23.9h3.4v11.6h-3.4V23.9z"/>
			<path class="st0" d="M169.6,25.7L169.6,25.7c0.8-1.4,2-2.1,3.6-2.1c2.6,0,4.1,1.7,4.1,4.3v7.6h-3.4v-7c0-1.3-0.7-2.1-2-2.1
				s-2.2,1.1-2.2,2.6v6.6h-3.4V23.9h3.3V25.7L169.6,25.7z"/>
			<path class="st0" d="M182.8,25.7L182.8,25.7c0.8-1.4,2-2.1,3.6-2.1c2.6,0,4.1,1.7,4.1,4.3v7.6h-3.4v-7c0-1.3-0.7-2.1-2-2.1
				s-2.2,1.1-2.2,2.6v6.6h-3.4V23.9h3.3L182.8,25.7L182.8,25.7z"/>
			<path class="st0" d="M197.2,30.5l-1.2,1.2v3.9h-3.4V19.3h3.4v5.1c0,1.7-0.1,3-0.1,3.7l3.8-4.2h4l-4.1,4.3l4.6,7.3h-4L197.2,30.5z
				"/>
			<path class="st0" d="M208.9,26L208.9,26c0.8-1.6,1.9-2.3,3.3-2.3c0.3,0,0.6,0,0.7,0.1v3h-0.1c-0.2,0-0.5-0.1-0.7-0.1
				c-1.9,0-3.1,1.1-3.1,3.4v5.4h-3.4V23.9h3.3V26L208.9,26z"/>
			<path class="st0" d="M213.8,29.8c0-3.5,2.4-6.2,6-6.2c1.7,0,3,0.6,4,1.5c1.3,1.3,1.9,3.2,1.9,5.5h-8.5c0.2,1.7,1.2,2.8,2.8,2.8
				c1.1,0,1.7-0.4,2.1-1.1h3.3c-0.6,2-2.5,3.6-5.5,3.6C216.1,35.9,213.8,33.3,213.8,29.8z M217.2,28.7h5c-0.1-1.6-1-2.6-2.4-2.6
				C218.2,26,217.4,27.1,217.2,28.7z"/>
			<path class="st0" d="M226,23.9h3.5l1.4,4.7c0.5,1.5,0.9,4.1,0.9,4.1h0.1c0,0,0.4-2.5,0.9-4.1l1.5-4.7h3.4l-4.1,11.6H230L226,23.9
				z"/>
			<path class="st0" d="M239.1,19.3h3.5v3h-3.5V19.3z M239.1,23.9h3.4v11.6h-3.4V23.9z"/>
			<path class="st0" d="M248.1,25.7L248.1,25.7c0.8-1.4,2-2.1,3.6-2.1c2.6,0,4.1,1.7,4.1,4.3v7.6h-3.4v-7c0-1.3-0.7-2.1-2-2.1
				s-2.2,1.1-2.2,2.6v6.6h-3.4V23.9h3.3L248.1,25.7L248.1,25.7z"/>
			<path class="st0" d="M257.8,36h3.4c0.2,0.7,0.9,1.2,2.2,1.2c1.6,0,2.4-0.8,2.4-2.2v-0.2c0-0.6,0-1.1,0.1-1.5h-0.1
				c-0.7,1.1-1.7,1.7-3.1,1.7c-2.7,0-5.1-2-5.1-5.5c0-3.4,2-5.7,4.9-5.7c1.6,0,2.7,0.5,3.4,1.8h0.1V24h3.3v10.6c0,1.7-0.6,3-1.5,3.8
				c-1,0.9-2.5,1.3-4.2,1.3C260.2,39.6,258.1,38.3,257.8,36z M265.9,29.2c0-1.7-0.8-3-2.5-3c-1.5,0-2.4,1.2-2.4,3s0.9,3,2.5,3
				C265.1,32.3,265.9,31,265.9,29.2z"/>
			<path class="st0" d="M71.5,53.6h6.3v1h-6.3V53.6z"/>
			<path class="st0" d="M81.6,54.1c0-2,1.3-3.6,3.2-3.6c1,0,1.8,0.4,2.3,1c0.6,0.7,0.8,1.6,0.8,2.8h-5.2c0.1,1.3,0.8,2.3,2.1,2.3
				c0.9,0,1.6-0.4,1.8-1.2h1.1c-0.3,1.3-1.4,2.1-2.9,2.1C82.8,57.6,81.6,56,81.6,54.1z M82.8,53.5h3.9c-0.1-1.3-0.7-2.1-1.9-2.1
				C83.6,51.4,82.9,52.3,82.8,53.5z"/>
			<path class="st0" d="M90.4,51.6L90.4,51.6c0.5-0.7,1.2-1.1,2.2-1.1c1.4,0,2.3,0.8,2.3,2.2v4.7h-1.2v-4.6c0-0.9-0.6-1.4-1.5-1.4
				c-1,0-1.8,0.7-1.8,1.8v4.1h-1.2v-6.8h1.2V51.6L90.4,51.6z"/>
			<path class="st0" d="M99.4,54.1c0-2.2,1.3-3.6,3-3.6c1,0,1.7,0.5,2.1,1.2l0,0c0-0.3,0-0.8,0-1.3V48h1.2v9.4h-1.2v-1l0,0
				c-0.4,0.7-1.1,1.2-2.1,1.2C100.5,57.6,99.4,56.3,99.4,54.1z M104.5,54.1c0-1.5-0.7-2.6-2.1-2.6c-1.3,0-1.9,1.1-1.9,2.6
				s0.6,2.6,1.9,2.6C103.9,56.7,104.5,55.6,104.5,54.1z"/>
			<path class="st0" d="M106.9,54.1c0-2,1.3-3.6,3.2-3.6c1,0,1.8,0.4,2.3,1c0.6,0.7,0.8,1.6,0.8,2.8h-5.1c0.1,1.3,0.8,2.3,2.1,2.3
				c0.9,0,1.6-0.4,1.8-1.2h1.1c-0.3,1.3-1.4,2.1-2.9,2.1C108.1,57.6,106.9,56,106.9,54.1z M108.1,53.5h3.9c-0.1-1.3-0.7-2.1-1.9-2.1
				C108.9,51.4,108.3,52.3,108.1,53.5z"/>
			<path class="st0" d="M114.6,48.1h1.2v9.4h-1.2V48.1z"/>
			<path class="st0" d="M120.5,55.7c0-1.6,1.2-1.9,2.9-2.1c1-0.1,1.6-0.3,1.6-1s-0.5-1.2-1.5-1.2c-1.1,0-1.6,0.5-1.6,1.3h-1.1
				c0.1-1.1,0.9-2.2,2.7-2.2c0.6,0,1.2,0.1,1.6,0.4c0.6,0.3,0.9,0.9,0.9,1.8v3.1c0,0.6,0.1,0.8,0.7,0.7h0.1v0.8
				c-0.2,0.1-0.3,0.1-0.6,0.1c-0.7,0-1.1-0.3-1.2-1l0,0c-0.4,0.6-1.1,1.1-2.3,1.1C121.5,57.6,120.5,57,120.5,55.7z M125,55v-1.1
				c-0.3,0.2-0.9,0.4-1.5,0.5c-1.1,0.2-1.8,0.4-1.8,1.3c0,0.9,0.7,1.1,1.3,1.1C124.4,56.7,125,55.7,125,55z"/>
			<path class="st0" d="M127,50.7h1.3l1.2,3.6c0.3,0.9,0.6,2.2,0.6,2.2l0,0c0,0,0.3-1.3,0.6-2.2l1.2-3.6h1.2l-2.4,6.8h-1.3L127,50.7
				z"/>
			<path class="st0" d="M136.9,54.4h1.3c0.1,1.4,1.1,2.2,2.8,2.2c1.3,0,2.2-0.6,2.2-1.7c0-1.2-1.1-1.5-2.7-1.9
				c-1.7-0.3-3.1-0.8-3.1-2.6c0-1.6,1.3-2.5,3.2-2.5c2.3,0,3.3,1.2,3.6,2.8h-1.3c-0.2-1.1-1-1.7-2.3-1.7c-1.2,0-2,0.5-2,1.4
				c0,1,1,1.3,2.4,1.6c1.8,0.4,3.5,0.8,3.5,2.9c0,1.8-1.5,2.8-3.5,2.8C138.3,57.6,137,56.2,136.9,54.4z"/>
			<path class="st0" d="M147.9,53.9l-1,0.9v2.7h-1.2v-9.4h1.2v4.4c0,0.2,0,0.7-0.1,1l2.9-2.9h1.5l-2.6,2.4l2.9,4.3h-1.4L147.9,53.9z
				"/>
			<path class="st0" d="M152.2,55.7c0-1.6,1.2-1.9,2.9-2.1c1-0.1,1.6-0.3,1.6-1s-0.5-1.2-1.5-1.2c-1.1,0-1.6,0.5-1.6,1.3h-1.1
				c0.1-1.1,0.9-2.2,2.7-2.2c0.6,0,1.2,0.1,1.6,0.4c0.6,0.3,0.9,0.9,0.9,1.8v3.1c0,0.6,0.1,0.8,0.7,0.7h0.1v0.8
				c-0.2,0.1-0.3,0.1-0.6,0.1c-0.7,0-1.1-0.3-1.2-1l0,0c-0.4,0.6-1.1,1.1-2.3,1.1C153.2,57.6,152.2,57,152.2,55.7z M156.8,55v-1.1
				c-0.3,0.2-0.9,0.4-1.5,0.5c-1.1,0.2-1.8,0.4-1.8,1.3c0,0.9,0.7,1.1,1.3,1.1C156.1,56.7,156.8,55.7,156.8,55z"/>
			<path class="st0" d="M159,50.7h1v-2.1h1.2v2.1h1.4v0.9h-1.4v4.3c0,0.5,0.3,0.6,0.7,0.6c0.2,0,0.5-0.1,0.6-0.1l0,0v1
				c-0.3,0.1-0.6,0.1-0.9,0.1c-0.9,0-1.5-0.4-1.5-1.4v-4.5h-1v-0.9H159z"/>
			<path class="st0" d="M163.2,50.7h1v-2.1h1.2v2.1h1.4v0.9h-1.4v4.3c0,0.5,0.3,0.6,0.7,0.6c0.2,0,0.5-0.1,0.6-0.1l0,0v1
				c-0.3,0.1-0.6,0.1-0.9,0.1c-0.9,0-1.5-0.4-1.5-1.4v-4.5h-1v-0.9H163.2z"/>
			<path class="st0" d="M167.7,54.1c0-2,1.3-3.6,3.2-3.6c1,0,1.8,0.4,2.3,1c0.6,0.7,0.8,1.6,0.8,2.8h-5.2c0.1,1.3,0.8,2.3,2.1,2.3
				c0.9,0,1.6-0.4,1.8-1.2h1.1c-0.3,1.3-1.4,2.1-2.9,2.1C168.9,57.6,167.7,56,167.7,54.1z M168.9,53.5h3.9c-0.1-1.3-0.7-2.1-1.9-2.1
				S169,52.3,168.9,53.5z"/>
			<path class="st0" d="M174.9,54.1c0-2,1.3-3.6,3.2-3.6c1,0,1.8,0.4,2.3,1c0.6,0.7,0.8,1.6,0.8,2.8h-5.1c0.1,1.3,0.8,2.3,2.1,2.3
				c0.9,0,1.6-0.4,1.8-1.2h1.1c-0.3,1.3-1.4,2.1-2.9,2.1C176.1,57.6,174.9,56,174.9,54.1z M176.1,53.5h3.9c-0.1-1.3-0.7-2.1-1.9-2.1
				C176.9,51.4,176.3,52.3,176.1,53.5z"/>
			<path class="st0" d="M182,50.7h1v-2.1h1.2v2.1h1.4v0.9h-1.4v4.3c0,0.5,0.3,0.6,0.7,0.6c0.2,0,0.5-0.1,0.6-0.1l0,0v1
				c-0.3,0.1-0.6,0.1-0.9,0.1c-0.9,0-1.5-0.4-1.5-1.4v-4.5h-1v-0.9H182z"/>
			<path class="st0" d="M186.6,55.7c0-1.6,1.2-1.9,2.9-2.1c1-0.1,1.6-0.3,1.6-1s-0.5-1.2-1.5-1.2c-1.1,0-1.6,0.5-1.6,1.3h-1.1
				c0.1-1.1,0.9-2.2,2.7-2.2c0.6,0,1.2,0.1,1.6,0.4c0.6,0.3,0.9,0.9,0.9,1.8v3.1c0,0.6,0.1,0.8,0.7,0.7h0.1v0.8
				c-0.2,0.1-0.3,0.1-0.6,0.1c-0.7,0-1.1-0.3-1.2-1l0,0c-0.4,0.6-1.1,1.1-2.3,1.1C187.6,57.6,186.6,57,186.6,55.7z M191.1,55v-1.1
				c-0.3,0.2-0.9,0.4-1.5,0.5c-1.1,0.2-1.8,0.4-1.8,1.3c0,0.9,0.7,1.1,1.3,1.1C190.5,56.7,191.1,55.7,191.1,55z"/>
			<path class="st0" d="M193.4,50.7h1v-2.1h1.2v2.1h1.4v0.9h-1.4v4.3c0,0.5,0.3,0.6,0.7,0.6c0.2,0,0.5-0.1,0.6-0.1l0,0v1
				c-0.3,0.1-0.6,0.1-0.9,0.1c-0.9,0-1.5-0.4-1.5-1.4v-4.5h-1L193.4,50.7L193.4,50.7z"/>
			<path class="st0" d="M197.8,54.1c0-2,1.3-3.6,3.2-3.6c1,0,1.8,0.4,2.3,1c0.6,0.7,0.8,1.6,0.8,2.8h-5.2c0.1,1.3,0.8,2.3,2.1,2.3
				c0.9,0,1.6-0.4,1.8-1.2h1.1c-0.3,1.3-1.4,2.1-2.9,2.1C199,57.6,197.8,56,197.8,54.1z M199,53.5h3.9c-0.1-1.3-0.7-2.1-1.9-2.1
				S199.2,52.3,199,53.5z"/>
			<path class="st0" d="M206.6,51.6L206.6,51.6c0.5-0.7,1.2-1.1,2.2-1.1c1.4,0,2.3,0.8,2.3,2.2v4.7h-1.2v-4.6c0-0.9-0.6-1.4-1.5-1.4
				c-1,0-1.8,0.7-1.8,1.8v4.1h-1.2v-6.8h1.2V51.6L206.6,51.6z"/>
		</g>
	</g>
</g>
</svg>
