<svg width="270" height="82" viewBox="0 0 270 82" fill="none" xmlns="http://www.w3.org/2000/svg">
<g clip-path="url(#clip0_1533_6755)">
<path d="M81.2746 18.388C80.5553 17.87 79.6347 17.6104 78.5141 17.6104C78.0593 17.6104 77.6126 17.6553 77.1729 17.7463C76.7331 17.8361 76.3441 17.987 76.0029 18.1977C75.6618 18.4084 75.3892 18.6898 75.1851 19.0433C74.9809 19.3967 74.8782 19.8358 74.8782 20.3619C74.8782 20.8581 75.0261 21.2605 75.3207 21.5678C75.6166 21.8764 76.0098 22.1279 76.5016 22.3236C76.9934 22.5194 77.551 22.6812 78.1716 22.809C78.7922 22.9367 79.4251 23.0754 80.069 23.2263C80.7129 23.3772 81.3444 23.5526 81.9664 23.7565C82.587 23.9591 83.1446 24.2337 83.6364 24.579C84.1282 24.9243 84.5228 25.3607 84.8173 25.8868C85.1132 26.4129 85.2598 27.0749 85.2598 27.8716C85.2598 28.728 85.0666 29.4608 84.6803 30.0698C84.294 30.6788 83.7981 31.175 83.1925 31.5584C82.587 31.9418 81.9089 32.2205 81.1595 32.3931C80.4101 32.5658 79.6635 32.6528 78.921 32.6528C78.0127 32.6528 77.1523 32.5399 76.3427 32.3143C75.5317 32.0886 74.8207 31.7474 74.2069 31.2879C73.5932 30.8297 73.1082 30.2438 72.7534 29.5287C72.3972 28.815 72.2191 27.9694 72.2191 26.992H74.2645C74.2645 27.669 74.3973 28.2509 74.6617 28.7389C74.9261 29.2269 75.2755 29.6293 75.707 29.9447C76.1386 30.2601 76.6427 30.494 77.2181 30.6435C77.7935 30.7944 78.3839 30.8692 78.9908 30.8692C79.4758 30.8692 79.9635 30.8243 80.4567 30.7332C80.9485 30.6435 81.3924 30.4885 81.7856 30.271C82.1787 30.0535 82.498 29.7558 82.7404 29.3806C82.9829 29.0053 83.1035 28.5241 83.1035 27.9368C83.1035 27.3808 82.9555 26.9295 82.661 26.5842C82.3651 26.2389 81.9719 25.9561 81.4801 25.7386C80.9882 25.5211 80.4307 25.3443 79.8101 25.2084C79.1881 25.0724 78.5566 24.9338 77.9127 24.791C77.2688 24.6483 76.6359 24.4838 76.0153 24.2948C75.3933 24.1072 74.8371 23.8584 74.3453 23.5512C73.8535 23.244 73.4589 22.8443 73.1644 22.3563C72.8685 21.8682 72.7219 21.2551 72.7219 20.5183C72.7219 19.7067 72.889 19.0038 73.2219 18.4098C73.5548 17.8157 73.9987 17.3276 74.5508 16.9443C75.1042 16.5609 75.7317 16.2754 76.4372 16.0878C77.1414 15.9002 77.8647 15.8064 78.6072 15.8064C79.4402 15.8064 80.2128 15.9043 80.9252 16.1C81.6376 16.2958 82.2623 16.6044 82.7993 17.0245C83.3364 17.4459 83.7611 17.9747 84.072 18.6137C84.3817 19.2526 84.5529 20.0153 84.583 20.9016H82.5377C82.4158 19.7447 81.9965 18.906 81.2759 18.388H81.2746Z" fill="white"/>
<path d="M93.033 20.631V22.3222H90.6931V29.5599C90.6931 29.7856 90.7123 29.9664 90.7506 30.101C90.7876 30.237 90.8602 30.3416 90.9671 30.4164C91.0726 30.4912 91.2205 30.5401 91.4096 30.5632C91.5986 30.5863 91.8452 30.5972 92.148 30.5972H93.0344V32.2884H91.5576C91.0575 32.2884 90.6301 32.2544 90.2739 32.1864C89.9177 32.1184 89.63 31.9947 89.4108 31.8139C89.1916 31.6331 89.0286 31.3775 88.9217 31.0472C88.8149 30.7168 88.7628 30.2805 88.7628 29.7394V22.3208H86.764V20.6297H88.7628V17.1345H90.6945V20.6297H93.0344L93.033 20.631Z" fill="white"/>
<path d="M106.028 32.2435C105.696 32.4392 105.234 32.5371 104.642 32.5371C104.142 32.5371 103.745 32.3984 103.449 32.1197C103.153 31.8424 103.006 31.387 103.006 30.7562C102.476 31.387 101.858 31.8424 101.154 32.1197C100.45 32.3971 99.6883 32.5371 98.8704 32.5371C98.3402 32.5371 97.8361 32.4773 97.3593 32.3563C96.8826 32.2367 96.4689 32.0477 96.1209 31.7921C95.7729 31.5365 95.4962 31.2021 95.2921 30.7888C95.0879 30.3756 94.9852 29.8753 94.9852 29.2894C94.9852 28.6287 95.0989 28.0876 95.3263 27.6662C95.5537 27.2461 95.8524 26.9035 96.2236 26.6398C96.5949 26.3774 97.0182 26.1776 97.4963 26.0416C97.9731 25.9057 98.4622 25.7942 98.9622 25.7031C99.4924 25.5984 99.9965 25.5196 100.473 25.4666C100.95 25.4136 101.371 25.3388 101.735 25.2409C102.098 25.143 102.386 25.0003 102.598 24.8127C102.81 24.6251 102.916 24.3505 102.916 23.9902C102.916 23.5701 102.836 23.2316 102.678 22.9761C102.519 22.7205 102.315 22.5247 102.064 22.3901C101.813 22.2542 101.534 22.1645 101.223 22.1196C100.912 22.0747 100.605 22.0516 100.302 22.0516C99.4842 22.0516 98.8019 22.2052 98.2567 22.5138C97.7114 22.8224 97.4155 23.4043 97.3703 24.2607H95.4387C95.4688 23.5389 95.6209 22.9298 95.8935 22.435C96.1661 21.9388 96.5291 21.5364 96.984 21.2291C97.4388 20.9219 97.9566 20.699 98.5403 20.5644C99.1239 20.4284 99.7486 20.3618 100.414 20.3618C100.945 20.3618 101.471 20.3999 101.994 20.4747C102.516 20.5494 102.99 20.703 103.415 20.9355C103.838 21.168 104.179 21.4942 104.437 21.9143C104.694 22.3344 104.823 22.8822 104.823 23.5565V29.5409C104.823 29.9908 104.849 30.3212 104.902 30.5305C104.956 30.7399 105.133 30.8459 105.437 30.8459C105.604 30.8459 105.8 30.816 106.027 30.7562V32.2448L106.028 32.2435ZM102.893 26.2687C102.65 26.4481 102.332 26.5786 101.938 26.6615C101.543 26.7445 101.131 26.8111 100.699 26.8641C100.268 26.9171 99.8321 26.9769 99.3924 27.0435C98.9526 27.1115 98.5594 27.2189 98.2115 27.3685C97.8635 27.518 97.5785 27.7314 97.3593 28.0074C97.1402 28.2847 97.0292 28.6613 97.0292 29.1398C97.0292 29.4539 97.0936 29.7189 97.2223 29.9365C97.3511 30.154 97.5183 30.3293 97.7224 30.4639C97.9265 30.5985 98.1649 30.6964 98.4375 30.7562C98.7101 30.816 98.9978 30.8459 99.3006 30.8459C99.9363 30.8459 100.482 30.7603 100.936 30.5876C101.391 30.415 101.762 30.1988 102.05 29.9365C102.338 29.6741 102.55 29.39 102.686 29.0841C102.821 28.7782 102.89 28.49 102.89 28.2208V26.2687H102.893Z" fill="white"/>
<path d="M113.299 20.631V22.3222H110.959V29.5599C110.959 29.7856 110.978 29.9664 111.017 30.101C111.054 30.237 111.126 30.3416 111.233 30.4164C111.339 30.4912 111.486 30.5401 111.676 30.5632C111.865 30.5863 112.111 30.5972 112.414 30.5972H113.3V32.2884H111.823C111.323 32.2884 110.896 32.2544 110.54 32.1864C110.184 32.1184 109.896 31.9947 109.677 31.8139C109.458 31.6331 109.295 31.3775 109.188 31.0472C109.081 30.7168 109.029 30.2805 109.029 29.7394V22.3208H107.03V20.6297H109.029V17.1345H110.96V20.6297H113.3L113.299 20.631Z" fill="white"/>
<path d="M124.205 31.5448C123.327 32.2069 122.22 32.5372 120.889 32.5372C119.949 32.5372 119.135 32.3863 118.446 32.0859C117.757 31.7855 117.177 31.364 116.707 30.823C116.238 30.2819 115.885 29.6362 115.651 28.8844C115.416 28.1326 115.284 27.3142 115.254 26.4265C115.254 25.5401 115.391 24.7285 115.664 23.9917C115.936 23.2549 116.318 22.6159 116.812 22.0749C117.303 21.5338 117.887 21.1124 118.561 20.8119C119.235 20.5115 119.973 20.3606 120.776 20.3606C121.821 20.3606 122.689 20.5754 123.378 21.0036C124.067 21.4318 124.62 21.977 125.037 22.6377C125.453 23.2997 125.741 24.0202 125.9 24.8019C126.059 25.5836 126.123 26.3272 126.093 27.0342H117.299C117.284 27.5453 117.344 28.0306 117.481 28.4888C117.618 28.9469 117.838 29.3534 118.14 29.7069C118.443 30.0603 118.829 30.3417 119.299 30.5524C119.769 30.7631 120.321 30.8678 120.958 30.8678C121.776 30.8678 122.446 30.6802 122.97 30.3037C123.491 29.9284 123.837 29.3561 124.004 28.5894H125.912C125.655 29.8972 125.086 30.8814 124.208 31.5435L124.205 31.5448ZM123.739 24.0597C123.565 23.6532 123.33 23.3038 123.035 23.0115C122.739 22.7179 122.391 22.4854 121.99 22.3128C121.589 22.1401 121.145 22.0531 120.661 22.0531C120.178 22.0531 119.71 22.1401 119.309 22.3128C118.908 22.4854 118.562 22.722 118.275 23.0224C117.987 23.3228 117.76 23.6722 117.592 24.0705C117.425 24.4689 117.327 24.893 117.297 25.3444H124.045C124.015 24.893 123.912 24.4648 123.738 24.0597H123.739Z" fill="white"/>
<path d="M130.363 20.6311V22.48H130.408C131.211 21.0675 132.484 20.3606 134.225 20.3606C134.998 20.3606 135.642 20.4653 136.157 20.676C136.672 20.8867 137.088 21.1803 137.406 21.5556C137.724 21.9308 137.947 22.378 138.076 22.8973C138.205 23.4153 138.269 23.9903 138.269 24.6225V32.2885H136.338V24.3968C136.338 23.6749 136.125 23.104 135.702 22.6839C135.277 22.2638 134.695 22.0531 133.953 22.0531C133.362 22.0531 132.851 22.1428 132.418 22.3236C131.985 22.5045 131.626 22.76 131.339 23.0904C131.051 23.4207 130.834 23.8082 130.691 24.2514C130.547 24.6945 130.474 25.1799 130.474 25.706V32.2898H128.543V20.6325H130.36L130.363 20.6311Z" fill="white"/>
<path d="M143.109 29.6836C143.292 29.9772 143.53 30.2097 143.825 30.3824C144.12 30.555 144.453 30.6787 144.825 30.7549C145.196 30.8296 145.578 30.8677 145.973 30.8677C146.275 30.8677 146.593 30.8446 146.927 30.7997C147.26 30.7549 147.567 30.6719 147.848 30.5523C148.128 30.4327 148.359 30.2559 148.541 30.0221C148.724 29.7896 148.814 29.4919 148.814 29.1317C148.814 28.6355 148.625 28.2603 148.245 28.0047C147.867 27.7491 147.393 27.5425 146.825 27.3848C146.256 27.2271 145.64 27.0843 144.973 26.9565C144.305 26.8287 143.689 26.6493 143.12 26.4155C142.552 26.183 142.079 25.8554 141.7 25.4353C141.32 25.0152 141.131 24.4279 141.131 23.6762C141.131 23.0902 141.264 22.5859 141.528 22.1658C141.793 21.7457 142.134 21.4032 142.55 21.1394C142.967 20.8771 143.437 20.6813 143.959 20.5535C144.481 20.4257 145 20.3618 145.515 20.3618C146.181 20.3618 146.795 20.4176 147.355 20.5304C147.915 20.6432 148.411 20.839 148.843 21.1163C149.274 21.395 149.619 21.7702 149.877 22.2433C150.135 22.7164 150.287 23.3064 150.332 24.0133H148.4C148.37 23.6381 148.271 23.3254 148.104 23.078C147.937 22.8292 147.726 22.6307 147.469 22.4798C147.211 22.3303 146.927 22.2202 146.617 22.1522C146.306 22.0842 145.992 22.0503 145.674 22.0503C145.386 22.0503 145.094 22.0734 144.799 22.1182C144.503 22.1631 144.234 22.2419 143.992 22.3548C143.749 22.4676 143.552 22.6185 143.401 22.8061C143.249 22.9937 143.174 23.2384 143.174 23.5389C143.174 23.8692 143.292 24.1438 143.526 24.3613C143.76 24.5788 144.06 24.7597 144.423 24.9024C144.786 25.0451 145.196 25.1661 145.651 25.2627C146.106 25.3605 146.559 25.4625 147.014 25.5672C147.499 25.6732 147.971 25.801 148.434 25.9505C148.896 26.1014 149.306 26.2999 149.662 26.5473C150.018 26.7948 150.306 27.1074 150.525 27.4826C150.744 27.8592 150.854 28.3241 150.854 28.8802C150.854 29.5871 150.706 30.173 150.411 30.6393C150.115 31.1056 149.729 31.4808 149.252 31.7663C148.776 32.0518 148.237 32.2516 147.639 32.3645C147.04 32.4773 146.445 32.533 145.855 32.533C145.203 32.533 144.582 32.4651 143.992 32.3305C143.401 32.1945 142.878 31.9743 142.424 31.6657C141.97 31.3571 141.607 30.952 141.334 30.4476C141.061 29.9446 140.909 29.3315 140.879 28.6096H142.811C142.826 29.0311 142.924 29.3872 143.107 29.6809L143.109 29.6836Z" fill="white"/>
<path d="M72.9466 39.669V37.324H74.8782V39.669H72.9466ZM74.8782 41.7653V53.4226H72.9466V41.7653H74.8782Z" fill="white"/>
<path d="M80.1498 41.7652V43.614H80.1951C80.9979 42.2015 82.2706 41.4946 84.0118 41.4946C84.7844 41.4946 85.4283 41.5993 85.9434 41.81C86.4585 42.0207 86.875 42.3144 87.1929 42.6896C87.5107 43.0648 87.734 43.5121 87.8628 44.0314C87.9915 44.5493 88.0559 45.1244 88.0559 45.7565V53.4225H86.1243V45.5309C86.1243 44.809 85.9119 44.238 85.4886 43.8179C85.0639 43.3979 84.4817 43.1871 83.7392 43.1871C83.1487 43.1871 82.6377 43.2769 82.2048 43.4577C81.7719 43.6385 81.413 43.8941 81.1253 44.2244C80.8376 44.5548 80.6211 44.9422 80.4773 45.3854C80.3334 45.8286 80.2608 46.3139 80.2608 46.84V53.4239H78.3292V41.7665H80.1471L80.1498 41.7652Z" fill="white"/>
<path d="M93.2371 41.7652V43.614H93.2823C94.0851 42.2015 95.3578 41.4946 97.0991 41.4946C97.8717 41.4946 98.5156 41.5993 99.0307 41.81C99.5458 42.0207 99.9623 42.3144 100.28 42.6896C100.598 43.0648 100.821 43.5121 100.95 44.0314C101.079 44.5493 101.143 45.1244 101.143 45.7565V53.4225H99.2116V45.5309C99.2116 44.809 98.9992 44.238 98.5759 43.8179C98.1512 43.3979 97.569 43.1871 96.8264 43.1871C96.236 43.1871 95.725 43.2769 95.2921 43.4577C94.8592 43.6385 94.5002 43.8941 94.2126 44.2244C93.9249 44.5548 93.7084 44.9422 93.5646 45.3854C93.4207 45.8286 93.3481 46.3139 93.3481 46.84V53.4239H91.4164V41.7665H93.2344L93.2371 41.7652Z" fill="white"/>
<path d="M106.552 37.324V46.8619L111.914 41.7667H114.504L109.847 46.0055L114.846 53.424H112.392L108.37 47.3364L106.552 49.0044V53.424H104.62V37.3253H106.552V37.324Z" fill="white"/>
<path d="M118.503 41.7651V44.223H118.549C119.019 43.2755 119.594 42.5767 120.276 42.1267C120.958 41.6768 121.821 41.466 122.867 41.496V43.5256C122.094 43.5256 121.435 43.6303 120.89 43.841C120.345 44.0517 119.905 44.3603 119.572 44.7654C119.239 45.1719 118.997 45.664 118.845 46.2418C118.692 46.8209 118.617 47.4857 118.617 48.2375V53.4238H116.685V41.7665H118.503V41.7651Z" fill="white"/>
<path d="M133.089 52.6789C132.211 53.3409 131.104 53.6713 129.773 53.6713C128.833 53.6713 128.019 53.5204 127.33 53.2199C126.641 52.9195 126.062 52.4981 125.592 51.957C125.122 51.4159 124.77 50.7702 124.535 50.0184C124.3 49.2666 124.168 48.4482 124.138 47.5605C124.138 46.6742 124.275 45.8626 124.548 45.1257C124.82 44.3889 125.203 43.75 125.696 43.2089C126.188 42.6678 126.771 42.2464 127.445 41.946C128.119 41.6455 128.858 41.4946 129.66 41.4946C130.706 41.4946 131.573 41.7094 132.262 42.1376C132.951 42.5659 133.505 43.111 133.921 43.7717C134.337 44.4338 134.625 45.1543 134.784 45.936C134.943 46.7177 135.007 47.4613 134.977 48.1682H126.183C126.168 48.6794 126.229 49.1647 126.366 49.6228C126.503 50.0809 126.722 50.4874 127.025 50.8409C127.327 51.1943 127.714 51.4758 128.184 51.6865C128.653 51.8972 129.206 52.0019 129.843 52.0019C130.661 52.0019 131.33 51.8143 131.854 51.4377C132.376 51.0625 132.721 50.4901 132.888 49.7234H134.796C134.539 51.0312 133.97 52.0155 133.092 52.6775L133.089 52.6789ZM132.624 45.1937C132.45 44.7872 132.214 44.4379 131.92 44.1456C131.624 43.8519 131.276 43.6195 130.874 43.4468C130.473 43.2742 130.029 43.1871 129.545 43.1871C129.062 43.1871 128.595 43.2742 128.193 43.4468C127.792 43.6195 127.447 43.856 127.159 44.1564C126.871 44.4569 126.644 44.8063 126.477 45.2046C126.309 45.6029 126.211 46.0271 126.181 46.4784H132.929C132.899 46.0271 132.796 45.5988 132.622 45.1937H132.624Z" fill="white"/>
<path d="M140.656 53.4225L136.294 41.7651H138.453L141.748 51.4825H141.793L144.997 41.7651H147.019L142.724 53.4225H140.657H140.656Z" fill="white"/>
<path d="M149.359 39.669V37.324H151.291V39.669H149.359ZM151.291 41.7653V53.4226H149.359V41.7653H151.291Z" fill="white"/>
<path d="M156.561 41.7652V43.614H156.606C157.409 42.2015 158.682 41.4946 160.423 41.4946C161.196 41.4946 161.84 41.5993 162.355 41.81C162.87 42.0207 163.286 42.3144 163.604 42.6896C163.922 43.0648 164.145 43.5121 164.274 44.0314C164.403 44.5493 164.467 45.1244 164.467 45.7565V53.4225H162.536V45.5309C162.536 44.809 162.323 44.238 161.9 43.8179C161.475 43.3979 160.893 43.1871 160.15 43.1871C159.56 43.1871 159.049 43.2769 158.616 43.4577C158.183 43.6385 157.824 43.8941 157.537 44.2244C157.249 44.5548 157.032 44.9422 156.889 45.3854C156.745 45.8286 156.672 46.3139 156.672 46.84V53.4239H154.74V41.7665H156.558L156.561 41.7652Z" fill="white"/>
<path d="M176.646 56.7138C175.768 57.6614 174.388 58.1345 172.51 58.1345C171.965 58.1345 171.409 58.0747 170.84 57.9537C170.272 57.8327 169.757 57.6383 169.295 57.3677C168.833 57.0972 168.45 56.7438 168.147 56.3087C167.844 55.8723 167.677 55.3394 167.647 54.7073H169.579C169.594 55.0526 169.703 55.3462 169.907 55.5869C170.111 55.8275 170.362 56.0232 170.657 56.1728C170.953 56.3223 171.273 56.4324 171.623 56.5004C171.97 56.5684 172.305 56.6024 172.623 56.6024C173.258 56.6024 173.797 56.4936 174.236 56.2747C174.676 56.0572 175.039 55.7568 175.327 55.3734C175.615 54.9901 175.823 54.5278 175.952 53.9868C176.08 53.4457 176.145 52.8516 176.145 52.2059V51.4392H176.1C175.767 52.161 175.263 52.6912 174.588 53.0284C173.914 53.3669 173.198 53.5354 172.442 53.5354C171.564 53.5354 170.798 53.3777 170.147 53.0623C169.495 52.747 168.95 52.3228 168.511 51.7885C168.072 51.2556 167.743 50.6316 167.524 49.9166C167.304 49.2028 167.193 48.447 167.193 47.6504C167.193 46.9597 167.284 46.2488 167.466 45.5201C167.648 44.7914 167.951 44.1294 168.374 43.5366C168.798 42.9426 169.359 42.4545 170.055 42.0711C170.751 41.6878 171.607 41.4961 172.623 41.4961C173.365 41.4961 174.046 41.6579 174.668 41.9814C175.289 42.305 175.774 42.7889 176.121 43.436H176.145V41.768H177.963V52.4329C177.963 54.3416 177.523 55.7704 176.645 56.7166L176.646 56.7138ZM174.18 51.4718C174.627 51.2094 174.987 50.8627 175.26 50.4345C175.532 50.0063 175.732 49.521 175.861 48.9799C175.99 48.4388 176.054 47.8978 176.054 47.3567C176.054 46.8456 175.994 46.3426 175.872 45.8464C175.75 45.3502 175.557 44.9029 175.293 44.5046C175.027 44.1062 174.683 43.7868 174.258 43.5462C173.834 43.3055 173.319 43.1859 172.713 43.1859C172.107 43.1859 171.562 43.3028 171.122 43.5353C170.683 43.7677 170.324 44.0804 170.043 44.4706C169.762 44.8621 169.558 45.3121 169.429 45.8232C169.3 46.3344 169.236 46.8687 169.236 47.4247C169.236 47.9508 169.289 48.4769 169.395 49.003C169.5 49.5291 169.683 50.0063 169.94 50.4345C170.198 50.8627 170.539 51.2094 170.962 51.4718C171.386 51.7355 171.917 51.866 172.553 51.866C173.188 51.866 173.731 51.7342 174.178 51.4718H174.18Z" fill="white"/>
<path d="M182.804 50.8179C182.986 51.1115 183.225 51.344 183.519 51.5166C183.815 51.6893 184.148 51.813 184.519 51.8891C184.891 51.9639 185.273 52.002 185.667 52.002C185.97 52.002 186.288 51.9789 186.622 51.934C186.955 51.8891 187.262 51.8062 187.543 51.6866C187.822 51.5669 188.054 51.3902 188.236 51.1564C188.418 50.9239 188.509 50.6262 188.509 50.2659C188.509 49.7697 188.32 49.3945 187.94 49.139C187.562 48.8834 187.088 48.6767 186.52 48.519C185.951 48.3613 185.335 48.2186 184.667 48.0908C184 47.963 183.384 47.7836 182.815 47.5497C182.247 47.3173 181.774 46.9897 181.394 46.5696C181.015 46.1495 180.826 45.5622 180.826 44.8104C180.826 44.2245 180.959 43.7202 181.223 43.3001C181.488 42.88 181.829 42.5374 182.245 42.2737C182.662 42.0113 183.132 41.8156 183.654 41.6878C184.176 41.56 184.695 41.4961 185.21 41.4961C185.876 41.4961 186.489 41.5518 187.05 41.6647C187.61 41.7775 188.106 41.9733 188.538 42.2506C188.969 42.5293 189.314 42.9045 189.572 43.3776C189.829 43.8507 189.981 44.4407 190.027 45.1476H188.095C188.065 44.7724 187.966 44.4597 187.799 44.2123C187.632 43.9635 187.421 43.765 187.163 43.6141C186.906 43.4646 186.622 43.3545 186.311 43.2865C186 43.2185 185.687 43.1845 185.369 43.1845C185.081 43.1845 184.789 43.2077 184.493 43.2525C184.197 43.2974 183.929 43.3762 183.686 43.4891C183.444 43.6019 183.247 43.7528 183.096 43.9404C182.944 44.128 182.869 44.3727 182.869 44.6731C182.869 45.0035 182.986 45.2781 183.221 45.4956C183.455 45.7131 183.755 45.8939 184.118 46.0367C184.481 46.1794 184.891 46.3004 185.345 46.3969C185.8 46.4948 186.254 46.5968 186.709 46.7015C187.194 46.8075 187.666 46.9353 188.129 47.0848C188.591 47.2357 189.001 47.4342 189.357 47.6816C189.713 47.929 190.001 48.2417 190.22 48.6169C190.439 48.9935 190.549 49.4584 190.549 50.0144C190.549 50.7214 190.401 51.3073 190.106 51.7736C189.81 52.2399 189.424 52.6151 188.947 52.9006C188.47 53.1861 187.932 53.3859 187.333 53.4987C186.735 53.6116 186.14 53.6673 185.55 53.6673C184.898 53.6673 184.277 53.5993 183.686 53.4647C183.096 53.3288 182.573 53.1086 182.119 52.8C181.664 52.4914 181.301 52.0863 181.029 51.5819C180.756 51.0789 180.604 50.4658 180.574 49.7439H182.506C182.521 50.1653 182.619 50.5215 182.801 50.8152L182.804 50.8179Z" fill="white"/>
<path d="M194.619 50.8179C194.801 51.1115 195.039 51.344 195.334 51.5166C195.63 51.6893 195.963 51.813 196.334 51.8891C196.705 51.9639 197.087 52.002 197.482 52.002C197.785 52.002 198.103 51.9789 198.437 51.934C198.77 51.8891 199.077 51.8062 199.357 51.6866C199.637 51.5669 199.868 51.3902 200.051 51.1564C200.233 50.9239 200.323 50.6262 200.323 50.2659C200.323 49.7697 200.134 49.3945 199.755 49.139C199.377 48.8834 198.903 48.6767 198.334 48.519C197.766 48.3613 197.149 48.2186 196.482 48.0908C195.815 47.963 195.198 47.7836 194.63 47.5497C194.061 47.3173 193.589 46.9897 193.209 46.5696C192.83 46.1495 192.641 45.5622 192.641 44.8104C192.641 44.2245 192.773 43.7202 193.038 43.3001C193.302 42.88 193.643 42.5374 194.06 42.2737C194.476 42.0113 194.946 41.8156 195.468 41.6878C195.99 41.56 196.509 41.4961 197.024 41.4961C197.69 41.4961 198.304 41.5518 198.864 41.6647C199.425 41.7775 199.921 41.9733 200.352 42.2506C200.784 42.5293 201.129 42.9045 201.386 43.3776C201.644 43.8507 201.796 44.4407 201.841 45.1476H199.91C199.879 44.7724 199.781 44.4597 199.614 44.2123C199.447 43.9635 199.236 43.765 198.978 43.6141C198.72 43.4646 198.437 43.3545 198.126 43.2865C197.815 43.2185 197.501 43.1845 197.183 43.1845C196.896 43.1845 196.604 43.2077 196.308 43.2525C196.012 43.2974 195.744 43.3762 195.501 43.4891C195.259 43.6019 195.061 43.7528 194.911 43.9404C194.759 44.128 194.683 44.3727 194.683 44.6731C194.683 45.0035 194.801 45.2781 195.035 45.4956C195.27 45.7131 195.57 45.8939 195.933 46.0367C196.296 46.1794 196.705 46.3004 197.16 46.3969C197.615 46.4948 198.068 46.5968 198.523 46.7015C199.008 46.8075 199.481 46.9353 199.944 47.0848C200.406 47.2357 200.815 47.4342 201.171 47.6816C201.528 47.929 201.815 48.2417 202.034 48.6169C202.254 48.9935 202.363 49.4584 202.363 50.0144C202.363 50.7214 202.215 51.3073 201.921 51.7736C201.625 52.2399 201.238 52.6151 200.762 52.9006C200.285 53.1861 199.747 53.3859 199.148 53.4987C198.549 53.6116 197.955 53.6673 197.364 53.6673C196.712 53.6673 196.091 53.5993 195.501 53.4647C194.911 53.3288 194.387 53.1086 193.934 52.8C193.479 52.4914 193.116 52.0863 192.843 51.5819C192.571 51.0789 192.419 50.4658 192.388 49.7439H194.32C194.335 50.1653 194.434 50.5215 194.616 50.8152L194.619 50.8179Z" fill="white"/>
<path d="M213.274 52.6789C212.395 53.3409 211.289 53.6713 209.957 53.6713C209.017 53.6713 208.203 53.5204 207.514 53.2199C206.825 52.9195 206.246 52.4981 205.776 51.957C205.306 51.4159 204.954 50.7702 204.72 50.0184C204.484 49.2666 204.352 48.4482 204.322 47.5605C204.322 46.6742 204.459 45.8626 204.732 45.1257C205.005 44.3889 205.387 43.75 205.88 43.2089C206.372 42.6678 206.955 42.2464 207.629 41.946C208.303 41.6455 209.042 41.4946 209.845 41.4946C210.89 41.4946 211.757 41.7094 212.446 42.1376C213.135 42.5659 213.689 43.111 214.105 43.7717C214.522 44.4338 214.809 45.1543 214.968 45.936C215.127 46.7177 215.192 47.4613 215.161 48.1682H206.368C206.353 48.6794 206.413 49.1647 206.55 49.6228C206.687 50.0809 206.906 50.4874 207.209 50.8409C207.512 51.1943 207.898 51.4758 208.368 51.6865C208.838 51.8972 209.39 52.0019 210.027 52.0019C210.845 52.0019 211.515 51.8143 212.038 51.4377C212.56 51.0625 212.905 50.4901 213.072 49.7234H214.981C214.723 51.0312 214.155 52.0155 213.276 52.6775L213.274 52.6789ZM212.808 45.1937C212.634 44.7872 212.398 44.4379 212.104 44.1456C211.808 43.8519 211.46 43.6195 211.058 43.4468C210.657 43.2742 210.213 43.1871 209.73 43.1871C209.246 43.1871 208.779 43.2742 208.377 43.4468C207.976 43.6195 207.631 43.856 207.343 44.1564C207.055 44.4569 206.828 44.8063 206.661 45.2046C206.494 45.6029 206.395 46.0271 206.365 46.4784H213.113C213.083 46.0271 212.98 45.5988 212.806 45.1937H212.808Z" fill="white"/>
<path d="M219.43 41.7652V43.614H219.475C220.278 42.2015 221.551 41.4946 223.292 41.4946C224.065 41.4946 224.709 41.5993 225.224 41.81C225.739 42.0207 226.155 42.3144 226.473 42.6896C226.791 43.0648 227.014 43.5121 227.143 44.0314C227.272 44.5493 227.336 45.1244 227.336 45.7565V53.4225H225.405V45.5309C225.405 44.809 225.192 44.238 224.769 43.8179C224.344 43.3979 223.762 43.1871 223.02 43.1871C222.429 43.1871 221.918 43.2769 221.485 43.4577C221.052 43.6385 220.693 43.8941 220.406 44.2244C220.118 44.5548 219.902 44.9422 219.758 45.3854C219.614 45.8286 219.541 46.3139 219.541 46.84V53.4239H217.61V41.7665H219.427L219.43 41.7652Z" fill="white"/>
<path d="M235.722 41.7653V43.4565H233.382V50.6942C233.382 50.9199 233.401 51.1007 233.44 51.2353C233.477 51.3712 233.549 51.4759 233.656 51.5507C233.761 51.6255 233.909 51.6744 234.099 51.6975C234.288 51.7206 234.534 51.7315 234.837 51.7315H235.723V53.4226H234.246C233.746 53.4226 233.319 53.3887 232.963 53.3207C232.607 53.2527 232.319 53.129 232.1 52.9482C231.881 52.7674 231.717 52.5118 231.611 52.1815C231.504 51.8511 231.452 51.4147 231.452 50.8737V43.4551H229.453V41.764H231.452V38.2688H233.383V41.764H235.723L235.722 41.7653Z" fill="white"/>
<path d="M240.062 41.7651V44.223H240.107C240.577 43.2755 241.152 42.5767 241.835 42.1267C242.517 41.6768 243.38 41.466 244.425 41.496V43.5256C243.653 43.5256 242.994 43.6303 242.448 43.841C241.903 44.0517 241.463 44.3603 241.131 44.7654C240.798 45.1719 240.555 45.664 240.403 46.2418C240.251 46.8209 240.176 47.4857 240.176 48.2375V53.4238H238.244V41.7665H240.062V41.7651Z" fill="white"/>
<path d="M256.739 53.3777C256.406 53.5735 255.944 53.6714 255.352 53.6714C254.852 53.6714 254.455 53.5327 254.159 53.254C253.863 52.9767 253.716 52.5213 253.716 51.8905C253.186 52.5213 252.568 52.9767 251.864 53.254C251.16 53.5314 250.398 53.6714 249.58 53.6714C249.05 53.6714 248.546 53.6116 248.069 53.4906C247.593 53.3709 247.179 53.182 246.831 52.9264C246.483 52.6708 246.206 52.3364 246.002 51.9231C245.798 51.5098 245.695 51.0096 245.695 50.4236C245.695 49.7629 245.809 49.2219 246.036 48.8005C246.264 48.3804 246.562 48.0378 246.934 47.7741C247.305 47.5117 247.728 47.3118 248.206 47.1759C248.683 47.04 249.172 46.9285 249.672 46.8374C250.202 46.7327 250.707 46.6539 251.183 46.6009C251.66 46.5478 252.081 46.4731 252.445 46.3752C252.808 46.2773 253.096 46.1346 253.308 45.947C253.521 45.7593 253.626 45.4847 253.626 45.1245C253.626 44.7044 253.547 44.3659 253.388 44.1103C253.229 43.8548 253.025 43.659 252.774 43.5244C252.523 43.3885 252.244 43.2987 251.933 43.2539C251.622 43.209 251.315 43.1859 251.012 43.1859C250.194 43.1859 249.512 43.3395 248.967 43.6481C248.421 43.9567 248.126 44.5386 248.08 45.395H246.149C246.179 44.6731 246.331 44.0641 246.604 43.5693C246.876 43.0731 247.239 42.6707 247.694 42.3634C248.149 42.0562 248.667 41.8332 249.25 41.6987C249.834 41.5627 250.459 41.4961 251.124 41.4961C251.655 41.4961 252.181 41.5342 252.704 41.6089C253.226 41.6837 253.7 41.8373 254.125 42.0698C254.548 42.3023 254.889 42.6285 255.147 43.0486C255.404 43.4687 255.533 44.0165 255.533 44.6908V50.6751C255.533 51.1251 255.559 51.4555 255.612 51.6648C255.666 51.8742 255.843 51.9802 256.147 51.9802C256.314 51.9802 256.51 51.9503 256.737 51.8905V53.3791L256.739 53.3777ZM253.603 47.4029C253.36 47.5824 253.042 47.7129 252.648 47.7958C252.253 47.8787 251.841 47.9454 251.409 47.9984C250.978 48.0514 250.542 48.1112 250.102 48.1778C249.663 48.2458 249.27 48.3532 248.922 48.5027C248.574 48.6523 248.289 48.8657 248.069 49.1417C247.85 49.419 247.739 49.7956 247.739 50.2741C247.739 50.5881 247.804 50.8532 247.932 51.0707C248.061 51.2883 248.228 51.4636 248.432 51.5982C248.637 51.7328 248.875 51.8307 249.148 51.8905C249.42 51.9503 249.708 51.9802 250.011 51.9802C250.646 51.9802 251.192 51.8946 251.646 51.7219C252.101 51.5493 252.472 51.3331 252.76 51.0707C253.048 50.8084 253.26 50.5242 253.396 50.2184C253.531 49.9125 253.6 49.6243 253.6 49.3551V47.4029H253.603Z" fill="white"/>
<path d="M261.033 37.324V53.4226H259.102V37.324H261.033Z" fill="white"/>
<path d="M19.0644 38.1773C4.60306 28.2275 0.93292 21.2929 1.32884 13.5277C1.7138 5.9433 8.81434 2.13138 16.8382 0.128906H16.8478C12.7379 2.35298 10.198 5.06645 10.198 10.0434C10.198 16.562 13.7448 20.6812 26.8417 29.2566L30.6598 31.7716C38.3755 36.8696 43.2649 41.1532 46.2706 45.2384C46.2706 45.2384 46.2747 22.7108 46.2747 19.8723C46.2747 16.2996 57.207 13.1974 58.7921 12.814C56.1111 13.4353 54.9124 17.5748 54.9124 19.6684L55.3823 80.2566H28.3076C30.2639 79.5932 31.2174 78.8903 31.2174 78.8903C37.696 75.1899 40.8921 68.1547 40.8921 62.9915C40.8921 55.1012 36.9356 50.5253 25.2019 42.408L19.0644 38.1746" fill="white"/>
<path d="M0 80.258H12.5763C7.28548 78.6144 3.05092 75.1831 1.19187 69.7371C0.632925 68.0963 0.0520587 65.4807 0.00136997 65.1055C0.0315092 65.584 0.00136997 80.258 0.00136997 80.258H0Z" fill="white"/>
<path d="M50.7819 11.8434C52.8732 11.8434 54.5685 10.1611 54.5685 8.0859C54.5685 6.01067 52.8732 4.32837 50.7819 4.32837C48.6907 4.32837 46.9954 6.01067 46.9954 8.0859C46.9954 10.1611 48.6907 11.8434 50.7819 11.8434Z" fill="white"/>
</g>
<path d="M81.7628 72.1941L81.5519 73.4832H73.3019L73.5128 72.1941H81.7628ZM86.755 78.8386L88.7472 66.8386H95.9894L95.7784 68.1277H89.9894L89.3097 72.1824H94.7238L94.5128 73.4714H89.0988L88.4191 77.5496H94.3019L94.0909 78.8386H86.755ZM98.7023 73.4246L97.8116 78.8386H96.4288L97.9288 69.8386H99.2648L99.0304 71.2449H99.1476C99.4288 70.7878 99.8097 70.4207 100.29 70.1433C100.771 69.8621 101.351 69.7214 102.03 69.7214C102.632 69.7214 103.14 69.8464 103.554 70.0964C103.972 70.3425 104.267 70.7175 104.439 71.2214C104.614 71.7214 104.64 72.3542 104.515 73.1199L103.554 78.8386H102.171L103.109 73.2136C103.226 72.5105 103.134 71.9597 102.833 71.5613C102.536 71.1628 102.066 70.9636 101.421 70.9636C100.976 70.9636 100.564 71.0593 100.185 71.2507C99.8097 71.4421 99.4913 71.7214 99.2296 72.0886C98.9718 72.4558 98.796 72.9011 98.7023 73.4246ZM114.108 79.0261C113.354 79.0261 112.721 78.8367 112.21 78.4578C111.698 78.075 111.337 77.5359 111.126 76.8406C110.919 76.1414 110.893 75.3152 111.049 74.3621C111.21 73.4167 111.508 72.5964 111.946 71.9011C112.387 71.2058 112.928 70.6687 113.569 70.2898C114.21 69.9109 114.909 69.7214 115.667 69.7214C116.253 69.7214 116.7 69.8191 117.008 70.0144C117.321 70.2058 117.547 70.4246 117.688 70.6707C117.829 70.9128 117.936 71.1121 118.01 71.2683H118.128L118.866 66.8386H120.249L118.256 78.8386H116.921L117.155 77.4558H116.991C116.862 77.6199 116.682 77.8269 116.452 78.0769C116.221 78.323 115.917 78.5437 115.538 78.739C115.163 78.9304 114.686 79.0261 114.108 79.0261ZM114.448 77.7839C115.003 77.7839 115.499 77.6394 115.936 77.3503C116.378 77.0574 116.745 76.6531 117.038 76.1375C117.331 75.6179 117.534 75.0183 117.647 74.3386C117.76 73.6667 117.756 73.0789 117.635 72.575C117.514 72.0671 117.282 71.6726 116.938 71.3914C116.594 71.1062 116.139 70.9636 115.573 70.9636C114.991 70.9636 114.485 71.114 114.055 71.4148C113.626 71.7117 113.276 72.116 113.006 72.6277C112.737 73.1355 112.549 73.7058 112.444 74.3386C112.339 74.9792 112.337 75.5613 112.438 76.0847C112.54 76.6042 112.755 77.0183 113.083 77.3269C113.415 77.6316 113.87 77.7839 114.448 77.7839ZM124.719 79.0261C123.856 79.0261 123.143 78.8347 122.581 78.4519C122.018 78.0652 121.626 77.5261 121.403 76.8347C121.18 76.1394 121.145 75.3308 121.297 74.4089C121.45 73.4871 121.753 72.6746 122.206 71.9714C122.659 71.2644 123.223 70.7136 123.899 70.3191C124.575 69.9207 125.317 69.7214 126.126 69.7214C126.594 69.7214 127.046 69.7996 127.479 69.9558C127.913 70.1121 128.288 70.366 128.604 70.7175C128.921 71.0652 129.141 71.5261 129.266 72.1003C129.391 72.6746 129.383 73.3816 129.243 74.2214L129.149 74.8074H122.212L122.399 73.6121H127.93C128.02 73.1042 127.997 72.6511 127.86 72.2527C127.727 71.8542 127.495 71.5398 127.163 71.3093C126.835 71.0789 126.419 70.9636 125.915 70.9636C125.395 70.9636 124.911 71.1042 124.462 71.3855C124.012 71.6628 123.637 72.0144 123.337 72.4402C123.036 72.8621 122.848 73.2917 122.774 73.7292L122.61 74.7605C122.493 75.5066 122.51 76.1003 122.663 76.5417C122.819 76.9832 123.09 77.3015 123.477 77.4968C123.864 77.6882 124.348 77.7839 124.93 77.7839C125.301 77.7839 125.643 77.7332 125.956 77.6316C126.268 77.5261 126.547 77.3699 126.794 77.1628C127.04 76.9519 127.247 76.6902 127.415 76.3777L128.68 76.7527C128.465 77.2058 128.163 77.6042 127.772 77.948C127.385 78.2878 126.932 78.5535 126.413 78.7449C125.897 78.9324 125.333 79.0261 124.719 79.0261ZM133.98 66.8386L131.988 78.8386H130.605L132.597 66.8386H133.98ZM141.786 79.0496C141.216 79.0496 140.716 78.9421 140.286 78.7273C139.857 78.5085 139.538 78.1941 139.331 77.7839C139.124 77.3699 139.068 76.8699 139.161 76.2839C139.251 75.7683 139.425 75.3503 139.683 75.03C139.941 74.7058 140.253 74.4519 140.62 74.2683C140.991 74.0808 141.39 73.9421 141.816 73.8523C142.245 73.7585 142.673 73.6863 143.099 73.6355C143.653 73.5652 144.105 73.5105 144.452 73.4714C144.8 73.4324 145.062 73.3679 145.237 73.2781C145.413 73.1882 145.521 73.0339 145.56 72.8152V72.7683C145.653 72.1941 145.577 71.7468 145.331 71.4265C145.085 71.1023 144.646 70.9402 144.013 70.9402C143.357 70.9402 142.808 71.0847 142.366 71.3738C141.925 71.6628 141.599 71.9714 141.388 72.2996L140.169 71.8308C140.489 71.2839 140.872 70.8582 141.318 70.5535C141.763 70.2449 142.23 70.03 142.718 69.9089C143.206 69.7839 143.677 69.7214 144.13 69.7214C144.419 69.7214 144.745 69.7566 145.109 69.8269C145.472 69.8933 145.812 70.032 146.128 70.2429C146.448 70.4539 146.689 70.7722 146.849 71.198C147.013 71.6238 147.036 72.1941 146.919 72.9089L145.935 78.8386H144.552L144.763 77.6199H144.693C144.568 77.8152 144.376 78.0242 144.118 78.2468C143.864 78.4695 143.542 78.6589 143.151 78.8152C142.765 78.9714 142.31 79.0496 141.786 79.0496ZM142.185 77.8074C142.732 77.8074 143.21 77.7 143.62 77.4851C144.034 77.2703 144.366 76.9929 144.616 76.6531C144.87 76.3132 145.028 75.9558 145.091 75.5808L145.302 74.3152C145.232 74.3855 145.093 74.45 144.886 74.5085C144.679 74.5632 144.444 74.6121 144.183 74.655C143.925 74.6941 143.673 74.7292 143.427 74.7605C143.185 74.7878 142.989 74.8113 142.841 74.8308C142.474 74.8777 142.124 74.9539 141.792 75.0593C141.464 75.1609 141.187 75.3152 140.96 75.5222C140.737 75.7253 140.599 76.0027 140.544 76.3542C140.462 76.8347 140.577 77.198 140.89 77.4441C141.202 77.6863 141.634 77.8074 142.185 77.8074ZM156.996 69.8386L152.168 78.8386H150.761L148.933 69.8386H150.375L151.664 77.0105H151.757L155.437 69.8386H156.996ZM170.188 69.9324C170.188 69.2878 169.975 68.7996 169.549 68.4675C169.124 68.1316 168.547 67.9636 167.821 67.9636C167.29 67.9636 166.811 68.0496 166.385 68.2214C165.96 68.3933 165.612 68.6296 165.342 68.9304C165.073 69.2312 164.907 69.573 164.844 69.9558C164.794 70.2761 164.827 70.5515 164.944 70.782C165.061 71.0085 165.227 71.198 165.442 71.3503C165.661 71.4988 165.895 71.6218 166.145 71.7195C166.395 71.8132 166.626 71.8894 166.837 71.948L168.008 72.2761C168.301 72.3582 168.628 72.4714 168.987 72.616C169.346 72.7605 169.682 72.9578 169.995 73.2078C170.307 73.4539 170.546 73.7703 170.71 74.157C170.878 74.5437 170.915 75.0183 170.821 75.5808C170.712 76.2292 170.444 76.8152 170.018 77.3386C169.596 77.8621 169.038 78.2781 168.342 78.5867C167.651 78.8953 166.844 79.0496 165.922 79.0496C165.063 79.0496 164.34 78.9109 163.755 78.6335C163.172 78.3562 162.743 77.9695 162.465 77.4734C162.192 76.9773 162.087 76.4011 162.149 75.7449H163.649C163.61 76.198 163.7 76.573 163.919 76.8699C164.137 77.1628 164.442 77.3816 164.833 77.5261C165.223 77.6667 165.657 77.7371 166.133 77.7371C166.688 77.7371 167.2 77.6472 167.669 77.4675C168.141 77.2839 168.532 77.03 168.84 76.7058C169.153 76.3777 169.344 75.9949 169.415 75.5574C169.485 75.1589 169.43 74.8347 169.251 74.5847C169.071 74.3347 168.811 74.1316 168.471 73.9753C168.131 73.8191 167.758 73.6824 167.352 73.5652L165.946 73.1433C165.055 72.8738 164.378 72.489 163.913 71.989C163.452 71.489 163.286 70.8347 163.415 70.0261C163.532 69.3542 163.815 68.7683 164.264 68.2683C164.714 67.7644 165.27 67.3738 165.934 67.0964C166.598 66.8152 167.313 66.6746 168.079 66.6746C168.852 66.6746 169.514 66.8152 170.065 67.0964C170.616 67.3738 171.026 67.7585 171.296 68.2507C171.565 68.739 171.665 69.2996 171.594 69.9324H170.188ZM174.312 75.5574L174.569 73.8464H174.851L179.468 69.8386H181.179L176.28 74.0808H176.163L174.312 75.5574ZM172.484 78.8386L174.476 66.8386H175.859L173.866 78.8386H172.484ZM178.202 78.8386L175.437 74.3855L176.562 73.4246L179.96 78.8386H178.202ZM184.084 79.0496C183.513 79.0496 183.013 78.9421 182.584 78.7273C182.154 78.5085 181.836 78.1941 181.629 77.7839C181.422 77.3699 181.365 76.8699 181.459 76.2839C181.548 75.7683 181.722 75.3503 181.98 75.03C182.238 74.7058 182.55 74.4519 182.918 74.2683C183.289 74.0808 183.687 73.9421 184.113 73.8523C184.543 73.7585 184.97 73.6863 185.396 73.6355C185.951 73.5652 186.402 73.5105 186.75 73.4714C187.097 73.4324 187.359 73.3679 187.535 73.2781C187.711 73.1882 187.818 73.0339 187.857 72.8152V72.7683C187.951 72.1941 187.875 71.7468 187.629 71.4265C187.382 71.1023 186.943 70.9402 186.31 70.9402C185.654 70.9402 185.105 71.0847 184.664 71.3738C184.222 71.6628 183.896 71.9714 183.685 72.2996L182.466 71.8308C182.787 71.2839 183.17 70.8582 183.615 70.5535C184.06 70.2449 184.527 70.03 185.015 69.9089C185.504 69.7839 185.974 69.7214 186.427 69.7214C186.716 69.7214 187.043 69.7566 187.406 69.8269C187.769 69.8933 188.109 70.032 188.425 70.2429C188.746 70.4539 188.986 70.7722 189.146 71.198C189.31 71.6238 189.334 72.1941 189.216 72.9089L188.232 78.8386H186.849L187.06 77.6199H186.99C186.865 77.8152 186.673 78.0242 186.416 78.2468C186.162 78.4695 185.839 78.6589 185.449 78.8152C185.062 78.9714 184.607 79.0496 184.084 79.0496ZM184.482 77.8074C185.029 77.8074 185.507 77.7 185.918 77.4851C186.332 77.2703 186.664 76.9929 186.914 76.6531C187.168 76.3132 187.326 75.9558 187.388 75.5808L187.599 74.3152C187.529 74.3855 187.39 74.45 187.183 74.5085C186.976 74.5632 186.742 74.6121 186.48 74.655C186.222 74.6941 185.97 74.7292 185.724 74.7605C185.482 74.7878 185.287 74.8113 185.138 74.8308C184.771 74.8777 184.422 74.9539 184.089 75.0593C183.761 75.1609 183.484 75.3152 183.257 75.5222C183.035 75.7253 182.896 76.0027 182.841 76.3542C182.759 76.8347 182.875 77.198 183.187 77.4441C183.5 77.6863 183.931 77.8074 184.482 77.8074ZM196.17 69.8386L195.983 71.0105H191.318L191.506 69.8386H196.17ZM193.217 67.6824H194.6L193.17 76.2605C193.108 76.6511 193.117 76.9441 193.199 77.1394C193.285 77.3308 193.414 77.4597 193.586 77.5261C193.762 77.5886 193.951 77.6199 194.154 77.6199C194.307 77.6199 194.432 77.6121 194.529 77.5964C194.627 77.5769 194.705 77.5613 194.764 77.5496L194.858 78.7917C194.752 78.8269 194.609 78.8621 194.43 78.8972C194.254 78.9363 194.037 78.9558 193.779 78.9558C193.389 78.9558 193.022 78.8718 192.678 78.7039C192.334 78.5359 192.07 78.28 191.887 77.9363C191.703 77.5925 191.654 77.1589 191.74 76.6355L193.217 67.6824ZM202.164 69.8386L201.977 71.0105H197.313L197.5 69.8386H202.164ZM199.211 67.6824H200.594L199.164 76.2605C199.102 76.6511 199.111 76.9441 199.193 77.1394C199.279 77.3308 199.408 77.4597 199.58 77.5261C199.756 77.5886 199.945 77.6199 200.149 77.6199C200.301 77.6199 200.426 77.6121 200.524 77.5964C200.621 77.5769 200.699 77.5613 200.758 77.5496L200.852 78.7917C200.746 78.8269 200.604 78.8621 200.424 78.8972C200.248 78.9363 200.031 78.9558 199.774 78.9558C199.383 78.9558 199.016 78.8718 198.672 78.7039C198.328 78.5359 198.065 78.28 197.881 77.9363C197.697 77.5925 197.649 77.1589 197.734 76.6355L199.211 67.6824ZM206.398 79.0261C205.534 79.0261 204.821 78.8347 204.259 78.4519C203.696 78.0652 203.304 77.5261 203.081 76.8347C202.859 76.1394 202.823 75.3308 202.976 74.4089C203.128 73.4871 203.431 72.6746 203.884 71.9714C204.337 71.2644 204.901 70.7136 205.577 70.3191C206.253 69.9207 206.995 69.7214 207.804 69.7214C208.273 69.7214 208.724 69.7996 209.157 69.9558C209.591 70.1121 209.966 70.366 210.282 70.7175C210.599 71.0652 210.819 71.5261 210.944 72.1003C211.069 72.6746 211.062 73.3816 210.921 74.2214L210.827 74.8074H203.89L204.077 73.6121H209.609C209.698 73.1042 209.675 72.6511 209.538 72.2527C209.405 71.8542 209.173 71.5398 208.841 71.3093C208.513 71.0789 208.097 70.9636 207.593 70.9636C207.073 70.9636 206.589 71.1042 206.14 71.3855C205.691 71.6628 205.316 72.0144 205.015 72.4402C204.714 72.8621 204.526 73.2917 204.452 73.7292L204.288 74.7605C204.171 75.5066 204.189 76.1003 204.341 76.5417C204.497 76.9832 204.769 77.3015 205.155 77.4968C205.542 77.6882 206.026 77.7839 206.609 77.7839C206.98 77.7839 207.321 77.7332 207.634 77.6316C207.946 77.5261 208.226 77.3699 208.472 77.1628C208.718 76.9519 208.925 76.6902 209.093 76.3777L210.359 76.7527C210.144 77.2058 209.841 77.6042 209.45 77.948C209.064 78.2878 208.61 78.5535 208.091 78.7449C207.575 78.9324 207.011 79.0261 206.398 79.0261ZM216.033 79.0261C215.17 79.0261 214.457 78.8347 213.895 78.4519C213.332 78.0652 212.94 77.5261 212.717 76.8347C212.494 76.1394 212.459 75.3308 212.611 74.4089C212.764 73.4871 213.067 72.6746 213.52 71.9714C213.973 71.2644 214.537 70.7136 215.213 70.3191C215.889 69.9207 216.631 69.7214 217.44 69.7214C217.908 69.7214 218.359 69.7996 218.793 69.9558C219.227 70.1121 219.602 70.366 219.918 70.7175C220.234 71.0652 220.455 71.5261 220.58 72.1003C220.705 72.6746 220.697 73.3816 220.557 74.2214L220.463 74.8074H213.526L213.713 73.6121H219.244C219.334 73.1042 219.311 72.6511 219.174 72.2527C219.041 71.8542 218.809 71.5398 218.477 71.3093C218.149 71.0789 217.733 70.9636 217.229 70.9636C216.709 70.9636 216.225 71.1042 215.776 71.3855C215.326 71.6628 214.951 72.0144 214.651 72.4402C214.35 72.8621 214.162 73.2917 214.088 73.7292L213.924 74.7605C213.807 75.5066 213.824 76.1003 213.977 76.5417C214.133 76.9832 214.404 77.3015 214.791 77.4968C215.178 77.6882 215.662 77.7839 216.244 77.7839C216.615 77.7839 216.957 77.7332 217.27 77.6316C217.582 77.5261 217.861 77.3699 218.108 77.1628C218.354 76.9519 218.561 76.6902 218.729 76.3777L219.994 76.7527C219.779 77.2058 219.477 77.6042 219.086 77.948C218.699 78.2878 218.246 78.5535 217.727 78.7449C217.211 78.9324 216.647 79.0261 216.033 79.0261ZM227.333 69.8386L227.146 71.0105H222.482L222.669 69.8386H227.333ZM224.38 67.6824H225.763L224.333 76.2605C224.271 76.6511 224.28 76.9441 224.362 77.1394C224.448 77.3308 224.577 77.4597 224.749 77.5261C224.925 77.5886 225.114 77.6199 225.318 77.6199C225.47 77.6199 225.595 77.6121 225.693 77.5964C225.79 77.5769 225.868 77.5613 225.927 77.5496L226.021 78.7917C225.915 78.8269 225.773 78.8621 225.593 78.8972C225.417 78.9363 225.2 78.9558 224.943 78.9558C224.552 78.9558 224.185 78.8718 223.841 78.7039C223.497 78.5359 223.234 78.28 223.05 77.9363C222.866 77.5925 222.818 77.1589 222.903 76.6355L224.38 67.6824ZM230.538 79.0496C229.968 79.0496 229.468 78.9421 229.038 78.7273C228.609 78.5085 228.29 78.1941 228.083 77.7839C227.876 77.3699 227.819 76.8699 227.913 76.2839C228.003 75.7683 228.177 75.3503 228.435 75.03C228.693 74.7058 229.005 74.4519 229.372 74.2683C229.743 74.0808 230.142 73.9421 230.568 73.8523C230.997 73.7585 231.425 73.6863 231.851 73.6355C232.405 73.5652 232.857 73.5105 233.204 73.4714C233.552 73.4324 233.814 73.3679 233.989 73.2781C234.165 73.1882 234.273 73.0339 234.312 72.8152V72.7683C234.405 72.1941 234.329 71.7468 234.083 71.4265C233.837 71.1023 233.398 70.9402 232.765 70.9402C232.109 70.9402 231.56 71.0847 231.118 71.3738C230.677 71.6628 230.351 71.9714 230.14 72.2996L228.921 71.8308C229.241 71.2839 229.624 70.8582 230.069 70.5535C230.515 70.2449 230.982 70.03 231.47 69.9089C231.958 69.7839 232.429 69.7214 232.882 69.7214C233.171 69.7214 233.497 69.7566 233.86 69.8269C234.224 69.8933 234.564 70.032 234.88 70.2429C235.2 70.4539 235.441 70.7722 235.601 71.198C235.765 71.6238 235.788 72.1941 235.671 72.9089L234.687 78.8386H233.304L233.515 77.6199H233.444C233.319 77.8152 233.128 78.0242 232.87 78.2468C232.616 78.4695 232.294 78.6589 231.903 78.8152C231.517 78.9714 231.062 79.0496 230.538 79.0496ZM230.937 77.8074C231.484 77.8074 231.962 77.7 232.372 77.4851C232.786 77.2703 233.118 76.9929 233.368 76.6531C233.622 76.3132 233.78 75.9558 233.843 75.5808L234.054 74.3152C233.984 74.3855 233.845 74.45 233.638 74.5085C233.431 74.5632 233.196 74.6121 232.935 74.655C232.677 74.6941 232.425 74.7292 232.179 74.7605C231.937 74.7878 231.741 74.8113 231.593 74.8308C231.226 74.8777 230.876 74.9539 230.544 75.0593C230.216 75.1609 229.939 75.3152 229.712 75.5222C229.489 75.7253 229.351 76.0027 229.296 76.3542C229.214 76.8347 229.329 77.198 229.642 77.4441C229.954 77.6863 230.386 77.8074 230.937 77.8074ZM242.625 69.8386L242.437 71.0105H237.773L237.961 69.8386H242.625ZM239.672 67.6824H241.054L239.625 76.2605C239.562 76.6511 239.572 76.9441 239.654 77.1394C239.74 77.3308 239.869 77.4597 240.041 77.5261C240.216 77.5886 240.406 77.6199 240.609 77.6199C240.761 77.6199 240.886 77.6121 240.984 77.5964C241.082 77.5769 241.16 77.5613 241.218 77.5496L241.312 78.7917C241.207 78.8269 241.064 78.8621 240.884 78.8972C240.709 78.9363 240.492 78.9558 240.234 78.9558C239.843 78.9558 239.476 78.8718 239.132 78.7039C238.789 78.5359 238.525 78.28 238.341 77.9363C238.158 77.5925 238.109 77.1589 238.195 76.6355L239.672 67.6824ZM246.858 79.0261C245.995 79.0261 245.282 78.8347 244.719 78.4519C244.157 78.0652 243.764 77.5261 243.542 76.8347C243.319 76.1394 243.284 75.3308 243.436 74.4089C243.589 73.4871 243.891 72.6746 244.344 71.9714C244.797 71.2644 245.362 70.7136 246.038 70.3191C246.714 69.9207 247.456 69.7214 248.264 69.7214C248.733 69.7214 249.184 69.7996 249.618 69.9558C250.051 70.1121 250.426 70.366 250.743 70.7175C251.059 71.0652 251.28 71.5261 251.405 72.1003C251.53 72.6746 251.522 73.3816 251.381 74.2214L251.288 74.8074H244.35L244.538 73.6121H250.069C250.159 73.1042 250.135 72.6511 249.999 72.2527C249.866 71.8542 249.633 71.5398 249.301 71.3093C248.973 71.0789 248.557 70.9636 248.053 70.9636C247.534 70.9636 247.049 71.1042 246.6 71.3855C246.151 71.6628 245.776 72.0144 245.475 72.4402C245.174 72.8621 244.987 73.2917 244.913 73.7292L244.749 74.7605C244.631 75.5066 244.649 76.1003 244.801 76.5417C244.958 76.9832 245.229 77.3015 245.616 77.4968C246.003 77.6882 246.487 77.7839 247.069 77.7839C247.44 77.7839 247.782 77.7332 248.094 77.6316C248.407 77.5261 248.686 77.3699 248.932 77.1628C249.178 76.9519 249.385 76.6902 249.553 76.3777L250.819 76.7527C250.604 77.2058 250.301 77.6042 249.911 77.948C249.524 78.2878 249.071 78.5535 248.551 78.7449C248.036 78.9324 247.471 79.0261 246.858 79.0261ZM255.017 73.4246L254.127 78.8386H252.744L254.244 69.8386H255.58L255.345 71.2449H255.463C255.744 70.7878 256.125 70.4207 256.605 70.1433C257.086 69.8621 257.666 69.7214 258.345 69.7214C258.947 69.7214 259.455 69.8464 259.869 70.0964C260.287 70.3425 260.582 70.7175 260.754 71.2214C260.929 71.7214 260.955 72.3542 260.83 73.1199L259.869 78.8386H258.486L259.423 73.2136C259.541 72.5105 259.449 71.9597 259.148 71.5613C258.851 71.1628 258.38 70.9636 257.736 70.9636C257.291 70.9636 256.879 71.0593 256.5 71.2507C256.125 71.4421 255.806 71.7214 255.545 72.0886C255.287 72.4558 255.111 72.9011 255.017 73.4246Z" fill="white"/>
<defs>
<clipPath id="clip0_1533_6755">
<rect width="263.032" height="80.129" fill="white" transform="translate(0 0.128906)"/>
</clipPath>
</defs>
</svg>
