<?xml version="1.0" encoding="utf-8"?>
<svg
    aria-hidden={true}
    version="1.1"
    id="Layer_1"
    xmlns="http://www.w3.org/2000/svg"
    x="0px"
    y="0px"
    height="60px"
    viewBox="0 0 922.9 205.8"
    className={className}
  >
    <g>
      <rect width="205.8" height="205.8" fill="#fff" />
      <path
        d="M0,0h205.8v205.8H0V0z M133.2,76.7v35l-30.3,17.5l-30.3-17.5v-35L42.3,94.2v35l60.6,35l60.6-35v-35L133.2,76.7z
  		 M102.9,76.7l30.3-17.5l-30.3-17.5L72.6,59.2L102.9,76.7z"
      />
      <g>
        <rect width="205.8" height="205.8" fill="#fff" />
        <path
          d="M0,0h205.8v205.8H0V0z M133.2,76.7v35l-30.3,17.5l-30.3-17.5v-35L42.3,94.2v35l60.6,35l60.6-35v-35L133.2,76.7z
    		 M102.9,76.7l30.3-17.5l-30.3-17.5L72.6,59.2L102.9,76.7z"
        />
        <g>
          <path
            d="M247,104.4h12.9c0.7,6.1,4.6,8.8,11.8,8.8c4.9,0,9.6-2,9.6-6.5c0-4.9-4.7-5.9-12.8-7.8c-10.9-2.5-19.7-5.2-19.7-16.8
    			c0-11.5,9.4-16.8,21.7-16.8s21,5.7,21.8,16.6h-12.5c-0.7-4.3-4.1-6.9-9.7-6.9c-5.2,0-8.8,2.2-8.8,5.8c0,4.4,4.8,5.3,13.6,7.3
    			c10,2.2,19.3,5.5,19.3,17.3c0,11.5-9.8,18-22.5,18C256.8,123.4,247.4,116.5,247,104.4z"
          />
          <path
            d="M297.7,82.1h6V69.4h11.5v12.7h7.8v7.5h-7.8v19.8c0,3,1.7,3.8,4.4,3.8c0.8,0,2-0.1,2.7-0.2h0.6v8.8
    			c-1.3,0.2-3.7,0.6-6.8,0.6c-7.4,0-12.5-2.4-12.5-10.5V89.6h-6V82.1z"
          />
          <path
            d="M354.2,117.2H354c-2.6,3.7-5.9,5.9-12.1,5.9c-7.9,0-13.6-4.2-13.6-12.1c0-8.9,7-11.1,15.7-12.1c7.1-1,10-2.1,10-5.1
    			c0-2.8-1.9-4.8-5.9-4.8c-4.5,0-6.7,2.1-7,5.2h-10.9c0.3-6.8,5.8-13.2,17.7-13.2c5.1,0,8.7,0.8,11.5,2.4c4.1,2.4,6.1,6.5,6.1,11.9
    			v20.5c0,3.1,0.5,4.9,1.5,5.5v0.7h-11.5C354.9,121.1,354.4,119.4,354.2,117.2z M354.3,107.7v-5.2c-1.7,1-4.3,1.6-6.9,2.2
    			c-5.2,1.1-7.6,2.4-7.6,5.9s2.6,4.7,5.8,4.7C350.9,115.4,354.3,112.1,354.3,107.7z"
          />
          <path
            d="M370.8,82.1h6V69.4h11.5v12.7h7.8v7.5h-7.8v19.8c0,3,1.7,3.8,4.4,3.8c0.8,0,2-0.1,2.7-0.2h0.6v8.8
    			c-1.3,0.2-3.7,0.6-6.8,0.6c-7.4,0-12.5-2.4-12.5-10.5V89.6h-6V82.1z"
          />
          <path
            d="M400.4,102.2c0-12,8.3-21.1,20.5-21.1c5.7,0,10.2,1.9,13.7,5.1c4.5,4.3,6.5,11.1,6.4,19h-29.1c0.8,6,4,9.6,9.7,9.6
    			c3.7,0,6-1.4,7.3-3.9h11.4c-2,7-8.5,12.5-18.8,12.5C408.4,123.2,400.4,114.1,400.4,102.2z M412,98.3h17c-0.4-5.5-3.5-8.9-8.2-8.9
    			C415.5,89.3,412.8,92.8,412,98.3z"
          />
          <path
            d="M458.4,88.2h0.2c2.5-4.8,6.7-7.2,12.3-7.2c8.8,0,13.9,5.9,13.9,14.8V122h-11.7V98c0-4.3-2.3-7.3-6.7-7.3
    			c-4.6,0-7.6,3.7-7.6,8.8V122H447V82.1h11.4V88.2z"
          />
          <path
            d="M489.7,109.7h11.1c0.7,3.8,3.5,5.8,8.1,5.8c4.2,0,6.6-1.7,6.6-4.6c0-3.6-4.7-4-10.3-5.1c-7.1-1.4-14.3-3.2-14.3-12.5
    			c0-8.2,7.4-12.4,16.8-12.4c11.1,0,16.6,4.8,17.7,11.8h-11c-0.8-2.8-3-4.3-6.7-4.3c-3.6,0-5.9,1.5-5.9,4c0,3,4.3,3.4,9.8,4.4
    			c7.1,1.3,15.2,3.1,15.2,13.2c0,8.6-7.6,13.1-18,13.1C497.3,123.3,490.3,117.8,489.7,109.7z"
          />
          <path d="M550.7,66.2h11.9v10.3h-11.9V66.2z M550.8,82.1h11.8V122h-11.8V82.1z" />
          <path
            d="M581.7,88.2h0.2c2.5-4.8,6.8-7.2,12.3-7.2c8.8,0,13.9,5.9,13.9,14.8V122h-11.7V98c0-4.3-2.3-7.3-6.7-7.3
    			c-4.6,0-7.6,3.7-7.6,8.8V122h-11.8V82.1h11.4V88.2z"
          />
          <path
            d="M627,88.2h0.2c2.5-4.8,6.8-7.2,12.3-7.2c8.8,0,13.9,5.9,13.9,14.8V122h-11.7V98c0-4.3-2.3-7.3-6.7-7.3
    			c-4.6,0-7.6,3.7-7.6,8.8V122h-11.8V82.1H627V88.2z"
          />
          <path
            d="M676.5,104.6l-4,4.1V122h-11.6V66.2h11.6v17.4c0,5.8-0.2,10.3-0.4,12.8l13.1-14.3H699l-14.2,14.8l15.9,25.1H687
    			L676.5,104.6z"
          />
          <path
            d="M716.5,89.3h0.2c2.5-5.5,6.2-7.8,11.1-7.8c1.1,0,2,0.1,2.5,0.3V92H730c-0.8-0.1-1.6-0.2-2.5-0.2
    			c-6.4-0.1-10.6,3.9-10.6,11.7V122h-11.8V82.1h11.3V89.3z"
          />
          <path
            d="M733.3,102.2c0-12,8.3-21.1,20.5-21.1c5.7,0,10.2,1.9,13.7,5.1c4.5,4.3,6.5,11.1,6.4,19h-29.1c0.8,6,4,9.6,9.7,9.6
    			c3.7,0,6-1.4,7.3-3.9h11.4c-2,7-8.5,12.5-18.8,12.5C741.3,123.2,733.3,114.1,733.3,102.2z M744.9,98.3h17
    			c-0.4-5.5-3.5-8.9-8.2-8.9C748.4,89.3,745.7,92.8,744.9,98.3z"
          />
          <path d="M775.2,82.1h12.1l4.9,16c1.6,5.3,3.1,14,3.1,14h0.2c0,0,1.5-8.6,3.1-14l5-16h11.8l-14,39.9H789L775.2,82.1z" />
          <path d="M819.9,66.2h11.9v10.3h-11.9V66.2z M819.9,82.1h11.8V122h-11.8V82.1z" />
          <path
            d="M850.9,88.2h0.2c2.5-4.8,6.8-7.2,12.3-7.2c8.8,0,13.9,5.9,13.9,14.8V122h-11.7V98c0-4.3-2.3-7.3-6.7-7.3
    			c-4.6,0-7.6,3.7-7.6,8.8V122h-11.8V82.1h11.4V88.2z"
          />
          <path
            d="M884.1,123.5h11.5c0.8,2.4,3,4,7.6,4c5.5,0,8.3-2.8,8.3-7.7V119c0-2,0.1-3.9,0.2-5.2h-0.3c-2.3,3.9-5.8,5.8-10.8,5.8
    			c-9.2,0-17.4-6.8-17.4-18.9c0-11.6,7-19.6,16.8-19.6c5.4,0,9.2,1.8,11.5,6.2h0.2v-5.1h11.2v36.4c0,5.9-1.9,10.2-5.2,13
    			c-3.4,3-8.5,4.3-14.4,4.3C892.4,135.9,885.3,131.3,884.1,123.5z M911.9,100.3c0-5.9-2.9-10.3-8.7-10.3c-5.2,0-8.4,4-8.4,10.4
    			c0,6.3,3.2,10.4,8.5,10.4C909.2,110.7,911.9,106.2,911.9,100.3z"
          />
          <path d="M245.1,183.9h21.6v3.5h-21.6V183.9z" />
          <path
            d="M279.7,185.5c0-6.7,4.4-12.2,11.1-12.2c3.5,0,6.1,1.3,7.9,3.6c1.9,2.3,2.9,5.6,2.9,9.5h-17.8c0.3,4.5,2.8,8,7.3,8
    			c3.2,0,5.4-1.5,6.1-4h3.9c-1,4.3-4.8,7.3-10.1,7.3C283.9,197.7,279.7,192.2,279.7,185.5z M283.9,183.5h13.4
    			c-0.2-4.5-2.5-7.1-6.5-7.1C286.7,176.4,284.4,179.4,283.9,183.5z"
          />
          <path
            d="M309.9,177.1h0.1c1.7-2.3,4-3.8,7.3-3.8c4.8,0,7.8,2.7,7.8,7.6V197h-4v-15.7c0-3-1.9-4.7-5.1-4.7c-3.6,0-6.2,2.5-6.2,6.3
    			V197h-4v-23.2h4V177.1z"
          />
          <path
            d="M340.8,185.5c0-7.6,4.4-12.2,10.2-12.2c3.3,0,5.9,1.6,7.3,4.1h0.1c-0.1-1-0.1-2.7-0.1-4.3v-8.2h4V197h-4v-3.3h-0.1
    			c-1.5,2.5-3.9,4-7.2,4C344.8,197.7,340.8,193,340.8,185.5z M358.5,185.6c0-5.2-2.5-8.9-7.1-8.9c-4.3,0-6.4,3.8-6.4,8.9
    			c0,5.1,2.2,8.9,6.4,8.9C356.3,194.4,358.5,190.7,358.5,185.6z"
          />
          <path
            d="M366.6,185.5c0-6.7,4.4-12.2,11.1-12.2c3.5,0,6.1,1.3,7.9,3.6c1.9,2.3,2.9,5.6,2.9,9.5h-17.8c0.3,4.5,2.8,8,7.3,8
    			c3.2,0,5.4-1.5,6.1-4h3.9c-1,4.3-4.8,7.3-10.1,7.3C370.8,197.7,366.6,192.2,366.6,185.5z M370.8,183.5h13.4
    			c-0.2-4.5-2.5-7.1-6.5-7.1C373.5,176.4,371.3,179.4,370.8,183.5z"
          />
          <path d="M392.9,164.9h4V197h-4V164.9z" />
          <path
            d="M413.1,190.9c0-5.4,4-6.6,10-7.3c3.4-0.4,5.6-1,5.6-3.3c0-2.5-1.8-4.1-5-4.1c-3.7,0-5.4,1.7-5.6,4.5h-3.9
    			c0.2-3.9,3.2-7.4,9.4-7.4c2.2,0,4.1,0.4,5.6,1.3c1.9,1.2,3.1,3.2,3.1,6.3v10.8c0,1.9,0.4,2.9,2.5,2.4h0.2v2.8
    			c-0.6,0.2-1.2,0.3-2.2,0.3c-2.5,0-3.7-1.2-4.1-3.6h0c-1.5,2-3.8,3.9-7.8,3.9C416.6,197.5,413.1,195.4,413.1,190.9z M428.7,188.5
    			v-3.8c-1.2,0.7-3.2,1.3-5.1,1.6c-3.8,0.6-6.3,1.3-6.3,4.5c0,3,2.3,3.7,4.6,3.7C426.6,194.6,428.7,191.2,428.7,188.5z"
          />
          <path d="M435.6,173.8h4.3l4.1,12.5c1,3.1,2.1,7.4,2.1,7.4h0.1c0,0,1-4.3,2-7.4l4.1-12.5h4.1l-8.3,23.2h-4.4L435.6,173.8z" />
          <path
            d="M469.5,186.6h4.4c0.5,4.8,3.7,7.5,9.5,7.5c4.3,0,7.4-1.9,7.4-5.8c0-4.2-3.7-5.2-9.3-6.4c-5.7-1.2-10.6-2.9-10.6-9
    			c0-5.4,4.5-8.6,11.1-8.6c7.9,0,11.4,4,12.2,9.5h-4.3c-0.6-3.9-3.4-6-7.9-6c-4.2,0-7,1.7-7,4.9c0,3.5,3.5,4.5,8.3,5.5
    			c6.2,1.3,11.9,2.9,11.9,10c0,6.1-5,9.5-12,9.5C474.3,197.7,469.8,192.8,469.5,186.6z"
          />
          <path d="M507.2,184.8l-3.3,3.1v9.1h-4v-32.1h4v15.2c0,0.8-0.1,2.5-0.2,3.6l10.1-9.9h5l-8.9,8.3l9.9,14.9h-4.7L507.2,184.8z" />
          <path
            d="M522,190.9c0-5.4,4-6.6,10-7.3c3.4-0.4,5.6-1,5.6-3.3c0-2.5-1.8-4.1-5-4.1c-3.7,0-5.4,1.7-5.6,4.5h-3.9
    			c0.2-3.9,3.2-7.4,9.4-7.4c2.2,0,4.1,0.4,5.6,1.3c1.9,1.2,3.1,3.2,3.1,6.3v10.8c0,1.9,0.4,2.9,2.5,2.4h0.2v2.8
    			c-0.6,0.2-1.2,0.3-2.2,0.3c-2.5,0-3.7-1.2-4.1-3.6h0c-1.5,2-3.8,3.9-7.8,3.9C525.4,197.5,522,195.4,522,190.9z M537.6,188.5v-3.8
    			c-1.2,0.7-3.2,1.3-5.1,1.6c-3.8,0.6-6.3,1.3-6.3,4.5c0,3,2.3,3.7,4.6,3.7C535.4,194.6,537.6,191.2,537.6,188.5z"
          />
          <path
            d="M545.3,173.8h3.6v-7.3h4v7.3h4.8v3.1h-4.8v14.6c0,1.7,0.9,2.2,2.4,2.2c0.7,0,1.6-0.2,2-0.3h0.1v3.4
    			c-1.1,0.3-2.2,0.4-3.2,0.4c-3.1,0-5.3-1.3-5.3-4.7V177h-3.6V173.8z"
          />
          <path
            d="M559.8,173.8h3.6v-7.3h4v7.3h4.8v3.1h-4.8v14.6c0,1.7,0.9,2.2,2.4,2.2c0.7,0,1.6-0.2,2-0.3h0.1v3.4
    			c-1.1,0.3-2.2,0.4-3.2,0.4c-3.1,0-5.3-1.3-5.3-4.7V177h-3.6V173.8z"
          />
          <path
            d="M575,185.5c0-6.7,4.4-12.2,11.1-12.2c3.5,0,6.1,1.3,7.9,3.6c1.9,2.3,2.9,5.6,2.9,9.5h-17.8c0.3,4.5,2.8,8,7.3,8
    			c3.2,0,5.4-1.5,6.1-4h3.9c-1,4.3-4.8,7.3-10.1,7.3C579.2,197.7,575,192.2,575,185.5z M579.2,183.5h13.4c-0.2-4.5-2.5-7.1-6.5-7.1
    			C581.9,176.4,579.7,179.4,579.2,183.5z"
          />
          <path
            d="M599.9,185.5c0-6.7,4.4-12.2,11.1-12.2c3.5,0,6.1,1.3,7.9,3.6c1.9,2.3,2.9,5.6,2.9,9.5H604c0.3,4.5,2.8,8,7.3,8
    			c3.2,0,5.4-1.5,6.1-4h3.9c-1,4.3-4.8,7.3-10.1,7.3C604.1,197.7,599.9,192.2,599.9,185.5z M604.1,183.5h13.4
    			c-0.2-4.5-2.5-7.1-6.5-7.1C606.8,176.4,604.6,179.4,604.1,183.5z"
          />
          <path
            d="M624.2,173.8h3.6v-7.3h4v7.3h4.8v3.1h-4.8v14.6c0,1.7,0.9,2.2,2.4,2.2c0.7,0,1.6-0.2,2-0.3h0.1v3.4
    			c-1.1,0.3-2.2,0.4-3.2,0.4c-3.1,0-5.3-1.3-5.3-4.7V177h-3.6V173.8z"
          />
          <path
            d="M639.9,190.9c0-5.4,4-6.6,10-7.3c3.4-0.4,5.6-1,5.6-3.3c0-2.5-1.8-4.1-5-4.1c-3.7,0-5.4,1.7-5.6,4.5H641
    			c0.2-3.9,3.2-7.4,9.4-7.4c2.2,0,4.1,0.4,5.6,1.3c1.9,1.2,3.1,3.2,3.1,6.3v10.8c0,1.9,0.4,2.9,2.5,2.4h0.2v2.8
    			c-0.6,0.2-1.2,0.3-2.2,0.3c-2.5,0-3.7-1.2-4.1-3.6h0c-1.5,2-3.8,3.9-7.8,3.9C643.3,197.5,639.9,195.4,639.9,190.9z M655.5,188.5
    			v-3.8c-1.2,0.7-3.2,1.3-5.1,1.6c-3.8,0.6-6.3,1.3-6.3,4.5c0,3,2.3,3.7,4.6,3.7C653.3,194.6,655.5,191.2,655.5,188.5z"
          />
          <path
            d="M663.2,173.8h3.6v-7.3h4v7.3h4.8v3.1h-4.8v14.6c0,1.7,0.9,2.2,2.4,2.2c0.7,0,1.6-0.2,2-0.3h0.1v3.4
    			c-1.1,0.3-2.2,0.4-3.2,0.4c-3.1,0-5.3-1.3-5.3-4.7V177h-3.6V173.8z"
          />
          <path
            d="M678.3,185.5c0-6.7,4.4-12.2,11.1-12.2c3.5,0,6.1,1.3,7.9,3.6c1.9,2.3,2.9,5.6,2.9,9.5h-17.8c0.3,4.5,2.8,8,7.3,8
    			c3.2,0,5.4-1.5,6.1-4h3.9c-1,4.3-4.8,7.3-10.1,7.3C682.5,197.7,678.3,192.2,678.3,185.5z M682.5,183.5H696
    			c-0.2-4.5-2.5-7.1-6.5-7.1C685.3,176.4,683.1,179.4,682.5,183.5z"
          />
          <path
            d="M708.5,177.1h0.1c1.7-2.3,4-3.8,7.3-3.8c4.8,0,7.8,2.7,7.8,7.6V197h-4v-15.7c0-3-1.9-4.7-5.1-4.7c-3.6,0-6.2,2.5-6.2,6.3
    			V197h-4v-23.2h4V177.1z"
          />
        </g>
      </g>
    </g>
  </svg>
