<?xml version="1.0" encoding="utf-8"?>
<!-- Generator: Adobe Illustrator 24.3.0, SVG Export Plug-In . SVG Version: 6.00 Build 0)  -->
<svg version="1.1" id="Layer_1" xmlns="http://www.w3.org/2000/svg" xmlns:xlink="http://www.w3.org/1999/xlink" x="0px" y="0px"
	 viewBox="0 0 500 542.5" style="enable-background:new 0 0 500 542.5;" xml:space="preserve">
<style type="text/css">
	.st0{fill:#FFFFFF;}
</style>
<g>
	<g>
		<g>
			<path class="st0" d="M0,428.5h34.5v6.8H21.2v35.7h-8v-35.7H0V428.5z"/>
			<path class="st0" d="M46.7,442.1c0,1-0.1,2-0.1,2.8h0.2c1-1.6,2.3-2.9,3.9-3.8c1.5-0.9,3.4-1.4,5.6-1.4c3.3,0,5.9,0.9,7.7,2.8
				s2.8,4.5,2.8,7.8v20.7h-7.3v-19.5c0-1.8-0.5-3.3-1.5-4.3c-1-1-2.4-1.5-4.3-1.5c-1,0-2,0.2-2.8,0.5c-0.8,0.4-1.6,0.9-2.2,1.5
				c-0.6,0.7-1.1,1.5-1.4,2.4c-0.3,0.9-0.5,1.9-0.5,3v17.9h-7.3v-42.5h7.3V440C46.7,440.4,46.7,441.1,46.7,442.1z"/>
			<path class="st0" d="M87.1,472c-2.4,0-4.6-0.4-6.5-1.3s-3.6-2-4.9-3.4c-1.3-1.4-2.4-3.2-3.1-5.1s-1.1-4.1-1.1-6.3
				c0-2.3,0.4-4.4,1.1-6.4c0.7-2,1.8-3.7,3.1-5.1c1.3-1.5,2.9-2.6,4.8-3.4c1.9-0.8,3.9-1.2,6.2-1.2c2.2,0,4.2,0.4,6,1.1
				c1.7,0.7,3.2,1.8,4.5,3.2c1.5,1.6,2.6,3.6,3.3,5.9c0.7,2.3,1.1,4.9,1,7.7H78.8c0.3,2.6,1.1,4.8,2.5,6.4c1.4,1.6,3.4,2.4,5.9,2.4
				c1.7,0,3.2-0.4,4.3-1.1c1.1-0.7,1.9-1.7,2.4-2.9h7.1c-0.4,1.4-1,2.6-1.7,3.8c-0.8,1.2-1.8,2.2-2.9,3c-1.2,0.9-2.5,1.5-4.1,2
				C90.7,471.7,89,472,87.1,472z M86.7,445c-2.4,0-4.2,0.7-5.5,2.2c-1.3,1.5-2,3.4-2.3,5.8h15.2c-0.1-2.5-0.9-4.5-2.1-5.9
				C90.7,445.7,88.9,445,86.7,445z"/>
			<path class="st0" d="M121.8,428.5h8.1l14.1,22.3c0.6,0.9,1.2,2,1.8,3.1c0.6,1.1,1.2,2.2,1.7,3.2c0.6,1.2,1.2,2.4,1.8,3.5h0.2
				c-0.1-1.3-0.1-2.6-0.2-3.8c-0.1-1.1-0.1-2.3-0.2-3.5c0-1.3-0.1-2.4-0.1-3.5v-21.3h7.5v42.5h-8.1l-14.1-22.2
				c-0.6-0.9-1.2-2-1.8-3.2c-0.6-1.2-1.2-2.2-1.7-3.2c-0.6-1.2-1.2-2.4-1.8-3.5h-0.1c0,1.3,0.1,2.6,0.2,3.8c0.1,1.1,0.1,2.3,0.2,3.5
				c0,1.3,0.1,2.4,0.1,3.5v21.3h-7.5V428.5z"/>
			<path class="st0" d="M177.9,472c-2.4,0-4.5-0.4-6.4-1.3c-1.9-0.8-3.6-2-4.9-3.4c-1.3-1.4-2.4-3.2-3.1-5.1s-1.1-4.1-1.1-6.3
				c0-2.3,0.4-4.4,1.1-6.4s1.8-3.7,3.1-5.1c1.4-1.5,3-2.6,4.9-3.4c1.9-0.8,4.1-1.2,6.4-1.2s4.5,0.4,6.4,1.2c1.9,0.8,3.5,2,4.9,3.4
				c1.4,1.4,2.4,3.1,3.1,5.1s1.1,4.1,1.1,6.4c0,2.3-0.4,4.4-1.1,6.3s-1.8,3.7-3.1,5.1c-1.3,1.5-3,2.6-4.9,3.4S180.2,472,177.9,472z
				 M177.8,466.5c1.3,0,2.5-0.3,3.5-0.8c1-0.5,1.9-1.3,2.5-2.2c0.7-1,1.2-2.1,1.6-3.4c0.4-1.3,0.5-2.7,0.5-4.2
				c0-1.5-0.2-2.9-0.5-4.3c-0.4-1.3-0.9-2.5-1.6-3.4c-0.7-1-1.5-1.7-2.5-2.3c-1-0.5-2.2-0.8-3.5-0.8c-1.3,0-2.5,0.3-3.5,0.8
				c-1,0.5-1.9,1.3-2.6,2.3c-0.7,1-1.2,2.1-1.5,3.4c-0.3,1.3-0.5,2.7-0.5,4.3c0,1.5,0.2,2.9,0.5,4.2c0.3,1.3,0.9,2.4,1.5,3.4
				c0.7,0.9,1.5,1.7,2.6,2.2C175.3,466.2,176.5,466.5,177.8,466.5z"/>
			<path class="st0" d="M205.4,446h0.2c1.9-4,4.9-5.9,8.8-5.9c0.9,0,1.5,0.1,1.9,0.3v6.5h-0.2c-0.6-0.1-1.3-0.2-2-0.2
				c-2.4,0-4.4,0.7-6,2.3c-1.6,1.6-2.4,3.8-2.4,6.8v15.3h-7.3v-30.5h7V446z"/>
			<path class="st0" d="M218.8,440.5h7.5l3.9,14.2c0.2,0.9,0.5,1.9,0.7,2.9c0.2,1.1,0.4,2.1,0.6,3c0.2,1.1,0.4,2.2,0.6,3.3h0.1
				c0.2-1.1,0.4-2.1,0.6-3.2c0.2-0.9,0.4-1.9,0.6-3c0.2-1.1,0.5-2.1,0.7-3l3.8-14.2h6.4l3.9,14.2c0.2,0.9,0.5,1.8,0.7,2.9
				c0.2,1.1,0.4,2.1,0.6,3c0.2,1.1,0.4,2.2,0.6,3.3h0.1c0.2-1.1,0.4-2.2,0.6-3.3c0.2-0.9,0.4-1.9,0.6-3c0.2-1.1,0.5-2.1,0.8-3
				l4.1-14.2h7.3l-9.7,30.5h-7l-3.8-14.5c-0.2-0.8-0.4-1.7-0.6-2.7c-0.2-1-0.4-2-0.6-2.9c-0.2-1.1-0.4-2.2-0.6-3.3h-0.1
				c-0.2,1.1-0.5,2.2-0.7,3.3c-0.2,0.9-0.4,1.9-0.6,2.9c-0.2,1-0.4,1.9-0.6,2.7l-3.9,14.5h-7L218.8,440.5z"/>
			<path class="st0" d="M280.7,472c-2.4,0-4.6-0.4-6.5-1.3s-3.6-2-4.9-3.4c-1.3-1.4-2.4-3.2-3.1-5.1c-0.7-2-1.1-4.1-1.1-6.3
				c0-2.3,0.4-4.4,1.1-6.4c0.7-2,1.8-3.7,3.1-5.1c1.3-1.5,2.9-2.6,4.8-3.4c1.9-0.8,3.9-1.2,6.2-1.2c2.2,0,4.2,0.4,6,1.1
				c1.7,0.7,3.2,1.8,4.5,3.2c1.5,1.6,2.6,3.6,3.3,5.9c0.7,2.3,1.1,4.9,1,7.7h-22.8c0.3,2.6,1.1,4.8,2.5,6.4c1.4,1.6,3.4,2.4,5.9,2.4
				c1.7,0,3.2-0.4,4.3-1.1c1.1-0.7,1.9-1.7,2.4-2.9h7.1c-0.4,1.4-1,2.6-1.7,3.8c-0.8,1.2-1.8,2.2-2.9,3s-2.5,1.5-4.1,2
				C284.2,471.7,282.5,472,280.7,472z M280.3,445c-2.4,0-4.2,0.7-5.5,2.2c-1.3,1.5-2,3.4-2.3,5.8h15.2c-0.1-2.5-0.9-4.5-2.1-5.9
				C284.2,445.7,282.5,445,280.3,445z"/>
			<path class="st0" d="M313.7,481.7c-4.1,0-7.4-0.8-9.8-2.4c-2.4-1.6-3.8-3.8-4.2-6.7h7c0.5,2.5,2.8,3.8,6.9,3.8
				c4.9,0,7.4-2.2,7.4-6.7v-0.7c0-0.8,0-1.6,0-2.3c0-0.7,0-1.4,0.1-1.9H321c-1,1.5-2.1,2.7-3.5,3.5c-1.4,0.8-3.1,1.2-5.1,1.2
				c-1.9,0-3.6-0.3-5.2-1c-1.6-0.7-3-1.7-4.2-2.9c-1.2-1.3-2.1-2.8-2.8-4.6c-0.7-1.8-1-3.9-1-6.1c0-2.3,0.3-4.4,1-6.2
				c0.7-1.9,1.6-3.4,2.7-4.7c1.1-1.3,2.5-2.3,4.1-3c1.6-0.7,3.3-1.1,5.1-1.1c4.2,0,7.2,1.6,9,4.7h0.1v-3.9h7v28.5c0,2.2-0.3,4-1,5.6
				c-0.7,1.6-1.6,2.9-2.8,3.9c-1.3,1.1-2.8,1.8-4.6,2.3C317.9,481.4,315.9,481.7,313.7,481.7z M313.6,463.8c1.4,0,2.5-0.2,3.5-0.7
				c1-0.5,1.8-1.1,2.4-1.9c0.6-0.8,1.1-1.8,1.3-2.9c0.3-1.1,0.4-2.4,0.4-3.7c0-2.7-0.6-4.9-1.9-6.6c-1.3-1.7-3.2-2.5-5.8-2.5
				c-2.4,0-4.2,0.8-5.5,2.5c-1.3,1.7-1.9,3.9-1.9,6.7s0.6,5.1,1.9,6.7C309.4,463,311.2,463.8,313.6,463.8z"/>
			<path class="st0" d="M333.5,428.5h7.4v7h-7.4V428.5z M333.6,440.5h7.3v30.5h-7.3V440.5z"/>
			<path class="st0" d="M367.2,471.1c-0.3-0.3-0.5-0.8-0.7-1.5c-0.2-0.6-0.3-1.5-0.4-2.5h-0.1c-1,1.3-2.2,2.4-3.7,3.3
				s-3.5,1.3-5.9,1.3c-1.5,0-2.9-0.2-4.1-0.6c-1.3-0.4-2.4-0.9-3.3-1.7c-0.9-0.8-1.6-1.7-2.2-2.8c-0.5-1.1-0.8-2.4-0.8-3.9
				c0-1.7,0.3-3.1,0.9-4.3c0.6-1.1,1.5-2,2.6-2.7c1.1-0.7,2.4-1.2,3.9-1.6c1.5-0.4,3.2-0.7,5-0.9c2.5-0.3,4.4-0.7,5.7-1.3
				s1.9-1.5,1.9-2.9c0-1.3-0.5-2.4-1.4-3.2s-2.3-1.2-4.1-1.2c-2.1,0-3.6,0.4-4.6,1.3c-1,0.9-1.6,2.1-1.6,3.6h-6.9
				c0-1.3,0.3-2.5,0.9-3.7c0.5-1.2,1.4-2.3,2.5-3.2c1.1-0.9,2.4-1.6,4-2.2s3.5-0.8,5.7-0.8c1.8,0,3.3,0.1,4.7,0.4
				c1.4,0.3,2.5,0.7,3.5,1.4c2.9,1.8,4.3,4.7,4.3,8.7v16.1c0,1.3,0.1,2.2,0.3,2.9c0.2,0.7,0.5,1.1,0.8,1.4v0.5H367.2z M358.6,466.8
				c1.3,0,2.4-0.2,3.3-0.6c0.9-0.4,1.7-0.9,2.4-1.5c0.6-0.6,1.1-1.4,1.5-2.2c0.3-0.8,0.5-1.7,0.5-2.5v-4.5c-0.7,0.5-1.6,0.9-2.7,1.2
				c-1.1,0.3-2.1,0.6-3.3,0.8c-2.3,0.4-4,1-5.2,1.6c-1.2,0.7-1.8,1.8-1.8,3.5c0,0.8,0.1,1.5,0.4,2c0.3,0.5,0.7,1,1.1,1.3
				s1,0.5,1.7,0.7C357.3,466.8,357.9,466.8,358.6,466.8z"/>
			<path class="st0" d="M384.6,445h0.2c1-1.7,2.3-3,3.9-3.9c1.6-0.9,3.5-1.3,5.6-1.3c3.3,0,5.9,0.9,7.7,2.8c1.9,1.9,2.8,4.5,2.8,7.8
				v20.7h-7.3v-19.5c0-1.8-0.5-3.3-1.5-4.3c-1-1-2.4-1.5-4.3-1.5c-1,0-2,0.2-2.8,0.5s-1.6,0.9-2.2,1.5c-0.6,0.7-1.1,1.5-1.4,2.4
				c-0.3,0.9-0.5,1.9-0.5,3v17.9h-7.3v-30.5h7.1V445z"/>
			<path class="st0" d="M0,499h34.5v6.8H21.2v35.7h-8v-35.7H0V499z"/>
			<path class="st0" d="M52.6,541.5c-0.3-0.3-0.5-0.8-0.7-1.5c-0.2-0.6-0.3-1.5-0.4-2.5h-0.1c-1,1.3-2.2,2.5-3.7,3.3
				c-1.5,0.9-3.5,1.3-5.9,1.3c-1.5,0-2.9-0.2-4.1-0.6c-1.3-0.4-2.4-1-3.3-1.7c-0.9-0.8-1.6-1.7-2.2-2.8c-0.5-1.1-0.8-2.4-0.8-3.9
				c0-1.7,0.3-3.1,0.9-4.3c0.6-1.1,1.5-2,2.6-2.7c1.1-0.7,2.4-1.2,3.9-1.6c1.5-0.4,3.2-0.7,5-0.9c2.5-0.3,4.4-0.7,5.7-1.3
				c1.3-0.5,1.9-1.5,1.9-2.9c0-1.3-0.5-2.4-1.4-3.2c-0.9-0.8-2.3-1.2-4.1-1.2c-2.1,0-3.6,0.4-4.6,1.3c-1,0.9-1.6,2.1-1.6,3.6H33
				c0-1.3,0.3-2.5,0.9-3.7c0.5-1.2,1.4-2.3,2.5-3.2c1.1-0.9,2.4-1.6,4-2.2c1.6-0.5,3.5-0.8,5.7-0.8c1.8,0,3.3,0.1,4.7,0.4
				c1.4,0.3,2.5,0.7,3.5,1.4c2.9,1.7,4.3,4.7,4.3,8.7v16.1c0,1.3,0.1,2.2,0.3,2.9c0.2,0.7,0.5,1.1,0.8,1.4v0.5H52.6z M44,537.3
				c1.3,0,2.4-0.2,3.3-0.6c0.9-0.4,1.7-0.9,2.4-1.5c0.6-0.6,1.1-1.3,1.5-2.2c0.3-0.8,0.5-1.7,0.5-2.5v-4.5c-0.7,0.5-1.6,0.8-2.7,1.2
				c-1.1,0.3-2.1,0.6-3.3,0.8c-2.3,0.4-4,1-5.2,1.6s-1.8,1.8-1.8,3.5c0,0.8,0.1,1.5,0.4,2c0.3,0.5,0.7,1,1.1,1.3
				c0.5,0.3,1,0.6,1.7,0.7C42.7,537.2,43.3,537.3,44,537.3z"/>
			<path class="st0" d="M73.7,525.5L63.8,511h8.3l3,4.8c0.3,0.5,0.6,1.1,0.9,1.7c0.3,0.6,0.6,1.2,0.9,1.7c0.3,0.7,0.7,1.3,1,1.9h0.1
				c0.3-0.6,0.6-1.3,1-1.9c0.3-0.5,0.6-1.1,0.9-1.7c0.3-0.6,0.6-1.2,0.9-1.7l3.1-4.8h7.8l-9.7,14.2l11.2,16.3H85l-4-6.1
				c-0.3-0.5-0.7-1.1-1.1-1.8c-0.4-0.7-0.7-1.3-1-1.9c-0.4-0.7-0.7-1.4-1-2.1h-0.1c-0.3,0.7-0.7,1.4-1.1,2.1c-0.3,0.6-0.7,1.3-1,1.9
				c-0.4,0.7-0.7,1.3-1,1.8l-4.1,6.1h-8L73.7,525.5z"/>
			<path class="st0" d="M125.2,499h8.5l15.5,42.5h-8.5l-3.4-10.1h-16.1l-3.4,10.1h-8L125.2,499z M123.2,525.6h12.2l-3.3-9.8
				c-0.4-1.3-0.8-2.5-1.1-3.7c-0.3-1.2-0.6-2.3-0.8-3.3c-0.3-1.1-0.5-2.2-0.7-3.3h-0.1c-0.3,1.2-0.6,2.4-0.9,3.6
				c-0.3,1-0.6,2.1-0.9,3.3c-0.3,1.2-0.7,2.3-1,3.3L123.2,525.6z"/>
			<path class="st0" d="M163.9,542.5c-2,0-3.9-0.4-5.5-1.1c-1.6-0.7-3-1.8-4.2-3.2c-1.1-1.4-2-3.1-2.7-5.1c-0.6-2-0.9-4.2-0.9-6.7
				c0-2.4,0.3-4.7,1-6.6c0.7-2,1.6-3.7,2.7-5.1c1.2-1.4,2.6-2.5,4.2-3.3s3.4-1.1,5.3-1.1c2.1,0,4,0.5,5.5,1.4
				c1.6,0.9,2.8,2.2,3.8,3.8h0.1c-0.1-0.8-0.1-1.8-0.2-2.9c0-1.1-0.1-2.3-0.1-3.4V499h7.3v42.5h-7v-4.5h-0.1
				c-0.9,1.8-2.2,3.1-3.8,4.1C167.9,542.1,166,542.5,163.9,542.5z M165.4,536.6c1.3,0,2.5-0.3,3.5-0.7c1-0.5,1.9-1.2,2.5-2.1
				c0.7-0.9,1.2-2,1.5-3.3c0.3-1.3,0.5-2.6,0.5-4.1c0-1.5-0.2-2.9-0.5-4.2c-0.3-1.3-0.9-2.4-1.5-3.3c-0.7-0.9-1.5-1.7-2.5-2.2
				c-1-0.5-2.2-0.8-3.5-0.8c-1.2,0-2.3,0.3-3.2,0.8c-0.9,0.5-1.7,1.2-2.3,2.2c-0.6,0.9-1.1,2-1.4,3.3c-0.3,1.3-0.5,2.7-0.5,4.1
				c0,3.1,0.6,5.5,1.8,7.4C161.1,535.6,162.9,536.6,165.4,536.6z"/>
			<path class="st0" d="M187.1,511h7v4.6h0.2c1-1.7,2.2-3.1,3.7-4c1.5-0.9,3.3-1.4,5.4-1.4c1.9,0,3.6,0.5,5,1.4
				c1.4,0.9,2.4,2.4,3.1,4.3h0.1c1.2-2,2.7-3.4,4.3-4.3c1.6-0.9,3.4-1.4,5.3-1.4c3.1,0,5.6,0.9,7.3,2.8c1.7,1.9,2.6,4.5,2.6,7.8
				v20.7h-7.3v-19.7c0-1.8-0.5-3.1-1.4-4.1c-0.9-1-2.1-1.5-3.6-1.5c-1.8,0-3.3,0.7-4.4,2c-1.2,1.3-1.7,3.1-1.7,5.3v18.1h-7.3v-19.7
				c0-1.8-0.4-3.1-1.3-4.1c-0.8-1-2-1.5-3.5-1.5c-0.8,0-1.6,0.2-2.4,0.5c-0.8,0.4-1.4,0.9-2,1.5c-0.6,0.6-1.1,1.4-1.4,2.3
				c-0.3,0.9-0.5,1.9-0.5,2.9v18.1h-7.3V511z"/>
			<path class="st0" d="M237.4,499h7.4v7h-7.4V499z M237.5,511h7.3v30.5h-7.3V511z"/>
			<path class="st0" d="M258.4,515.5h0.2c1-1.7,2.3-3,3.9-3.9c1.6-0.9,3.5-1.3,5.6-1.3c3.3,0,5.9,0.9,7.7,2.8
				c1.9,1.9,2.8,4.5,2.8,7.8v20.7h-7.3V522c0-1.8-0.5-3.3-1.5-4.3c-1-1-2.4-1.5-4.3-1.5c-1,0-2,0.2-2.8,0.5
				c-0.8,0.4-1.6,0.9-2.2,1.5c-0.6,0.7-1.1,1.5-1.4,2.4c-0.3,0.9-0.5,1.9-0.5,3v17.9h-7.3V511h7.1V515.5z"/>
			<path class="st0" d="M284.9,499h7.4v7h-7.4V499z M285,511h7.3v30.5H285V511z"/>
			<path class="st0" d="M311.1,542.5c-4.4,0-7.8-1-10.2-2.9c-2.4-1.9-3.7-4.4-4-7.5h7c0.3,1.8,1.1,3.2,2.4,4
				c1.3,0.8,2.9,1.2,4.9,1.2c2,0,3.5-0.4,4.5-1.2c0.9-0.8,1.4-1.8,1.4-3c0-0.8-0.2-1.4-0.6-1.9c-0.4-0.5-0.9-0.9-1.6-1.2
				c-0.7-0.3-1.5-0.6-2.5-0.8c-1-0.2-2-0.4-3.2-0.7c-1.4-0.3-2.8-0.6-4.2-1c-1.3-0.4-2.5-0.9-3.5-1.6c-1-0.7-1.9-1.5-2.5-2.6
				c-0.6-1.1-0.9-2.5-0.9-4.2c0-1.4,0.3-2.7,0.9-3.9c0.6-1.1,1.4-2.1,2.5-2.9c1-0.8,2.3-1.4,3.8-1.8c1.5-0.4,3.1-0.6,4.9-0.6
				c4.1,0,7.2,0.8,9.2,2.5c2.1,1.7,3.3,3.8,3.7,6.5H316c-0.5-2.7-2.6-4.1-6.1-4.1c-1.7,0-3,0.3-3.9,1c-0.9,0.7-1.3,1.6-1.3,2.6
				c0,0.7,0.2,1.2,0.6,1.7s0.9,0.8,1.6,1.1c0.7,0.3,1.5,0.5,2.5,0.7c0.9,0.2,2,0.4,3.1,0.6c1.5,0.3,2.9,0.6,4.2,0.9
				c1.4,0.4,2.6,0.9,3.7,1.6c1.1,0.7,2,1.6,2.6,2.8c0.6,1.2,1,2.7,1,4.5c0,1.6-0.3,3-1,4.2c-0.7,1.2-1.6,2.2-2.7,3.1
				c-1.2,0.8-2.5,1.4-4.1,1.9S312.9,542.5,311.1,542.5z"/>
			<path class="st0" d="M326.5,511h4.7v-9.7h7.1v9.7h6.1v5h-6.1v17.1c0,1.1,0.3,1.9,0.9,2.3c0.6,0.4,1.4,0.6,2.4,0.6
				c0.4,0,0.8,0,1.2-0.1c0.4,0,0.8-0.1,1.1-0.2h0.3v5.7c-0.6,0.1-1.3,0.2-2.1,0.3c-0.8,0.1-1.7,0.1-2.7,0.1c-1.2,0-2.3-0.1-3.4-0.4
				c-1-0.3-1.9-0.7-2.6-1.2c-0.7-0.5-1.3-1.3-1.7-2.2c-0.4-0.9-0.6-2-0.6-3.4V516h-4.7V511z"/>
			<path class="st0" d="M356.6,516.5h0.2c1.9-4,4.9-5.9,8.8-5.9c0.9,0,1.5,0.1,1.9,0.3v6.5h-0.2c-0.6-0.1-1.3-0.2-2-0.2
				c-2.4,0-4.4,0.7-6,2.3c-1.6,1.6-2.4,3.8-2.4,6.8v15.3h-7.3V511h7V516.5z"/>
			<path class="st0" d="M391.1,541.5c-0.3-0.3-0.5-0.8-0.7-1.5c-0.2-0.6-0.3-1.5-0.4-2.5h-0.1c-1,1.3-2.2,2.5-3.7,3.3
				c-1.5,0.9-3.5,1.3-5.9,1.3c-1.5,0-2.9-0.2-4.1-0.6c-1.3-0.4-2.4-1-3.3-1.7c-0.9-0.8-1.6-1.7-2.2-2.8c-0.5-1.1-0.8-2.4-0.8-3.9
				c0-1.7,0.3-3.1,0.9-4.3c0.6-1.1,1.5-2,2.6-2.7c1.1-0.7,2.4-1.2,3.9-1.6c1.5-0.4,3.2-0.7,5-0.9c2.5-0.3,4.4-0.7,5.7-1.3
				c1.3-0.5,1.9-1.5,1.9-2.9c0-1.3-0.5-2.4-1.4-3.2c-0.9-0.8-2.3-1.2-4.1-1.2c-2.1,0-3.6,0.4-4.6,1.3c-1,0.9-1.6,2.1-1.6,3.6h-6.9
				c0-1.3,0.3-2.5,0.9-3.7c0.5-1.2,1.4-2.3,2.5-3.2c1.1-0.9,2.4-1.6,4-2.2c1.6-0.5,3.5-0.8,5.7-0.8c1.8,0,3.3,0.1,4.7,0.4
				c1.4,0.3,2.5,0.7,3.5,1.4c2.9,1.7,4.3,4.7,4.3,8.7v16.1c0,1.3,0.1,2.2,0.3,2.9c0.2,0.7,0.5,1.1,0.8,1.4v0.5H391.1z M382.4,537.3
				c1.3,0,2.4-0.2,3.3-0.6c0.9-0.4,1.7-0.9,2.4-1.5c0.6-0.6,1.1-1.3,1.5-2.2c0.3-0.8,0.5-1.7,0.5-2.5v-4.5c-0.7,0.5-1.6,0.8-2.7,1.2
				s-2.1,0.6-3.3,0.8c-2.3,0.4-4,1-5.2,1.6s-1.8,1.8-1.8,3.5c0,0.8,0.1,1.5,0.4,2c0.3,0.5,0.7,1,1.1,1.3c0.5,0.3,1,0.6,1.7,0.7
				C381.1,537.2,381.8,537.3,382.4,537.3z"/>
			<path class="st0" d="M401.3,511h4.7v-9.7h7.1v9.7h6.1v5h-6.1v17.1c0,1.1,0.3,1.9,0.9,2.3c0.6,0.4,1.4,0.6,2.4,0.6
				c0.4,0,0.8,0,1.2-0.1c0.4,0,0.8-0.1,1.1-0.2h0.3v5.7c-0.6,0.1-1.3,0.2-2.1,0.3c-0.8,0.1-1.7,0.1-2.7,0.1c-1.2,0-2.3-0.1-3.4-0.4
				c-1-0.3-1.9-0.7-2.6-1.2c-0.7-0.5-1.3-1.3-1.7-2.2c-0.4-0.9-0.6-2-0.6-3.4V516h-4.7V511z"/>
			<path class="st0" d="M424.2,499h7.4v7h-7.4V499z M424.3,511h7.3v30.5h-7.3V511z"/>
			<path class="st0" d="M452.2,542.5c-2.4,0-4.5-0.4-6.4-1.3c-1.9-0.8-3.6-2-4.9-3.4c-1.3-1.5-2.4-3.2-3.1-5.1
				c-0.7-2-1.1-4.1-1.1-6.3c0-2.3,0.4-4.4,1.1-6.4c0.7-2,1.8-3.7,3.1-5.1c1.4-1.5,3-2.6,4.9-3.4c1.9-0.8,4.1-1.2,6.4-1.2
				c2.4,0,4.5,0.4,6.4,1.2c1.9,0.8,3.5,2,4.9,3.4c1.4,1.5,2.4,3.2,3.1,5.1c0.7,2,1.1,4.1,1.1,6.4c0,2.3-0.4,4.4-1.1,6.3
				c-0.7,2-1.8,3.7-3.1,5.1c-1.3,1.4-3,2.6-4.9,3.4C456.7,542,454.5,542.5,452.2,542.5z M452.1,537c1.3,0,2.5-0.3,3.5-0.8
				c1-0.5,1.9-1.3,2.5-2.2c0.7-0.9,1.2-2.1,1.6-3.4c0.4-1.3,0.5-2.7,0.5-4.2s-0.2-2.9-0.5-4.3c-0.4-1.3-0.9-2.5-1.6-3.4
				c-0.7-1-1.5-1.7-2.5-2.3c-1-0.5-2.2-0.8-3.5-0.8c-1.3,0-2.5,0.3-3.5,0.8c-1,0.5-1.9,1.3-2.6,2.3c-0.7,1-1.2,2.1-1.5,3.4
				c-0.3,1.3-0.5,2.7-0.5,4.3s0.2,2.9,0.5,4.2c0.3,1.3,0.9,2.4,1.5,3.4c0.7,1,1.5,1.7,2.6,2.2C449.6,536.7,450.8,537,452.1,537z"/>
			<path class="st0" d="M479.8,515.5h0.2c1-1.7,2.3-3,3.9-3.9c1.6-0.9,3.5-1.3,5.6-1.3c3.3,0,5.9,0.9,7.7,2.8
				c1.9,1.9,2.8,4.5,2.8,7.8v20.7h-7.3V522c0-1.8-0.5-3.3-1.5-4.3c-1-1-2.4-1.5-4.3-1.5c-1,0-2,0.2-2.8,0.5
				c-0.8,0.4-1.6,0.9-2.2,1.5c-0.6,0.7-1.1,1.5-1.4,2.4c-0.3,0.9-0.5,1.9-0.5,3v17.9h-7.3V511h7.1V515.5z"/>
		</g>
		<g>
			<path class="st0" d="M71.7,212c0,37.9,56.4,68.7,125.9,68.7c69.6,0,126-30.8,126-68.7c0-26.2-26.8-49-66.4-60.5L197.7,212v-34.5
				l59.5-59.9c-17.7-5.2-38.3-8.1-59.8-8.1l0,33.9C128,143.4,71.7,174.1,71.7,212z"/>
		</g>
	</g>
	<path class="st0" d="M399.2,6v393H6.2V6H399.2 M405.2,0H0.2v405h405V0L405.2,0z"/>
</g>
</svg>
