<svg viewBox="0 0 24 24" xmlns="http://www.w3.org/2000/svg" xmlns:xlink="http://www.w3.org/1999/xlink"><defs><path d="M6.5 9a2 2 0 1 0-.001 3.999A2 2 0 0 0 6.5 9m0-2c1.63 0 3.12.35 4.5 1.05 1.34.71 2 1.56 2 2.56v5.77c0 1.12-.86 2.06-2.61 2.81V17c0-.95-.86-1.62-2.58-2.03-.56-.13-1-.19-1.31-.19-.87 0-1.7.17-2.46.52-.77.34-1.23.78-1.38 1.31 1.34.53 2.62.8 3.84.8l1-.1v2.63l-1 .06a9.68 9.68 0 0 1-3.89-.81C.86 18.44 0 17.5 0 16.38v-5.77c0-1 .66-1.85 2-2.56C3.38 7.35 4.88 7 6.5 7m0-7a3 3 0 1 1 0 6 3 3 0 0 1 0-6" id="a"/></defs><g transform="translate(6 2)" fill="none" fill-rule="evenodd"><mask id="b" fill="#fff"><use xlink:href="#a"/></mask><use fill="#000" xlink:href="#a"/><path fill="#000" mask="url(#b)" d="M-6-2h24v24H-6z"/></g></svg>