<svg viewBox="0 0 24 24" xmlns="http://www.w3.org/2000/svg" xmlns:xlink="http://www.w3.org/1999/xlink"><defs><path d="M13.94 9c5.735.35 6.043 3.62 6.06 3.97V15h-4v-2a5.321 5.321 0 0 0-2.06-4ZM7 9c6.65 0 6.982 3.61 7 3.971V15H0v-2.029C.019 12.61.35 9 7 9Zm6-9a3.5 3.5 0 0 1 0 7 3.391 3.391 0 0 1-1.93-.59 5.001 5.001 0 0 0 0-5.82A3.391 3.391 0 0 1 13 0ZM7 0a3.5 3.5 0 1 1 0 7 3.5 3.5 0 0 1 0-7Z" id="a"/></defs><g transform="translate(2 5)" fill="none" fill-rule="evenodd"><mask id="b" fill="#fff"><use xlink:href="#a"/></mask><use fill="#000" xlink:href="#a"/><g mask="url(#b)" fill="#000"><path d="M-2-5h24v24H-2z"/></g></g></svg>