<?xml version="1.0" encoding="utf-8"?>
<!-- Generator: Adobe Illustrator 24.2.3, SVG Export Plug-In . SVG Version: 6.00 Build 0)  -->
<svg version="1.1" id="Layer_1" xmlns="http://www.w3.org/2000/svg" xmlns:xlink="http://www.w3.org/1999/xlink" x="0px" y="0px"
	 viewBox="0 0 100 100" style="enable-background:new 0 0 100 100;" xml:space="preserve">
<style type="text/css">
	.st0{fill-rule:evenodd;clip-rule:evenodd;fill:#020203;}
	.st1{fill:#020203;}
</style>
<g>
	<g>
		<g>
			<path class="st0" d="M43.5,61.3c0-2.5-0.7-4.4-2.3-4.4c-1.6,0-2.3,1.8-2.3,4.4c0,2.5,0.7,4.2,2.3,4.2
				C42.8,65.6,43.5,63.9,43.5,61.3z"/>
			<path class="st0" d="M58.6,68.8c-1.6,0-2.3,1.8-2.3,4.3c0,2.5,0.6,4.3,2.3,4.3c1.6,0,2.3-1.8,2.3-4.3
				C60.9,70.7,60.1,68.8,58.6,68.8z"/>
			<path class="st0" d="M83.6,35.2L65.5,50.2h-0.2V36c0-0.9-1-1.4-1.7-0.8L45.5,50.2V36c0-0.9-1-1.4-1.7-0.8L25.7,50.2V14.7H14.5
				v35.4v35.4h70.8V50.2V36C85.3,35.1,84.3,34.7,83.6,35.2z M34.4,61.3c0-4.6,2.9-7.5,6.9-7.5c4.1,0,6.9,3,6.9,7.5
				c0,4.5-2.9,7.5-6.9,7.5C37.3,68.8,34.4,65.9,34.4,61.3z M41.2,80.1l13.8-25.7h3.5L44.7,80.1H41.2z M58.6,80.7
				c-3.9,0-6.9-3-6.9-7.5c0-4.5,2.9-7.5,6.9-7.5c4.1,0,6.9,2.9,6.9,7.5C65.5,77.7,62.6,80.7,58.6,80.7z"/>
		</g>
	</g>
</g>
</svg>
