<?xml version="1.0" encoding="UTF-8"?>
<svg width="50px" height="50px" viewBox="0 0 50 50" version="1.1" xmlns="http://www.w3.org/2000/svg" xmlns:xlink="http://www.w3.org/1999/xlink">
    <!-- Generator: Sketch 52.6 (67491) - http://www.bohemiancoding.com/sketch -->
    <title>Ikoner/transportKnapper/forside/avgift</title>
    <desc>Created with Sketch.</desc>
    <g id="Ikoner/transportKnapper/forside/avgift" stroke="none" stroke-width="1" fill="none" fill-rule="evenodd">
        <path d="M15.9629272,21.0313757 C16.762895,21.0313757 17.4446755,20.7495731 18.0082892,20.1859594 C18.5719029,19.6223457 18.8537055,18.9405652 18.8537055,18.1405974 C18.8537055,17.3406296 18.5719029,16.6588491 18.0082892,16.0952354 C17.4446755,15.5316217 16.762895,15.2498191 15.9629272,15.2498191 C15.1629594,15.2498191 14.4811789,15.5316217 13.9175652,16.0952354 C13.3539515,16.6588491 13.0721489,17.3406296 13.0721489,18.1405974 C13.0721489,18.9405652 13.3539515,19.6223457 13.9175652,20.1859594 C14.4811789,20.7495731 15.1629594,21.0313757 15.9629272,21.0313757 Z M22.7262576,18.1405974 C22.7262576,20.007189 22.0687182,21.6010403 20.7536196,22.9221993 C19.438521,24.2433582 17.8416395,24.9039278 15.9629272,24.9039278 C14.0963356,24.9039278 12.5024843,24.2433582 11.1813253,22.9221993 C9.86016635,21.6010403 9.19959677,20.007189 9.19959677,18.1405974 C9.19959677,16.2740058 9.86016635,14.6801545 11.1813253,13.3589955 C12.5024843,12.0378365 14.0963356,11.377267 15.9629272,11.377267 C17.8295188,11.377267 19.4233701,12.0378365 20.7445291,13.3589955 C22.065688,14.6801545 22.7262576,16.2740058 22.7262576,18.1405974 Z M36.5256334,31.3763623 C36.5256334,30.5763945 36.2438308,29.894614 35.6802171,29.3310003 C35.1166034,28.7673866 34.4348229,28.485584 33.6348551,28.485584 C32.8348873,28.485584 32.1531067,28.7673866 31.589493,29.3310003 C31.0258794,29.894614 30.7440767,30.5763945 30.7440767,31.3763623 C30.7440767,32.1763301 31.0258794,32.8581106 31.589493,33.4217243 C32.1531067,33.985338 32.8348873,34.2671406 33.6348551,34.2671406 C34.4348229,34.2671406 35.1166034,33.985338 35.6802171,33.4217243 C36.2438308,32.8581106 36.5256334,32.1763301 36.5256334,31.3763623 Z M40.3981855,31.3763623 C40.3981855,33.2429539 39.7376159,34.8368052 38.4164569,36.1579642 C37.095298,37.4791231 35.5014466,38.1396927 33.6348551,38.1396927 C31.7682635,38.1396927 30.1744121,37.4791231 28.8532532,36.1579642 C27.5320942,34.8368052 26.8715246,33.2429539 26.8715246,31.3763623 C26.8715246,29.49765 27.5320942,27.9007685 28.8532532,26.5856699 C30.1744121,25.2705713 31.7682635,24.6130319 33.6348551,24.6130319 C35.5014466,24.6130319 37.095298,25.2736015 38.4164569,26.5947604 C39.7376159,27.9159194 40.3981855,29.5097707 40.3981855,31.3763623 Z M30.7440767,11.25 L33.5075881,11.25 L18.8173435,38.3033217 L15.9992892,38.3033217 L30.7440767,11.25 Z" id="%" fill="#1D1D1B"></path>
    </g>
</svg>