<svg viewBox="0 0 24 24" xmlns="http://www.w3.org/2000/svg" xmlns:xlink="http://www.w3.org/1999/xlink"><defs><path d="M7.662 10.095c.384 0 .711-.135.982-.406.27-.27.406-.598.406-.982 0-.383-.135-.71-.406-.981a1.337 1.337 0 0 0-.982-.406c-.384 0-.711.135-.982.406-.27.27-.405.598-.405.981 0 .384.135.712.405.982.271.27.598.406.982.406Zm3.247-1.388c0 .896-.316 1.661-.947 2.296a3.123 3.123 0 0 1-2.3.95 3.128 3.128 0 0 1-2.295-.95 3.128 3.128 0 0 1-.951-2.296c0-.895.317-1.66.951-2.295a3.128 3.128 0 0 1 2.295-.95c.896 0 1.661.316 2.295.95.635.634.952 1.4.952 2.295Zm6.623 6.354c0-.384-.135-.712-.405-.982a1.337 1.337 0 0 0-.982-.406c-.384 0-.712.135-.982.406-.27.27-.406.598-.406.982s.135.71.406.981c.27.271.598.406.982.406s.711-.135.982-.406c.27-.27.405-.597.405-.981Zm1.86 0c0 .896-.318 1.66-.952 2.295-.634.634-1.4.951-2.295.951a3.128 3.128 0 0 1-2.295-.951 3.128 3.128 0 0 1-.952-2.295c0-.902.317-1.669.952-2.3a3.135 3.135 0 0 1 2.295-.947c.896 0 1.66.317 2.295.951.634.635.951 1.4.951 2.296ZM14.756 5.4h1.327L9.032 18.386H7.68L14.757 5.4Z" id="a"/></defs><use fill="#1D1D1B" fill-rule="nonzero" xlink:href="#a"/></svg>