<?xml version="1.0" encoding="UTF-8"?>
<svg width="50px" height="50px" viewBox="0 0 50 50" version="1.1" xmlns="http://www.w3.org/2000/svg" xmlns:xlink="http://www.w3.org/1999/xlink">
    <!-- Generator: Sketch 52.6 (67491) - http://www.bohemiancoding.com/sketch -->
    <title>Ikoner/transportKnapper/forside/avgiftBedrift</title>
    <desc>Created with Sketch.</desc>
    <g id="Ikoner/transportKnapper/forside/avgiftBedrift" stroke="none" stroke-width="1" fill="none" fill-rule="evenodd">
        <path d="M43.3125,42.2142857 L46,42.2142857 L46,45 L3,45 L3,42.2142857 L5.6875,42.2142857 L5.6875,4 L11.0625,4 L11.0625,18.7142857 L21.8125,10.1428571 L21.8125,18.7142857 L32.5625,10.1428571 L32.5625,18.7142857 L43.3125,10.1428571 L43.3125,42.2142857 Z M23.4370629,27.7885038 C23.4370629,26.7622373 23.0738767,25.8859255 22.3474932,25.1595421 C21.6211098,24.4331586 20.744798,24.0699724 19.7185315,24.0699724 C18.692265,24.0699724 17.8159531,24.4331586 17.0895697,25.1595421 C16.3631863,25.8859255 16,26.7622373 16,27.7885038 C16,28.8147703 16.3631863,29.6910822 17.0895697,30.4174656 C17.8159531,31.143849 18.692265,31.5070353 19.7185315,31.5070353 C20.751462,31.5070353 21.6294399,31.143849 22.3524913,30.4174656 C23.0755427,29.6910822 23.4370629,28.8147703 23.4370629,27.7885038 Z M33.1532258,35.0656299 C33.1532258,34.0393634 32.7900395,33.1630516 32.0636561,32.4366682 C31.3372727,31.7102847 30.4609608,31.3470985 29.4346943,31.3470985 C28.4084278,31.3470985 27.532116,31.7086187 26.8057326,32.4316701 C26.0793491,33.1547215 25.7161629,34.0326994 25.7161629,35.0656299 C25.7161629,36.0918964 26.0793491,36.9682083 26.8057326,37.6945917 C27.532116,38.4209751 28.4084278,38.7841614 29.4346943,38.7841614 C30.4609608,38.7841614 31.3372727,38.4209751 32.0636561,37.6945917 C32.7900395,36.9682083 33.1532258,36.0918964 33.1532258,35.0656299 Z M27.845322,24 L19.7385236,38.8741259 L21.2879117,38.8741259 L29.364722,24 L27.845322,24 Z" id="Combined-Shape" fill="#1D1D1B"></path>
        <path d="M19.7185315,29.3778762 C20.15836,29.3778762 20.5332082,29.2229389 20.8430874,28.9130597 C21.1529665,28.6031806 21.3079038,28.2283323 21.3079038,27.7885038 C21.3079038,27.3486753 21.1529665,26.9738271 20.8430874,26.6639479 C20.5332082,26.3540688 20.15836,26.1991315 19.7185315,26.1991315 C19.278703,26.1991315 18.9038548,26.3540688 18.5939756,26.6639479 C18.2840964,26.9738271 18.1291591,27.3486753 18.1291591,27.7885038 C18.1291591,28.2283323 18.2840964,28.6031806 18.5939756,28.9130597 C18.9038548,29.2229389 19.278703,29.3778762 19.7185315,29.3778762 Z" id="Path" fill="#1D1D1B"></path>
        <path d="M31.0240667,35.0656299 C31.0240667,34.6258014 30.8691294,34.2509532 30.5592502,33.941074 C30.2493711,33.6311949 29.8745228,33.4762576 29.4346943,33.4762576 C28.9948658,33.4762576 28.6200176,33.6311949 28.3101385,33.941074 C28.0002593,34.2509532 27.845322,34.6258014 27.845322,35.0656299 C27.845322,35.5054584 28.0002593,35.8803067 28.3101385,36.1901858 C28.6200176,36.500065 28.9948658,36.6550023 29.4346943,36.6550023 C29.8745228,36.6550023 30.2493711,36.500065 30.5592502,36.1901858 C30.8691294,35.8803067 31.0240667,35.5054584 31.0240667,35.0656299 Z" id="Path" fill="#1D1D1B"></path>
    </g>
</svg>