<svg viewBox="0 0 24 24" xmlns="http://www.w3.org/2000/svg" xmlns:xlink="http://www.w3.org/1999/xlink"><defs><path d="M7 2h10a2 2 0 0 1 2 2v16a2 2 0 0 1-2 2H7a2 2 0 0 1-2-2V4a2 2 0 0 1 2-2Zm0 2v4h10V4H7Zm0 6v2h2v-2H7Zm4 0v2h2v-2h-2Zm4 0v2h2v-2h-2Zm-8 4v2h2v-2H7Zm4 0v2h2v-2h-2Zm4 0v2h2v-2h-2Zm-8 4v2h2v-2H7Zm4 0v2h2v-2h-2Zm4 0v2h2v-2h-2Z" id="a"/></defs><g fill="none" fill-rule="evenodd"><mask id="b" fill="#fff"><use xlink:href="#a"/></mask><g mask="url(#b)" fill="#000"><path d="M0 0h24v24H0z"/></g></g></svg>