<?xml version="1.0" encoding="utf-8"?>
<!-- Generator: Adobe Illustrator 25.2.0, SVG Export Plug-In . SVG Version: 6.00 Build 0)  -->
<svg version="1.1" id="Layer_1" xmlns="http://www.w3.org/2000/svg" xmlns:xlink="http://www.w3.org/1999/xlink" x="0px" y="0px"
	 viewBox="0 0 24 24" style="enable-background:new 0 0 24 24;" xml:space="preserve">
<g>
	<path d="M18.07,6.26H5.93c-0.6,0-1.07,0.52-1.02,1.14l0.87,11.62C5.81,19.57,6.26,20,6.8,20H17.2c0.54,0,0.98-0.43,1.02-0.97
		L19.1,7.4C19.14,6.79,18.67,6.26,18.07,6.26z M8.87,14.41h-1.5v-3.5h1.5V14.41z M14.29,16.27l-1.42,1.42
		c-0.56,0.56-1.47,0.56-2.03,0l-1.42-1.42c-0.14-0.14-0.04-0.37,0.15-0.37h4.56C14.33,15.9,14.42,16.13,14.29,16.27z M16.63,14.41
		h-1.5v-3.5h1.5V14.41z"/>
	<path d="M20.97,15L20.97,15c-0.57,0-1.03-0.46-1.03-1.03v-2.19c0-0.57,0.46-1.03,1.03-1.03h0c0.57,0,1.03,0.46,1.03,1.03v2.19
		C22,14.54,21.54,15,20.97,15z"/>
	<path d="M3.03,15L3.03,15C2.46,15,2,14.54,2,13.98v-2.19c0-0.57,0.46-1.03,1.03-1.03h0c0.57,0,1.03,0.46,1.03,1.03v2.19
		C4.05,14.54,3.59,15,3.03,15z"/>
	<ellipse cx="12" cy="3.32" rx="1.28" ry="1.32"/>
</g>
</svg>
