<svg viewBox="0 0 24 24" xmlns="http://www.w3.org/2000/svg" xmlns:xlink="http://www.w3.org/1999/xlink"><defs><path d="M18.069 7.261c.597 0 1.069.524 1.028 1.141l-.872 11.623c-.042.55-.484.975-1.021.975H6.799c-.537 0-.986-.426-1.028-.975L4.906 8.402c-.048-.617.424-1.14 1.02-1.14Zm-3.935 9.64H9.57a.213.213 0 0 0-.153.365l1.42 1.417c.56.556 1.47.556 2.03 0l1.419-1.417a.213.213 0 0 0-.152-.366Zm6.84-5.137c.566 0 1.025.46 1.025 1.026v2.19c0 .527-.4.963-.913 1.018l-.112.006a1.026 1.026 0 0 1-1.026-1.025V12.79c0-.567.46-1.026 1.026-1.026Zm-17.949 0c.566 0 1.026.46 1.026 1.026v2.19c0 .527-.4.963-.914 1.018l-.112.006A1.025 1.025 0 0 1 2 14.98V12.79c0-.567.459-1.026 1.025-1.026Zm13.604.151h-1.5v3.5h1.5v-3.5Zm-7.755 0h-1.5v3.5h1.5v-3.5ZM12 3c.708 0 1.282.594 1.282 1.325 0 .732-.574 1.325-1.282 1.325-.708 0-1.282-.593-1.282-1.325C10.718 3.594 11.292 3 12 3Z" id="a"/></defs><use fill="#000" xlink:href="#a" fill-rule="evenodd"/></svg>