<svg viewBox="0 0 24 24" xmlns="http://www.w3.org/2000/svg" xmlns:xlink="http://www.w3.org/1999/xlink"><defs><path d="m.19 17.17 4.09-4.08c-.21-.3-.36-.62-.45-.97L.19 15.76v1.41Zm0 2.83H1.6l4.77-4.76-1.42-1.41-4.76 4.76V20Zm4.24 0 3.64-3.64c-.34-.09-.67-.24-.97-.45L3.02 20h1.41Zm2.64-5.47-1.41-1.41 1.41 1.41Zm5.66-7.07c-.78-.78-.78-2.05 0-2.83.78-.78 2.05-.78 2.83 0 .77.78.78 2.05 0 2.83-.78.78-2.05.78-2.83 0ZM19.8.39S14.85-1.733 9.19 3.93C7 6.12 5.69 8.53 4.84 10.64c-.28.75-.09 1.57.46 2.13l2.13 2.12c.55.56 1.37.74 2.12.46A19.1 19.1 0 0 0 16.26 11C21.92 5.34 19.8.39 19.8.39ZM3.83 10.5 0 8.87 6.1 6.1c-.91 1.36-1.69 2.83-2.27 4.4Zm7.49 9.69-1.63-3.83c1.57-.58 3.04-1.36 4.4-2.27l-2.77 6.1Z" id="a"/></defs><g transform="translate(2 2)" fill="none" fill-rule="evenodd"><mask id="b" fill="#fff"><use xlink:href="#a"/></mask><use fill="#000" xlink:href="#a"/><path fill="#000" mask="url(#b)" d="M-2-2h24v24H-2z"/></g></svg>