<?xml version="1.0" encoding="utf-8"?>
<!-- Generator: Adobe Illustrator 24.0.1, SVG Export Plug-In . SVG Version: 6.00 Build 0)  -->
<svg version="1.1" id="Layer_1" xmlns="http://www.w3.org/2000/svg" xmlns:xlink="http://www.w3.org/1999/xlink" x="0px" y="0px"
	 viewBox="0 0 24 24" style="enable-background:new 0 0 24 24;" xml:space="preserve">
<style type="text/css">
	.st0{opacity:0.5;}
	.st1{fill:none;stroke:#000000;stroke-miterlimit:10;}
</style>
<g>
	<path d="M15.1,16.5c3.3,0,5.9-2.7,5.9-5.9c0-2.2-1.2-4.1-2.9-5.1L16.7,7C18,7.6,19,9,19,10.6c0,1.7-1,3.1-2.5,3.7
		c-0.1-2.8-2-5.2-4.5-6c0.4-0.5,0.9-0.9,1.5-1.2l-1.4-1.5C11.1,6,10.3,6.8,9.8,7.8c0,0,0,0-0.1,0C6,7.8,3,10.8,3,14.6s3,6.8,6.8,6.8
		c2.7,0,5-1.6,6.1-3.9c-0.3,0-0.5,0-0.8,0c-0.5,0-1-0.1-1.5-0.2c-0.9,1.2-2.3,2-3.9,2c-2.6,0-4.8-2.1-4.8-4.8c0-2.4,1.8-4.4,4.2-4.7
		c0,0.2,0,0.5,0,0.7C9.1,13.8,11.8,16.5,15.1,16.5z M14.5,14.4c-1.9-0.3-3.4-1.9-3.4-3.9c0-0.2,0-0.3,0-0.5
		C13.1,10.7,14.4,12.4,14.5,14.4z"/>
	<polygon points="17.3,4.3 16.6,3 13.6,3 12.8,4.3 15.1,7.1 	"/>
</g>
</svg>
