<?xml version="1.0" encoding="utf-8"?>
<!-- Generator: Adobe Illustrator 24.0.1, SVG Export Plug-In . SVG Version: 6.00 Build 0)  -->
<svg version="1.1" id="Layer_1" xmlns="http://www.w3.org/2000/svg" xmlns:xlink="http://www.w3.org/1999/xlink" x="0px" y="0px"
	 viewBox="0 0 24 24" style="enable-background:new 0 0 24 24;" xml:space="preserve">
<style type="text/css">
	.st0{opacity:0.5;}
	.st1{fill:none;stroke:#000000;stroke-miterlimit:10;}
</style>
<g>
	<circle cx="15.1" cy="5.3" r="3"/>
	<path d="M19.6,10.3c-1.4-0.7-2.9-1-4.5-1c-1.2,0-2.4,0.2-3.5,0.6c-1.1-0.4-2.2-0.6-3.5-0.6c-1.6,0-3.1,0.3-4.5,1
		c-1.3,0.7-2,1.6-2,1.6V15v2.6c0,0.9,0.6,1.7,1.7,2.4c0.3,0.2,0.6,0.3,0.9,0.5c1.2,0.5,5.5,0.8,6.9,0.8l1-0.1V20v-1.4l-1,0.1
		c-1.2,0-2.5-0.3-3.8-0.8c0.1-0.5,0.6-1,1.4-1.3c0.8-0.3,1.6-0.5,2.5-0.5c0.3,0,0.8,0.1,1.3,0.2c1.7,0.4,2.6,1.1,2.6,2V20h0.9h5.7
		v-7.1C21.6,11.9,20.9,11,19.6,10.3z M11.1,15.3c-0.4,0-0.7-0.1-1-0.3c-0.6-0.3-1-1-1-1.7c0-1.1,0.9-2,2-2c1.1,0,2,0.9,2,2
		c0,0.8-0.4,1.4-1,1.7C11.8,15.2,11.5,15.3,11.1,15.3z"/>
	<circle cx="8.1" cy="5.3" r="3"/>
</g>
</svg>
