<?xml version="1.0" encoding="UTF-8"?>
<svg width="50px" height="50px" viewBox="0 0 50 50" version="1.1" xmlns="http://www.w3.org/2000/svg" xmlns:xlink="http://www.w3.org/1999/xlink">
    <!-- Generator: Sketch 52.6 (67491) - http://www.bohemiancoding.com/sketch -->
    <title>Ikoner/transportKnapper/forside/folkeregister</title>
    <desc>Created with Sketch.</desc>
    <g id="Ikoner/transportKnapper/forside/folkeregister" stroke="none" stroke-width="1" fill="none" fill-rule="evenodd">
        <path d="M16.3644647,23.1053812 L33.6355353,23.1053812 L33.6355353,25.3026906 L16.3644647,25.3026906 L16.3644647,23.1053812 Z M16.3644647,27.5 L33.6355353,27.5 L33.6355353,29.6973094 L16.3644647,29.6973094 L16.3644647,27.5 Z M41.2057874,31.8946188 C41.4983934,31.8946188 41.7178445,31.9970036 41.8641475,32.2017762 C42.0104505,32.4065488 42.0385853,32.6511346 41.9485527,32.935541 L38.3022505,43.9590778 C38.2122179,44.2434842 38.0265284,44.48807 37.7451766,44.6928426 C37.4638247,44.8976152 37.1768501,45 36.8842441,45 L13.1157559,45 C12.8231499,45 12.5361753,44.8976152 12.2548234,44.6928426 C11.9734716,44.48807 11.7877821,44.2434842 11.6977495,43.9590778 L8.05144734,32.935541 C7.96141474,32.6511346 7.9895495,32.4065488 8.13585248,32.2017762 C8.28215546,31.9970036 8.50160664,31.8946188 8.79421259,31.8946188 L41.2057874,31.8946188 Z M29.3758542,34.0919283 L20.7015945,34.0919283 L20.7015945,36.2892377 L29.3758542,36.2892377 L29.3758542,34.0919283 Z" id="" fill="#000000"></path>
        <path d="M34,12.3941399 L34,10 L38.0362807,10 L40.2961276,29.5464421 L37.7664483,29.8542601 L35.7258403,12.3941399 L34,12.3941399 Z M17,12.3941399 L14.2741597,12.3941399 L12.2335517,29.8542601 L9.70387244,29.5464421 L11.9637193,10 L17,10 L17,12.3941399 Z" id="Combined-Shape" fill="#000000"></path>
        <path d="M18.9732143,7.00966184 L18.9732143,18.9903382 L32.0267857,18.9903382 L32.0267857,7.00966184 L18.9732143,7.00966184 Z M17,5 L34,5 L34,21 L17,21 L17,5 Z" id="Rectangle-2" fill="#1D1D1B" fill-rule="nonzero"></path>
        <path d="M29,15.4017003 L29,17 L22,17 L22,15.4017003 C22,14.9605008 22.1367174,14.583822 22.4101562,14.2716525 C22.6835951,13.959483 23.0135397,13.8034006 23.4,13.8034006 L27.6,13.8034006 C27.9864603,13.8034006 28.3164049,13.959483 28.5898438,14.2716525 C28.8632826,14.583822 29,14.9605008 29,15.4017003 Z M23.4163062,11.3974495 C23.4163062,10.731488 23.6204708,10.1654292 24.0288062,9.69925611 C24.4371415,9.23308304 24.9329699,9 25.5163062,9 C26.0996424,9 26.5954708,9.23308304 27.0038062,9.69925611 C27.4121415,10.1654292 27.6163062,10.731488 27.6163062,11.3974495 C27.6163062,12.0634111 27.4121415,12.6294699 27.0038062,13.0956429 C26.5954708,13.561816 26.0996424,13.794899 25.5163062,13.794899 C24.9329699,13.794899 24.4371415,13.561816 24.0288062,13.0956429 C23.6204708,12.6294699 23.4163062,12.0634111 23.4163062,11.3974495 Z" id="Combined-Shape" fill="#1D1D1B"></path>
    </g>
</svg>