<?xml version="1.0" encoding="UTF-8"?>
<svg width="50px" height="50px" viewBox="0 0 50 50" version="1.1" xmlns="http://www.w3.org/2000/svg" xmlns:xlink="http://www.w3.org/1999/xlink">
    <!-- Generator: Sketch 52.6 (67491) - http://www.bohemiancoding.com/sketch -->
    <title>Ikoner/transportKnapper/forside/person</title>
    <desc>Created with Sketch.</desc>
    <g id="Ikoner/transportKnapper/forside/person" stroke="none" stroke-width="1" fill="none" fill-rule="evenodd">
        <g id="Group" transform="translate(3.000000, 3.000000)" fill="#1D1D1B">
            <path d="M22,44 C9.8497355,44 0,34.1502645 0,22 C0,9.8497355 9.8497355,0 22,0 C34.1502645,0 44,9.8497355 44,22 C44,34.1502645 34.1502645,44 22,44 Z M22,41.096 C32.5464296,41.096 41.096,32.5464296 41.096,22 C41.096,11.4535704 32.5464296,2.904 22,2.904 C11.4535704,2.904 2.904,11.4535704 2.904,22 C2.904,32.5464296 11.4535704,41.096 22,41.096 Z" id="Combined-Shape"></path>
            <path d="M12,17 L15.0180838,17 L15.0180838,20.7789905 L18.1827411,17 L22.1935279,17 L18.6357868,20.7721692 L22.3534264,27 L18.6357868,27 L16.5770939,22.8867667 L15.0180838,24.5579809 L15.0180838,27 L12,27 L12,17 Z M23.3927665,27 L23.3927665,17 L28.4229061,17 C29.3556519,17 30.0685255,17.0818546 30.5615482,17.2455662 C31.054571,17.4092778 31.4520924,17.7128218 31.7541244,18.1562074 C32.0561563,18.5995929 32.2071701,19.1396057 32.2071701,19.7762619 C32.2071701,20.3310623 32.091689,20.8096842 31.8607234,21.2121419 C31.6297577,21.6145996 31.3121848,21.940881 30.9079949,22.1909959 C30.6503794,22.35016 30.2972738,22.4820368 29.8486675,22.5866303 C30.2084409,22.709414 30.4704941,22.8321958 30.634835,22.9549795 C30.7458762,23.0368353 30.9068835,23.2119132 31.1178617,23.4802183 C31.3288399,23.7485234 31.4698601,23.9554336 31.5409264,24.100955 L33,27 L29.5888325,27 L27.9765228,23.9440655 C27.7722071,23.5484291 27.5901023,23.2914967 27.430203,23.1732606 C27.2125624,23.0186441 26.9660547,22.941337 26.6906726,22.941337 L26.4241751,22.941337 L26.4241751,27 L23.3927665,27 Z M26.4241751,21.0518417 L27.6967005,21.0518417 C27.8343916,21.0518417 28.1008863,21.006367 28.4961929,20.9154161 C28.696067,20.8744882 28.8592951,20.7698962 28.985882,20.6016371 C29.1124689,20.433378 29.1757614,20.2401102 29.1757614,20.0218281 C29.1757614,19.6989525 29.0758259,19.451115 28.8759518,19.2783083 C28.6760777,19.1055016 28.3007642,19.0190996 27.75,19.0190996 L26.4241751,19.0190996 L26.4241751,21.0518417 Z" id="KR-Copy"></path>
        </g>
    </g>
</svg>