<svg viewBox="0 0 24 24" xmlns="http://www.w3.org/2000/svg" xmlns:xlink="http://www.w3.org/1999/xlink"><defs><path d="M12 1.44c5.832 0 10.56 4.728 10.56 10.56 0 5.832-4.728 10.56-10.56 10.56-5.832 0-10.56-4.728-10.56-10.56C1.44 6.168 6.168 1.44 12 1.44Zm0 1.394a9.166 9.166 0 1 0 0 18.332 9.166 9.166 0 0 0 0-18.332ZM8.649 9.6v1.814L10.168 9.6h1.925l-1.708 1.81 1.785 2.99h-1.785l-.988-1.974-.748.802V14.4H7.2V9.6h1.449Zm6.434 0c.448 0 .79.04 1.027.118.236.078.427.224.572.437.145.213.217.472.217.778 0 .266-.055.496-.166.689-.11.193-.263.35-.457.47-.124.076-.293.14-.509.19.173.059.299.117.378.176.053.04.13.124.232.253.1.128.169.228.203.297l.7 1.392h-1.637l-.774-1.467c-.098-.19-.186-.313-.263-.37a.598.598 0 0 0-.354-.111h-.128V14.4h-1.455V9.6h2.414Zm-.323.97h-.636v.975h.61c.067 0 .194-.022.384-.066a.382.382 0 0 0 .235-.15.45.45 0 0 0 .091-.279c0-.155-.048-.273-.144-.356-.095-.083-.276-.125-.54-.125Z" id="a"/></defs><use fill="#1D1D1B" fill-rule="nonzero" xlink:href="#a"/></svg>