<svg viewBox="0 0 24 24" xmlns="http://www.w3.org/2000/svg" xmlns:xlink="http://www.w3.org/1999/xlink"><defs><path d="M19 3a2 2 0 0 1 2 2v14a2 2 0 0 1-2 2H5a2 2 0 0 1-2-2V5a2 2 0 0 1 2-2h14Zm-.5 15.5v-5.3c0-1.8-1.46-3.26-3.26-3.26-.85 0-1.84.52-2.32 1.3v-1.11h-2.79v8.37h2.79v-4.93c0-.77.62-1.4 1.39-1.4a1.4 1.4 0 0 1 1.4 1.4v4.93h2.79ZM6.88 8.56a1.686 1.686 0 0 0 0-3.37 1.69 1.69 0 0 0-1.69 1.69c0 .93.76 1.68 1.69 1.68Zm1.39 9.94v-8.37H5.5v8.37h2.77Z" id="a"/></defs><use fill="#000" fill-rule="nonzero" xlink:href="#a"/></svg>