<?xml version="1.0" encoding="utf-8"?>
<!-- Generator: Adobe Illustrator 24.0.0, SVG Export Plug-In . SVG Version: 6.00 Build 0)  -->
<svg version="1.1" id="Layer_1" xmlns="http://www.w3.org/2000/svg" xmlns:xlink="http://www.w3.org/1999/xlink" x="0px" y="0px"
	 viewBox="0 0 24 24" style="enable-background:new 0 0 24 24;" xml:space="preserve">
<path d="M14,2H6C4.9,2,4,2.9,4,4v16c0,1.1,0.9,2,2,2h10.8l-2-2H6V4h7l5,5v8.6l-1.8-1.8c1.3-1.9,1.1-4.6-0.7-6.3
	c-1-1-2.2-1.5-3.5-1.5c-1.3,0-2.6,0.5-3.5,1.5c-2,1.9-2,5.1,0,7c1,1,2.2,1.5,3.5,1.5c1,0,1.9-0.3,2.8-0.8l2.8,2.9h0l1.6,1.6
	c0.5-0.4,0.8-0.9,0.8-1.6V8L14,2z M14.1,15.1C13.5,15.7,12.8,16,12,16c-0.8,0-1.6-0.3-2.1-0.9C9.3,14.5,9,13.8,9,13
	c0-0.8,0.3-1.6,0.9-2.1c0.6-0.6,1.3-0.9,2.1-0.9c0.8,0,1.5,0.3,2.1,0.9c0.6,0.6,0.9,1.3,0.9,2.1C15,13.8,14.7,14.5,14.1,15.1z"/>
</svg>
