<svg viewBox="0 0 24 24" xmlns="http://www.w3.org/2000/svg" xmlns:xlink="http://www.w3.org/1999/xlink"><defs><path d="M17.16 10.97c.04-.32.07-.64.07-.97 0-.33-.03-.66-.07-1l2.11-1.63c.19-.15.24-.42.12-.64l-2-3.46a.492.492 0 0 0-.61-.22l-2.49 1c-.52-.39-1.06-.73-1.69-.98L12.23.42a.506.506 0 0 0-.5-.42h-4c-.25 0-.46.18-.5.42l-.37 2.65c-.63.25-1.17.59-1.69.98l-2.49-1c-.22-.09-.49 0-.61.22l-2 3.46c-.13.22-.07.49.12.64L2.3 9c-.04.34-.07.67-.07 1 0 .33.03.65.07.97L.19 12.63c-.19.15-.25.42-.12.64l2 3.46c.12.22.39.3.61.22l2.49-1.01c.52.4 1.06.74 1.69.99l.37 2.65c.04.24.25.42.5.42h4c.25 0 .46-.18.5-.42l.37-2.65c.63-.26 1.17-.59 1.69-.99l2.49 1.01c.22.08.49 0 .61-.22l2-3.46c.12-.22.07-.49-.12-.64l-2.11-1.66ZM9.73 13.5a3.5 3.5 0 1 1 0-7 3.5 3.5 0 0 1 0 7Z" id="a"/></defs><g transform="translate(2 2)" fill="none" fill-rule="evenodd"><mask id="b" fill="#fff"><use xlink:href="#a"/></mask><use fill="#000" xlink:href="#a"/><path fill="#000" mask="url(#b)" d="M-2-2h24v24H-2z"/></g></svg>