<svg viewBox="0 0 24 24" xmlns="http://www.w3.org/2000/svg" xmlns:xlink="http://www.w3.org/1999/xlink"><defs><path d="M15 14.08c-.76 0-1.44.3-1.96.77L5.91 10.7c.05-.23.09-.46.09-.7 0-.24-.04-.47-.09-.7l7.05-4.11c.54.5 1.25.81 2.04.81a3 3 0 1 0-3-3c0 .24.04.47.09.7L5.04 7.81C4.5 7.31 3.79 7 3 7a3 3 0 1 0 0 6c.79 0 1.5-.31 2.04-.81l7.12 4.15c-.05.21-.08.43-.08.66 0 1.61 1.31 2.91 2.92 2.91a2.915 2.915 0 1 0 0-5.83" id="a"/></defs><g transform="translate(3 2)" fill="none" fill-rule="evenodd"><mask id="b" fill="#fff"><use xlink:href="#a"/></mask><use fill="#000" xlink:href="#a"/><path fill="#000" mask="url(#b)" d="M-3-2h24v24H-3z"/></g></svg>