<?xml version="1.0" encoding="utf-8"?>
<!-- Generator: Adobe Illustrator 24.2.3, SVG Export Plug-In . SVG Version: 6.00 Build 0)  -->
<svg version="1.1" id="Layer_1" xmlns="http://www.w3.org/2000/svg" xmlns:xlink="http://www.w3.org/1999/xlink" x="0px" y="0px"
	 viewBox="0 0 100 100" style="enable-background:new 0 0 100 100;" xml:space="preserve">
<style type="text/css">
	.st0{fill-rule:evenodd;clip-rule:evenodd;fill:#020203;}
	.st1{fill:#020203;}
</style>
<g>
	<g>
		<path class="st1" d="M32.2,54.3h7.7V62h-7.7V54.3z M44,54.3h7.7V62H44V54.3z M55.8,54.3h7.7V62h-7.7V54.3z"/>
	</g>
	<path class="st1" d="M77,10.8H31.7c-2.3,0-4.2,1.9-4.2,4.2v1.8h-3c-2.1,0-3.8,1.8-3.8,4v66.1c0,2.2,1.7,4,3.8,4h46.6
		c2.1,0,3.8-1.8,3.8-4v-2h2c2.3,0,4.2-1.9,4.2-4.2V15C81.1,12.7,79.3,10.8,77,10.8z M55.2,25.1L66,37.4H55.2V25.1z M68.7,84.5H27V23
		h22v20.6h19.7V84.5z"/>
</g>
</svg>
