<?xml version="1.0" encoding="utf-8"?>
<!-- Generator: Adobe Illustrator 24.2.3, SVG Export Plug-In . SVG Version: 6.00 Build 0)  -->
<svg version="1.1" id="Layer_1" xmlns="http://www.w3.org/2000/svg" xmlns:xlink="http://www.w3.org/1999/xlink" x="0px" y="0px"
	 viewBox="0 0 48 48" style="enable-background:new 0 0 48 48;" xml:space="preserve">
<style type="text/css">
	.st0{fill-rule:evenodd;clip-rule:evenodd;fill:#020203;}
	.st1{fill:#020203;}
</style>
<path class="st0" d="M41.7,22.4v-7.3c0-0.4-0.5-0.7-0.8-0.4l-9.2,7.6h-0.1v-7.3c0-0.4-0.5-0.7-0.8-0.4l-9.2,7.6v-7.3
	c0-0.4-0.5-0.7-0.8-0.4l-9.2,7.6v-16H5.7v18v18H12v-1.9c0,0,0-4.8,8.4-4.8c8.4,0,8.4,4.8,8.4,4.8v1.9h2.4v-1.9
	c-0.1-1.9-1-3.6-2.5-4.8c7.3,0.4,7.3,4.8,7.3,4.8v1.9h5.7L41.7,22.4L41.7,22.4z M20.4,33.3c-2.3,0-4.2-1.9-4.2-4.2s1.9-4.2,4.2-4.2
	s4.2,1.9,4.2,4.2S22.7,33.3,20.4,33.3z M27.6,33.3c-0.8,0-1.6-0.2-2.3-0.7c1.5-2.1,1.5-4.9,0-7c0.7-0.5,1.5-0.7,2.3-0.7
	c2.3,0,4.2,1.9,4.2,4.2S29.9,33.3,27.6,33.3z"/>
</svg>
