<?xml version="1.0" encoding="utf-8"?>
<!-- Generator: Adobe Illustrator 24.0.1, SVG Export Plug-In . SVG Version: 6.00 Build 0)  -->
<svg version="1.1" id="Layer_1" xmlns="http://www.w3.org/2000/svg" xmlns:xlink="http://www.w3.org/1999/xlink" x="0px" y="0px"
	 viewBox="0 0 48 48" style="enable-background:new 0 0 48 48;" xml:space="preserve">
<style type="text/css">
	.st0{fill:#1D1D1D;}
</style>
<g>
	<path class="st0" d="M9.3,18.7l4-2.4l6.1,5c0.2,0.1,0.4,0.2,0.6,0.2c0.1,0,0.3,0,0.4-0.1l8.1-3.4c0.1,0,0.2-0.1,0.3-0.2l8.1-7.8
		c0.4-0.4,0.4-1,0-1.4c-0.4-0.4-1-0.4-1.4,0l-7.9,7.6l-7.4,3.1L14,14.3c-0.3-0.3-0.8-0.3-1.2-0.1L8.3,17c-0.5,0.3-0.6,0.9-0.3,1.4
		S8.9,19,9.3,18.7z"/>
	<path class="st0" d="M41.5,38.7h-2.3v-21c0-0.6-0.4-1-1-1h-4c-0.6,0-1,0.4-1,1v21h-2.1v-15c0-0.6-0.4-1-1-1h-4c-0.6,0-1,0.4-1,1v15
		h-2.1v-9c0-0.6-0.4-1-1-1h-4c-0.6,0-1,0.4-1,1v9H15v-13c0-0.6-0.4-1-1-1h-4c-0.6,0-1,0.4-1,1v13H6.5v-31c0-0.6-0.4-1-1-1
		s-1,0.4-1,1v32c0,0.6,0.4,1,1,1H10h4h4.1h4h4.1h4h4.1h4h3.3c0.6,0,1-0.4,1-1S42.1,38.7,41.5,38.7z"/>
</g>
</svg>
