<svg viewBox="0 0 48 48" xmlns="http://www.w3.org/2000/svg" xmlns:xlink="http://www.w3.org/1999/xlink"><defs><path d="M34.519 8.316c.908 0 1.62.75 1.62 1.66V35.93c0 .909-.751 1.66-1.66 1.66h-.79v.79c0 .868-.672 1.58-1.501 1.58h-18.41c-.83 0-1.501-.712-1.501-1.58V12.266c0-.87.671-1.58 1.5-1.58h1.186v-.712c0-.908.75-1.659 1.66-1.659Zm-11.062 4.82h-8.692v24.296H31.24V21.274h-7.783v-8.138ZM19.862 25.5v3.042H16.82v-3.042h3.042Zm4.661 0v3.042h-3.042v-3.042h3.042Zm4.662 0v3.042h-3.042v-3.042h3.042Zm-3.279-11.536v4.86h4.267l-4.267-4.86Z" id="a"/></defs><use fill="#020203" fill-rule="nonzero" xlink:href="#a"/></svg>