<svg viewBox="0 0 48 48" xmlns="http://www.w3.org/2000/svg" xmlns:xlink="http://www.w3.org/1999/xlink"><defs><path d="M35.095 16.247V9.144c0-.389-.486-.68-.778-.389l-8.952 7.395h-.097V9.047c0-.39-.486-.681-.778-.39l-8.952 7.395V8.95c0-.39-.486-.681-.778-.39L5.81 15.956V.388H.069v35.027h6.129v-1.849s0-4.67 8.173-4.67 8.173 4.67 8.173 4.67v1.849h2.335v-1.849c-.097-1.849-.973-3.503-2.432-4.67 7.102.389 7.102 4.67 7.102 4.67v1.849h5.546V16.247ZM14.371 26.852c-2.238 0-4.087-1.848-4.087-4.086 0-2.238 1.849-4.086 4.087-4.086 2.238 0 4.086 1.848 4.086 4.086 0 2.238-1.848 4.086-4.086 4.086Zm7.005 0c-.778 0-1.556-.194-2.238-.68a5.845 5.845 0 0 0 0-6.811c.682-.487 1.46-.681 2.238-.681 2.238 0 4.087 1.848 4.087 4.086 0 2.238-1.849 4.086-4.087 4.086Z" id="a"/></defs><g transform="translate(6.613 5.71)" fill="none" fill-rule="evenodd"><mask id="b" fill="#fff"><use xlink:href="#a"/></mask><use fill="#020203" xlink:href="#a"/><path fill="#1D1D1D" mask="url(#b)" d="M-7-7h49.548v49.548H-7z"/></g></svg>