<svg viewBox="0 0 48 48" xmlns="http://www.w3.org/2000/svg" xmlns:xlink="http://www.w3.org/1999/xlink"><defs><path d="M22.519.316c.908 0 1.62.75 1.62 1.66V27.93c0 .909-.751 1.66-1.66 1.66h-.79v.79c0 .868-.672 1.58-1.501 1.58H1.778c-.83 0-1.501-.712-1.501-1.58V4.266c0-.87.671-1.58 1.5-1.58h1.186v-.712c0-.908.75-1.659 1.66-1.659Zm-11.062 4.82H2.765v24.296H19.24V13.274h-7.783V5.136ZM7.862 17.5v3.042H4.82v-3.042h3.042Zm4.661 0v3.042H9.481v-3.042h3.042Zm4.662 0v3.042h-3.042v-3.042h3.042ZM13.906 5.965v4.86h4.267l-4.267-4.86Z" id="a"/></defs><g transform="translate(12 8)" fill="none" fill-rule="evenodd"><mask id="b" fill="#fff"><use xlink:href="#a"/></mask><use fill="#020203" fill-rule="nonzero" xlink:href="#a"/><path fill="#1D1D1D" mask="url(#b)" d="M-12.387-9.29h49.548v49.548h-49.548z"/></g></svg>