<svg viewBox="0 0 48 48" xmlns="http://www.w3.org/2000/svg" xmlns:xlink="http://www.w3.org/1999/xlink"><defs><path d="M34 0c1.1 0 2 .9 2 2v32c0 1.1-.9 2-2 2h-5.1v1h-5.7v-1H12.8v1H7.1v-1H2c-1.1 0-2-.9-2-2V2C0 .9.9 0 2 0Zm-3.7 5.8H5.7v2h23.6v20.3H5.7v2h24.6c.5 0 1-.4 1-1V6.8c0-.5-.5-1-1-1Zm-18 6.9C9.4 12.7 7 15.1 7 18s2.4 5.3 5.3 5.3 5.3-2.4 5.3-5.3-2.4-5.3-5.3-5.3Zm.1 1c2.4 0 4.3 1.9 4.3 4.3s-2 4.3-4.3 4.3c-2.4 0-4.3-1.9-4.3-4.3s1.9-4.3 4.3-4.3Zm0 2.1c-1.2 0-2.2 1-2.2 2.2 0 1.2.9 2.2 2.2 2.2 1.2 0 2.2-1 2.2-2.2 0-1.2-1-2.2-2.2-2.2Z" id="a"/></defs><g transform="translate(6 6)" fill="none" fill-rule="evenodd"><mask id="b" fill="#fff"><use xlink:href="#a"/></mask><use fill="#1D1D1D" xlink:href="#a"/><path fill="#1D1D1D" mask="url(#b)" d="M-6-6h48v48H-6z"/></g></svg>