<svg xmlns="http://www.w3.org/2000/svg" viewBox="0 0 48 48" style="enable-background:new 0 0 48 48" xml:space="preserve"><path d="M34.93 14.57H13.07c-1.07 0-1.92.93-1.84 2.03l1.56 20.66c.08.98.88 1.73 1.85 1.73h18.73c.97 0 1.76-.76 1.84-1.73l1.57-20.66c.07-1.09-.78-2.03-1.85-2.03zM17.95 28.45H16.1V23.9h1.85v4.55zm9.38 3.1-2.1 1.95c-.83.77-2.17.77-3 0l-2.1-1.95c-.2-.19-.06-.5.23-.5h6.74c.29 0 .43.32.23.5zm4.58-3.1h-1.85V23.9h1.85v4.55zM40.67 30.12h-1.03c-.74 0-1.33-.6-1.33-1.33v-4.87c0-.74.6-1.33 1.33-1.33h1.03c.74 0 1.33.6 1.33 1.33v4.87c0 .73-.6 1.33-1.33 1.33zM8.36 30.12H7.33c-.73 0-1.33-.6-1.33-1.34v-4.87c0-.74.6-1.33 1.33-1.33h1.03c.74 0 1.33.6 1.33 1.33v4.87c0 .74-.59 1.34-1.33 1.34z"/><ellipse cx="24" cy="9.36" rx="2.31" ry="2.36"/></svg>