<svg xmlns="http://www.w3.org/2000/svg" viewBox="0 0 48 48" style="enable-background:new 0 0 48 48" xml:space="preserve"><path d="M21.3 31.1h-11c-.8 0-1.5.7-1.5 1.5v3.5c0 .8.7 1.5 1.5 1.5h11c.8 0 1.5-.7 1.5-1.5v-3.5c0-.8-.7-1.5-1.5-1.5zm-.5 4.5h-10v-2.5h10v2.5zm.5-12.5h-11c-.8 0-1.5.7-1.5 1.5v3.5c0 .8.7 1.5 1.5 1.5h11c.8 0 1.5-.7 1.5-1.5v-3.5c0-.8-.7-1.5-1.5-1.5zm-.5 4.5h-10v-2.5h10v2.5zm.5-12.5h-11c-.8 0-1.5.7-1.5 1.5v3.5c0 .8.7 1.5 1.5 1.5h11c.8 0 1.5-.7 1.5-1.5v-3.5c0-.8-.7-1.5-1.5-1.5zm-.5 4.5h-10v-2.5h10v2.5zm.5-12.5h-11c-.8 0-1.5.7-1.5 1.5v3.5c0 .8.7 1.5 1.5 1.5h11c.8 0 1.5-.7 1.5-1.5V8.6c0-.8-.7-1.5-1.5-1.5zm-.5 4.5h-10V9.1h10v2.5zM26.5 23.1h11c.8 0 1.5.7 1.5 1.5v3.5c0 .8-.7 1.5-1.5 1.5h-11c-.8 0-1.5-.7-1.5-1.5v-3.5c0-.8.6-1.5 1.5-1.5zM26.5 15.1h11c.8 0 1.5.7 1.5 1.5v3.5c0 .8-.7 1.5-1.5 1.5h-11c-.8 0-1.5-.7-1.5-1.5v-3.5c0-.8.6-1.5 1.5-1.5zM38.1 34.6l-10.6-2.8h-.4c-.7 0-1.3.5-1.5 1.1l-.9 3.4c-.2.8.3 1.6 1.1 1.8l10.6 2.8h.4c.7 0 1.3-.5 1.5-1.1l.9-3.4c.2-.8-.3-1.6-1.1-1.8z"/></svg>