<svg xmlns="http://www.w3.org/2000/svg" viewBox="0 0 48 48" style="enable-background:new 0 0 48 48" xml:space="preserve"><path d="M43.5 24.9v-1.3c-.1-.6-.6-1.1-1.2-1.1h-.7c-.2-.6-.5-1.5-.7-2.3s-.6-2.1-.8-2.8c-.2-.4-.6-.8-1.1-.9-2.4 0-4.8-.1-7.4-.1s-4.8 0-7.4.1c-.5 0-1 .4-1.1.9-.3.9-.6 1.8-.9 2.8-.2.8-.5 1.6-.7 2.3h-.7c-.6 0-1.2.5-1.2 1.1V25c0 .3.1.7.2 1 .2.2.5.4.9.4h.1v5.8c0 .6.5 1.2 1.1 1.2h3.2c.7 0 1.2-.5 1.2-1.2v-.4c1.8 0 3.5.1 5.3.1 1.8 0 3.5 0 5.3-.1v.4c0 .6.4 1.2 1.1 1.2h3.1c.6 0 1.2-.4 1.2-1.1v-6h.1c.3 0 .6-.1.8-.4.3-.3.4-.7.3-1zm-19.1 3.3c-.7 0-1.3-.6-1.3-1.3s.6-1.3 1.3-1.3 1.3.6 1.3 1.3c0 .7-.6 1.3-1.3 1.3zm7.2-4.7c-2.3 0-4.7 0-7 .1-.2 0-.5-.2-.5-.4v-.1c.2-1.4.6-2.8 1.1-4.2 0-.1.2-.2.4-.2 1.9 0 3.9-.1 5.9-.1s3.9 0 5.9.1c.2 0 .4.1.4.2.4 1 .8 3.1 1.1 4.2 0 .2-.1.5-.4.5-2.3.1-4.6-.1-6.9-.1zm7.2 4.7c-.7 0-1.3-.6-1.3-1.3.1-.7.6-1.3 1.3-1.3.7 0 1.3.6 1.3 1.3 0 .7-.6 1.3-1.3 1.3zM6 28.9h9.4c.8 0 1.5.7 1.5 1.5v1.4c0 .8-.7 1.5-1.5 1.5H6c-.8 0-1.5-.7-1.5-1.5v-1.4c0-.8.6-1.5 1.5-1.5zM6 22.7h9.4c.8 0 1.5.7 1.5 1.5v1.4c0 .8-.7 1.5-1.5 1.5H6c-.8 0-1.5-.7-1.5-1.5v-1.4c0-.8.6-1.5 1.5-1.5zM16 16.5l-9.2-1.9h-.3c-.7 0-1.3.5-1.5 1.2l-.3 1.4c-.1.8.4 1.6 1.2 1.7l9.2 1.9h.3c.7 0 1.3-.5 1.5-1.2l.3-1.4c.1-.7-.4-1.5-1.2-1.7z"/></svg>