<?xml version="1.0" encoding="utf-8"?>
<!-- Generator: Adobe Illustrator 24.0.1, SVG Export Plug-In . SVG Version: 6.00 Build 0)  -->
<svg version="1.1" id="Layer_1" xmlns="http://www.w3.org/2000/svg" xmlns:xlink="http://www.w3.org/1999/xlink" x="0px" y="0px"
	 viewBox="0 0 48 48" style="enable-background:new 0 0 48 48;" xml:space="preserve">
<style type="text/css">
	.st0{fill:#1D1D1D;}
	.st1{fill:none;stroke:#1D1D1D;stroke-width:2;stroke-linecap:round;stroke-linejoin:round;}
	.st2{clip-path:url(#SVGID_2_);}
	.st3{fill:none;stroke:#1D1D1D;stroke-linecap:round;stroke-linejoin:round;}
	.st4{fill:#FFFFFF;stroke:#1D1D1D;stroke-width:2;stroke-linecap:round;stroke-linejoin:round;}
	.st5{fill:#FFFFFF;}
	.st6{fill:#FFFFFF;stroke:#1D1D1D;stroke-width:1.5;stroke-linecap:round;stroke-linejoin:round;}
	.st7{fill:none;stroke:#1D1D1D;stroke-width:2;stroke-linejoin:round;stroke-miterlimit:10;}
</style>
<g>
	<circle class="st0" cx="30.2" cy="14.5" r="5.4"/>
	<path class="st0" d="M38.2,23.5c-2.5-1.3-5.2-1.8-8.1-1.8c-2.1,0-4.3,0.4-6.3,1.1c-2-0.7-3.9-1.1-6.3-1.1c-2.9,0-5.6,0.5-8.1,1.8
		C7.3,24.7,6,26.3,6,26.3v5.6v4.7c0,1.6,1.1,3,3,4.3c0.5,0.4,1.1,0.5,1.6,0.9c2.1,0.9,9.9,1.4,12.4,1.4l1.8-0.2v-2.1v-2.5L23,38.5
		c-2.1,0-4.5-0.5-6.8-1.4c0.2-0.9,1.1-1.8,2.5-2.3c1.4-0.5,2.9-0.9,4.5-0.9c0.5,0,1.4,0.2,2.3,0.4c3,0.7,4.7,2,4.7,3.6v3h1.6H42
		V28.1C41.8,26.3,40.6,24.7,38.2,23.5z M23,32.4c-0.7,0-1.3-0.2-1.8-0.5c-1.1-0.5-1.8-1.8-1.8-3c0-2,1.6-3.6,3.6-3.6
		s3.6,1.6,3.6,3.6c0,1.4-0.7,2.5-1.8,3C24.3,32.2,23.7,32.4,23,32.4z"/>
	<circle class="st0" cx="17.6" cy="14.5" r="5.4"/>
</g>
</svg>
