<svg xmlns="http://www.w3.org/2000/svg" viewBox="0 0 48 48" style="enable-background:new 0 0 48 48" xml:space="preserve"><path d="M30.2 27c-2 0-4 .3-6 .8V36h18v-3c0-3.3-5.4-6-12-6z"/><circle cx="30.2" cy="18" r="6"/><path d="M7.3 31h11c.8 0 1.5.7 1.5 1.5v2c0 .8-.7 1.5-1.5 1.5h-11c-.8 0-1.5-.7-1.5-1.5v-2c0-.8.7-1.5 1.5-1.5zM7.3 24h11c.8 0 1.5.7 1.5 1.5v2c0 .8-.7 1.5-1.5 1.5h-11c-.8 0-1.5-.7-1.5-1.5v-2c0-.8.7-1.5 1.5-1.5zM19.1 17.1 8.3 14.9H8c-.7 0-1.3.5-1.5 1.2l-.4 2c-.2.8.4 1.6 1.2 1.8L18.1 22h.3c.7 0 1.3-.5 1.5-1.2l.4-2c.1-.8-.5-1.6-1.2-1.7z"/></svg>