<?xml version="1.0" encoding="utf-8"?>
<!-- Generator: Adobe Illustrator 24.0.1, SVG Export Plug-In . SVG Version: 6.00 Build 0)  -->
<svg version="1.1" id="Layer_1" xmlns="http://www.w3.org/2000/svg" xmlns:xlink="http://www.w3.org/1999/xlink" x="0px" y="0px"
	 viewBox="0 0 48 48" style="enable-background:new 0 0 48 48;" xml:space="preserve">
<style type="text/css">
	.st0{fill:#1D1D1D;}
	.st1{fill:none;stroke:#1D1D1D;stroke-width:2;stroke-linecap:round;stroke-linejoin:round;}
	.st2{clip-path:url(#SVGID_2_);}
	.st3{fill:none;stroke:#1D1D1D;stroke-linecap:round;stroke-linejoin:round;}
	.st4{fill:#FFFFFF;stroke:#1D1D1D;stroke-width:2;stroke-linecap:round;stroke-linejoin:round;}
	.st5{fill:#FFFFFF;}
	.st6{fill:#FFFFFF;stroke:#1D1D1D;stroke-width:1.5;stroke-linecap:round;stroke-linejoin:round;}
	.st7{fill:none;stroke:#1D1D1D;stroke-width:2;stroke-linejoin:round;stroke-miterlimit:10;}
</style>
<g>
	<path class="st0" d="M40,6.2H8c-1.1,0-2,0.9-2,2v32c0,1.1,0.9,2,2,2h5.1v1h5.7v-1h10.4v1h5.7v-1H40c1.1,0,2-0.9,2-2v-32
		C42,7.1,41.1,6.2,40,6.2z M37.3,35.3c0,0.6-0.5,1-1,1H11.7v-2h23.6V14H11.7v-2h24.6c0.5,0,1,0.5,1,1V35.3z M13,24.2
		c0-2.9,2.4-5.3,5.3-5.3c2.9,0,5.3,2.4,5.3,5.3s-2.4,5.3-5.3,5.3C15.4,29.5,13,27.1,13,24.2z"/>
	<path class="st0" d="M22.7,24.2c0-2.4-1.9-4.3-4.3-4.3c-2.4,0-4.3,1.9-4.3,4.3s1.9,4.3,4.3,4.3C20.7,28.5,22.7,26.6,22.7,24.2z
		 M16.2,24.2c0-1.2,1-2.2,2.2-2.2c1.2,0,2.2,1,2.2,2.2s-1,2.2-2.2,2.2C17.1,26.4,16.2,25.4,16.2,24.2z"/>
</g>
</svg>
