<?xml version="1.0" encoding="utf-8"?>
<!-- Generator: Adobe Illustrator 24.0.1, SVG Export Plug-In . SVG Version: 6.00 Build 0)  -->
<svg version="1.1" id="Layer_1" xmlns="http://www.w3.org/2000/svg" xmlns:xlink="http://www.w3.org/1999/xlink" x="0px" y="0px"
	 viewBox="0 0 48 48" style="enable-background:new 0 0 48 48;" xml:space="preserve">
<style type="text/css">
	.st0{fill:#1D1D1D;}
	.st1{fill:none;stroke:#1D1D1D;stroke-width:2;stroke-linecap:round;stroke-linejoin:round;}
	.st2{clip-path:url(#SVGID_2_);}
	.st3{fill:none;stroke:#1D1D1D;stroke-linecap:round;stroke-linejoin:round;}
	.st4{fill:#FFFFFF;stroke:#1D1D1D;stroke-width:2;stroke-linecap:round;stroke-linejoin:round;}
	.st5{fill:#FFFFFF;}
	.st6{fill:#FFFFFF;stroke:#1D1D1D;stroke-width:1.5;stroke-linecap:round;stroke-linejoin:round;}
	.st7{fill:none;stroke:#1D1D1D;stroke-width:2;stroke-linejoin:round;stroke-miterlimit:10;}
</style>
<g>
	<g>
		<path class="st0" d="M23.1,22.8c0.2,0.2,0.4,0.5,0.4,0.8v13.7c0,0.3-0.2,0.5-0.5,0.5h-5.5c-0.3,0-0.5-0.2-0.5-0.5v-8.1
			c0-0.3-0.2-0.5-0.5-0.5h-5.5c-0.3,0-0.5,0.2-0.5,0.5v8.1c0,0.3-0.2,0.5-0.5,0.5H4.5c-0.3,0-0.5-0.2-0.5-0.5V23.7
			c0-0.3,0.2-0.6,0.4-0.8l9-7.6c0.2-0.2,0.6-0.2,0.8,0L23.1,22.8z"/>
	</g>
	<path class="st0" d="M44.4,29.8c0-0.5-0.5-0.9-1-0.9h-0.1l-0.5,0c-0.2-0.5-0.4-1.2-0.6-1.9c-0.2-0.8-0.5-1.7-0.7-2.3
		c-0.2-0.4-0.5-0.6-0.9-0.7c-2,0-4-0.1-6.1-0.1c-2,0-4,0-6.1,0.1c-0.4,0-0.8,0.3-0.9,0.7c-0.2,0.6-0.5,1.4-0.7,2.3
		c-0.2,0.7-0.4,1.3-0.6,1.9l-0.5,0h-0.1c-0.5,0-1,0.4-1,0.9L24.6,31c0,0.3,0.1,0.5,0.2,0.8c0.2,0.2,0.4,0.3,0.7,0.3l0.1,0v3.3
		c0,0,0,0.1,0,0.1c0,0,0,0.1,0,0.1v1.3c0,0.6,0.4,1,1,1h2.5c0.5,0,1-0.4,1-1v-0.3c1.5,0,2.9,0.1,4.4,0.1c1.5,0,2.9,0,4.4-0.1v0.3
		c0,0.6,0.4,1,1,1h2.5c0.6,0,1-0.4,1-1v-1.3c0,0,0-0.1,0-0.1c0,0,0,0,0-0.1V32h0.1c0.3,0,0.5-0.1,0.7-0.3c0.2-0.2,0.3-0.5,0.2-0.8
		L44.4,29.8z M28.6,33.7c-0.6,0-1.1-0.5-1.1-1.1c0-0.6,0.5-1.1,1.1-1.1c0.6,0,1.1,0.5,1.1,1.1C29.7,33.2,29.2,33.7,28.6,33.7z
		 M28.8,29.9C28.8,29.9,28.8,29.9,28.8,29.9c-0.3,0-0.4-0.2-0.4-0.4c0.1-0.8,0.6-2.7,0.9-3.5c0-0.1,0.2-0.2,0.3-0.2
		c1.6,0,3.2-0.1,4.9-0.1c1.6,0,3.2,0,4.9,0.1c0.2,0,0.3,0.1,0.3,0.2c0.3,0.8,0.7,2.6,0.9,3.5c0,0.2-0.1,0.4-0.3,0.4c0,0,0,0,0,0
		c-1.9,0-3.8-0.1-5.7-0.1C32.7,29.8,30.7,29.8,28.8,29.9z M40.5,31.5c0.6,0,1.1,0.5,1.1,1.1c0,0.6-0.5,1.1-1.1,1.1
		c-0.6,0-1.1-0.5-1.1-1.1C39.5,32,39.9,31.5,40.5,31.5z"/>
</g>
</svg>
