<svg xmlns="http://www.w3.org/2000/svg" viewBox="0 0 48 48" style="enable-background:new 0 0 48 48" xml:space="preserve"><path d="M10.4 34h11c.8 0 1.5.7 1.5 1.5V39c0 .8-.7 1.5-1.5 1.5h-11c-.8 0-1.5-.7-1.5-1.5v-3.5c0-.8.7-1.5 1.5-1.5zM10.4 26h11c.8 0 1.5.7 1.5 1.5V31c0 .8-.7 1.5-1.5 1.5h-11c-.8 0-1.5-.7-1.5-1.5v-3.5c0-.8.7-1.5 1.5-1.5zM10.4 18h11c.8 0 1.5.7 1.5 1.5V23c0 .8-.7 1.5-1.5 1.5h-11c-.8 0-1.5-.7-1.5-1.5v-3.5c0-.8.7-1.5 1.5-1.5zM37.6 34h-11c-.8 0-1.5.7-1.5 1.5V39c0 .8.7 1.5 1.5 1.5h11c.8 0 1.5-.7 1.5-1.5v-3.5c0-.8-.7-1.5-1.5-1.5zm-.5 4.5h-10V36h10v2.5zm.5-12.5h-11c-.8 0-1.5.7-1.5 1.5V31c0 .8.7 1.5 1.5 1.5h11c.8 0 1.5-.7 1.5-1.5v-3.5c0-.8-.7-1.5-1.5-1.5zm-.5 4.5h-10V28h10v2.5zm.5-12.5h-11c-.8 0-1.5.7-1.5 1.5V23c0 .8.7 1.5 1.5 1.5h11c.8 0 1.5-.7 1.5-1.5v-3.5c0-.8-.7-1.5-1.5-1.5zm-.5 4.5h-10V20h10v2.5zM23 10.4 12.4 7.6c-.1 0-.2-.1-.4-.1-.7 0-1.3.5-1.4 1.1L9.7 12c-.2.8.3 1.6 1.1 1.8l10.6 2.8c.1 0 .3.1.4 0 .7 0 1.3-.5 1.5-1.1l.9-3.4c.1-.7-.4-1.5-1.2-1.7z"/></svg>