<?xml version="1.0" encoding="utf-8"?>
<!-- Generator: Adobe Illustrator 24.0.1, SVG Export Plug-In . SVG Version: 6.00 Build 0)  -->
<svg version="1.1" id="Layer_1" xmlns="http://www.w3.org/2000/svg" xmlns:xlink="http://www.w3.org/1999/xlink" x="0px" y="0px"
	 viewBox="0 0 48 48" style="enable-background:new 0 0 48 48;" xml:space="preserve">
<style type="text/css">
	.st0{fill:#1D1D1D;}
	.st1{fill:none;stroke:#1D1D1D;stroke-width:2;stroke-linecap:round;stroke-linejoin:round;}
	.st2{clip-path:url(#SVGID_2_);}
	.st3{fill:none;stroke:#1D1D1D;stroke-linecap:round;stroke-linejoin:round;}
	.st4{fill:#FFFFFF;stroke:#1D1D1D;stroke-width:2;stroke-linecap:round;stroke-linejoin:round;}
	.st5{fill:#FFFFFF;}
	.st6{fill:#FFFFFF;stroke:#1D1D1D;stroke-width:1.5;stroke-linecap:round;stroke-linejoin:round;}
	.st7{fill:none;stroke:#1D1D1D;stroke-width:2;stroke-linejoin:round;stroke-miterlimit:10;}
</style>
<g>
	<path class="st0" d="M27.7,18.8c2.3-0.4,4.8-1.1,6.3-2.6c2.2-2.2,2.2-5.8,0-8c-1.1-1.1-2.6-1.7-4-1.7s-2.9,0.6-4,1.7
		c-1,1-1.6,2.4-2.1,3.9c-0.4-1.5-1.1-2.9-2.1-3.9c-1.1-1.1-2.6-1.7-4-1.7c-1.5,0-2.9,0.6-4,1.7c-2.2,2.2-2.2,5.8,0,8
		c1.5,1.5,4.1,2.3,6.3,2.6H7v22.7h34V18.8H27.7z M28.2,10.3c0.5-0.5,1.2-0.8,1.9-0.8s1.4,0.3,1.9,0.8c1,1,1,2.7,0,3.8
		c-1,1-3.3,1.7-5.7,2C26.5,13.7,27.1,11.3,28.2,10.3z M16,10.3c0.5-0.5,1.2-0.8,1.9-0.8c0.7,0,1.4,0.3,1.9,0.8c1,1,1.7,3.4,2,5.7
		c-2.4-0.3-4.7-1-5.7-2C15,13,15,11.3,16,10.3z M37.2,33.9c-2.1,0-3.8,1.7-3.8,3.8H14.5c0-2.1-1.7-3.8-3.8-3.8v-7.6
		c2.1,0,3.8-1.7,3.8-3.8h18.9c0,2.1,1.7,3.8,3.8,3.8V33.9z"/>
	<circle class="st0" cx="24" cy="30.2" r="5.7"/>
</g>
</svg>
