<svg version="1.1" id="e8bdc656-36ff-4af3-88ab-e3a3dd9c7663" xmlns="http://www.w3.org/2000/svg" x="0" y="0" viewBox="0 0 48 48" style="enable-background:new 0 0 48 48" xml:space="preserve"><style>.st0{fill-rule:evenodd;clip-rule:evenodd}.st0,.st1{fill:#020203}</style><path class="st0" d="M40.2 30.9c-.1-.2-.4-.3-.6-.3H8.4c-.2 0-.5.1-.6.3-.1.2-.2.5-.1.7l3.5 10.6c.2.6.7 1 1.4 1h22.8c.6 0 1.2-.4 1.4-1l3.5-10.6c.1-.2 0-.5-.1-.7zm-12 3.9h-8.3v-2.1h8.3v2.1z"/><path class="st1" d="M15.8 26.4h16.3v2.1H15.8zM15.8 22.2h16.3v2.1H15.8z"/><path class="st0" d="M13.2 11.9h2.6v8.3h16.3v-8.3h2.6l2 16.8 2.4-.3L37 9.6h-4.8V4.8H15.8v4.8H11L8.8 28.4l2.4.3 2-16.8zm4.5-5.2h12.5v11.5H17.7V6.7z"/><path class="st0" d="M23.5 10.6c.1-1.1-.7-2-1.7-2.1s-2 .7-2.1 1.7v.4c-.1 1.1.7 2 1.7 2.1s2-.7 2.1-1.7v-.4zm-2.6 0c0-.7.2-1.2.6-1.2s.6.5.6 1.2-.2 1.2-.6 1.2-.6-.5-.6-1.2zM25.4 8.7l-3.8 7.1h.9l3.9-7.1zM26.4 11.8c-1.1 0-1.9.9-1.9 1.9v.2c-.1 1.1.7 2 1.8 2.1s2-.7 2.1-1.8v-.3c.1-1-.6-2-1.7-2.1h-.3zm0 3.3c-.5 0-.6-.5-.6-1.2s.2-1.2.6-1.2.6.5.6 1.2-.1 1.2-.6 1.2z"/></svg>