<?xml version="1.0" encoding="utf-8"?>
<!-- Generator: Adobe Illustrator 24.0.1, SVG Export Plug-In . SVG Version: 6.00 Build 0)  -->
<svg version="1.1" id="Layer_1" xmlns="http://www.w3.org/2000/svg" xmlns:xlink="http://www.w3.org/1999/xlink" x="0px" y="0px"
	 viewBox="0 0 48 48" style="enable-background:new 0 0 48 48;" xml:space="preserve">
<style type="text/css">
	.st0{fill:#1D1D1D;}
</style>
<g transform="translate(12 11)">
	<path id="a_2_" class="st0" d="M12,4c2.5,0,4.6,2,4.6,4.4s-2,4.5-4.5,4.6H12c-2.5,0-4.5-2.1-4.5-4.6C7.5,6,9.5,4,12,4z M12,15.2
		c5,0,9.1,2,9.1,4.5V22H2.9v-2.3C2.9,17.2,7,15.2,12,15.2z"/>
</g>
<path class="st0" d="M24,7c0.1,0,0.3,0,0.4,0.1l14.2,8.1c0.2,0.1,0.4,0.4,0.4,0.6v16.3c0,0.3-0.1,0.5-0.4,0.6l-14.2,8.1
	C24.3,41,24.1,41,24,41s-0.3,0-0.4-0.1L9.4,32.8C9.1,32.6,9,32.4,9,32.1V15.9c0-0.3,0.1-0.5,0.4-0.6l14.2-8.1C23.7,7,23.9,7,24,7
	 M24,4c-0.7,0-1.3,0.2-1.9,0.5L7.9,12.6C6.7,13.3,6,14.5,6,15.9v16.3c0,1.3,0.7,2.6,1.9,3.2l14.2,8.1c0.6,0.3,1.2,0.5,1.9,0.5
	s1.3-0.2,1.9-0.5l14.2-8.1c1.2-0.7,1.9-1.9,1.9-3.2V15.9c0-1.3-0.7-2.6-1.9-3.2L25.9,4.5C25.3,4.2,24.7,4,24,4L24,4z"/>
</svg>
