<?xml version="1.0" encoding="utf-8"?>
<!-- Generator: Adobe Illustrator 25.2.0, SVG Export Plug-In . SVG Version: 6.00 Build 0)  -->
<svg version="1.1" id="Layer_1" xmlns="http://www.w3.org/2000/svg" xmlns:xlink="http://www.w3.org/1999/xlink" x="0px" y="0px"
	 viewBox="0 0 48 48" style="enable-background:new 0 0 48 48;" xml:space="preserve">
<g>
	<path d="M34.93,14.57H13.07c-1.07,0-1.92,0.93-1.84,2.03l1.56,20.66c0.08,0.98,0.88,1.73,1.85,1.73h18.73
		c0.97,0,1.76-0.76,1.84-1.73l1.57-20.66C36.85,15.51,36,14.57,34.93,14.57z M17.95,28.45H16.1V23.9h1.85V28.45z M27.33,31.55
		l-2.1,1.95c-0.83,0.77-2.17,0.77-3,0l-2.1-1.95c-0.2-0.19-0.06-0.5,0.23-0.5h6.74C27.39,31.05,27.53,31.37,27.33,31.55z
		 M31.91,28.45h-1.85V23.9h1.85V28.45z"/>
	<path d="M40.67,30.12h-1.03c-0.74,0-1.33-0.6-1.33-1.33v-4.87c0-0.74,0.6-1.33,1.33-1.33h1.03c0.74,0,1.33,0.6,1.33,1.33v4.87
		C42,29.52,41.4,30.12,40.67,30.12z"/>
	<path d="M8.36,30.12H7.33C6.6,30.12,6,29.52,6,28.78v-4.87c0-0.74,0.6-1.33,1.33-1.33h1.03c0.74,0,1.33,0.6,1.33,1.33v4.87
		C9.69,29.52,9.1,30.12,8.36,30.12z"/>
	<ellipse cx="24" cy="9.36" rx="2.31" ry="2.36"/>
</g>
</svg>
