<svg viewBox="0 0 48 48" xmlns="http://www.w3.org/2000/svg" xmlns:xlink="http://www.w3.org/1999/xlink"><defs><path d="M24.1 12.6c2.9 0 5.6.5 8.1 1.8 2.4 1.2 3.6 2.8 3.8 4.6v12.8H24.2v-3c0-1.6-1.7-2.9-4.7-3.6-.9-.2-1.8-.4-2.3-.4-1.6 0-3.1.4-4.5.9s-2.3 1.4-2.5 2.3c2.3.9 4.7 1.4 6.8 1.4l1.8-.1v4.6l-1.8.2c-2.5 0-10.3-.5-12.4-1.4-.5-.4-1.1-.5-1.6-.9-1.9-1.3-3-2.7-3-4.3V17.2s1.3-1.6 3.4-2.8c2.5-1.3 5.2-1.8 8.1-1.8 2.4 0 4.3.4 6.3 1.1 2-.7 4.2-1.1 6.3-1.1ZM17 16.2c-2 0-3.6 1.6-3.6 3.6 0 1.2.7 2.5 1.8 3 .5.3 1.1.5 1.8.5s1.3-.2 1.8-.5c1.1-.5 1.8-1.6 1.8-3 0-2-1.6-3.6-3.6-3.6ZM24.2 0a5.4 5.4 0 1 1-.001 10.8A5.4 5.4 0 0 1 24.2 0ZM11.6 0a5.4 5.4 0 1 1 0 10.8 5.4 5.4 0 0 1 0-10.8Z" id="a"/></defs><g transform="translate(6 7)" fill="none" fill-rule="evenodd"><mask id="b" fill="#fff"><use xlink:href="#a"/></mask><use fill="#1D1D1D" xlink:href="#a"/><path fill="#1D1D1D" mask="url(#b)" d="M-6-7h48v48H-6z"/></g></svg>