<svg viewBox="0 0 48 48" xmlns="http://www.w3.org/2000/svg" xmlns:xlink="http://www.w3.org/1999/xlink"><defs><path d="M34.5 21.75c2.1 0 4.1.1 6.1.1.4.1.7.3.9.7.2.6.5 1.5.7 2.3.2.7.4 1.4.6 1.9h.6c.5 0 1 .4 1 .9v1.1c.1.3 0 .6-.2.8-.2.2-.4.3-.7.3h-.1v4.9c0 .6-.4 1-1 1h-2.5c-.6 0-1-.4-1-1v-.3c-1.5.1-2.9.1-4.4.1-1.5 0-2.9-.1-4.4-.1v.3c0 .6-.5 1-1 1h-2.5c-.6 0-1-.4-1-1v-4.8h-.1c-.3 0-.5-.1-.7-.3-.1-.3-.2-.5-.2-.8v-1.2c0-.5.5-.9 1-.9h.6c.2-.6.4-1.2.6-1.9.2-.9.5-1.7.7-2.3.1-.4.5-.7.9-.7 2.1-.1 4.1-.1 6.1-.1Zm-20.3-8.6 8.9 7.5c.2.2.4.5.4.8v13.7c0 .3-.2.5-.5.5h-5.5c-.3 0-.5-.2-.5-.5v-8.1c0-.3-.2-.5-.5-.5H11c-.3 0-.5.2-.5.5v8.1c0 .3-.2.5-.5.5H4.5c-.3 0-.5-.2-.5-.5v-13.6c0-.3.2-.6.4-.8l9-7.6c.2-.2.6-.2.8 0Zm26.3 16.2c-.6 0-1 .5-1.1 1.1 0 .6.5 1.1 1.1 1.1.6 0 1.1-.5 1.1-1.1 0-.6-.5-1.1-1.1-1.1Zm-11.9 0c-.6 0-1.1.5-1.1 1.1 0 .6.5 1.1 1.1 1.1.6 0 1.1-.5 1.1-1.1 0-.6-.5-1.1-1.1-1.1Zm6.7-5.8h-.8c-1.7 0-3.3.1-4.9.1-.1 0-.3.1-.3.2-.3.8-.8 2.7-.9 3.5 0 .2.1.4.4.4l1.15-.049c1.546-.051 3.13-.051 4.65-.051 1.9 0 3.8.1 5.7.1.2 0 .3-.2.3-.4-.2-.9-.6-2.7-.9-3.5 0-.1-.1-.2-.3-.2-1.7-.1-3.3-.1-4.9-.1Z" id="a"/></defs><use fill="#1D1D1D" xlink:href="#a" fill-rule="evenodd"/></svg>