<?xml version="1.0" encoding="utf-8"?>
<!-- Generator: Adobe Illustrator 24.2.3, SVG Export Plug-In . SVG Version: 6.00 Build 0)  -->
<svg version="1.1" id="Layer_1" xmlns="http://www.w3.org/2000/svg" xmlns:xlink="http://www.w3.org/1999/xlink" x="0px" y="0px"
	 viewBox="0 0 100 100" style="enable-background:new 0 0 100 100;" xml:space="preserve">
<style type="text/css">
	.st0{fill-rule:evenodd;clip-rule:evenodd;fill:#020203;}
	.st1{fill:#020203;}
</style>
<g>
	<path class="st1" d="M55.9,13.7c15.4,2.7,27.6,14.9,30.3,30.3H75.5c-2.4-9.6-10-17.2-19.6-19.6V13.7 M51.8,9.1V28
		c10.6,1.1,19.1,9.6,20.2,20.3h18.9C89.7,27.2,72.8,10.3,51.8,9.1L51.8,9.1z"/>
	<path class="st1" d="M63.6,68.5c-3.9,3.2-8.9,5.1-14.3,5.1c-12.6,0-22.8-10.2-22.8-22.8c0-11.8,8.9-21.5,20.4-22.7V9.1
		C25,10.3,7.6,28.5,7.6,50.7c0,23,18.7,41.7,41.7,41.7c10.6,0,20.3-4,27.7-10.6L63.6,68.5z"/>
	<path class="st1" d="M72,53.2c-0.5,4.5-2.2,8.5-4.9,11.8l13.4,13.4c6-6.8,9.9-15.6,10.5-25.2H72z"/>
	<g>
		<path class="st1" d="M37.9,46.1c0-3.7,2.3-6,5.3-6c3.1,0,5.3,2.3,5.3,6c0,3.7-2.2,6-5.3,6C40.2,52.1,37.9,49.7,37.9,46.1z
			 M45.3,46.1c0-2.2-0.7-3.7-2.1-3.7c-1.4,0-2.1,1.5-2.1,3.7c0,2.1,0.7,3.7,2.1,3.7C44.7,49.8,45.3,48.3,45.3,46.1z M54,40.5h2.6
			L46,61.2h-2.6L54,40.5z M51.5,55.7c0-3.7,2.3-6,5.3-6c3.1,0,5.3,2.3,5.3,6c0,3.7-2.2,6-5.3,6C53.7,61.7,51.5,59.3,51.5,55.7z
			 M58.9,55.7c0-2.2-0.7-3.7-2.1-3.7c-1.4,0-2.1,1.5-2.1,3.7c0,2.1,0.7,3.7,2.1,3.7C58.2,59.3,58.9,57.8,58.9,55.7z"/>
	</g>
</g>
</svg>
