<svg viewBox="0 0 48 48" xmlns="http://www.w3.org/2000/svg" xmlns:xlink="http://www.w3.org/1999/xlink"><defs><path d="M1 0c.6 0 1 .4 1 1v31h2.5V19c0-.6.4-1 1-1h4c.6 0 1 .4 1 1v13h2v-9c0-.6.4-1 1-1h4c.6 0 1 .4 1 1v9h2.1V17c0-.6.4-1 1-1h4c.6 0 1 .4 1 1v15h2.1V11c0-.6.4-1 1-1h4c.6 0 1 .4 1 1v21H37c.6 0 1.1.4 1.1 1s-.4 1-1 1H1c-.6 0-1-.4-1-1V1c0-.6.4-1 1-1Zm30 1.9c.4-.4 1-.4 1.4 0 .4.4.4 1 0 1.4l-8.1 7.8c-.1.1-.2.2-.3.2l-8.1 3.4c-.1.1-.3.1-.4.1-.2 0-.4-.1-.6-.2l-6.1-5-4 2.4c-.4.3-1 .2-1.3-.3-.3-.5-.2-1.1.3-1.4l4.5-2.8c.4-.2.9-.2 1.2.1l6.2 5 7.4-3.1Z" id="a"/></defs><g transform="translate(5 7)" fill="none" fill-rule="evenodd"><mask id="b" fill="#fff"><use xlink:href="#a"/></mask><use fill="#1D1D1D" xlink:href="#a"/><path fill="#1D1D1D" mask="url(#b)" d="M-5-7h48v48H-5z"/></g></svg>