<svg data-name="Layer 1" xmlns="http://www.w3.org/2000/svg" viewBox="0 0 48 48"><path d="M23.33 7h-11a2.76 2.76 0 0 0-2.78 2.75v22a2.76 2.76 0 0 0 2.76 2.75h7.13a11.86 11.86 0 0 1 0-2.75h-7.13v-22H22v6.89h6.88v5.62a11.31 11.31 0 0 1 1.55-.11 12.09 12.09 0 0 1 1.21.07v-7Z" style="fill:#020203"/><path d="M16.87 18.08A2.65 2.65 0 0 0 14.19 21a2.69 2.69 0 1 0 5.37 0 2.66 2.66 0 0 0-2.69-2.92Zm0 4.55c-.63 0-.9-.66-.9-1.64s.27-1.71.9-1.71.89.74.89 1.71-.3 1.68-.92 1.64ZM16.84 28.3l5.36-9.99h1.37L18.2 28.3h-1.36zM23.6 22.7a2.68 2.68 0 0 0-2.68 2.92 3.08 3.08 0 0 0 .53 1.81 11.8 11.8 0 0 1 1.26-1.63v-.22c0-1 .27-1.67.89-1.67a.76.76 0 0 1 .68.5 10.18 10.18 0 0 1 1.33-.83 2.55 2.55 0 0 0-2.01-.88Z" style="fill:#020203;fill-rule:evenodd"/><path d="M30.79 43a9.66 9.66 0 1 1 9.66-9.66A9.67 9.67 0 0 1 30.79 43Zm0-16.53a6.87 6.87 0 1 0 6.86 6.87 6.88 6.88 0 0 0-6.86-6.87Z" style="fill:#020203"/><path style="fill:#020203" d="m33.68 36.54-4.21-1.98v-5.35h1.79v4.21l3.19 1.5-.77 1.62z"/></svg>