<svg viewBox="0 0 48 48" xmlns="http://www.w3.org/2000/svg" xmlns:xlink="http://www.w3.org/1999/xlink"><defs><path d="M17.487.333v8.143a9.765 9.765 0 0 0-8.743 9.729c0 5.4 4.372 9.771 9.772 9.771a9.64 9.64 0 0 0 6.128-2.186l5.743 5.7c-3.171 2.829-7.328 4.543-11.871 4.543C8.659 36.033.644 28.02.644 18.162.644 8.647 8.101.847 17.487.333Zm18.9 18.9c-.257 4.114-1.928 7.886-4.5 10.8l-5.743-5.743c1.157-1.414 1.886-3.128 2.1-5.057Zm-14.657-1.5c1.329 0 2.271.986 2.271 2.572 0 1.585-.942 2.571-2.271 2.571s-2.271-1.029-2.271-2.571c0-1.586.985-2.572 2.271-2.572Zm-.086-3.943-4.543 8.872h-1.114l4.543-8.872h1.114Zm.086 4.929c-.6 0-.9.643-.9 1.586 0 .9.3 1.585.9 1.585.6-.043.9-.685.9-1.585 0-.943-.3-1.586-.9-1.586Zm-5.829-5.1c1.329 0 2.272.986 2.272 2.571 0 1.586-.943 2.572-2.272 2.572-1.285 0-2.271-1.029-2.271-2.572 0-1.585.986-2.571 2.271-2.571Zm0 .986c-.6 0-.9.642-.9 1.585 0 .9.3 1.586.9 1.586.643 0 .9-.643.9-1.586 0-.943-.3-1.585-.9-1.585ZM19.587.333c9 .514 16.243 7.757 16.757 16.8h-8.1c-.471-4.586-4.114-8.228-8.657-8.7Zm1.757 1.972V6.89a11.598 11.598 0 0 1 8.4 8.4h4.586c-1.157-6.6-6.386-11.828-12.986-12.985Z" id="a"/></defs><g transform="translate(5.613 5.71)" fill="none" fill-rule="evenodd"><mask id="b" fill="#fff"><use xlink:href="#a"/></mask><use fill="#020203" fill-rule="nonzero" xlink:href="#a"/><path fill="#1D1D1D" mask="url(#b)" d="M-6-7h49.548v49.548H-6z"/></g></svg>