<?xml version="1.0" encoding="utf-8"?>
<!-- Generator: Adobe Illustrator 24.0.1, SVG Export Plug-In . SVG Version: 6.00 Build 0)  -->
<svg version="1.1" id="Layer_1" xmlns="http://www.w3.org/2000/svg" xmlns:xlink="http://www.w3.org/1999/xlink" x="0px" y="0px"
	 viewBox="0 0 48 48" style="enable-background:new 0 0 48 48;" xml:space="preserve">
<style type="text/css">
	.st0{fill:#1D1D1D;}
	.st1{fill:none;stroke:#1D1D1D;stroke-width:2;stroke-linecap:round;stroke-linejoin:round;}
	.st2{clip-path:url(#SVGID_2_);}
	.st3{fill:none;stroke:#1D1D1D;stroke-linecap:round;stroke-linejoin:round;}
	.st4{fill:#FFFFFF;stroke:#1D1D1D;stroke-width:2;stroke-linecap:round;stroke-linejoin:round;}
	.st5{fill:#FFFFFF;}
	.st6{fill:#FFFFFF;stroke:#1D1D1D;stroke-width:1.5;stroke-linecap:round;stroke-linejoin:round;}
	.st7{fill:none;stroke:#1D1D1D;stroke-width:2;stroke-linejoin:round;stroke-miterlimit:10;}
</style>
<g>
	<path class="st0" d="M25.7,23.3l-6.9,1.8c-0.6,0.1-1.1-0.3-1.1-0.9v0c0-0.5,0.4-0.9,0.9-0.9H25.7z"/>
	<path class="st0" d="M29.2,17.5H18.6c-0.6,0-1,0.4-1,1v1.7c0,0.6,0.4,1,1,1h10.6c0.6,0,1-0.4,1-1v-1.7
		C30.2,17.9,29.8,17.5,29.2,17.5z"/>
	<path class="st0" d="M29,10.2l-10.5,0.9c-0.6,0-1,0.5-0.9,1.1l0.1,1.7c0,0.6,0.5,1,1.1,0.9L29.4,14c0.6,0,1-0.5,0.9-1.1l-0.1-1.7
		C30.1,10.6,29.6,10.2,29,10.2z"/>
	<path class="st0" d="M43.7,24.1v9.7L36.9,34l-0.5,0.8c-0.3,0.4-0.7,0.7-1.2,0.8l-14.8,2.6c-0.5,0.1-1.1-0.1-1.5-0.4l-14-11.5
		c-1.2-1-0.8-2.9,0.7-3.2l2.3-0.6c1.3-0.3,2.7,0,3.8,0.8l3.6,2.8c-1,0.5-1.6,1.6-1.6,2.7c0,1.7,1.4,3.1,3.1,3.1h11.7
		c0.6,0,1-0.4,1-1c0-0.5-0.4-1-1-1H16.7c-0.6,0-1.1-0.5-1.1-1.1c0-0.5,0.3-0.9,0.8-1l12.8-3.3l1.7-0.3c0.4-0.1,0.9-0.1,1.3,0
		l3.3,1.2L43.7,24.1z"/>
</g>
</svg>
