<svg viewBox="0 0 24 24" xmlns="http://www.w3.org/2000/svg" xmlns:xlink="http://www.w3.org/1999/xlink"><defs><path d="M10 0a10 10 0 0 1 10 10c0 5.523-4.477 10-10 10a10 10 0 1 1 0-20m0 2a8 8 0 1 0 0 16 8 8 0 0 0 0-16m0 6.5a1.5 1.5 0 1 1 0 3 1.5 1.5 0 0 1 0-3m-4.5 0a1.5 1.5 0 1 1 0 3 1.5 1.5 0 0 1 0-3m9 0a1.5 1.5 0 1 1 0 3 1.5 1.5 0 0 1 0-3Z" id="a"/></defs><g transform="translate(2 2)" fill="none" fill-rule="evenodd"><mask id="b" fill="#fff"><use xlink:href="#a"/></mask><use fill="#000" fill-rule="nonzero" xlink:href="#a"/><path fill="#000" mask="url(#b)" d="M-2-2h24v24H-2z"/></g></svg>