<svg id="a" xmlns="http://www.w3.org/2000/svg" width="1554.63" height="1069.54"><defs><clipPath id="b"><path style="fill:none" d="m1173.82 700.34-94.16-3.39-39.17 14.2 108.38 4.42 24.95-15.23z"/></clipPath><clipPath id="c"><path style="fill:none" d="M698.19 838.48H596.97l18.81-92.26h84.2l-1.79 92.26z"/></clipPath><style>.d,.e,.f,.g,.h,.i,.j,.k,.l{fill:none}.e{stroke-width:3.07px}.e,.f,.g,.h,.i,.j,.k,.l,.m{stroke-miterlimit:10}.e,.h,.i,.l{stroke:gray}.n{fill:#f3a7b0}.o{fill:#f06b78}.m,.p{fill:#fff}.q{fill:#e5e5e5}.r{fill:#e4eaf4}.s{fill:#332429}.t{fill:#b8860b}.u{fill:#af4c57}.v{fill:#a9805b}.w{fill:#b2b2b2}.x{fill:#bea693}.y{fill:#dee6f4}.aa{fill:gray}.ab{fill:#2c436b}.ac{fill:#5a77a8}.ad{fill:#4d4d4d}.f{stroke-width:6.18px}.f,.g,.j,.k{stroke:#1a1a1a}.g{stroke-width:3.21px}.h{stroke-width:5.07px}.i,.j{stroke-width:9.63px}.m{stroke:#b8860b;stroke-width:3.6px}.ae{clip-path:url(#c)}.af{clip-path:url(#b)}.k{stroke-width:2.41px}.l{stroke-width:4.81px}</style></defs><path d="M1326.47 417.43C1312.3 691.86 1085.3 910 807.35 910S287.52 677.26 287.52 390.17c0-155.42 68.21-294.91 176.32-390.17l862.63 417.43Z" style="fill:#e4eaf4"/><path d="M1240.34 742.16c-27.3 9.34-57.01-5.2-66.35-32.5l98.87-33.84c9.34 27.3-5.22 57-32.52 66.34Z" style="fill:#bea693"/><path style="fill:#b2b2b2" d="m1244.26 686.94-172.43 4.27-111.3 23.75 192.7 20.72 91.03-48.74z"/><path style="fill:#fff" d="m1215.4 689.79-137.35 3.41-88.67 18.91 153.51 16.51 72.51-38.83z"/><path d="M1170.69 713.73s12.52-10.23 16.38 3.83l26.95-14.43s-4.81-8.59-19.37-4.53l-23.97 15.13Z" style="fill:#b8860b"/><g style="clip-path:url(#b)"><path style="fill:none;stroke:gray;stroke-miterlimit:10;stroke-width:5.07px" d="m1168.57 695.43-46.14 23.21"/><path style="fill:none;stroke:gray;stroke-miterlimit:10;stroke-width:3.07px" d="m1138.24 695.75-46.14 23.21M1119.37 694.38l-46.14 23.21"/></g><path d="m1272.86 675.82-43.66-14.89-40.22 29.52s37.29 11.23 55.28-3.51l28.6-11.12Z" style="fill:#bea693"/><path style="fill:#fff" d="m405.07 196.41 46.42 169.75 104.73-19.84-3.45-149.91h-147.7z"/><path style="fill:#b2b2b2" d="m429.67 187.33-37.85 30.72 15.21 7.71 34.7-30.88-12.06-7.55zM536.73 192l21.87 21.57-3.96 12.19-34.7-30.88 16.79-2.88z"/><path d="m493.72 293.12-8.75-37.88c-20.92 0-33.97 16.96-29.14 37.88S481.54 331 502.46 331s33.97-16.96 29.14-37.88c-1.28-5.53-3.7-10.78-6.93-15.52l-30.95 15.52Z" style="fill:#dee6f4"/><path d="M529.15 252.59c-8.97-13.18-24.31-22.37-39.7-22.37l8.75 37.88 30.95-15.52Z" style="fill:#f3a7b0"/><path d="m576.08 426.51 34.95 100.39s66.38-62.39 103.02-87.1c5.38 43.82-2.88 93.43-45.92 110.1-50.84 19.69-108.03-5.56-127.72-56.41-7.61-19.65-8.5-40.25-3.8-59.27l39.47-7.71Z" style="fill:#af4c57"/><circle cx="544.69" cy="411.23" r="30.9" style="fill:#bea693"/><path style="fill:#bea693" d="m546.22 392.59-3.11-73.6 30.03 86.5"/><path d="M1047.94 346.03 875.44 904.5l-78.62-41.33 47.74-490.3 25.03-20.44c36.03-10.03 178.35-6.39 178.35-6.39ZM835 394.45l-46.92 53.59 8.74 415.13L835 394.45z" style="fill:gray"/><path style="fill:gray" d="m1047.94 346.03 23.16 40.13-195.66 518.35 172.5-558.48z"/><path style="fill:#4d4d4d" d="M1047.94 346.03 883.68 845.84l-8.24 58.67 195.66-518.35-23.16-40.13z"/><path style="fill:#4d4d4d" d="m612.69 912.55 262.75-8.04 44.36-63.53-307.11-16.11v87.68z"/><path style="fill:#f06b78" d="m856.64 467.83-10.56-55.18-68.75-18.79-49.83 19.96 3.52 54.01h125.62z"/><path d="M713.16 430.94c19.84-5.39 40.88-7.67 62.54-6.32 35.37 2.21 67.9 13.83 95.34 32.27l12.65 310.75c-36.03 28.71-52.79 24.32-98.02 3.75-40.59-18.46-101.74-62.89-130.67-84.41l58.17-256.04Z" style="fill:#f06b78"/><path style="fill:#af4c57" d="m849.56 430.84-47.07 26.57 49.95-11.54-2.88-15.03z"/><path style="fill:#f06b78" d="m556.22 679.54 98.77 7.44 58.13-157.11-156.9 149.67z"/><path style="fill:#f06b78" d="m713.16 430.94-39.04 39.96v166.72l39.04-206.68z"/><path style="fill:#af4c57" d="m674.12 567.08-32.03 115.21 25 9.08 7.03-124.29z"/><path style="fill:#4d4d4d" d="m707.98 913.55 18.79 17.21 86.98-17.21H707.98z"/><path style="fill:#fff" d="M642.09 682.29 0 708.22l551.18 361.32 586.24-207.44-495.33-179.81z"/><path d="M478.02 710.3c1.56-25.55 23.54-45 49.1-43.44 25.55 1.56 45 23.54 43.44 49.1l-46.27-2.83" style="fill:#bea693"/><path style="fill:#4d4d4d" d="m586.85 740.6 9.94-22.63-131.73 38.67-35.7-249-178.99 17.71 32.95 203.81 162.18 56.6 141.35-45.16z"/><path style="fill:gray" d="m596.79 717.97-138.93-11.55 7.2 50.22 131.73-38.67z"/><path style="fill:#e5e5e5" d="m573.83 753.89-37.95 143.18 182.07-8.61-22.78-140.31-121.34 5.74z"/><path style="fill:#b2b2b2" d="M626.79 724.24 574.1 862.68l181.98 10.44-8.01-141.92-121.28-6.96z"/><path style="fill:#fff" d="m605.62 737.53-39.4 124.57H727l-14.23-124.57H605.62z"/><g style="clip-path:url(#c)"><path style="fill:none;stroke:gray;stroke-miterlimit:10;stroke-width:9.63px" d="m595.78 834.02 105.39.3"/><path style="fill:none;stroke:gray;stroke-miterlimit:10;stroke-width:4.81px" d="m597.27 815.81 105.4.3M636.08 800.1l70.47.2M601.15 800.01l20.15.05M629.14 784.28l77.45.22M646.61 768.52l62.67.17M603.88 768.4l29.29.08M603.92 752.59l105.4.3"/></g><path style="fill:#f06b78" d="m575.4 512.39 98.72 26.41v28.28l-39.45 38.05-59.27-61.26-4.51-23.47 4.51-8.01z"/><path d="M585.86 543.82c-19.1 12.05-44.35 6.33-56.4-12.77-12.05-19.1-6.33-44.35 12.77-56.4l21.82 34.59" style="fill:#bea693"/><path style="fill:#4d4d4d" d="m581.57 515.23-10.68 5.17-50.11-79.18 26.33-1.42 34.46 75.43z"/><path d="M563.79 476.21c5.67-2.6 12.38-.11 14.98 5.56s.11 12.38-5.56 14.98l-4.71-10.27" style="fill:#bea693"/><path style="fill:#f06b78" d="m876.51 591.57 22.68 200.78-186.03 32.52-6.57-40.37 149.24-55.29 20.68-137.64z"/><path style="fill:#bea693" d="m706.35 783.33-97.73 24.8 10.22 26.83 35.14 9.53 59.2-19.14-6.83-42.02z"/><path style="fill:#af4c57" d="m837.56 735.97-2.78-98.35-56.21 94.22 36.07 12.63 22.92-8.5z"/><path style="fill:#f06b78" d="m871.36 459.61 76.36 44.17 152.25-72.94v26.57l-174.2 122.05-15.89-34.78-38.52-85.07z"/><path style="fill:#af4c57" d="m871.36 459.61 54.41 119.85 15.64-10.96-70.05-108.89z"/><path d="M1083.15 590.42c-8.84 47.03-42.76 87.72-91.65 102.87-70.37 21.81-145.09-17.55-166.9-87.91-17.07-55.08 3.33-112.82 46.75-145.77l83.54 184.48 128.25-53.67Z" style="fill:#f06b78"/><path d="m1083.15 590.42 45.18-14.63 35.42 37.09c2.97 3.11 4.19 7.49 3.26 11.68l-.66 2.98-30.28-22.95s-40.31 22.68-52.91-14.16Z" style="fill:#bea693"/><path style="fill:#1a1a1a" d="m1170.91 632.17 11.33 16.3-17.67-9.05 6.34-7.25z"/><path style="fill:none;stroke:#1a1a1a;stroke-miterlimit:10;stroke-width:9.63px" d="m1075.47 555.15 92.27 80.65"/><circle cx="1126.44" cy="619.59" r="14.46" style="fill:#bea693"/><path d="M530.29 440.71c-.77-16.08.59-36.36 12.63-43.51 24.68-14.66 80.65 33.8 111.96 60.91 66.05 57.19 75.77 89.4 115.55 94.05 40.8 4.77 71.69-24.3 74.34-26.87 37-35.89 41.38-104.65 4.37-165.28" style="fill:none;stroke:#1a1a1a;stroke-miterlimit:10;stroke-width:3.21px"/><circle cx="809.74" cy="366.8" r="70.99" style="fill:#bea693"/><path d="M832 290.45s-30.83 79.31-100.12 69.61c0 0 12.67-87.68 100.12-69.61Z" style="fill:#a9805b"/><path d="m694.15 382.88 56.86-30.45c-4.38 20.74-17.44 36.16-34.11 37.63-8.1.71-15.93-1.98-22.76-7.18Z" style="fill:#a9805b"/><path d="m697.12 356.3 53.9-3.87c-10.43 14.37-25.69 21.71-38.94 17.14-6.44-2.22-11.51-6.96-14.96-13.26Z" style="fill:#a9805b"/><path d="m712.49 404.16 38.53-51.73c4.85 20.64-.41 40.14-14.88 48.56-7.03 4.09-15.26 4.98-23.65 3.17ZM820.24 285.95s-1.4 70.07 68.84 72.21c5.76-40.75-15.59-66.82-68.84-72.21Z" style="fill:#a9805b"/><circle cx="837.41" cy="370.13" r="7.65" style="fill:#332429"/><circle cx="869.59" cy="379.66" r="7.65" style="fill:#332429"/><ellipse cx="738.87" cy="362.73" rx="27.67" ry="16.77" transform="rotate(-86.72 738.826 362.738)" style="fill:#1a1a1a"/><path d="M740.04 342.4s15.93-71.45 91.97-51.95" style="fill:none;stroke:#1a1a1a;stroke-miterlimit:10;stroke-width:6.18px"/><path d="M1124.29 489.48c-7.42 21.34-30.73 32.63-52.08 25.21l26.88-77.29c21.34 7.42 32.62 30.74 25.2 52.08Z" style="fill:#bea693"/><path style="fill:#5a77a8" d="m1118.05 413.49-44.48 110.86-81.13-1.56 32.6-140.8 93.01 31.5z"/><path style="fill:#2c436b" d="m1118.05 413.49-1.68-7.22-68.75-45.98-9.14 26.25 79.57 26.95z"/><path style="fill:#e5e5e5" d="m1118.05 413.49-1.68-7.22-70.78-40.15-13.12 18.39 85.58 28.98z"/><path style="fill:#fff;stroke:#b8860b;stroke-miterlimit:10;stroke-width:3.6px" d="m1041.66 408.11 45.26 16.3-6.41 17.66-44.4-10.03 5.55-23.93z"/><path style="fill:#fff" d="m1043.81 368.61 53.68 30.02-58.06-23.87 4.38-6.15zM1035.93 379.66l38.89 13.53-40.13-11.79 1.24-1.74z"/><path style="fill:none;stroke:#1a1a1a;stroke-miterlimit:10;stroke-width:2.41px" d="m1047.4 423.53 27.32 7.58"/><path d="m642.09 682.29-71.54 33.67s-3.64-25.93-14.33-36.42l66.28-18.99 19.58 21.75Z" style="fill:#f06b78"/><path style="fill:#2c436b" d="m1539 504.97-7.36 88.31 22.99-98.34-15.63 10.03zM1518.11 518.38l-17.9 98.8 8.21-4.22 28.89-106.91-19.2 12.33zM1489.11 575.79v47.08l10.61-5.44v-87.24l-226.86 145.63 13.79 50.89 186.37-95.59 16.09-55.33z"/></svg>