<?xml version="1.0" encoding="UTF-8"?>
<svg id="Layer_1" data-name="Layer 1" xmlns="http://www.w3.org/2000/svg" viewBox="0 0 1785 438.02">
  <g>
    <path d="m94.09,189.23C22.72,139.75,4.61,105.25,6.56,66.64,8.46,28.92,43.5,9.96,83.1,0h.04c-20.28,11.06-32.82,24.56-32.82,49.31,0,32.42,17.5,52.9,82.14,95.56l18.84,12.51c38.08,25.35,62.21,46.66,77.04,66.98,0,0,.02-112.04.02-126.15,0-17.77,53.96-33.2,61.78-35.1-13.23,3.09-19.15,23.68-19.15,34.09l2.32,301.33h-133.62c9.65-3.3,14.36-6.8,14.36-6.8,31.97-18.4,47.75-53.39,47.75-79.07,0-39.24-19.53-62-77.43-102.37l-30.29-21.05"/>
    <path d="m0,398.51h62.06c-26.11-8.17-47.01-25.24-56.19-52.32-2.76-8.16-5.63-21.17-5.88-23.03.15,2.38,0,75.36,0,75.36Z"/>
    <circle cx="250.62" cy="39.57" r="18.69"/>
  </g>
  <g>
    <path d="m455.73,138.53c-5.25-3.81-11.97-5.72-20.15-5.72-3.32,0-6.58.33-9.79,1-3.21.66-6.05,1.77-8.54,3.32-2.49,1.55-4.48,3.62-5.97,6.22-1.49,2.6-2.24,5.83-2.24,9.7,0,3.65,1.08,6.61,3.23,8.87,2.16,2.27,5.03,4.12,8.62,5.56,3.59,1.44,7.66,2.63,12.19,3.57,4.53.94,9.15,1.96,13.85,3.07,4.7,1.11,9.31,2.4,13.85,3.9,4.53,1.49,8.6,3.51,12.19,6.05,3.59,2.54,6.47,5.75,8.62,9.62,2.16,3.87,3.23,8.74,3.23,14.6,0,6.3-1.41,11.69-4.23,16.17-2.82,4.48-6.44,8.13-10.86,10.95-4.42,2.82-9.37,4.87-14.84,6.14-5.47,1.27-10.92,1.91-16.34,1.91-6.63,0-12.91-.83-18.82-2.49-5.92-1.66-11.11-4.17-15.59-7.55-4.48-3.37-8.02-7.68-10.61-12.94-2.6-5.25-3.9-11.47-3.9-18.66h14.93c0,4.98.97,9.26,2.9,12.85,1.93,3.59,4.48,6.55,7.63,8.87,3.15,2.32,6.83,4.04,11.03,5.14,4.2,1.11,8.51,1.66,12.94,1.66,3.54,0,7.1-.33,10.7-1,3.59-.66,6.83-1.8,9.7-3.4,2.87-1.6,5.2-3.79,6.97-6.55,1.77-2.76,2.65-6.3,2.65-10.61,0-4.09-1.08-7.41-3.23-9.95-2.16-2.54-5.03-4.62-8.62-6.22-3.59-1.6-7.66-2.9-12.19-3.9-4.54-1-9.15-2.02-13.85-3.07-4.7-1.05-9.32-2.27-13.85-3.65-4.54-1.38-8.6-3.21-12.19-5.47-3.59-2.27-6.47-5.2-8.62-8.79-2.16-3.59-3.23-8.1-3.23-13.52,0-5.97,1.22-11.14,3.65-15.51,2.43-4.37,5.67-7.96,9.7-10.78,4.04-2.82,8.62-4.92,13.77-6.3,5.14-1.38,10.42-2.07,15.84-2.07,6.08,0,11.72.72,16.92,2.16,5.2,1.44,9.76,3.71,13.68,6.8,3.92,3.1,7.02,6.99,9.29,11.69,2.26,4.7,3.51,10.31,3.73,16.83h-14.93c-.89-8.51-3.95-14.68-9.21-18.49Z"/>
    <path d="m541.56,155.04v12.44h-17.08v53.24c0,1.66.14,2.99.41,3.98.27,1,.8,1.77,1.58,2.32.77.55,1.85.91,3.23,1.08,1.38.17,3.18.25,5.39.25h6.47v12.44h-10.78c-3.65,0-6.77-.25-9.37-.75-2.6-.5-4.7-1.41-6.3-2.74-1.6-1.33-2.79-3.21-3.57-5.64-.77-2.43-1.16-5.64-1.16-9.62v-54.57h-14.6v-12.44h14.6v-25.71h14.1v25.71h17.08Z"/>
    <path d="m636.42,240.45c-2.43,1.44-5.81,2.16-10.12,2.16-3.65,0-6.55-1.02-8.71-3.07-2.16-2.04-3.23-5.39-3.23-10.03-3.87,4.64-8.38,7.99-13.52,10.03-5.14,2.04-10.7,3.07-16.67,3.07-3.87,0-7.55-.44-11.03-1.33s-6.5-2.27-9.04-4.15c-2.54-1.88-4.56-4.34-6.05-7.38-1.49-3.04-2.24-6.72-2.24-11.03,0-4.86.83-8.84,2.49-11.94,1.66-3.09,3.84-5.61,6.55-7.55,2.71-1.93,5.81-3.4,9.29-4.4s7.05-1.82,10.7-2.49c3.87-.77,7.55-1.35,11.03-1.74,3.48-.39,6.55-.94,9.21-1.66,2.65-.72,4.75-1.77,6.3-3.15,1.55-1.38,2.32-3.4,2.32-6.05,0-3.09-.58-5.58-1.74-7.46-1.16-1.88-2.65-3.32-4.48-4.31-1.82-1-3.87-1.66-6.14-1.99-2.27-.33-4.51-.5-6.72-.5-5.97,0-10.95,1.13-14.93,3.4-3.98,2.27-6.14,6.55-6.47,12.85h-14.1c.22-5.31,1.33-9.79,3.32-13.43s4.64-6.61,7.96-8.87c3.32-2.27,7.1-3.9,11.36-4.89,4.26-1,8.82-1.49,13.68-1.49,3.87,0,7.71.28,11.53.83,3.81.55,7.27,1.68,10.37,3.39,3.09,1.71,5.58,4.11,7.46,7.2,1.88,3.09,2.82,7.12,2.82,12.08v44.02c0,3.31.19,5.74.58,7.28.39,1.54,1.68,2.32,3.9,2.32,1.22,0,2.65-.22,4.31-.66v10.95Zm-22.89-43.95c-1.77,1.32-4.09,2.28-6.97,2.89-2.88.61-5.89,1.1-9.04,1.48-3.15.39-6.33.83-9.54,1.32-3.21.49-6.08,1.29-8.62,2.39-2.54,1.1-4.62,2.67-6.22,4.7-1.6,2.04-2.41,4.81-2.41,8.33,0,2.31.47,4.26,1.41,5.86.94,1.6,2.16,2.89,3.65,3.88,1.49.99,3.23,1.71,5.22,2.15s4.09.66,6.3.66c4.64,0,8.62-.63,11.94-1.9,3.32-1.26,6.02-2.86,8.13-4.79,2.1-1.93,3.65-4.02,4.64-6.27,1-2.25,1.49-4.37,1.49-6.35v-14.36Z"/>
    <path d="m689.49,155.04v12.44h-17.08v53.24c0,1.66.14,2.99.41,3.98.27,1,.8,1.77,1.58,2.32.77.55,1.85.91,3.23,1.08,1.38.17,3.18.25,5.39.25h6.47v12.44h-10.78c-3.65,0-6.77-.25-9.37-.75-2.6-.5-4.7-1.41-6.3-2.74-1.6-1.33-2.79-3.21-3.57-5.64-.77-2.43-1.16-5.64-1.16-9.62v-54.57h-14.6v-12.44h14.6v-25.71h14.1v25.71h17.08Z"/>
    <path d="m769.1,235.31c-6.41,4.87-14.49,7.3-24.21,7.3-6.86,0-12.8-1.11-17.83-3.32-5.03-2.21-9.26-5.31-12.69-9.29-3.43-3.98-6-8.73-7.71-14.26-1.72-5.53-2.68-11.55-2.9-18.08,0-6.52,1-12.49,2.99-17.91,1.99-5.42,4.78-10.12,8.38-14.1,3.59-3.98,7.85-7.07,12.77-9.29,4.92-2.21,10.31-3.32,16.17-3.32,7.63,0,13.96,1.58,18.99,4.73,5.03,3.15,9.07,7.16,12.11,12.02,3.04,4.87,5.14,10.17,6.3,15.92,1.16,5.75,1.63,11.22,1.41,16.42h-64.19c-.11,3.76.33,7.33,1.33,10.7,1,3.37,2.6,6.36,4.81,8.96,2.21,2.6,5.03,4.67,8.46,6.22,3.43,1.55,7.46,2.32,12.11,2.32,5.97,0,10.86-1.38,14.68-4.15,3.81-2.76,6.33-6.97,7.55-12.6h13.93c-1.88,9.62-6.03,16.86-12.44,21.73Zm-3.4-55.06c-1.27-2.99-2.99-5.56-5.14-7.71-2.16-2.16-4.7-3.87-7.63-5.14-2.93-1.27-6.17-1.91-9.7-1.91s-6.94.64-9.87,1.91c-2.93,1.27-5.45,3.01-7.55,5.22-2.1,2.21-3.76,4.78-4.98,7.71-1.22,2.93-1.94,6.05-2.16,9.37h49.26c-.22-3.32-.97-6.47-2.24-9.45Z"/>
    <path d="m814.05,155.04v13.6h.33c5.86-10.39,15.15-15.59,27.86-15.59,5.64,0,10.34.77,14.1,2.32,3.76,1.55,6.8,3.71,9.12,6.47,2.32,2.77,3.95,6.05,4.89,9.87.94,3.81,1.41,8.04,1.41,12.69v56.39h-14.1v-58.05c0-5.31-1.55-9.51-4.64-12.6-3.1-3.09-7.35-4.64-12.77-4.64-4.31,0-8.04.66-11.2,1.99-3.15,1.33-5.78,3.21-7.88,5.64-2.1,2.43-3.68,5.28-4.73,8.54-1.05,3.26-1.58,6.83-1.58,10.7v48.43h-14.1v-85.75h13.27Z"/>
    <path d="m907.09,221.63c1.33,2.16,3.07,3.87,5.22,5.14,2.16,1.27,4.59,2.18,7.3,2.74,2.71.55,5.5.83,8.38.83,2.21,0,4.53-.17,6.97-.5,2.43-.33,4.67-.94,6.72-1.82,2.04-.88,3.73-2.18,5.06-3.9,1.33-1.71,1.99-3.9,1.99-6.55,0-3.65-1.38-6.41-4.15-8.29-2.76-1.88-6.22-3.4-10.37-4.56-4.15-1.16-8.65-2.21-13.52-3.15-4.87-.94-9.37-2.27-13.52-3.98-4.15-1.71-7.6-4.12-10.37-7.21-2.77-3.09-4.15-7.41-4.15-12.94,0-4.31.97-8.02,2.9-11.11,1.93-3.09,4.42-5.61,7.46-7.55,3.04-1.93,6.47-3.37,10.28-4.31,3.81-.94,7.6-1.41,11.36-1.41,4.86,0,9.34.41,13.43,1.24,4.09.83,7.71,2.27,10.86,4.31,3.15,2.05,5.67,4.81,7.55,8.29,1.88,3.48,2.99,7.82,3.32,13.02h-14.1c-.22-2.76-.94-5.06-2.16-6.88-1.22-1.82-2.76-3.29-4.64-4.4-1.88-1.1-3.95-1.91-6.22-2.41-2.27-.5-4.56-.75-6.88-.75-2.1,0-4.23.17-6.39.5-2.16.33-4.12.91-5.89,1.74-1.77.83-3.21,1.94-4.31,3.32-1.11,1.38-1.66,3.18-1.66,5.39,0,2.43.86,4.45,2.57,6.05,1.71,1.6,3.9,2.93,6.55,3.98,2.65,1.05,5.64,1.94,8.96,2.65,3.32.72,6.63,1.47,9.95,2.24,3.54.77,6.99,1.72,10.37,2.82,3.37,1.11,6.36,2.57,8.96,4.4,2.6,1.82,4.7,4.12,6.3,6.88,1.6,2.77,2.4,6.19,2.4,10.28,0,5.2-1.08,9.51-3.23,12.94-2.16,3.43-4.98,6.19-8.46,8.29-3.48,2.1-7.41,3.57-11.78,4.4-4.37.83-8.71,1.24-13.02,1.24-4.76,0-9.29-.5-13.6-1.49-4.31-1-8.13-2.62-11.44-4.89-3.32-2.27-5.97-5.25-7.96-8.96-1.99-3.7-3.1-8.21-3.32-13.52h14.1c.11,3.1.83,5.72,2.16,7.88Z"/>
    <path d="m394.94,295.07v-17.25h14.1v17.25h-14.1Zm14.1,15.42v85.75h-14.1v-85.75h14.1Z"/>
    <path d="m447.52,310.5v13.6h.33c5.86-10.39,15.15-15.59,27.86-15.59,5.64,0,10.34.77,14.1,2.32,3.76,1.55,6.8,3.71,9.12,6.47,2.32,2.77,3.95,6.05,4.89,9.87.94,3.81,1.41,8.04,1.41,12.69v56.39h-14.1v-58.05c0-5.31-1.55-9.51-4.64-12.6-3.1-3.09-7.35-4.64-12.77-4.64-4.31,0-8.04.66-11.19,1.99-3.15,1.33-5.78,3.21-7.88,5.64-2.1,2.43-3.68,5.28-4.73,8.54-1.05,3.26-1.58,6.83-1.58,10.7v48.43h-14.1v-85.75h13.27Z"/>
    <path d="m543.05,310.5v13.6h.33c5.86-10.39,15.15-15.59,27.86-15.59,5.64,0,10.34.77,14.1,2.32,3.76,1.55,6.8,3.71,9.12,6.47,2.32,2.77,3.95,6.05,4.89,9.87.94,3.81,1.41,8.04,1.41,12.69v56.39h-14.1v-58.05c0-5.31-1.55-9.51-4.64-12.6-3.1-3.09-7.35-4.64-12.77-4.64-4.31,0-8.04.66-11.19,1.99-3.15,1.33-5.78,3.21-7.88,5.64-2.1,2.43-3.68,5.28-4.73,8.54-1.05,3.26-1.58,6.83-1.58,10.7v48.43h-14.1v-85.75h13.27Z"/>
    <path d="m640.24,277.82v70.16l39.14-37.48h18.91l-34,31.18,36.49,54.57h-17.91l-29.36-44.78-13.27,12.27v32.51h-14.1v-118.42h14.1Z"/>
    <path d="m727.48,310.5v18.08h.33c3.43-6.97,7.63-12.11,12.6-15.42,4.98-3.32,11.28-4.86,18.91-4.64v14.93c-5.64,0-10.45.77-14.43,2.32-3.98,1.55-7.19,3.81-9.62,6.8-2.43,2.99-4.2,6.61-5.31,10.86-1.11,4.26-1.66,9.15-1.66,14.68v38.15h-14.1v-85.75h13.27Z"/>
    <path d="m833.96,390.77c-6.41,4.87-14.49,7.3-24.21,7.3-6.86,0-12.8-1.11-17.83-3.32-5.03-2.21-9.26-5.31-12.69-9.29-3.43-3.98-6-8.73-7.71-14.26-1.72-5.53-2.68-11.55-2.9-18.08,0-6.52,1-12.49,2.99-17.91,1.99-5.42,4.78-10.12,8.38-14.1,3.59-3.98,7.85-7.07,12.77-9.29,4.92-2.21,10.31-3.32,16.17-3.32,7.63,0,13.96,1.58,18.99,4.73,5.03,3.15,9.07,7.16,12.11,12.02,3.04,4.87,5.14,10.17,6.3,15.92,1.16,5.75,1.63,11.22,1.41,16.42h-64.19c-.11,3.76.33,7.33,1.33,10.7,1,3.37,2.6,6.36,4.81,8.96,2.21,2.6,5.03,4.67,8.46,6.22,3.43,1.55,7.46,2.32,12.11,2.32,5.97,0,10.86-1.38,14.68-4.15,3.81-2.76,6.33-6.97,7.55-12.6h13.93c-1.88,9.62-6.03,16.86-12.44,21.73Zm-3.4-55.06c-1.27-2.99-2.99-5.56-5.14-7.71-2.16-2.16-4.7-3.87-7.63-5.14-2.93-1.27-6.17-1.91-9.7-1.91s-6.94.64-9.87,1.91c-2.93,1.27-5.45,3.01-7.55,5.22-2.1,2.21-3.76,4.78-4.98,7.71-1.22,2.93-1.94,6.05-2.16,9.37h49.26c-.22-3.32-.97-6.47-2.24-9.45Z"/>
    <path d="m889.18,396.24l-31.84-85.75h15.76l24.05,71.48h.33l23.39-71.48h14.76l-31.35,85.75h-15.09Z"/>
    <path d="m952.71,295.07v-17.25h14.1v17.25h-14.1Zm14.1,15.42v85.75h-14.1v-85.75h14.1Z"/>
    <path d="m1005.28,310.5v13.6h.33c5.86-10.39,15.15-15.59,27.86-15.59,5.64,0,10.34.77,14.1,2.32,3.76,1.55,6.8,3.71,9.12,6.47,2.32,2.77,3.95,6.05,4.89,9.87.94,3.81,1.41,8.04,1.41,12.69v56.39h-14.1v-58.05c0-5.31-1.55-9.51-4.64-12.6-3.1-3.09-7.35-4.64-12.77-4.64-4.31,0-8.04.66-11.2,1.99-3.15,1.33-5.78,3.21-7.88,5.64-2.1,2.43-3.68,5.28-4.73,8.54-1.05,3.26-1.58,6.83-1.58,10.7v48.43h-14.1v-85.75h13.27Z"/>
    <path d="m1151.89,420.46c-6.41,6.97-16.48,10.45-30.19,10.45-3.98,0-8.04-.44-12.19-1.33-4.15-.89-7.91-2.32-11.28-4.31-3.37-1.99-6.17-4.59-8.38-7.79-2.21-3.21-3.43-7.13-3.65-11.78h14.1c.11,2.54.91,4.7,2.4,6.47,1.49,1.77,3.32,3.21,5.47,4.31,2.16,1.1,4.5,1.91,7.05,2.4,2.54.5,4.98.75,7.3.75,4.64,0,8.57-.8,11.78-2.4,3.21-1.6,5.86-3.81,7.96-6.63,2.1-2.82,3.62-6.22,4.56-10.2.94-3.98,1.41-8.35,1.41-13.1v-5.64h-.33c-2.43,5.31-6.11,9.21-11.03,11.69-4.92,2.49-10.15,3.73-15.67,3.73-6.41,0-12-1.16-16.75-3.48-4.76-2.32-8.74-5.44-11.94-9.37-3.21-3.92-5.61-8.51-7.21-13.77-1.6-5.25-2.41-10.81-2.41-16.67,0-5.08.66-10.31,1.99-15.67,1.33-5.36,3.54-10.23,6.63-14.6,3.09-4.37,7.19-7.96,12.27-10.78,5.08-2.82,11.33-4.23,18.74-4.23,5.42,0,10.39,1.19,14.93,3.57,4.53,2.38,8.07,5.94,10.61,10.7h.17v-12.27h13.27v78.45c0,14.04-3.21,24.55-9.62,31.51Zm-18-38.56c3.26-1.93,5.89-4.48,7.88-7.63,1.99-3.15,3.45-6.72,4.39-10.7.94-3.98,1.41-7.96,1.41-11.94,0-3.76-.44-7.46-1.33-11.11-.89-3.65-2.3-6.94-4.23-9.87-1.94-2.93-4.45-5.28-7.55-7.05-3.1-1.77-6.86-2.65-11.28-2.65s-8.4.86-11.61,2.57c-3.21,1.72-5.83,4.01-7.88,6.88-2.05,2.88-3.54,6.19-4.48,9.95-.94,3.76-1.41,7.69-1.41,11.78,0,3.87.39,7.74,1.16,11.61.77,3.87,2.1,7.38,3.98,10.53,1.88,3.15,4.37,5.7,7.46,7.63,3.09,1.94,6.97,2.9,11.61,2.9s8.6-.97,11.86-2.9Z"/>
    <path d="m1196.84,377.09c1.33,2.16,3.07,3.87,5.22,5.14,2.16,1.27,4.59,2.18,7.3,2.74,2.71.55,5.5.83,8.38.83,2.21,0,4.53-.17,6.97-.5,2.43-.33,4.67-.94,6.72-1.82,2.04-.88,3.73-2.18,5.06-3.9,1.33-1.71,1.99-3.9,1.99-6.55,0-3.65-1.38-6.41-4.15-8.29-2.76-1.88-6.22-3.4-10.37-4.56-4.15-1.16-8.65-2.21-13.52-3.15-4.87-.94-9.37-2.27-13.52-3.98-4.15-1.71-7.6-4.12-10.37-7.21-2.77-3.09-4.15-7.41-4.15-12.94,0-4.31.97-8.02,2.9-11.11,1.93-3.09,4.42-5.61,7.46-7.55,3.04-1.93,6.47-3.37,10.28-4.31,3.81-.94,7.6-1.41,11.36-1.41,4.86,0,9.34.41,13.43,1.24,4.09.83,7.71,2.27,10.86,4.31,3.15,2.05,5.67,4.81,7.55,8.29,1.88,3.48,2.99,7.82,3.32,13.02h-14.1c-.22-2.76-.94-5.06-2.16-6.88-1.22-1.82-2.76-3.29-4.64-4.4-1.88-1.1-3.95-1.91-6.22-2.41-2.27-.5-4.56-.75-6.88-.75-2.1,0-4.23.17-6.39.5-2.16.33-4.12.91-5.89,1.74-1.77.83-3.21,1.94-4.31,3.32-1.11,1.38-1.66,3.18-1.66,5.39,0,2.43.86,4.45,2.57,6.05,1.71,1.6,3.9,2.93,6.55,3.98,2.65,1.05,5.64,1.94,8.96,2.65,3.32.72,6.63,1.47,9.95,2.24,3.54.77,6.99,1.72,10.37,2.82,3.37,1.11,6.36,2.57,8.96,4.4,2.6,1.82,4.7,4.12,6.3,6.88,1.6,2.77,2.4,6.19,2.4,10.28,0,5.2-1.08,9.51-3.23,12.94-2.16,3.43-4.98,6.19-8.46,8.29-3.48,2.1-7.41,3.57-11.78,4.4-4.37.83-8.71,1.24-13.02,1.24-4.76,0-9.29-.5-13.6-1.49-4.31-1-8.13-2.62-11.44-4.89-3.32-2.27-5.97-5.25-7.96-8.96-1.99-3.7-3.1-8.21-3.32-13.52h14.1c.11,3.1.83,5.72,2.16,7.88Z"/>
    <path d="m1283.08,377.09c1.33,2.16,3.07,3.87,5.22,5.14,2.16,1.27,4.59,2.18,7.3,2.74,2.71.55,5.5.83,8.38.83,2.21,0,4.53-.17,6.97-.5,2.43-.33,4.67-.94,6.72-1.82,2.04-.88,3.73-2.18,5.06-3.9,1.33-1.71,1.99-3.9,1.99-6.55,0-3.65-1.38-6.41-4.15-8.29-2.76-1.88-6.22-3.4-10.37-4.56-4.15-1.16-8.65-2.21-13.52-3.15-4.87-.94-9.37-2.27-13.52-3.98-4.15-1.71-7.6-4.12-10.37-7.21-2.77-3.09-4.15-7.41-4.15-12.94,0-4.31.97-8.02,2.9-11.11,1.93-3.09,4.42-5.61,7.46-7.55,3.04-1.93,6.47-3.37,10.28-4.31,3.81-.94,7.6-1.41,11.36-1.41,4.86,0,9.34.41,13.43,1.24,4.09.83,7.71,2.27,10.86,4.31,3.15,2.05,5.67,4.81,7.55,8.29,1.88,3.48,2.99,7.82,3.32,13.02h-14.1c-.22-2.76-.94-5.06-2.16-6.88-1.22-1.82-2.76-3.29-4.64-4.4-1.88-1.1-3.95-1.91-6.22-2.41-2.27-.5-4.56-.75-6.88-.75-2.1,0-4.23.17-6.39.5-2.16.33-4.12.91-5.89,1.74-1.77.83-3.21,1.94-4.31,3.32-1.11,1.38-1.66,3.18-1.66,5.39,0,2.43.86,4.45,2.57,6.05,1.71,1.6,3.9,2.93,6.55,3.98,2.65,1.05,5.64,1.94,8.96,2.65,3.32.72,6.63,1.47,9.95,2.24,3.54.77,6.99,1.72,10.37,2.82,3.37,1.11,6.36,2.57,8.96,4.4,2.6,1.82,4.7,4.12,6.3,6.88,1.6,2.77,2.4,6.19,2.4,10.28,0,5.2-1.08,9.51-3.23,12.94-2.16,3.43-4.98,6.19-8.46,8.29-3.48,2.1-7.41,3.57-11.78,4.4-4.37.83-8.71,1.24-13.02,1.24-4.76,0-9.29-.5-13.6-1.49-4.31-1-8.13-2.62-11.44-4.89-3.32-2.27-5.97-5.25-7.96-8.96-1.99-3.7-3.1-8.21-3.32-13.52h14.1c.11,3.1.83,5.72,2.16,7.88Z"/>
    <path d="m1419.25,390.77c-6.41,4.87-14.49,7.3-24.21,7.3-6.86,0-12.8-1.11-17.83-3.32-5.03-2.21-9.26-5.31-12.69-9.29-3.43-3.98-6-8.73-7.71-14.26-1.72-5.53-2.68-11.55-2.9-18.08,0-6.52,1-12.49,2.99-17.91,1.99-5.42,4.78-10.12,8.38-14.1,3.59-3.98,7.85-7.07,12.77-9.29,4.92-2.21,10.31-3.32,16.17-3.32,7.63,0,13.96,1.58,18.99,4.73,5.03,3.15,9.07,7.16,12.11,12.02,3.04,4.87,5.14,10.17,6.3,15.92,1.16,5.75,1.63,11.22,1.41,16.42h-64.19c-.11,3.76.33,7.33,1.33,10.7,1,3.37,2.6,6.36,4.81,8.96,2.21,2.6,5.03,4.67,8.46,6.22,3.43,1.55,7.46,2.32,12.11,2.32,5.97,0,10.86-1.38,14.68-4.15,3.81-2.76,6.33-6.97,7.55-12.6h13.93c-1.88,9.62-6.03,16.86-12.44,21.73Zm-3.4-55.06c-1.27-2.99-2.99-5.56-5.14-7.71-2.16-2.16-4.7-3.87-7.63-5.14-2.93-1.27-6.17-1.91-9.7-1.91s-6.94.64-9.87,1.91c-2.93,1.27-5.45,3.01-7.55,5.22-2.1,2.21-3.76,4.78-4.98,7.71-1.22,2.93-1.94,6.05-2.16,9.37h49.26c-.22-3.32-.97-6.47-2.24-9.45Z"/>
    <path d="m1464.19,310.5v13.6h.33c5.86-10.39,15.15-15.59,27.86-15.59,5.64,0,10.34.77,14.1,2.32,3.76,1.55,6.8,3.71,9.12,6.47,2.32,2.77,3.95,6.05,4.89,9.87.94,3.81,1.41,8.04,1.41,12.69v56.39h-14.1v-58.05c0-5.31-1.55-9.51-4.64-12.6-3.1-3.09-7.35-4.64-12.77-4.64-4.31,0-8.04.66-11.2,1.99-3.15,1.33-5.78,3.21-7.88,5.64-2.1,2.43-3.68,5.28-4.73,8.54-1.05,3.26-1.58,6.83-1.58,10.7v48.43h-14.1v-85.75h13.27Z"/>
    <path d="m1583.11,310.5v12.44h-17.08v53.24c0,1.66.14,2.99.42,3.98.27,1,.8,1.77,1.58,2.32.77.55,1.85.91,3.23,1.08,1.38.17,3.18.25,5.39.25h6.47v12.44h-10.78c-3.65,0-6.77-.25-9.37-.75-2.6-.5-4.7-1.41-6.3-2.74-1.6-1.33-2.79-3.21-3.57-5.64-.78-2.43-1.16-5.64-1.16-9.62v-54.57h-14.59v-12.44h14.59v-25.71h14.1v25.71h17.08Z"/>
    <path d="m1614.79,310.5v18.08h.33c3.43-6.97,7.63-12.11,12.61-15.42,4.98-3.32,11.28-4.86,18.91-4.64v14.93c-5.64,0-10.45.77-14.43,2.32-3.98,1.55-7.19,3.81-9.62,6.8-2.43,2.99-4.2,6.61-5.31,10.86-1.11,4.26-1.66,9.15-1.66,14.68v38.15h-14.1v-85.75h13.27Z"/>
    <path d="m1736.52,395.91c-2.43,1.44-5.8,2.16-10.12,2.16-3.65,0-6.55-1.02-8.71-3.07-2.16-2.04-3.23-5.39-3.23-10.03-3.87,4.64-8.38,7.99-13.52,10.03-5.14,2.04-10.7,3.07-16.67,3.07-3.87,0-7.55-.44-11.03-1.33-3.48-.88-6.5-2.27-9.04-4.15-2.54-1.88-4.56-4.34-6.05-7.38-1.49-3.04-2.24-6.72-2.24-11.03,0-4.86.83-8.84,2.49-11.94,1.66-3.09,3.84-5.61,6.55-7.55,2.71-1.93,5.8-3.4,9.29-4.4,3.48-1,7.05-1.82,10.7-2.49,3.87-.77,7.55-1.35,11.03-1.74,3.48-.39,6.55-.94,9.21-1.66,2.65-.72,4.75-1.77,6.3-3.15,1.55-1.38,2.32-3.4,2.32-6.05,0-3.09-.58-5.58-1.74-7.46-1.16-1.88-2.65-3.32-4.48-4.31-1.83-1-3.87-1.66-6.14-1.99-2.27-.33-4.51-.5-6.72-.5-5.97,0-10.95,1.13-14.93,3.4-3.98,2.27-6.14,6.55-6.47,12.85h-14.1c.22-5.31,1.33-9.79,3.32-13.43s4.64-6.61,7.96-8.87c3.32-2.27,7.1-3.9,11.36-4.89,4.26-1,8.82-1.49,13.68-1.49,3.87,0,7.71.28,11.53.83,3.81.55,7.27,1.68,10.37,3.39,3.09,1.71,5.58,4.11,7.46,7.2,1.88,3.09,2.82,7.12,2.82,12.08v44.02c0,3.31.19,5.74.58,7.28.39,1.54,1.68,2.32,3.9,2.32,1.22,0,2.65-.22,4.31-.66v10.95Zm-22.89-43.95c-1.77,1.32-4.09,2.28-6.97,2.89-2.88.61-5.89,1.1-9.04,1.48-3.15.39-6.33.83-9.54,1.32-3.21.49-6.08,1.29-8.62,2.39-2.54,1.1-4.62,2.67-6.22,4.7-1.6,2.04-2.41,4.81-2.41,8.33,0,2.31.47,4.26,1.41,5.86.94,1.6,2.16,2.89,3.65,3.88,1.49.99,3.23,1.71,5.22,2.15s4.09.66,6.3.66c4.64,0,8.62-.63,11.94-1.9s6.03-2.86,8.13-4.79c2.1-1.93,3.65-4.02,4.64-6.27,1-2.25,1.49-4.37,1.49-6.35v-14.36Z"/>
    <path d="m1767.87,277.82v118.42h-14.1v-118.42h14.1Z"/>
  </g>
</svg>